<svg width="69" height="49" viewBox="0 0 69 49" fill="none" xmlns="http://www.w3.org/2000/svg">
<path d="M2.06682e-06 8.75461C4.08588 12.012 7.9772 11.5789 10.8169 11.2656C13.3648 10.9846 14.56 10.9109 16.1814 12.2009C17.7981 13.491 17.9927 14.6659 18.2706 17.2045C18.581 20.0288 19.0072 23.899 23.0931 27.1565C27.179 30.4139 31.0703 29.9808 33.91 29.6675C36.4579 29.3864 37.6531 29.3127 39.2744 30.6028C40.8912 31.8928 41.0858 33.0677 41.3637 35.6018C41.6741 38.4261 42.1003 42.2963 46.1861 45.5537C50.272 48.8111 54.1633 48.378 57.003 48.0647C59.5509 47.7837 60.7461 47.7099 62.3675 49L67 43.2454C62.9141 39.988 59.0228 40.4211 56.1831 40.7344C53.6352 41.0154 52.44 41.0891 50.8186 39.7991C49.2019 38.509 49.0073 37.3341 48.7294 34.8001C48.419 31.9758 47.9928 28.1056 43.9069 24.8482C39.8211 21.5907 35.9297 22.0238 33.09 22.3371C30.5421 22.6182 29.347 22.6919 27.7256 21.4018C26.1042 20.1118 25.9143 18.9369 25.6363 16.3982C25.3259 13.5739 24.8997 9.70372 20.8139 6.44631C16.728 3.1889 12.8367 3.62199 9.99697 3.9353C7.44909 4.21635 6.25389 4.29006 4.63251 3L2.06682e-06 8.75461Z" fill="#FEEAA6" fill-opacity="0.4"/>
<path d="M4.32834 2.86229C3.04422 4.45745 3.28604 6.87466 5.18707 7.63596C8.0718 8.79118 10.7287 8.49602 12.8169 8.26563C15.3648 7.98458 16.56 7.91086 18.1814 9.20092C19.7981 10.491 19.9927 11.6659 20.2706 14.2045C20.581 17.0288 21.0072 20.899 25.0931 24.1565C29.1789 27.4139 33.0703 26.9808 35.91 26.6675C38.4579 26.3864 39.653 26.3127 41.2744 27.6028C42.8912 28.8928 43.0857 30.0677 43.3637 32.6018C43.6741 35.4261 44.1003 39.2963 48.1861 42.5537C52.272 45.8111 56.1633 45.378 59.003 45.0647C59.7582 44.9814 60.3945 44.9163 60.9583 44.8996C62.9901 44.8391 65.397 44.7211 66.6717 43.1377V43.1377C67.9558 41.5425 67.714 39.1253 65.8129 38.364C62.9282 37.2088 60.2713 37.504 58.1831 37.7344C55.6352 38.0154 54.44 38.0891 52.8186 36.7991C51.2019 35.509 51.0073 34.3341 50.7294 31.8001C50.419 28.9758 49.9928 25.1056 45.9069 21.8482C41.821 18.5907 37.9297 19.0238 35.09 19.3371C32.5421 19.6182 31.3469 19.6919 29.7256 18.4018C28.1042 17.1118 27.9142 15.9369 27.6363 13.3982C27.3259 10.5739 26.8997 6.70373 22.8139 3.44631C18.728 0.188902 14.8367 0.621996 11.997 0.935298C11.2418 1.01859 10.6055 1.08368 10.0417 1.10044C8.00988 1.16087 5.60302 1.27886 4.32834 2.86229V2.86229Z" fill="url(#paint0_linear_573_8718)" fill-opacity="0.5"/>
<defs>
<linearGradient id="paint0_linear_573_8718" x1="35.5" y1="0" x2="35.5" y2="46" gradientUnits="userSpaceOnUse">
<stop stop-color="#FFE176"/>
<stop offset="1" stop-color="#FFD646"/>
</linearGradient>
</defs>
</svg>
