<svg width="32" height="32" viewBox="0 0 32 32" fill="none" xmlns="http://www.w3.org/2000/svg">
<path d="M22.213 28.1081L20.2984 20.9628C19.8888 19.4342 20.7991 17.8576 22.3276 17.448L29.473 15.5334C31.0015 15.1238 31.9118 13.5472 31.5023 12.0186C31.0927 10.4901 29.516 9.57981 27.9875 9.98939L20.8422 11.904C19.3136 12.3136 17.737 11.4033 17.3274 9.87474L15.4128 2.72938C15.0032 1.20083 13.4265 0.290549 11.898 0.700123C10.3695 1.1097 9.45917 2.68634 9.86875 4.21489L11.7834 11.3603C12.1929 12.8888 11.2826 14.4655 9.7541 14.875L2.60873 16.7896C1.08018 17.1992 0.169902 18.7758 0.579476 20.3044C0.989049 21.8329 2.5657 22.7432 4.09425 22.3336L11.2396 20.4191C12.7682 20.0095 14.3448 20.9198 14.7544 22.4483L16.669 29.5936C17.0785 31.1222 18.6552 32.0325 20.1837 31.6229C21.7123 31.2133 22.6226 29.6367 22.213 28.1081Z" fill="#FFDC60"/>
</svg>
