<svg width="93" height="65" viewBox="0 0 93 65" fill="none" xmlns="http://www.w3.org/2000/svg">
<path d="M93 10.7562C87.5725 15.1466 82.4034 14.5629 78.6312 14.1406C75.2467 13.7618 73.6591 13.6625 71.5054 15.4012C69.3577 17.14 69.0993 18.7236 68.7301 22.1452C68.3178 25.9519 67.7516 31.1683 62.3241 35.5587C56.8966 39.9491 51.7276 39.3654 47.9554 38.9431C44.5709 38.5643 42.9833 38.4649 40.8295 40.2037C38.6819 41.9425 38.4234 43.526 38.0542 46.9415C37.6419 50.7482 37.0758 55.9645 31.6483 60.355C26.2208 64.7454 21.0517 64.1617 17.2796 63.7394C13.8951 63.3606 12.3074 63.2612 10.1536 65L4 57.2438C9.4275 52.8534 14.5965 53.4371 18.3687 53.8594C21.7532 54.2382 23.3409 54.3375 25.4946 52.5988C27.6423 50.86 27.9007 49.2764 28.2699 45.861C28.6822 42.0543 29.2483 36.8379 34.6758 32.4475C40.1033 28.0571 45.2724 28.6408 49.0446 29.0631C52.4291 29.4419 54.0167 29.5413 56.1705 27.8025C58.3243 26.0637 58.5766 24.4802 58.9458 21.0585C59.3581 17.2518 59.9242 12.0355 65.3517 7.64503C70.7792 3.2546 75.9483 3.83834 79.7204 4.26062C83.1049 4.63942 84.6926 4.73878 86.8464 3L93 10.7562Z" fill="#FFECEC"/>
<path d="M85.902 3.78928C87.6098 5.90707 87.2881 9.11886 84.7615 10.1279C80.9315 11.6575 77.404 11.2663 74.6313 10.9609C71.2468 10.5882 69.6591 10.4905 67.5054 12.2012C65.3577 13.912 65.0993 15.47 64.7301 18.8364C64.3178 22.5817 63.7517 27.7139 58.3242 32.0336C52.8966 36.3532 47.7276 35.7789 43.9554 35.3634C40.5709 34.9907 38.9833 34.8929 36.8295 36.6037C34.6819 38.3144 34.4234 39.8724 34.0542 43.2328C33.6419 46.9781 33.0758 52.1103 27.6483 56.4299C22.2208 60.7495 17.0517 60.1752 13.2796 59.7597C12.2711 59.6487 11.4221 59.562 10.6702 59.5404C7.97709 59.4628 4.78921 59.308 3.09801 57.2107V57.2107C1.39024 55.0929 1.71194 51.8811 4.23847 50.8721C8.06855 49.3425 11.596 49.7337 14.3688 50.0391C17.7533 50.4118 19.3409 50.5095 21.4946 48.7988C23.6423 47.088 23.9007 45.5301 24.2699 42.1697C24.6822 38.4244 25.2484 33.2922 30.6759 28.9726C36.1034 24.6529 41.2724 25.2273 45.0446 25.6427C48.4291 26.0154 50.0167 26.1132 52.1705 24.4024C54.3243 22.6917 54.5766 21.1337 54.9458 17.7672C55.3581 14.0219 55.9242 8.88972 61.3517 4.57011C66.7792 0.2505 71.9483 0.824821 75.7204 1.24029C76.7289 1.35134 77.5779 1.43798 78.3298 1.45964C81.0229 1.53721 84.2108 1.69202 85.902 3.78928V3.78928Z" fill="url(#paint0_linear_573_8719)" fill-opacity="0.5"/>
<defs>
<linearGradient id="paint0_linear_573_8719" x1="44.5" y1="0" x2="44.5" y2="61" gradientUnits="userSpaceOnUse">
<stop stop-color="#F45C37"/>
<stop offset="1" stop-color="#F8481D"/>
</linearGradient>
</defs>
</svg>
