<svg width="36" height="36" viewBox="0 0 36 36" fill="none" xmlns="http://www.w3.org/2000/svg">
<path d="M30.0002 16.5001C29.8052 16.5001 29.6132 16.4235 29.4698 16.2804L26.6897 13.5H22.5001C22.0854 13.5 21.75 13.1641 21.75 12.7499C21.75 12.336 22.0854 12.0001 22.5001 12.0001H27.0001C27.1995 12.0001 27.3901 12.0786 27.5305 12.2198L29.2501 13.9395V12.7499C29.2501 12.336 29.5855 12.0001 30.0002 12.0001H30.75C31.1641 12.0001 31.5001 11.6633 31.5001 11.25V2.25C31.5001 1.83663 31.1642 1.49991 30.75 1.49991H15C14.5869 1.49991 14.2502 1.8367 14.2502 2.25V11.25C14.2502 11.6634 14.5869 12.0001 15 12.0001H16.5002C16.9141 12.0001 17.25 12.336 17.25 12.7499C17.25 13.164 16.9141 13.5 16.5002 13.5H15C13.7597 13.5 12.75 12.4907 12.75 11.25V2.25C12.75 1.00934 13.7597 0 15 0H30.75C31.9907 0 33 1.00934 33 2.25V11.25C33 12.4907 31.9907 13.5 30.75 13.5V15.75C30.75 16.053 30.5679 16.3268 30.2875 16.4429C30.1944 16.4811 30.0969 16.5001 30.0002 16.5001Z" fill="#8C6AD7"/>
<path d="M3.00009 19.4998C2.90313 19.4998 2.80561 19.482 2.7128 19.4429C2.57582 19.3861 2.45876 19.2899 2.37639 19.1666C2.29402 19.0433 2.25004 18.8983 2.25 18.75V16.5C1.00934 16.5 0 15.4903 0 14.25V5.25C0 4.00934 1.00934 3 2.25 3H10.4999C10.914 3 11.25 3.33588 11.25 3.74981C11.25 4.16395 10.9141 4.49991 10.4999 4.49991H2.25C1.83663 4.49991 1.49991 4.8367 1.49991 5.25V14.25C1.49991 14.6631 1.8367 14.9998 2.25 14.9998H3.00009C3.41402 14.9998 3.74991 15.336 3.74991 15.7499V16.9395L5.46982 15.2195C5.53937 15.1498 5.62199 15.0945 5.71296 15.0568C5.80392 15.0191 5.90144 14.9997 5.99991 14.9998H18C18.4139 14.9998 18.7501 14.6631 18.7501 14.25V5.25C18.7501 4.83663 18.4139 4.49991 18 4.49991H16.5001C16.086 4.49991 15.75 4.16402 15.75 3.74981C15.75 3.33588 16.0859 3 16.5001 3H18C19.2407 3 20.25 4.00934 20.25 5.25V14.25C20.25 15.4903 19.2407 16.5 18 16.5H6.31055L3.53018 19.2801C3.4606 19.3498 3.37797 19.405 3.28701 19.4427C3.19605 19.4804 3.09856 19.4998 3.00009 19.4998ZM6.75 28.4998C4.68239 28.4998 3.00009 26.8175 3.00009 24.7499V23.25C3.00009 21.1821 4.68239 19.4998 6.75 19.4998C8.81761 19.4998 10.4999 21.1821 10.4999 23.25V24.7499C10.4999 26.8175 8.81761 28.4998 6.75 28.4998ZM6.75 21C5.50934 21 4.5 22.0093 4.5 23.25V24.7499C4.5 25.9906 5.50934 26.9999 6.75 26.9999C7.99066 26.9999 9 25.9906 9 24.7499V23.25C9 22.0093 7.99066 21 6.75 21Z" fill="#8C6AD7"/>
<path d="M9.00141 36.0001H4.49859C1.96734 35.9992 0.289477 34.3508 0.219727 34.2805C0.149967 34.2109 0.0946426 34.1282 0.0569345 34.0372C0.0192264 33.9462 -0.000122259 33.8486 5.81258e-07 33.7501V31.1513C5.81258e-07 30.6473 0.24961 30.1809 0.669094 29.9027L4.5 27.3489V27.0001H5.99991V27.7502C5.99991 28.0006 5.87468 28.2346 5.6662 28.3742L1.49991 31.1513V33.4073C1.95005 33.7627 3.05557 34.4993 4.49916 34.5002H9.00141C10.4587 34.4993 11.5538 33.7658 12.0001 33.4103V31.1513L7.8338 28.3742C7.73118 28.3056 7.64705 28.2128 7.58885 28.104C7.53065 27.9951 7.50016 27.8736 7.50009 27.7502V27.0001H9V27.3488L12.8326 29.9033C13.0381 30.0401 13.2067 30.2257 13.3231 30.4435C13.4395 30.6612 13.5003 30.9044 13.5 31.1513V33.7501C13.5 33.9495 13.4212 34.1401 13.2803 34.2805C13.2105 34.3508 11.5321 35.9992 9.00141 36.0001ZM26.2499 28.5C24.1823 28.5 22.5 26.8177 22.5 24.7501V23.2502C22.5 21.1823 24.1823 19.5 26.2499 19.5C28.3178 19.5 30.0001 21.1823 30.0001 23.2502V24.7501C30.0001 26.8177 28.3178 28.5 26.2499 28.5ZM26.2499 21.0002C25.0096 21.0002 23.9999 22.0095 23.9999 23.2502V24.7501C23.9999 25.9908 25.0096 27.0001 26.2499 27.0001C27.4906 27.0001 28.4999 25.9908 28.4999 24.7501V23.2502C28.4999 22.0095 27.4906 21.0002 26.2499 21.0002Z" fill="#8C6AD7"/>
<path d="M28.5016 36.0001H23.9987C21.4674 35.9992 19.7903 34.3508 19.7197 34.2805C19.65 34.2109 19.5946 34.1282 19.5569 34.0372C19.5192 33.9462 19.4999 33.8486 19.5 33.7501V31.1513C19.4995 30.904 19.5605 30.6604 19.6774 30.4425C19.7943 30.2245 19.9635 30.039 20.1699 29.9027L24 27.3489V27.0001H25.5002V27.7502C25.5002 28.0006 25.375 28.2346 25.1665 28.3742L21.0002 31.1513V33.4073C21.45 33.7635 22.5556 34.4993 23.9986 34.5002H28.5016C29.9587 34.4993 31.0537 33.7658 31.5001 33.4103V31.1513L27.3338 28.3742C27.2312 28.3056 27.1471 28.2128 27.0888 28.104C27.0306 27.9951 27.0002 27.8736 27.0001 27.7502V27.0001H28.5V27.3488L32.3318 29.9033C32.5375 30.0401 32.7061 30.2256 32.8227 30.4433C32.9393 30.6611 33.0002 30.9043 33 31.1513V33.7501C33 33.9495 32.9215 34.1401 32.7803 34.2805C32.71 34.3508 31.0329 35.9992 28.5016 36.0001ZM15.7501 19.5H17.25V21.0002H15.7501V19.5ZM12.75 19.5H14.2502V21.0002H12.75V19.5ZM18.7502 19.5H20.2501V21.0002H18.7502V19.5Z" fill="#8C6AD7"/>
</svg>
