<svg width="133" height="125" viewBox="0 0 133 125" fill="none" xmlns="http://www.w3.org/2000/svg">
<g opacity="0.2">
<path d="M4.12664 2.84435C3.94015 3.84787 2.98101 4.50505 1.97749 4.31855C0.973963 4.13205 0.31681 3.17293 0.503306 2.16941C0.689802 1.16588 1.64891 0.508704 2.65243 0.6952C3.65596 0.881696 4.31314 1.84082 4.12664 2.84435Z" fill="#715DE3"/>
<path d="M18.3979 2.84435C18.2114 3.84787 17.2523 4.50505 16.2488 4.31855C15.2452 4.13205 14.588 3.17293 14.7745 2.16941C14.961 1.16588 15.9202 0.508704 16.9237 0.6952C17.9183 0.881696 18.5755 1.84082 18.3979 2.84435Z" fill="#715DE3"/>
<path d="M32.6606 2.84435C32.4741 3.84787 31.515 4.50505 30.5114 4.31855C29.5079 4.13205 28.8507 3.17293 29.0372 2.16941C29.2237 1.16588 30.1829 0.508704 31.1864 0.6952C32.181 0.881696 32.8471 1.84082 32.6606 2.84435Z" fill="#715DE3"/>
<path d="M46.923 2.84435C46.7365 3.84787 45.7774 4.50505 44.7739 4.31855C43.7703 4.13205 43.1132 3.17293 43.2997 2.16941C43.4862 1.16588 44.4453 0.508704 45.4488 0.6952C46.4435 0.881696 47.1095 1.84082 46.923 2.84435Z" fill="#715DE3"/>
<path d="M61.1855 2.84435C60.999 3.84787 60.0399 4.50505 59.0363 4.31855C58.0328 4.13205 57.3756 3.17293 57.5621 2.16941C57.7486 1.16588 58.7077 0.508704 59.7113 0.6952C60.7148 0.881696 61.372 1.84082 61.1855 2.84435Z" fill="#715DE3"/>
<path d="M4.12664 14.8605C3.94015 15.864 2.98101 16.5212 1.97749 16.3347C0.973963 16.1482 0.31681 15.189 0.503306 14.1855C0.689802 13.182 1.64891 12.5248 2.65243 12.7113C3.65596 12.8978 4.31314 13.8569 4.12664 14.8605Z" fill="#715DE3"/>
<path d="M18.3979 14.8605C18.2114 15.864 17.2523 16.5212 16.2488 16.3347C15.2452 16.1482 14.588 15.189 14.7745 14.1855C14.961 13.182 15.9202 12.5248 16.9237 12.7113C17.9183 12.8978 18.5755 13.8569 18.3979 14.8605Z" fill="#715DE3"/>
<path d="M32.6606 14.8605C32.4741 15.864 31.515 16.5212 30.5114 16.3347C29.5079 16.1482 28.8507 15.189 29.0372 14.1855C29.2237 13.182 30.1829 12.5248 31.1864 12.7113C32.181 12.8978 32.8471 13.8569 32.6606 14.8605Z" fill="#715DE3"/>
<path d="M46.923 14.8605C46.7365 15.864 45.7774 16.5212 44.7739 16.3347C43.7703 16.1482 43.1132 15.189 43.2997 14.1855C43.4862 13.182 44.4453 12.5248 45.4488 12.7113C46.4435 12.8978 47.1095 13.8569 46.923 14.8605Z" fill="#715DE3"/>
<path d="M61.1855 14.8605C60.999 15.864 60.0399 16.5212 59.0363 16.3347C58.0328 16.1482 57.3756 15.189 57.5621 14.1855C57.7486 13.182 58.7077 12.5248 59.7113 12.7113C60.7148 12.8978 61.372 13.8569 61.1855 14.8605Z" fill="#715DE3"/>
<path d="M4.12664 26.8751C3.94015 27.8786 2.98101 28.5358 1.97749 28.3493C0.973963 28.1628 0.31681 27.2037 0.503306 26.2002C0.689802 25.1966 1.64891 24.5395 2.65243 24.726C3.65596 24.9125 4.31314 25.8716 4.12664 26.8751Z" fill="#715DE3"/>
<path d="M18.3979 26.8751C18.2114 27.8786 17.2523 28.5358 16.2488 28.3493C15.2452 28.1628 14.588 27.2037 14.7745 26.2002C14.961 25.1966 15.9202 24.5395 16.9237 24.726C17.9183 24.9125 18.5755 25.8716 18.3979 26.8751Z" fill="#715DE3"/>
<path d="M32.6606 26.8751C32.4741 27.8786 31.515 28.5358 30.5114 28.3493C29.5079 28.1628 28.8507 27.2037 29.0372 26.2002C29.2237 25.1966 30.1829 24.5395 31.1864 24.726C32.181 24.9125 32.8471 25.8716 32.6606 26.8751Z" fill="#715DE3"/>
<path d="M46.923 26.8751C46.7365 27.8786 45.7774 28.5358 44.7739 28.3493C43.7703 28.1628 43.1132 27.2037 43.2997 26.2002C43.4862 25.1966 44.4453 24.5395 45.4488 24.726C46.4435 24.9125 47.1095 25.8716 46.923 26.8751Z" fill="#715DE3"/>
<path d="M61.1855 26.8751C60.999 27.8786 60.0399 28.5358 59.0363 28.3493C58.0328 28.1628 57.3756 27.2037 57.5621 26.2002C57.7486 25.1966 58.7077 24.5395 59.7113 24.726C60.7148 24.9125 61.372 25.8716 61.1855 26.8751Z" fill="#715DE3"/>
<path d="M4.12664 38.8912C3.94015 39.8947 2.98101 40.5519 1.97749 40.3654C0.973963 40.1789 0.31681 39.2198 0.503306 38.2163C0.689802 37.2128 1.64891 36.5556 2.65243 36.7421C3.65596 36.9286 4.31314 37.8877 4.12664 38.8912Z" fill="#715DE3"/>
<path d="M18.3979 38.8912C18.2114 39.8947 17.2523 40.5519 16.2488 40.3654C15.2452 40.1789 14.588 39.2198 14.7745 38.2163C14.961 37.2128 15.9202 36.5556 16.9237 36.7421C17.9183 36.9286 18.5755 37.8877 18.3979 38.8912Z" fill="#715DE3"/>
<path d="M32.6606 38.8912C32.4741 39.8947 31.515 40.5519 30.5114 40.3654C29.5079 40.1789 28.8507 39.2198 29.0372 38.2163C29.2237 37.2128 30.1829 36.5556 31.1864 36.7421C32.181 36.9286 32.8471 37.8877 32.6606 38.8912Z" fill="#715DE3"/>
<path d="M46.923 38.8912C46.7365 39.8947 45.7774 40.5519 44.7739 40.3654C43.7703 40.1789 43.1132 39.2198 43.2997 38.2163C43.4862 37.2128 44.4453 36.5556 45.4488 36.7421C46.4435 36.9286 47.1095 37.8877 46.923 38.8912Z" fill="#715DE3"/>
<path d="M61.1855 38.8912C60.999 39.8947 60.0399 40.5519 59.0363 40.3654C58.0328 40.1789 57.3756 39.2198 57.5621 38.2163C57.7486 37.2128 58.7077 36.5556 59.7113 36.7421C60.7148 36.9286 61.372 37.8877 61.1855 38.8912Z" fill="#715DE3"/>
<path d="M4.12664 50.9073C3.94015 51.9109 2.98101 52.568 1.97749 52.3815C0.973963 52.195 0.31681 51.2359 0.503306 50.2324C0.689802 49.2289 1.64891 48.5717 2.65243 48.7582C3.65596 48.9447 4.31314 49.9038 4.12664 50.9073Z" fill="#715DE3"/>
<path d="M18.3979 50.9073C18.2114 51.9109 17.2523 52.568 16.2488 52.3815C15.2452 52.195 14.588 51.2359 14.7745 50.2324C14.961 49.2289 15.9202 48.5717 16.9237 48.7582C17.9272 48.9447 18.5755 49.9038 18.3979 50.9073Z" fill="#715DE3"/>
<path d="M32.6606 50.9073C32.4741 51.9109 31.515 52.568 30.5114 52.3815C29.5079 52.195 28.8507 51.2359 29.0372 50.2324C29.2237 49.2289 30.1829 48.5717 31.1864 48.7582C32.181 48.9447 32.8471 49.9038 32.6606 50.9073Z" fill="#715DE3"/>
<path d="M46.923 50.9073C46.7365 51.9109 45.7774 52.568 44.7739 52.3815C43.7703 52.195 43.1132 51.2359 43.2997 50.2324C43.4862 49.2289 44.4453 48.5717 45.4488 48.7582C46.4435 48.9447 47.1095 49.9038 46.923 50.9073Z" fill="#715DE3"/>
<path d="M61.1855 50.9073C60.999 51.9109 60.0399 52.568 59.0363 52.3815C58.0328 52.195 57.3756 51.2359 57.5621 50.2324C57.7486 49.2289 58.7077 48.5717 59.7113 48.7582C60.7148 48.9447 61.372 49.9038 61.1855 50.9073Z" fill="#715DE3"/>
<path d="M4.12664 62.923C3.94015 63.9265 2.98101 64.5837 1.97749 64.3972C0.973963 64.2107 0.31681 63.2515 0.503306 62.248C0.689802 61.2445 1.64891 60.5873 2.65243 60.7738C3.65596 60.9603 4.31314 61.9194 4.12664 62.923Z" fill="#715DE3"/>
<path d="M18.3979 62.923C18.2114 63.9265 17.2523 64.5837 16.2488 64.3972C15.2452 64.2107 14.588 63.2515 14.7745 62.248C14.961 61.2445 15.9202 60.5873 16.9237 60.7738C17.9272 60.9603 18.5755 61.9194 18.3979 62.923Z" fill="#715DE3"/>
<path d="M32.6606 62.923C32.4741 63.9265 31.515 64.5837 30.5114 64.3972C29.5079 64.2107 28.8507 63.2515 29.0372 62.248C29.2237 61.2445 30.1829 60.5873 31.1864 60.7738C32.181 60.9603 32.8471 61.9194 32.6606 62.923Z" fill="#715DE3"/>
<path d="M46.923 62.923C46.7365 63.9265 45.7774 64.5837 44.7739 64.3972C43.7703 64.2107 43.1132 63.2515 43.2997 62.248C43.4862 61.2445 44.4453 60.5873 45.4488 60.7738C46.4435 60.9603 47.1095 61.9194 46.923 62.923Z" fill="#715DE3"/>
<path d="M61.1855 62.923C60.999 63.9265 60.0399 64.5837 59.0363 64.3972C58.0328 64.2107 57.3756 63.2515 57.5621 62.248C57.7486 61.2445 58.7077 60.5873 59.7113 60.7738C60.7148 60.9603 61.372 61.9194 61.1855 62.923Z" fill="#715DE3"/>
<path d="M4.12664 74.9381C3.94015 75.9416 2.98101 76.5988 1.97749 76.4123C0.973963 76.2258 0.31681 75.2667 0.503306 74.2632C0.689802 73.2596 1.64891 72.6025 2.65243 72.7889C3.65596 72.9754 4.31314 73.9346 4.12664 74.9381Z" fill="#715DE3"/>
<path d="M18.3979 74.9381C18.2114 75.9416 17.2523 76.5988 16.2488 76.4123C15.2452 76.2258 14.588 75.2667 14.7745 74.2632C14.961 73.2596 15.9202 72.6025 16.9237 72.7889C17.9183 72.9754 18.5755 73.9346 18.3979 74.9381Z" fill="#715DE3"/>
<path d="M32.6606 74.9381C32.4741 75.9416 31.515 76.5988 30.5114 76.4123C29.5079 76.2258 28.8507 75.2667 29.0372 74.2632C29.2237 73.2596 30.1829 72.6025 31.1864 72.7889C32.181 72.9754 32.8471 73.9346 32.6606 74.9381Z" fill="#715DE3"/>
<path d="M46.923 74.9381C46.7365 75.9416 45.7774 76.5988 44.7739 76.4123C43.7703 76.2258 43.1132 75.2667 43.2997 74.2632C43.4862 73.2596 44.4453 72.6025 45.4488 72.7889C46.4435 72.9754 47.1095 73.9346 46.923 74.9381Z" fill="#715DE3"/>
<path d="M61.1855 74.9381C60.999 75.9416 60.0399 76.5988 59.0363 76.4123C58.0328 76.2258 57.3756 75.2667 57.5621 74.2632C57.7486 73.2596 58.7077 72.6025 59.7113 72.7889C60.7148 72.9754 61.372 73.9346 61.1855 74.9381Z" fill="#715DE3"/>
<path d="M4.12664 86.9537C3.94015 87.9572 2.98101 88.6144 1.97749 88.4279C0.973963 88.2414 0.31681 87.2823 0.503306 86.2788C0.689802 85.2753 1.64891 84.6181 2.65243 84.8046C3.65596 84.9911 4.31314 85.9502 4.12664 86.9537Z" fill="#715DE3"/>
<path d="M18.3979 86.9537C18.2114 87.9572 17.2523 88.6144 16.2488 88.4279C15.2452 88.2414 14.588 87.2823 14.7745 86.2788C14.961 85.2753 15.9202 84.6181 16.9237 84.8046C17.9183 84.9911 18.5755 85.9502 18.3979 86.9537Z" fill="#715DE3"/>
<path d="M32.6606 86.9537C32.4741 87.9572 31.515 88.6144 30.5114 88.4279C29.5079 88.2414 28.8507 87.2823 29.0372 86.2788C29.2237 85.2753 30.1829 84.6181 31.1864 84.8046C32.181 84.9911 32.8471 85.9502 32.6606 86.9537Z" fill="#715DE3"/>
<path d="M46.923 86.9537C46.7365 87.9572 45.7774 88.6144 44.7739 88.4279C43.7703 88.2414 43.1132 87.2823 43.2997 86.2788C43.4862 85.2753 44.4453 84.6181 45.4488 84.8046C46.4435 84.9911 47.1095 85.9502 46.923 86.9537Z" fill="#715DE3"/>
<path d="M61.1855 86.9537C60.999 87.9572 60.0399 88.6144 59.0363 88.4279C58.0328 88.2414 57.3756 87.2823 57.5621 86.2788C57.7486 85.2753 58.7077 84.6181 59.7113 84.8046C60.7148 84.9911 61.372 85.9502 61.1855 86.9537Z" fill="#715DE3"/>
<path d="M4.12664 98.9698C3.94015 99.9734 2.98101 100.631 1.97749 100.444C0.973963 100.258 0.31681 99.2984 0.503306 98.2949C0.689802 97.2914 1.64891 96.6342 2.65243 96.8207C3.65596 97.0072 4.31314 97.9663 4.12664 98.9698Z" fill="#715DE3"/>
<path d="M18.3979 98.9698C18.2114 99.9734 17.2523 100.631 16.2488 100.444C15.2452 100.258 14.588 99.2984 14.7745 98.2949C14.961 97.2914 15.9202 96.6342 16.9237 96.8207C17.9183 97.0072 18.5755 97.9663 18.3979 98.9698Z" fill="#715DE3"/>
<path d="M32.6606 98.9698C32.4741 99.9734 31.515 100.631 30.5114 100.444C29.5079 100.258 28.8507 99.2984 29.0372 98.2949C29.2237 97.2914 30.1829 96.6342 31.1864 96.8207C32.181 97.0072 32.8471 97.9663 32.6606 98.9698Z" fill="#715DE3"/>
<path d="M46.923 98.9698C46.7365 99.9734 45.7774 100.631 44.7739 100.444C43.7703 100.258 43.1132 99.2984 43.2997 98.2949C43.4862 97.2914 44.4453 96.6342 45.4488 96.8207C46.4435 97.0072 47.1095 97.9663 46.923 98.9698Z" fill="#715DE3"/>
<path d="M61.1855 98.9698C60.999 99.9734 60.0399 100.631 59.0363 100.444C58.0328 100.258 57.3756 99.2984 57.5621 98.2949C57.7486 97.2914 58.7077 96.6342 59.7113 96.8207C60.7148 97.0072 61.372 97.9663 61.1855 98.9698Z" fill="#715DE3"/>
<path d="M4.12664 110.985C3.94015 111.988 2.98101 112.646 1.97749 112.459C0.973963 112.273 0.31681 111.314 0.503306 110.31C0.689802 109.307 1.64891 108.649 2.65243 108.836C3.65596 109.022 4.31314 109.981 4.12664 110.985Z" fill="#715DE3"/>
<path d="M18.3979 110.985C18.2114 111.988 17.2523 112.646 16.2488 112.459C15.2452 112.273 14.588 111.314 14.7745 110.31C14.961 109.307 15.9202 108.649 16.9237 108.836C17.9183 109.022 18.5755 109.981 18.3979 110.985Z" fill="#715DE3"/>
<path d="M32.6606 110.985C32.4741 111.988 31.515 112.646 30.5114 112.459C29.5079 112.273 28.8507 111.314 29.0372 110.31C29.2237 109.307 30.1829 108.649 31.1864 108.836C32.181 109.022 32.8471 109.981 32.6606 110.985Z" fill="#715DE3"/>
<path d="M46.923 110.985C46.7365 111.988 45.7774 112.646 44.7739 112.459C43.7703 112.273 43.1132 111.314 43.2997 110.31C43.4862 109.307 44.4453 108.649 45.4488 108.836C46.4435 109.022 47.1095 109.981 46.923 110.985Z" fill="#715DE3"/>
<path d="M61.1855 110.985C60.999 111.988 60.0399 112.646 59.0363 112.459C58.0328 112.273 57.3756 111.314 57.5621 110.31C57.7486 109.307 58.7077 108.649 59.7113 108.836C60.7148 109.022 61.372 109.981 61.1855 110.985Z" fill="#715DE3"/>
<path d="M4.12664 123.001C3.94015 124.004 2.98101 124.661 1.97749 124.475C0.973963 124.288 0.31681 123.329 0.503306 122.326C0.689802 121.322 1.64891 120.665 2.65243 120.851C3.65596 121.038 4.31314 121.997 4.12664 123.001Z" fill="#715DE3"/>
<path d="M18.3979 123.001C18.2114 124.004 17.2523 124.661 16.2488 124.475C15.2452 124.288 14.588 123.329 14.7745 122.326C14.961 121.322 15.9202 120.665 16.9237 120.851C17.9183 121.038 18.5755 121.997 18.3979 123.001Z" fill="#715DE3"/>
<path d="M32.6606 123.001C32.4741 124.004 31.515 124.661 30.5114 124.475C29.5079 124.288 28.8507 123.329 29.0372 122.326C29.2237 121.322 30.1829 120.665 31.1864 120.851C32.181 121.038 32.8471 121.997 32.6606 123.001Z" fill="#715DE3"/>
<path d="M46.923 123.001C46.7365 124.004 45.7774 124.661 44.7739 124.475C43.7703 124.288 43.1132 123.329 43.2997 122.326C43.4862 121.322 44.4453 120.665 45.4488 120.851C46.4435 121.038 47.1095 121.997 46.923 123.001Z" fill="#715DE3"/>
<path d="M61.1855 123.001C60.999 124.004 60.0399 124.661 59.0363 124.475C58.0328 124.288 57.3756 123.329 57.5621 122.326C57.7486 121.322 58.7077 120.665 59.7113 120.851C60.7148 121.038 61.372 121.997 61.1855 123.001Z" fill="#715DE3"/>
<path d="M75.1728 2.84435C74.9863 3.84787 74.0272 4.50505 73.0236 4.31855C72.0201 4.13205 71.363 3.17293 71.5494 2.16941C71.7359 1.16588 72.6951 0.508704 73.6986 0.6952C74.7021 0.881696 75.3593 1.84082 75.1728 2.84435Z" fill="#715DE3"/>
<path d="M89.4441 2.84435C89.2576 3.84787 88.2984 4.50505 87.2949 4.31855C86.2914 4.13205 85.6342 3.17293 85.8207 2.16941C86.0072 1.16588 86.9663 0.508704 87.9698 0.6952C88.9645 0.881696 89.6217 1.84082 89.4441 2.84435Z" fill="#715DE3"/>
<path d="M103.707 2.84435C103.52 3.84787 102.561 4.50505 101.557 4.31855C100.554 4.13205 99.8966 3.17293 100.083 2.16941C100.27 1.16588 101.229 0.508704 102.232 0.6952C103.227 0.881696 103.893 1.84082 103.707 2.84435Z" fill="#715DE3"/>
<path d="M117.969 2.84435C117.783 3.84787 116.824 4.50505 115.82 4.31855C114.816 4.13205 114.159 3.17293 114.346 2.16941C114.532 1.16588 115.491 0.508704 116.495 0.6952C117.49 0.881696 118.156 1.84082 117.969 2.84435Z" fill="#715DE3"/>
<path d="M132.232 2.84435C132.045 3.84787 131.086 4.50505 130.082 4.31855C129.079 4.13205 128.422 3.17293 128.608 2.16941C128.795 1.16588 129.754 0.508704 130.757 0.6952C131.761 0.881696 132.418 1.84082 132.232 2.84435Z" fill="#715DE3"/>
<path d="M75.1728 14.8605C74.9863 15.864 74.0272 16.5212 73.0236 16.3347C72.0201 16.1482 71.363 15.189 71.5494 14.1855C71.7359 13.182 72.6951 12.5248 73.6986 12.7113C74.7021 12.8978 75.3593 13.8569 75.1728 14.8605Z" fill="#715DE3"/>
<path d="M89.4441 14.8605C89.2576 15.864 88.2984 16.5212 87.2949 16.3347C86.2914 16.1482 85.6342 15.189 85.8207 14.1855C86.0072 13.182 86.9663 12.5248 87.9698 12.7113C88.9645 12.8978 89.6217 13.8569 89.4441 14.8605Z" fill="#715DE3"/>
<path d="M103.707 14.8605C103.52 15.864 102.561 16.5212 101.557 16.3347C100.554 16.1482 99.8966 15.189 100.083 14.1855C100.27 13.182 101.229 12.5248 102.232 12.7113C103.227 12.8978 103.893 13.8569 103.707 14.8605Z" fill="#715DE3"/>
<path d="M117.969 14.8605C117.783 15.864 116.824 16.5212 115.82 16.3347C114.816 16.1482 114.159 15.189 114.346 14.1855C114.532 13.182 115.491 12.5248 116.495 12.7113C117.49 12.8978 118.156 13.8569 117.969 14.8605Z" fill="#715DE3"/>
<path d="M132.232 14.8605C132.045 15.864 131.086 16.5212 130.082 16.3347C129.079 16.1482 128.422 15.189 128.608 14.1855C128.795 13.182 129.754 12.5248 130.757 12.7113C131.761 12.8978 132.418 13.8569 132.232 14.8605Z" fill="#715DE3"/>
<path d="M75.1728 26.8751C74.9863 27.8786 74.0272 28.5358 73.0236 28.3493C72.0201 28.1628 71.363 27.2037 71.5494 26.2002C71.7359 25.1966 72.6951 24.5395 73.6986 24.726C74.7021 24.9125 75.3593 25.8716 75.1728 26.8751Z" fill="#715DE3"/>
<path d="M89.4441 26.8751C89.2576 27.8786 88.2984 28.5358 87.2949 28.3493C86.2914 28.1628 85.6342 27.2037 85.8207 26.2002C86.0072 25.1966 86.9663 24.5395 87.9698 24.726C88.9645 24.9125 89.6217 25.8716 89.4441 26.8751Z" fill="#715DE3"/>
<path d="M103.707 26.8751C103.52 27.8786 102.561 28.5358 101.557 28.3493C100.554 28.1628 99.8966 27.2037 100.083 26.2002C100.27 25.1966 101.229 24.5395 102.232 24.726C103.227 24.9125 103.893 25.8716 103.707 26.8751Z" fill="#715DE3"/>
<path d="M117.969 26.8751C117.783 27.8786 116.824 28.5358 115.82 28.3493C114.816 28.1628 114.159 27.2037 114.346 26.2002C114.532 25.1966 115.491 24.5395 116.495 24.726C117.49 24.9125 118.156 25.8716 117.969 26.8751Z" fill="#715DE3"/>
<path d="M132.232 26.8751C132.045 27.8786 131.086 28.5358 130.082 28.3493C129.079 28.1628 128.422 27.2037 128.608 26.2002C128.795 25.1966 129.754 24.5395 130.757 24.726C131.761 24.9125 132.418 25.8716 132.232 26.8751Z" fill="#715DE3"/>
<path d="M75.1728 38.8912C74.9863 39.8947 74.0272 40.5519 73.0236 40.3654C72.0201 40.1789 71.363 39.2198 71.5494 38.2163C71.7359 37.2128 72.6951 36.5556 73.6986 36.7421C74.7021 36.9286 75.3593 37.8877 75.1728 38.8912Z" fill="#715DE3"/>
<path d="M89.4441 38.8912C89.2576 39.8947 88.2984 40.5519 87.2949 40.3654C86.2914 40.1789 85.6342 39.2198 85.8207 38.2163C86.0072 37.2128 86.9663 36.5556 87.9698 36.7421C88.9645 36.9286 89.6217 37.8877 89.4441 38.8912Z" fill="#715DE3"/>
<path d="M103.707 38.8912C103.52 39.8947 102.561 40.5519 101.557 40.3654C100.554 40.1789 99.8966 39.2198 100.083 38.2163C100.27 37.2128 101.229 36.5556 102.232 36.7421C103.227 36.9286 103.893 37.8877 103.707 38.8912Z" fill="#715DE3"/>
<path d="M117.969 38.8912C117.783 39.8947 116.824 40.5519 115.82 40.3654C114.816 40.1789 114.159 39.2198 114.346 38.2163C114.532 37.2128 115.491 36.5556 116.495 36.7421C117.49 36.9286 118.156 37.8877 117.969 38.8912Z" fill="#715DE3"/>
<path d="M132.232 38.8912C132.045 39.8947 131.086 40.5519 130.082 40.3654C129.079 40.1789 128.422 39.2198 128.608 38.2163C128.795 37.2128 129.754 36.5556 130.757 36.7421C131.761 36.9286 132.418 37.8877 132.232 38.8912Z" fill="#715DE3"/>
<path d="M75.1728 50.9073C74.9863 51.9109 74.0272 52.568 73.0236 52.3815C72.0201 52.195 71.363 51.2359 71.5494 50.2324C71.7359 49.2289 72.6951 48.5717 73.6986 48.7582C74.7021 48.9447 75.3593 49.9038 75.1728 50.9073Z" fill="#715DE3"/>
<path d="M89.4441 50.9073C89.2576 51.9109 88.2984 52.568 87.2949 52.3815C86.2914 52.195 85.6342 51.2359 85.8207 50.2324C86.0072 49.2289 86.9663 48.5717 87.9698 48.7582C88.9734 48.9447 89.6217 49.9038 89.4441 50.9073Z" fill="#715DE3"/>
<path d="M103.707 50.9073C103.52 51.9109 102.561 52.568 101.557 52.3815C100.554 52.195 99.8966 51.2359 100.083 50.2324C100.27 49.2289 101.229 48.5717 102.232 48.7582C103.227 48.9447 103.893 49.9038 103.707 50.9073Z" fill="#715DE3"/>
<path d="M117.969 50.9073C117.783 51.9109 116.824 52.568 115.82 52.3815C114.816 52.195 114.159 51.2359 114.346 50.2324C114.532 49.2289 115.491 48.5717 116.495 48.7582C117.49 48.9447 118.156 49.9038 117.969 50.9073Z" fill="#715DE3"/>
<path d="M132.232 50.9073C132.045 51.9109 131.086 52.568 130.082 52.3815C129.079 52.195 128.422 51.2359 128.608 50.2324C128.795 49.2289 129.754 48.5717 130.757 48.7582C131.761 48.9447 132.418 49.9038 132.232 50.9073Z" fill="#715DE3"/>
<path d="M75.1728 62.923C74.9863 63.9265 74.0272 64.5837 73.0236 64.3972C72.0201 64.2107 71.363 63.2515 71.5494 62.248C71.7359 61.2445 72.6951 60.5873 73.6986 60.7738C74.7021 60.9603 75.3593 61.9194 75.1728 62.923Z" fill="#715DE3"/>
<path d="M89.4441 62.923C89.2576 63.9265 88.2984 64.5837 87.2949 64.3972C86.2914 64.2107 85.6342 63.2515 85.8207 62.248C86.0072 61.2445 86.9663 60.5873 87.9698 60.7738C88.9734 60.9603 89.6217 61.9194 89.4441 62.923Z" fill="#715DE3"/>
<path d="M103.707 62.923C103.52 63.9265 102.561 64.5837 101.557 64.3972C100.554 64.2107 99.8966 63.2515 100.083 62.248C100.27 61.2445 101.229 60.5873 102.232 60.7738C103.227 60.9603 103.893 61.9194 103.707 62.923Z" fill="#715DE3"/>
<path d="M117.969 62.923C117.783 63.9265 116.824 64.5837 115.82 64.3972C114.816 64.2107 114.159 63.2515 114.346 62.248C114.532 61.2445 115.491 60.5873 116.495 60.7738C117.49 60.9603 118.156 61.9194 117.969 62.923Z" fill="#715DE3"/>
<path d="M132.232 62.923C132.045 63.9265 131.086 64.5837 130.082 64.3972C129.079 64.2107 128.422 63.2515 128.608 62.248C128.795 61.2445 129.754 60.5873 130.757 60.7738C131.761 60.9603 132.418 61.9194 132.232 62.923Z" fill="#715DE3"/>
<path d="M75.1728 74.9381C74.9863 75.9416 74.0272 76.5988 73.0236 76.4123C72.0201 76.2258 71.363 75.2667 71.5494 74.2632C71.7359 73.2596 72.6951 72.6025 73.6986 72.7889C74.7021 72.9754 75.3593 73.9346 75.1728 74.9381Z" fill="#715DE3"/>
<path d="M89.4441 74.9381C89.2576 75.9416 88.2984 76.5988 87.2949 76.4123C86.2914 76.2258 85.6342 75.2667 85.8207 74.2632C86.0072 73.2596 86.9663 72.6025 87.9698 72.7889C88.9645 72.9754 89.6217 73.9346 89.4441 74.9381Z" fill="#715DE3"/>
<path d="M103.707 74.9381C103.52 75.9416 102.561 76.5988 101.557 76.4123C100.554 76.2258 99.8966 75.2667 100.083 74.2632C100.27 73.2596 101.229 72.6025 102.232 72.7889C103.227 72.9754 103.893 73.9346 103.707 74.9381Z" fill="#715DE3"/>
<path d="M117.969 74.9381C117.783 75.9416 116.824 76.5988 115.82 76.4123C114.816 76.2258 114.159 75.2667 114.346 74.2632C114.532 73.2596 115.491 72.6025 116.495 72.7889C117.49 72.9754 118.156 73.9346 117.969 74.9381Z" fill="#715DE3"/>
<path d="M132.232 74.9381C132.045 75.9416 131.086 76.5988 130.082 76.4123C129.079 76.2258 128.422 75.2667 128.608 74.2632C128.795 73.2596 129.754 72.6025 130.757 72.7889C131.761 72.9754 132.418 73.9346 132.232 74.9381Z" fill="#715DE3"/>
<path d="M75.1728 86.9537C74.9863 87.9572 74.0272 88.6144 73.0236 88.4279C72.0201 88.2414 71.363 87.2823 71.5494 86.2788C71.7359 85.2753 72.6951 84.6181 73.6986 84.8046C74.7021 84.9911 75.3593 85.9502 75.1728 86.9537Z" fill="#715DE3"/>
<path d="M89.4441 86.9537C89.2576 87.9572 88.2984 88.6144 87.2949 88.4279C86.2914 88.2414 85.6342 87.2823 85.8207 86.2788C86.0072 85.2753 86.9663 84.6181 87.9698 84.8046C88.9645 84.9911 89.6217 85.9502 89.4441 86.9537Z" fill="#715DE3"/>
<path d="M103.707 86.9537C103.52 87.9572 102.561 88.6144 101.557 88.4279C100.554 88.2414 99.8966 87.2823 100.083 86.2788C100.27 85.2753 101.229 84.6181 102.232 84.8046C103.227 84.9911 103.893 85.9502 103.707 86.9537Z" fill="#715DE3"/>
<path d="M117.969 86.9537C117.783 87.9572 116.824 88.6144 115.82 88.4279C114.816 88.2414 114.159 87.2823 114.346 86.2788C114.532 85.2753 115.491 84.6181 116.495 84.8046C117.49 84.9911 118.156 85.9502 117.969 86.9537Z" fill="#715DE3"/>
<path d="M132.232 86.9537C132.045 87.9572 131.086 88.6144 130.082 88.4279C129.079 88.2414 128.422 87.2823 128.608 86.2788C128.795 85.2753 129.754 84.6181 130.757 84.8046C131.761 84.9911 132.418 85.9502 132.232 86.9537Z" fill="#715DE3"/>
<path d="M75.1728 98.9698C74.9863 99.9734 74.0272 100.631 73.0236 100.444C72.0201 100.258 71.363 99.2984 71.5494 98.2949C71.7359 97.2914 72.6951 96.6342 73.6986 96.8207C74.7021 97.0072 75.3593 97.9663 75.1728 98.9698Z" fill="#715DE3"/>
<path d="M89.4441 98.9698C89.2576 99.9734 88.2984 100.631 87.2949 100.444C86.2914 100.258 85.6342 99.2984 85.8207 98.2949C86.0072 97.2914 86.9663 96.6342 87.9698 96.8207C88.9645 97.0072 89.6217 97.9663 89.4441 98.9698Z" fill="#715DE3"/>
<path d="M103.707 98.9698C103.52 99.9734 102.561 100.631 101.557 100.444C100.554 100.258 99.8966 99.2984 100.083 98.2949C100.27 97.2914 101.229 96.6342 102.232 96.8207C103.227 97.0072 103.893 97.9663 103.707 98.9698Z" fill="#715DE3"/>
<path d="M117.969 98.9698C117.783 99.9734 116.824 100.631 115.82 100.444C114.816 100.258 114.159 99.2984 114.346 98.2949C114.532 97.2914 115.491 96.6342 116.495 96.8207C117.49 97.0072 118.156 97.9663 117.969 98.9698Z" fill="#715DE3"/>
<path d="M132.232 98.9698C132.045 99.9734 131.086 100.631 130.082 100.444C129.079 100.258 128.422 99.2984 128.608 98.2949C128.795 97.2914 129.754 96.6342 130.757 96.8207C131.761 97.0072 132.418 97.9663 132.232 98.9698Z" fill="#715DE3"/>
<path d="M75.1728 110.985C74.9863 111.988 74.0272 112.646 73.0236 112.459C72.0201 112.273 71.363 111.314 71.5494 110.31C71.7359 109.307 72.6951 108.649 73.6986 108.836C74.7021 109.022 75.3593 109.981 75.1728 110.985Z" fill="#715DE3"/>
<path d="M89.4441 110.985C89.2576 111.988 88.2984 112.646 87.2949 112.459C86.2914 112.273 85.6342 111.314 85.8207 110.31C86.0072 109.307 86.9663 108.649 87.9698 108.836C88.9645 109.022 89.6217 109.981 89.4441 110.985Z" fill="#715DE3"/>
<path d="M103.707 110.985C103.52 111.988 102.561 112.646 101.557 112.459C100.554 112.273 99.8966 111.314 100.083 110.31C100.27 109.307 101.229 108.649 102.232 108.836C103.227 109.022 103.893 109.981 103.707 110.985Z" fill="#715DE3"/>
<path d="M117.969 110.985C117.783 111.988 116.824 112.646 115.82 112.459C114.816 112.273 114.159 111.314 114.346 110.31C114.532 109.307 115.491 108.649 116.495 108.836C117.49 109.022 118.156 109.981 117.969 110.985Z" fill="#715DE3"/>
<path d="M132.232 110.985C132.045 111.988 131.086 112.646 130.082 112.459C129.079 112.273 128.422 111.314 128.608 110.31C128.795 109.307 129.754 108.649 130.757 108.836C131.761 109.022 132.418 109.981 132.232 110.985Z" fill="#715DE3"/>
<path d="M75.1728 123.001C74.9863 124.004 74.0272 124.661 73.0236 124.475C72.0201 124.288 71.363 123.329 71.5494 122.326C71.7359 121.322 72.6951 120.665 73.6986 120.851C74.7021 121.038 75.3593 121.997 75.1728 123.001Z" fill="#715DE3"/>
<path d="M89.4441 123.001C89.2576 124.004 88.2984 124.661 87.2949 124.475C86.2914 124.288 85.6342 123.329 85.8207 122.326C86.0072 121.322 86.9663 120.665 87.9698 120.851C88.9645 121.038 89.6217 121.997 89.4441 123.001Z" fill="#715DE3"/>
<path d="M103.707 123.001C103.52 124.004 102.561 124.661 101.557 124.475C100.554 124.288 99.8966 123.329 100.083 122.326C100.27 121.322 101.229 120.665 102.232 120.851C103.227 121.038 103.893 121.997 103.707 123.001Z" fill="#715DE3"/>
<path d="M117.969 123.001C117.783 124.004 116.824 124.661 115.82 124.475C114.816 124.288 114.159 123.329 114.346 122.326C114.532 121.322 115.491 120.665 116.495 120.851C117.49 121.038 118.156 121.997 117.969 123.001Z" fill="#715DE3"/>
<path d="M132.232 123.001C132.045 124.004 131.086 124.661 130.082 124.475C129.079 124.288 128.422 123.329 128.608 122.326C128.795 121.322 129.754 120.665 130.757 120.851C131.761 121.038 132.418 121.997 132.232 123.001Z" fill="#715DE3"/>
</g>
</svg>
