<svg width="542" height="391" viewBox="0 0 542 391" fill="none" xmlns="http://www.w3.org/2000/svg">
<g filter="url(#filter0_d_600_1983)">
<path d="M24.2254 10.2305H492.969C493.496 10.2398 494.016 10.3613 494.499 10.588C494.982 10.8146 495.419 11.142 495.786 11.5514C496.152 11.9607 496.44 12.4441 496.633 12.9739C496.827 13.5036 496.922 14.0694 496.913 14.6388V320.165C496.931 321.314 496.526 322.424 495.787 323.251C495.049 324.078 494.036 324.553 492.973 324.574H24.2254C23.1625 324.553 22.1506 324.077 21.412 323.251C20.6735 322.424 20.2688 321.314 20.2868 320.165V14.6388C20.2688 13.4898 20.6735 12.38 21.412 11.5534C22.1506 10.7267 23.1625 10.2509 24.2254 10.2305Z" fill="white"/>
<rect x="29.2153" y="130" width="89" height="14" rx="5" fill="#F2F6FA"/>
<rect x="138.215" y="130" width="74.9216" height="14.0956" rx="5" fill="#F2F6FA"/>
<rect x="259.215" y="130" width="74.9216" height="14.0956" rx="5" fill="#F2F6FA"/>
<rect x="357.215" y="130" width="110" height="14" rx="5" fill="#F2F6FA"/>
<rect x="29.2153" y="173" width="89" height="14" rx="5" fill="#F2F6FA"/>
<rect x="138.215" y="173" width="74.9216" height="14.0956" rx="5" fill="#F2F6FA"/>
<rect x="259.215" y="173" width="74.9216" height="14.0956" rx="5" fill="#F2F6FA"/>
<rect x="357.215" y="173" width="110" height="14" rx="5" fill="#F2F6FA"/>
<rect x="29.2153" y="215" width="89" height="14" rx="5" fill="#F2F6FA"/>
<rect x="138.215" y="215" width="74.9216" height="14.0956" rx="5" fill="#F2F6FA"/>
<rect x="259.215" y="215" width="74.9216" height="14.0956" rx="5" fill="#F2F6FA"/>
<rect x="357.215" y="215" width="110" height="14" rx="5" fill="#F2F6FA"/>
<rect x="29.2153" y="257" width="89" height="14" rx="5" fill="#F2F6FA"/>
<rect x="138.215" y="257" width="74.9216" height="14.0956" rx="5" fill="#F2F6FA"/>
<rect x="259.215" y="257" width="74.9216" height="14.0956" rx="5" fill="#F2F6FA"/>
<rect x="357.215" y="257" width="110" height="14" rx="5" fill="#F2F6FA"/>
<rect x="29.2153" y="297" width="89" height="14" rx="5" fill="#F2F6FA"/>
<rect x="138.215" y="297" width="74.9216" height="14.0956" rx="5" fill="#F2F6FA"/>
<rect x="259.215" y="297" width="74.9216" height="14.0956" rx="5" fill="#F2F6FA"/>
<rect x="357.215" y="297" width="110" height="14" rx="5" fill="#F2F6FA"/>
</g>
<g filter="url(#filter1_d_600_1983)">
<path d="M496.329 31.5645H20V71.0081H496.329V31.5645Z" fill="white"/>
</g>
<path d="M24.6564 10H492.774C493.952 10 495.082 10.5123 495.915 11.4243C496.747 12.3362 497.215 13.5731 497.215 14.8627V32H20.2153V14.8627C20.2153 13.5731 20.6832 12.3362 21.5161 11.4243C22.349 10.5123 23.4786 10 24.6564 10Z" fill="#D2E5F1"/>
<path d="M38.3063 56.5039V44.8675H42.6699C43.5639 44.8675 44.3139 45.0228 44.9199 45.3335C45.5298 45.6441 45.99 46.0797 46.3006 46.6403C46.615 47.1971 46.7722 47.8467 46.7722 48.5891C46.7722 49.3353 46.6131 49.9831 46.2949 50.5323C45.9805 51.0778 45.5165 51.5001 44.9029 51.7994C44.2893 52.0948 43.5355 52.2425 42.6415 52.2425H39.5336V50.4925H42.3574C42.8802 50.4925 43.3082 50.4206 43.6415 50.2766C43.9749 50.1289 44.2211 49.9149 44.3802 49.6346C44.543 49.3505 44.6245 49.002 44.6245 48.5891C44.6245 48.1763 44.543 47.824 44.3802 47.5323C44.2173 47.2369 43.9692 47.0134 43.6358 46.8619C43.3025 46.7066 42.8726 46.6289 42.3461 46.6289H40.4143V56.5039H38.3063ZM44.3177 51.2312L47.1983 56.5039H44.8461L42.0165 51.2312H44.3177ZM51.8803 56.6744C51.0053 56.6744 50.2496 56.4925 49.6132 56.1289C48.9807 55.7615 48.4939 55.2425 48.153 54.5721C47.8121 53.8978 47.6416 53.1043 47.6416 52.1914C47.6416 51.2937 47.8121 50.5058 48.153 49.8278C48.4977 49.146 48.9788 48.6156 49.5962 48.2369C50.2136 47.8543 50.939 47.663 51.7723 47.663C52.3102 47.663 52.8178 47.7501 53.295 47.9244C53.7761 48.0948 54.2004 48.36 54.5678 48.7198C54.939 49.0797 55.2307 49.538 55.4428 50.0948C55.6549 50.6478 55.761 51.3069 55.761 52.0721V52.7028H48.6075V51.3164H53.7894C53.7856 50.9225 53.7004 50.5721 53.5337 50.2653C53.367 49.9547 53.1341 49.7103 52.8348 49.5323C52.5394 49.3543 52.1947 49.2653 51.8007 49.2653C51.3803 49.2653 51.011 49.3675 50.6928 49.5721C50.3746 49.7728 50.1265 50.038 49.9485 50.3675C49.7742 50.6933 49.6852 51.0513 49.6814 51.4414V52.6516C49.6814 53.1592 49.7742 53.5948 49.9598 53.9585C50.1454 54.3183 50.4049 54.5948 50.7382 54.788C51.0716 54.9774 51.4617 55.0721 51.9087 55.0721C52.2079 55.0721 52.4788 55.0304 52.7212 54.9471C52.9636 54.86 53.1738 54.7331 53.3519 54.5664C53.5299 54.3997 53.6644 54.1933 53.7553 53.9471L55.6757 54.163C55.5545 54.6706 55.3235 55.1138 54.9825 55.4925C54.6454 55.8675 54.2136 56.1592 53.6871 56.3675C53.1606 56.5721 52.5583 56.6744 51.8803 56.6744ZM57.021 56.5039V47.7766H58.9869V49.2596H59.0892C59.271 48.7596 59.5721 48.3694 59.9926 48.0891C60.4131 47.805 60.915 47.663 61.4983 47.663C62.0892 47.663 62.5873 47.8069 62.9926 48.0948C63.4017 48.3789 63.6896 48.7672 63.8562 49.2596H63.9472C64.1403 48.7747 64.4661 48.3884 64.9244 48.1005C65.3865 47.8088 65.9339 47.663 66.5665 47.663C67.3695 47.663 68.0248 47.9168 68.5324 48.4244C69.04 48.9319 69.2937 49.6725 69.2937 50.646V56.5039H67.2312V50.9641C67.2312 50.4225 67.0873 50.0266 66.7994 49.7766C66.5115 49.5228 66.1593 49.396 65.7426 49.396C65.2464 49.396 64.8581 49.5513 64.5778 49.8619C64.3013 50.1687 64.1631 50.5683 64.1631 51.0607V56.5039H62.146V50.8789C62.146 50.4281 62.0097 50.0683 61.7369 49.7994C61.468 49.5304 61.1157 49.396 60.6801 49.396C60.3846 49.396 60.1157 49.4717 59.8733 49.6232C59.6309 49.771 59.4377 49.9812 59.2937 50.2539C59.1498 50.5228 59.0778 50.8372 59.0778 51.1971V56.5039H57.021ZM70.9004 56.5039V47.7766H72.9572V56.5039H70.9004ZM71.9345 46.538C71.6087 46.538 71.3284 46.43 71.0936 46.2141C70.8587 45.9944 70.7413 45.7312 70.7413 45.4244C70.7413 45.1138 70.8587 44.8505 71.0936 44.6346C71.3284 44.4149 71.6087 44.305 71.9345 44.305C72.264 44.305 72.5443 44.4149 72.7754 44.6346C73.0102 44.8505 73.1277 45.1138 73.1277 45.4244C73.1277 45.7312 73.0102 45.9944 72.7754 46.2141C72.5443 46.43 72.264 46.538 71.9345 46.538ZM76.6491 51.3903V56.5039H74.5923V47.7766H76.5582V49.2596H76.6604C76.8612 48.771 77.1813 48.3827 77.6207 48.0948C78.0639 47.8069 78.6112 47.663 79.2627 47.663C79.865 47.663 80.3896 47.7918 80.8366 48.0494C81.2873 48.3069 81.6358 48.68 81.882 49.1687C82.132 49.6573 82.2551 50.2501 82.2514 50.9471V56.5039H80.1945V51.2653C80.1945 50.6819 80.043 50.2255 79.74 49.896C79.4407 49.5664 79.026 49.4016 78.4957 49.4016C78.1358 49.4016 77.8157 49.4812 77.5354 49.6403C77.2589 49.7956 77.0411 50.021 76.882 50.3164C76.7267 50.6119 76.6491 50.9698 76.6491 51.3903ZM87.1009 56.6573C86.4153 56.6573 85.8017 56.4812 85.26 56.1289C84.7183 55.7766 84.2903 55.2653 83.9759 54.5948C83.6615 53.9244 83.5043 53.11 83.5043 52.1516C83.5043 51.1819 83.6634 50.3638 83.9816 49.6971C84.3035 49.0266 84.7373 48.521 85.2827 48.18C85.8282 47.8353 86.4361 47.663 87.1066 47.663C87.6179 47.663 88.0384 47.7501 88.3679 47.9244C88.6975 48.0948 88.9589 48.3013 89.152 48.5437C89.3452 48.7823 89.4948 49.0077 89.6009 49.2198H89.6861V44.8675H91.7486V56.5039H89.7259V55.1289H89.6009C89.4948 55.341 89.3414 55.5664 89.1407 55.805C88.9399 56.0399 88.6748 56.2406 88.3452 56.4073C88.0157 56.574 87.6009 56.6573 87.1009 56.6573ZM87.6748 54.9698C88.1104 54.9698 88.4816 54.8524 88.7884 54.6175C89.0952 54.3789 89.3282 54.0475 89.4873 53.6232C89.6464 53.199 89.7259 52.7047 89.7259 52.1403C89.7259 51.5759 89.6464 51.0853 89.4873 50.6687C89.332 50.252 89.1009 49.9281 88.7941 49.6971C88.491 49.466 88.1179 49.3505 87.6748 49.3505C87.2164 49.3505 86.8339 49.4698 86.527 49.7085C86.2202 49.9471 85.9892 50.2766 85.8339 50.6971C85.6785 51.1175 85.6009 51.5986 85.6009 52.1403C85.6009 52.6857 85.6785 53.1725 85.8339 53.6005C85.9929 54.0247 86.2259 54.36 86.5327 54.6062C86.8433 54.8486 87.224 54.9698 87.6748 54.9698ZM97.324 56.6744C96.449 56.6744 95.6933 56.4925 95.057 56.1289C94.4244 55.7615 93.9377 55.2425 93.5968 54.5721C93.2558 53.8978 93.0854 53.1043 93.0854 52.1914C93.0854 51.2937 93.2558 50.5058 93.5968 49.8278C93.9414 49.146 94.4225 48.6156 95.0399 48.2369C95.6574 47.8543 96.3827 47.663 97.2161 47.663C97.7539 47.663 98.2615 47.7501 98.7388 47.9244C99.2199 48.0948 99.6441 48.36 100.012 48.7198C100.383 49.0797 100.674 49.538 100.887 50.0948C101.099 50.6478 101.205 51.3069 101.205 52.0721V52.7028H94.0513V51.3164H99.2331C99.2293 50.9225 99.1441 50.5721 98.9774 50.2653C98.8108 49.9547 98.5778 49.7103 98.2786 49.5323C97.9831 49.3543 97.6384 49.2653 97.2445 49.2653C96.824 49.2653 96.4547 49.3675 96.1365 49.5721C95.8183 49.7728 95.5702 50.038 95.3922 50.3675C95.218 50.6933 95.1289 51.0513 95.1252 51.4414V52.6516C95.1252 53.1592 95.218 53.5948 95.4036 53.9585C95.5892 54.3183 95.8486 54.5948 96.182 54.788C96.5153 54.9774 96.9055 55.0721 97.3524 55.0721C97.6517 55.0721 97.9225 55.0304 98.1649 54.9471C98.4074 54.86 98.6176 54.7331 98.7956 54.5664C98.9736 54.3997 99.1081 54.1933 99.199 53.9471L101.119 54.163C100.998 54.6706 100.767 55.1138 100.426 55.4925C100.089 55.8675 99.6574 56.1592 99.1308 56.3675C98.6043 56.5721 98.0021 56.6744 97.324 56.6744ZM102.465 56.5039V47.7766H104.459V49.2312H104.55C104.709 48.7274 104.982 48.3391 105.368 48.0664C105.758 47.7899 106.203 47.6516 106.703 47.6516C106.817 47.6516 106.944 47.6573 107.084 47.6687C107.228 47.6763 107.347 47.6895 107.442 47.7085V49.6005C107.355 49.5702 107.217 49.5437 107.027 49.521C106.842 49.4944 106.662 49.4812 106.487 49.4812C106.112 49.4812 105.775 49.5626 105.476 49.7255C105.181 49.8846 104.948 50.1062 104.777 50.3903C104.607 50.6744 104.522 51.002 104.522 51.3732V56.5039H102.465Z" fill="#2A4A6C"/>
<rect x="20.2153" y="71" width="476" height="39" fill="#295583"/>
<path d="M42.1133 89.5858C42.064 89.1487 41.8609 88.8102 41.5039 88.5701C41.1469 88.327 40.6976 88.2054 40.1559 88.2054C39.7681 88.2054 39.4326 88.267 39.1495 88.3901C38.8664 88.5101 38.6463 88.6763 38.4893 88.8887C38.3355 89.098 38.2585 89.3365 38.2585 89.6042C38.2585 89.8289 38.3108 90.0228 38.4155 90.1859C38.5232 90.349 38.6632 90.486 38.8356 90.5968C39.011 90.7045 39.1987 90.7953 39.3988 90.8691C39.5988 90.9399 39.7912 90.9984 39.9759 91.0446L40.8991 91.2846C41.2008 91.3585 41.5101 91.4585 41.8271 91.5847C42.1441 91.7109 42.438 91.8771 42.7088 92.0833C42.9796 92.2895 43.1982 92.5449 43.3643 92.8496C43.5336 93.1543 43.6183 93.519 43.6183 93.9437C43.6183 94.4792 43.4798 94.9547 43.2028 95.3702C42.9289 95.7857 42.5303 96.1135 42.0071 96.3535C41.487 96.5936 40.8576 96.7136 40.119 96.7136C39.4111 96.7136 38.7987 96.6013 38.2816 96.3766C37.7646 96.1519 37.3598 95.8334 37.0675 95.421C36.7751 95.0055 36.6135 94.5131 36.5827 93.9437H38.0138C38.0415 94.2853 38.1523 94.57 38.3462 94.7978C38.5432 95.0224 38.794 95.1902 39.0987 95.301C39.4065 95.4087 39.7435 95.4625 40.1097 95.4625C40.5129 95.4625 40.8714 95.3994 41.1854 95.2733C41.5024 95.144 41.7517 94.9655 41.9332 94.7377C42.1148 94.5069 42.2056 94.2376 42.2056 93.9299C42.2056 93.6498 42.1256 93.4205 41.9656 93.242C41.8086 93.0635 41.5947 92.9158 41.3239 92.7988C41.0561 92.6819 40.753 92.5788 40.4144 92.4895L39.2972 92.1848C38.5401 91.9786 37.94 91.6755 37.4968 91.2754C37.0567 90.8753 36.8366 90.3459 36.8366 89.6873C36.8366 89.1426 36.9844 88.6671 37.2798 88.2608C37.5753 87.8546 37.9754 87.5391 38.4801 87.3145C38.9848 87.0867 39.5542 86.9728 40.1882 86.9728C40.8284 86.9728 41.3931 87.0852 41.8825 87.3098C42.3749 87.5345 42.7627 87.8438 43.0458 88.2377C43.329 88.6286 43.4767 89.0779 43.489 89.5858H42.1133ZM47.809 96.6998C47.1442 96.6998 46.564 96.5474 46.0685 96.2427C45.573 95.938 45.1883 95.5118 44.9144 94.964C44.6405 94.4161 44.5036 93.776 44.5036 93.0435C44.5036 92.3079 44.6405 91.6647 44.9144 91.1138C45.1883 90.5629 45.573 90.1351 46.0685 89.8304C46.564 89.5257 47.1442 89.3734 47.809 89.3734C48.4737 89.3734 49.0539 89.5257 49.5494 89.8304C50.0449 90.1351 50.4296 90.5629 50.7035 91.1138C50.9774 91.6647 51.1144 92.3079 51.1144 93.0435C51.1144 93.776 50.9774 94.4161 50.7035 94.964C50.4296 95.5118 50.0449 95.938 49.5494 96.2427C49.0539 96.5474 48.4737 96.6998 47.809 96.6998ZM47.8136 95.541C48.2444 95.541 48.6014 95.4271 48.8846 95.1994C49.1677 94.9716 49.377 94.6685 49.5124 94.29C49.6509 93.9114 49.7202 93.4944 49.7202 93.0389C49.7202 92.5865 49.6509 92.171 49.5124 91.7924C49.377 91.4108 49.1677 91.1046 48.8846 90.8738C48.6014 90.6429 48.2444 90.5275 47.8136 90.5275C47.3796 90.5275 47.0195 90.6429 46.7333 90.8738C46.4502 91.1046 46.2394 91.4108 46.1009 91.7924C45.9654 92.171 45.8977 92.5865 45.8977 93.0389C45.8977 93.4944 45.9654 93.9114 46.1009 94.29C46.2394 94.6685 46.4502 94.9716 46.7333 95.1994C47.0195 95.4271 47.3796 95.541 47.8136 95.541ZM56.7569 93.6159V89.4657H58.1419V96.5566H56.7846V95.3287H56.7108C56.5477 95.7072 56.2861 96.0227 55.926 96.275C55.569 96.5243 55.1242 96.649 54.5918 96.649C54.1363 96.649 53.7331 96.5489 53.3823 96.3489C53.0345 96.1458 52.7606 95.8457 52.5606 95.4487C52.3636 95.0517 52.2651 94.5608 52.2651 93.976V89.4657H53.6454V93.8098C53.6454 94.293 53.7793 94.6777 54.0471 94.964C54.3148 95.2502 54.6626 95.3933 55.0904 95.3933C55.3489 95.3933 55.6059 95.3287 55.8613 95.1994C56.1199 95.0701 56.3338 94.8747 56.503 94.6131C56.6754 94.3515 56.76 94.0191 56.7569 93.6159ZM59.6065 96.5566V89.4657H60.9407V90.5922H61.0146C61.1438 90.2105 61.3716 89.9105 61.6978 89.6919C62.0271 89.4703 62.3995 89.3596 62.815 89.3596C62.9012 89.3596 63.0027 89.3626 63.1197 89.3688C63.2397 89.3749 63.3336 89.3826 63.4013 89.3919V90.7122C63.3459 90.6968 63.2474 90.6799 63.1058 90.6614C62.9643 90.6399 62.8227 90.6291 62.6811 90.6291C62.3549 90.6291 62.064 90.6983 61.8086 90.8368C61.5562 90.9722 61.3562 91.1615 61.2085 91.4047C61.0607 91.6447 60.9869 91.9186 60.9869 92.2264V96.5566H59.6065ZM66.9388 96.6998C66.2524 96.6998 65.6615 96.5443 65.166 96.2335C64.6736 95.9196 64.2951 95.4872 64.0304 94.9363C63.7657 94.3854 63.6334 93.7544 63.6334 93.0435C63.6334 92.3233 63.7688 91.6878 64.0396 91.1369C64.3104 90.5829 64.6921 90.1505 65.1845 89.8397C65.6769 89.5288 66.2571 89.3734 66.9249 89.3734C67.4635 89.3734 67.9436 89.4734 68.3652 89.6735C68.7869 89.8704 69.127 90.1474 69.3855 90.5044C69.6471 90.8614 69.8025 91.2785 69.8518 91.7555H68.5084C68.4345 91.4231 68.2652 91.1369 68.0005 90.8968C67.7389 90.6568 67.3881 90.5368 66.948 90.5368C66.5633 90.5368 66.2263 90.6383 65.937 90.8414C65.6508 91.0415 65.4276 91.3277 65.2676 91.7001C65.1076 92.0694 65.0275 92.5065 65.0275 93.0112C65.0275 93.5282 65.106 93.9745 65.263 94.35C65.4199 94.7254 65.6415 95.0163 65.9277 95.2225C66.217 95.4287 66.5571 95.5318 66.948 95.5318C67.2096 95.5318 67.4466 95.4841 67.6589 95.3887C67.8744 95.2902 68.0544 95.1502 68.1991 94.9686C68.3468 94.787 68.4499 94.5685 68.5084 94.313H69.8518C69.8025 94.7716 69.6532 95.1809 69.404 95.541C69.1547 95.9011 68.8207 96.1842 68.4022 96.3904C67.9867 96.5967 67.4989 96.6998 66.9388 96.6998ZM73.994 96.6998C73.2954 96.6998 72.6937 96.5505 72.1889 96.252C71.6873 95.9503 71.2995 95.5272 71.0256 94.9824C70.7548 94.4346 70.6193 93.7929 70.6193 93.0574C70.6193 92.331 70.7548 91.6909 71.0256 91.1369C71.2995 90.5829 71.6811 90.1505 72.1705 89.8397C72.6629 89.5288 73.2384 89.3734 73.897 89.3734C74.2971 89.3734 74.6849 89.4396 75.0604 89.5719C75.4359 89.7042 75.7729 89.912 76.0714 90.1951C76.3699 90.4783 76.6054 90.8461 76.7777 91.2985C76.9501 91.7478 77.0362 92.2941 77.0362 92.9373V93.4267H71.3995V92.3926H75.6836C75.6836 92.0294 75.6097 91.7078 75.462 91.4277C75.3143 91.1446 75.1066 90.9215 74.8388 90.7583C74.5741 90.5952 74.2633 90.5137 73.9063 90.5137C73.5185 90.5137 73.1799 90.6091 72.8906 90.7999C72.6044 90.9876 72.3828 91.2338 72.2259 91.5385C72.072 91.8401 71.995 92.1679 71.995 92.5218V93.3297C71.995 93.8037 72.0781 94.2069 72.2443 94.5392C72.4136 94.8716 72.649 95.1255 72.9507 95.301C73.2523 95.4733 73.6047 95.5595 74.0078 95.5595C74.2694 95.5595 74.5079 95.5225 74.7234 95.4487C74.9388 95.3717 75.125 95.2579 75.282 95.1071C75.4389 94.9563 75.559 94.7701 75.6421 94.5485L76.9485 94.7839C76.8439 95.1686 76.6561 95.5056 76.3853 95.7949C76.1176 96.0811 75.7806 96.3043 75.3743 96.4643C74.9711 96.6213 74.511 96.6998 73.994 96.6998ZM139.297 96.5566V87.1021H140.724V95.3287H145.008V96.5566H139.297ZM149.19 96.6998C148.492 96.6998 147.89 96.5505 147.385 96.252C146.884 95.9503 146.496 95.5272 146.222 94.9824C145.951 94.4346 145.816 93.7929 145.816 93.0574C145.816 92.331 145.951 91.6909 146.222 91.1369C146.496 90.5829 146.877 90.1505 147.367 89.8397C147.859 89.5288 148.435 89.3734 149.093 89.3734C149.493 89.3734 149.881 89.4396 150.257 89.5719C150.632 89.7042 150.969 89.912 151.268 90.1951C151.566 90.4783 151.802 90.8461 151.974 91.2985C152.146 91.7478 152.233 92.2941 152.233 92.9373V93.4267H146.596V92.3926H150.88C150.88 92.0294 150.806 91.7078 150.658 91.4277C150.511 91.1446 150.303 90.9215 150.035 90.7583C149.77 90.5952 149.46 90.5137 149.103 90.5137C148.715 90.5137 148.376 90.6091 148.087 90.7999C147.801 90.9876 147.579 91.2338 147.422 91.5385C147.268 91.8401 147.191 92.1679 147.191 92.5218V93.3297C147.191 93.8037 147.275 94.2069 147.441 94.5392C147.61 94.8716 147.845 95.1255 148.147 95.301C148.449 95.4733 148.801 95.5595 149.204 95.5595C149.466 95.5595 149.704 95.5225 149.92 95.4487C150.135 95.3717 150.321 95.2579 150.478 95.1071C150.635 94.9563 150.755 94.7701 150.838 94.5485L152.145 94.7839C152.04 95.1686 151.853 95.5056 151.582 95.7949C151.314 96.0811 150.977 96.3043 150.571 96.4643C150.168 96.6213 149.707 96.6998 149.19 96.6998ZM155.438 96.7136C154.988 96.7136 154.582 96.6305 154.219 96.4643C153.856 96.295 153.568 96.0504 153.356 95.7303C153.146 95.4102 153.042 95.0178 153.042 94.5531C153.042 94.153 153.119 93.8237 153.273 93.5652C153.426 93.3066 153.634 93.102 153.896 92.9512C154.157 92.8004 154.45 92.6865 154.773 92.6096C155.096 92.5326 155.425 92.4741 155.761 92.4341C156.186 92.3849 156.53 92.3449 156.795 92.3141C157.06 92.2802 157.252 92.2264 157.372 92.1525C157.492 92.0787 157.552 91.9586 157.552 91.7924V91.7601C157.552 91.3569 157.438 91.0446 157.21 90.823C156.986 90.6014 156.65 90.4906 156.204 90.4906C155.739 90.4906 155.373 90.5937 155.105 90.7999C154.841 91.003 154.658 91.2292 154.556 91.4785L153.259 91.1831C153.413 90.7522 153.637 90.4044 153.933 90.1397C154.231 89.872 154.574 89.6781 154.962 89.5581C155.35 89.435 155.758 89.3734 156.186 89.3734C156.469 89.3734 156.769 89.4073 157.086 89.475C157.406 89.5396 157.704 89.6596 157.981 89.835C158.261 90.0105 158.491 90.2613 158.669 90.5875C158.848 90.9107 158.937 91.3308 158.937 91.8478V96.5566H157.589V95.5872H157.534C157.444 95.7657 157.31 95.9411 157.132 96.1135C156.953 96.2858 156.724 96.4289 156.444 96.5428C156.164 96.6567 155.829 96.7136 155.438 96.7136ZM155.738 95.6056C156.119 95.6056 156.446 95.5302 156.716 95.3794C156.99 95.2286 157.198 95.0317 157.34 94.7885C157.484 94.5423 157.557 94.2792 157.557 93.9991V93.085C157.507 93.1343 157.412 93.1805 157.27 93.2235C157.132 93.2636 156.973 93.2989 156.795 93.3297C156.616 93.3574 156.443 93.3836 156.273 93.4082C156.104 93.4297 155.962 93.4482 155.849 93.4636C155.581 93.4975 155.336 93.5544 155.115 93.6344C154.896 93.7144 154.721 93.8298 154.588 93.9806C154.459 94.1284 154.394 94.3253 154.394 94.5716C154.394 94.9132 154.521 95.1717 154.773 95.3471C155.025 95.5195 155.347 95.6056 155.738 95.6056ZM163.04 96.6951C162.468 96.6951 161.957 96.5489 161.507 96.2566C161.061 95.9611 160.71 95.541 160.455 94.9963C160.202 94.4484 160.076 93.7914 160.076 93.025C160.076 92.2587 160.204 91.6032 160.459 91.0584C160.718 90.5137 161.072 90.0967 161.521 89.8074C161.97 89.5181 162.48 89.3734 163.049 89.3734C163.489 89.3734 163.843 89.4473 164.111 89.595C164.382 89.7396 164.591 89.9089 164.739 90.1028C164.89 90.2967 165.007 90.4675 165.09 90.6152H165.173V87.1021H166.553V96.5566H165.205V95.4533H165.09C165.007 95.6041 164.887 95.7765 164.73 95.9703C164.576 96.1642 164.363 96.3335 164.093 96.4782C163.822 96.6228 163.471 96.6951 163.04 96.6951ZM163.345 95.5179C163.742 95.5179 164.077 95.4133 164.351 95.204C164.628 94.9917 164.837 94.6977 164.979 94.3223C165.124 93.9468 165.196 93.5098 165.196 93.0112C165.196 92.5188 165.125 92.0879 164.984 91.7186C164.842 91.3493 164.634 91.0615 164.36 90.8553C164.086 90.6491 163.748 90.546 163.345 90.546C162.929 90.546 162.583 90.6537 162.306 90.8691C162.029 91.0846 161.82 91.3785 161.678 91.7509C161.54 92.1233 161.47 92.5434 161.47 93.0112C161.47 93.4851 161.541 93.9114 161.683 94.29C161.824 94.6685 162.034 94.9686 162.311 95.1902C162.591 95.4087 162.935 95.5179 163.345 95.5179ZM178.925 87.1021V96.5566H177.614L172.809 89.6227H172.721V96.5566H171.294V87.1021H172.615L177.425 94.0453H177.513V87.1021H178.925ZM182.569 96.7136C182.12 96.7136 181.714 96.6305 181.35 96.4643C180.987 96.295 180.699 96.0504 180.487 95.7303C180.278 95.4102 180.173 95.0178 180.173 94.5531C180.173 94.153 180.25 93.8237 180.404 93.5652C180.558 93.3066 180.766 93.102 181.027 92.9512C181.289 92.8004 181.581 92.6865 181.904 92.6096C182.227 92.5326 182.557 92.4741 182.892 92.4341C183.317 92.3849 183.662 92.3449 183.926 92.3141C184.191 92.2802 184.383 92.2264 184.503 92.1525C184.623 92.0787 184.683 91.9586 184.683 91.7924V91.7601C184.683 91.3569 184.57 91.0446 184.342 90.823C184.117 90.6014 183.782 90.4906 183.335 90.4906C182.871 90.4906 182.504 90.5937 182.237 90.7999C181.972 91.003 181.789 91.2292 181.687 91.4785L180.39 91.1831C180.544 90.7522 180.769 90.4044 181.064 90.1397C181.363 89.872 181.706 89.6781 182.094 89.5581C182.481 89.435 182.889 89.3734 183.317 89.3734C183.6 89.3734 183.9 89.4073 184.217 89.475C184.537 89.5396 184.836 89.6596 185.113 89.835C185.393 90.0105 185.622 90.2613 185.801 90.5875C185.979 90.9107 186.068 91.3308 186.068 91.8478V96.5566H184.72V95.5872H184.665C184.576 95.7657 184.442 95.9411 184.263 96.1135C184.085 96.2858 183.856 96.4289 183.575 96.5428C183.295 96.6567 182.96 96.7136 182.569 96.7136ZM182.869 95.6056C183.251 95.6056 183.577 95.5302 183.848 95.3794C184.122 95.2286 184.33 95.0317 184.471 94.7885C184.616 94.5423 184.688 94.2792 184.688 93.9991V93.085C184.639 93.1343 184.543 93.1805 184.402 93.2235C184.263 93.2636 184.105 93.2989 183.926 93.3297C183.748 93.3574 183.574 93.3836 183.405 93.4082C183.235 93.4297 183.094 93.4482 182.98 93.4636C182.712 93.4975 182.468 93.5544 182.246 93.6344C182.027 93.7144 181.852 93.8298 181.72 93.9806C181.59 94.1284 181.526 94.3253 181.526 94.5716C181.526 94.9132 181.652 95.1717 181.904 95.3471C182.157 95.5195 182.478 95.6056 182.869 95.6056ZM187.517 96.5566V89.4657H188.842V90.6199H188.93C189.077 90.229 189.319 89.9243 189.654 89.7058C189.99 89.4842 190.391 89.3734 190.859 89.3734C191.333 89.3734 191.73 89.4842 192.05 89.7058C192.373 89.9274 192.612 90.2321 192.766 90.6199H192.84C193.009 90.2413 193.278 89.9397 193.648 89.715C194.017 89.4873 194.457 89.3734 194.968 89.3734C195.611 89.3734 196.136 89.575 196.542 89.9782C196.951 90.3813 197.156 90.9892 197.156 91.8017V96.5566H195.776V91.9309C195.776 91.4508 195.645 91.103 195.383 90.8876C195.122 90.6722 194.809 90.5645 194.446 90.5645C193.997 90.5645 193.648 90.7029 193.398 90.9799C193.149 91.2538 193.024 91.6062 193.024 92.0371V96.5566H191.649V91.8432C191.649 91.4585 191.529 91.1492 191.289 90.9153C191.049 90.6814 190.736 90.5645 190.351 90.5645C190.09 90.5645 189.848 90.6337 189.627 90.7722C189.408 90.9076 189.231 91.0969 189.096 91.34C188.963 91.5832 188.897 91.8648 188.897 92.1848V96.5566H187.517ZM201.672 96.6998C200.974 96.6998 200.372 96.5505 199.867 96.252C199.366 95.9503 198.978 95.5272 198.704 94.9824C198.433 94.4346 198.298 93.7929 198.298 93.0574C198.298 92.331 198.433 91.6909 198.704 91.1369C198.978 90.5829 199.359 90.1505 199.849 89.8397C200.341 89.5288 200.917 89.3734 201.575 89.3734C201.975 89.3734 202.363 89.4396 202.739 89.5719C203.114 89.7042 203.451 89.912 203.75 90.1951C204.048 90.4783 204.284 90.8461 204.456 91.2985C204.628 91.7478 204.715 92.2941 204.715 92.9373V93.4267H199.078V92.3926H203.362C203.362 92.0294 203.288 91.7078 203.14 91.4277C202.993 91.1446 202.785 90.9215 202.517 90.7583C202.252 90.5952 201.942 90.5137 201.585 90.5137C201.197 90.5137 200.858 90.6091 200.569 90.7999C200.283 90.9876 200.061 91.2338 199.904 91.5385C199.75 91.8401 199.673 92.1679 199.673 92.5218V93.3297C199.673 93.8037 199.756 94.2069 199.923 94.5392C200.092 94.8716 200.327 95.1255 200.629 95.301C200.931 95.4733 201.283 95.5595 201.686 95.5595C201.948 95.5595 202.186 95.5225 202.402 95.4487C202.617 95.3717 202.803 95.2579 202.96 95.1071C203.117 94.9563 203.237 94.7701 203.32 94.5485L204.627 94.7839C204.522 95.1686 204.334 95.5056 204.064 95.7949C203.796 96.0811 203.459 96.3043 203.053 96.4643C202.649 96.6213 202.189 96.6998 201.672 96.6998ZM260.875 96.5566V87.1021H264.245C264.977 87.1021 265.585 87.2283 266.068 87.4806C266.554 87.733 266.918 88.0823 267.158 88.5286C267.398 88.9718 267.518 89.4842 267.518 90.0659C267.518 90.6445 267.396 91.1538 267.153 91.5939C266.913 92.031 266.55 92.371 266.063 92.6142C265.58 92.8573 264.972 92.9789 264.24 92.9789H261.687V91.7509H264.111C264.572 91.7509 264.948 91.6847 265.237 91.5524C265.53 91.42 265.743 91.2277 265.879 90.9753C266.014 90.723 266.082 90.4198 266.082 90.0659C266.082 89.7089 266.013 89.3996 265.874 89.138C265.739 88.8764 265.525 88.6763 265.233 88.5378C264.943 88.3962 264.563 88.3255 264.092 88.3255H262.301V96.5566H260.875ZM265.542 92.291L267.878 96.5566H266.253L263.963 92.291H265.542ZM271.72 96.6998C271.021 96.6998 270.42 96.5505 269.915 96.252C269.413 95.9503 269.025 95.5272 268.752 94.9824C268.481 94.4346 268.345 93.7929 268.345 93.0574C268.345 92.331 268.481 91.6909 268.752 91.1369C269.025 90.5829 269.407 90.1505 269.896 89.8397C270.389 89.5288 270.964 89.3734 271.623 89.3734C272.023 89.3734 272.411 89.4396 272.786 89.5719C273.162 89.7042 273.499 89.912 273.797 90.1951C274.096 90.4783 274.331 90.8461 274.504 91.2985C274.676 91.7478 274.762 92.2941 274.762 92.9373V93.4267H269.125V92.3926H273.41C273.41 92.0294 273.336 91.7078 273.188 91.4277C273.04 91.1446 272.832 90.9215 272.565 90.7583C272.3 90.5952 271.989 90.5137 271.632 90.5137C271.244 90.5137 270.906 90.6091 270.617 90.7999C270.33 90.9876 270.109 91.2338 269.952 91.5385C269.798 91.8401 269.721 92.1679 269.721 92.5218V93.3297C269.721 93.8037 269.804 94.2069 269.97 94.5392C270.14 94.8716 270.375 95.1255 270.677 95.301C270.978 95.4733 271.331 95.5595 271.734 95.5595C271.995 95.5595 272.234 95.5225 272.449 95.4487C272.665 95.3717 272.851 95.2579 273.008 95.1071C273.165 94.9563 273.285 94.7701 273.368 94.5485L274.674 94.7839C274.57 95.1686 274.382 95.5056 274.111 95.7949C273.844 96.0811 273.506 96.3043 273.1 96.4643C272.697 96.6213 272.237 96.6998 271.72 96.6998ZM275.904 96.5566V89.4657H277.229V90.6199H277.316C277.464 90.229 277.706 89.9243 278.041 89.7058C278.377 89.4842 278.778 89.3734 279.246 89.3734C279.72 89.3734 280.117 89.4842 280.437 89.7058C280.76 89.9274 280.999 90.2321 281.153 90.6199H281.226C281.396 90.2413 281.665 89.9397 282.034 89.715C282.404 89.4873 282.844 89.3734 283.355 89.3734C283.998 89.3734 284.523 89.575 284.929 89.9782C285.338 90.3813 285.543 90.9892 285.543 91.8017V96.5566H284.163V91.9309C284.163 91.4508 284.032 91.103 283.77 90.8876C283.509 90.6722 283.196 90.5645 282.833 90.5645C282.384 90.5645 282.034 90.7029 281.785 90.9799C281.536 91.2538 281.411 91.6062 281.411 92.0371V96.5566H280.035V91.8432C280.035 91.4585 279.915 91.1492 279.675 90.9153C279.435 90.6814 279.123 90.5645 278.738 90.5645C278.477 90.5645 278.235 90.6337 278.013 90.7722C277.795 90.9076 277.618 91.0969 277.483 91.34C277.35 91.5832 277.284 91.8648 277.284 92.1848V96.5566H275.904ZM289.067 96.7136C288.617 96.7136 288.211 96.6305 287.848 96.4643C287.485 96.295 287.197 96.0504 286.984 95.7303C286.775 95.4102 286.671 95.0178 286.671 94.5531C286.671 94.153 286.748 93.8237 286.901 93.5652C287.055 93.3066 287.263 93.102 287.525 92.9512C287.786 92.8004 288.079 92.6865 288.402 92.6096C288.725 92.5326 289.054 92.4741 289.39 92.4341C289.814 92.3849 290.159 92.3449 290.424 92.3141C290.688 92.2802 290.881 92.2264 291.001 92.1525C291.121 92.0787 291.181 91.9586 291.181 91.7924V91.7601C291.181 91.3569 291.067 91.0446 290.839 90.823C290.615 90.6014 290.279 90.4906 289.833 90.4906C289.368 90.4906 289.002 90.5937 288.734 90.7999C288.469 91.003 288.286 91.2292 288.185 91.4785L286.888 91.1831C287.041 90.7522 287.266 90.4044 287.562 90.1397C287.86 89.872 288.203 89.6781 288.591 89.5581C288.979 89.435 289.387 89.3734 289.814 89.3734C290.098 89.3734 290.398 89.4073 290.715 89.475C291.035 89.5396 291.333 89.6596 291.61 89.835C291.89 90.0105 292.12 90.2613 292.298 90.5875C292.477 90.9107 292.566 91.3308 292.566 91.8478V96.5566H291.218V95.5872H291.162C291.073 95.7657 290.939 95.9411 290.761 96.1135C290.582 96.2858 290.353 96.4289 290.073 96.5428C289.793 96.6567 289.457 96.7136 289.067 96.7136ZM289.367 95.6056C289.748 95.6056 290.074 95.5302 290.345 95.3794C290.619 95.2286 290.827 95.0317 290.969 94.7885C291.113 94.5423 291.185 94.2792 291.185 93.9991V93.085C291.136 93.1343 291.041 93.1805 290.899 93.2235C290.761 93.2636 290.602 93.2989 290.424 93.3297C290.245 93.3574 290.071 93.3836 289.902 93.4082C289.733 93.4297 289.591 93.4482 289.477 93.4636C289.21 93.4975 288.965 93.5544 288.743 93.6344C288.525 93.7144 288.349 93.8298 288.217 93.9806C288.088 94.1284 288.023 94.3253 288.023 94.5716C288.023 94.9132 288.149 95.1717 288.402 95.3471C288.654 95.5195 288.976 95.6056 289.367 95.6056ZM294.014 96.5566V89.4657H295.348V90.5922H295.422C295.552 90.2105 295.779 89.9105 296.106 89.6919C296.435 89.4703 296.807 89.3596 297.223 89.3596C297.309 89.3596 297.41 89.3626 297.527 89.3688C297.647 89.3749 297.741 89.3826 297.809 89.3919V90.7122C297.754 90.6968 297.655 90.6799 297.514 90.6614C297.372 90.6399 297.23 90.6291 297.089 90.6291C296.763 90.6291 296.472 90.6983 296.216 90.8368C295.964 90.9722 295.764 91.1615 295.616 91.4047C295.468 91.6447 295.395 91.9186 295.395 92.2264V96.5566H294.014ZM299.883 94.1515L299.874 92.4664H300.114L302.939 89.4657H304.592L301.37 92.8819H301.153L299.883 94.1515ZM298.614 96.5566V87.1021H299.994V96.5566H298.614ZM303.092 96.5566L300.553 93.1866L301.503 92.2218L304.786 96.5566H303.092ZM357.428 96.5566V87.1021H360.798C361.531 87.1021 362.138 87.2283 362.622 87.4806C363.108 87.733 363.471 88.0823 363.711 88.5286C363.951 88.9718 364.071 89.4842 364.071 90.0659C364.071 90.6445 363.95 91.1538 363.706 91.5939C363.466 92.031 363.103 92.371 362.617 92.6142C362.134 92.8573 361.526 92.9789 360.793 92.9789H358.241V91.7509H360.664C361.126 91.7509 361.501 91.6847 361.791 91.5524C362.083 91.42 362.297 91.2277 362.432 90.9753C362.568 90.723 362.635 90.4198 362.635 90.0659C362.635 89.7089 362.566 89.3996 362.428 89.138C362.292 88.8764 362.078 88.6763 361.786 88.5378C361.497 88.3962 361.117 88.3255 360.646 88.3255H358.855V96.5566H357.428ZM362.095 92.291L364.431 96.5566H362.806L360.516 92.291H362.095ZM368.273 96.6998C367.575 96.6998 366.973 96.5505 366.468 96.252C365.967 95.9503 365.579 95.5272 365.305 94.9824C365.034 94.4346 364.899 93.7929 364.899 93.0574C364.899 92.331 365.034 91.6909 365.305 91.1369C365.579 90.5829 365.961 90.1505 366.45 89.8397C366.942 89.5288 367.518 89.3734 368.176 89.3734C368.577 89.3734 368.964 89.4396 369.34 89.5719C369.715 89.7042 370.052 89.912 370.351 90.1951C370.649 90.4783 370.885 90.8461 371.057 91.2985C371.229 91.7478 371.316 92.2941 371.316 92.9373V93.4267H365.679V92.3926H369.963C369.963 92.0294 369.889 91.7078 369.741 91.4277C369.594 91.1446 369.386 90.9215 369.118 90.7583C368.853 90.5952 368.543 90.5137 368.186 90.5137C367.798 90.5137 367.459 90.6091 367.17 90.7999C366.884 90.9876 366.662 91.2338 366.505 91.5385C366.351 91.8401 366.274 92.1679 366.274 92.5218V93.3297C366.274 93.8037 366.358 94.2069 366.524 94.5392C366.693 94.8716 366.928 95.1255 367.23 95.301C367.532 95.4733 367.884 95.5595 368.287 95.5595C368.549 95.5595 368.787 95.5225 369.003 95.4487C369.218 95.3717 369.404 95.2579 369.561 95.1071C369.718 94.9563 369.838 94.7701 369.921 94.5485L371.228 94.7839C371.123 95.1686 370.936 95.5056 370.665 95.7949C370.397 96.0811 370.06 96.3043 369.654 96.4643C369.251 96.6213 368.79 96.6998 368.273 96.6998ZM372.457 96.5566V89.4657H373.782V90.6199H373.87C374.017 90.229 374.259 89.9243 374.595 89.7058C374.93 89.4842 375.332 89.3734 375.799 89.3734C376.273 89.3734 376.67 89.4842 376.99 89.7058C377.314 89.9274 377.552 90.2321 377.706 90.6199H377.78C377.949 90.2413 378.218 89.9397 378.588 89.715C378.957 89.4873 379.397 89.3734 379.908 89.3734C380.551 89.3734 381.076 89.575 381.482 89.9782C381.892 90.3813 382.096 90.9892 382.096 91.8017V96.5566H380.716V91.9309C380.716 91.4508 380.585 91.103 380.324 90.8876C380.062 90.6722 379.75 90.5645 379.386 90.5645C378.937 90.5645 378.588 90.7029 378.339 90.9799C378.089 91.2538 377.965 91.6062 377.965 92.0371V96.5566H376.589V91.8432C376.589 91.4585 376.469 91.1492 376.229 90.9153C375.989 90.6814 375.676 90.5645 375.292 90.5645C375.03 90.5645 374.788 90.6337 374.567 90.7722C374.348 90.9076 374.171 91.0969 374.036 91.34C373.904 91.5832 373.837 91.8648 373.837 92.1848V96.5566H372.457ZM383.556 96.5566V89.4657H384.937V96.5566H383.556ZM384.253 88.3716C384.013 88.3716 383.807 88.2916 383.635 88.1316C383.466 87.9685 383.381 87.7746 383.381 87.5499C383.381 87.3221 383.466 87.1283 383.635 86.9682C383.807 86.8051 384.013 86.7235 384.253 86.7235C384.494 86.7235 384.698 86.8051 384.867 86.9682C385.04 87.1283 385.126 87.3221 385.126 87.5499C385.126 87.7746 385.04 87.9685 384.867 88.1316C384.698 88.2916 384.494 88.3716 384.253 88.3716ZM387.784 92.3464V96.5566H386.404V89.4657H387.729V90.6199H387.816C387.979 90.2444 388.235 89.9428 388.583 89.715C388.934 89.4873 389.375 89.3734 389.908 89.3734C390.391 89.3734 390.814 89.475 391.177 89.6781C391.54 89.8781 391.822 90.1767 392.022 90.5737C392.222 90.9707 392.322 91.4616 392.322 92.0463V96.5566H390.942V92.2125C390.942 91.6986 390.808 91.2969 390.54 91.0076C390.272 90.7153 389.905 90.5691 389.437 90.5691C389.117 90.5691 388.832 90.6383 388.583 90.7768C388.336 90.9153 388.141 91.1184 387.996 91.3862C387.855 91.6509 387.784 91.9709 387.784 92.3464ZM396.438 96.6951C395.865 96.6951 395.354 96.5489 394.905 96.2566C394.459 95.9611 394.108 95.541 393.852 94.9963C393.6 94.4484 393.474 93.7914 393.474 93.025C393.474 92.2587 393.602 91.6032 393.857 91.0584C394.116 90.5137 394.47 90.0967 394.919 89.8074C395.368 89.5181 395.878 89.3734 396.447 89.3734C396.887 89.3734 397.241 89.4473 397.509 89.595C397.78 89.7396 397.989 89.9089 398.137 90.1028C398.287 90.2967 398.404 90.4675 398.487 90.6152H398.571V87.1021H399.951V96.5566H398.603V95.4533H398.487C398.404 95.6041 398.284 95.7765 398.127 95.9703C397.973 96.1642 397.761 96.3335 397.49 96.4782C397.219 96.6228 396.869 96.6951 396.438 96.6951ZM396.742 95.5179C397.139 95.5179 397.475 95.4133 397.749 95.204C398.026 94.9917 398.235 94.6977 398.377 94.3223C398.521 93.9468 398.594 93.5098 398.594 93.0112C398.594 92.5188 398.523 92.0879 398.381 91.7186C398.24 91.3493 398.032 91.0615 397.758 90.8553C397.484 90.6491 397.146 90.546 396.742 90.546C396.327 90.546 395.981 90.6537 395.704 90.8691C395.427 91.0846 395.217 91.3785 395.076 91.7509C394.937 92.1233 394.868 92.5434 394.868 93.0112C394.868 93.4851 394.939 93.9114 395.08 94.29C395.222 94.6685 395.431 94.9686 395.708 95.1902C395.988 95.4087 396.333 95.5179 396.742 95.5179ZM404.587 96.6998C403.888 96.6998 403.287 96.5505 402.782 96.252C402.28 95.9503 401.893 95.5272 401.619 94.9824C401.348 94.4346 401.212 93.7929 401.212 93.0574C401.212 92.331 401.348 91.6909 401.619 91.1369C401.893 90.5829 402.274 90.1505 402.764 89.8397C403.256 89.5288 403.831 89.3734 404.49 89.3734C404.89 89.3734 405.278 89.4396 405.653 89.5719C406.029 89.7042 406.366 89.912 406.664 90.1951C406.963 90.4783 407.198 90.8461 407.371 91.2985C407.543 91.7478 407.629 92.2941 407.629 92.9373V93.4267H401.993V92.3926H406.277C406.277 92.0294 406.203 91.7078 406.055 91.4277C405.907 91.1446 405.7 90.9215 405.432 90.7583C405.167 90.5952 404.856 90.5137 404.499 90.5137C404.112 90.5137 403.773 90.6091 403.484 90.7999C403.197 90.9876 402.976 91.2338 402.819 91.5385C402.665 91.8401 402.588 92.1679 402.588 92.5218V93.3297C402.588 93.8037 402.671 94.2069 402.837 94.5392C403.007 94.8716 403.242 95.1255 403.544 95.301C403.845 95.4733 404.198 95.5595 404.601 95.5595C404.862 95.5595 405.101 95.5225 405.316 95.4487C405.532 95.3717 405.718 95.2579 405.875 95.1071C406.032 94.9563 406.152 94.7701 406.235 94.5485L407.542 94.7839C407.437 95.1686 407.249 95.5056 406.978 95.7949C406.711 96.0811 406.374 96.3043 405.967 96.4643C405.564 96.6213 405.104 96.6998 404.587 96.6998ZM408.771 96.5566V89.4657H410.105V90.5922H410.179C410.308 90.2105 410.536 89.9105 410.862 89.6919C411.191 89.4703 411.564 89.3596 411.979 89.3596C412.065 89.3596 412.167 89.3626 412.284 89.3688C412.404 89.3749 412.498 89.3826 412.566 89.3919V90.7122C412.51 90.6968 412.412 90.6799 412.27 90.6614C412.129 90.6399 411.987 90.6291 411.845 90.6291C411.519 90.6291 411.228 90.6983 410.973 90.8368C410.72 90.9722 410.52 91.1615 410.373 91.4047C410.225 91.6447 410.151 91.9186 410.151 92.2264V96.5566H408.771ZM419.592 96.5566H416.531V87.1021H419.689C420.615 87.1021 421.411 87.2914 422.076 87.6699C422.74 88.0454 423.25 88.5855 423.604 89.2903C423.961 89.992 424.139 90.8337 424.139 91.8155C424.139 92.8004 423.959 93.6467 423.599 94.3546C423.242 95.0624 422.725 95.6072 422.048 95.9888C421.371 96.3674 420.552 96.5566 419.592 96.5566ZM417.958 95.3102H419.514C420.234 95.3102 420.832 95.1748 421.309 94.9039C421.786 94.63 422.143 94.2346 422.38 93.7175C422.617 93.1974 422.736 92.5634 422.736 91.8155C422.736 91.0738 422.617 90.4444 422.38 89.9274C422.146 89.4103 421.797 89.0179 421.332 88.7502C420.868 88.4824 420.291 88.3485 419.601 88.3485H417.958V95.3102ZM427.476 96.7136C427.027 96.7136 426.62 96.6305 426.257 96.4643C425.894 96.295 425.606 96.0504 425.394 95.7303C425.185 95.4102 425.08 95.0178 425.08 94.5531C425.08 94.153 425.157 93.8237 425.311 93.5652C425.465 93.3066 425.672 93.102 425.934 92.9512C426.196 92.8004 426.488 92.6865 426.811 92.6096C427.134 92.5326 427.464 92.4741 427.799 92.4341C428.224 92.3849 428.568 92.3449 428.833 92.3141C429.098 92.2802 429.29 92.2264 429.41 92.1525C429.53 92.0787 429.59 91.9586 429.59 91.7924V91.7601C429.59 91.3569 429.476 91.0446 429.249 90.823C429.024 90.6014 428.688 90.4906 428.242 90.4906C427.777 90.4906 427.411 90.5937 427.143 90.7999C426.879 91.003 426.696 91.2292 426.594 91.4785L425.297 91.1831C425.451 90.7522 425.675 90.4044 425.971 90.1397C426.269 89.872 426.613 89.6781 427 89.5581C427.388 89.435 427.796 89.3734 428.224 89.3734C428.507 89.3734 428.807 89.4073 429.124 89.475C429.444 89.5396 429.743 89.6596 430.02 89.835C430.3 90.0105 430.529 90.2613 430.707 90.5875C430.886 90.9107 430.975 91.3308 430.975 91.8478V96.5566H429.627V95.5872H429.572C429.483 95.7657 429.349 95.9411 429.17 96.1135C428.992 96.2858 428.762 96.4289 428.482 96.5428C428.202 96.6567 427.867 96.7136 427.476 96.7136ZM427.776 95.6056C428.158 95.6056 428.484 95.5302 428.755 95.3794C429.029 95.2286 429.236 95.0317 429.378 94.7885C429.523 94.5423 429.595 94.2792 429.595 93.9991V93.085C429.546 93.1343 429.45 93.1805 429.309 93.2235C429.17 93.2636 429.012 93.2989 428.833 93.3297C428.655 93.3574 428.481 93.3836 428.311 93.4082C428.142 93.4297 428.001 93.4482 427.887 93.4636C427.619 93.4975 427.374 93.5544 427.153 93.6344C426.934 93.7144 426.759 93.8298 426.626 93.9806C426.497 94.1284 426.433 94.3253 426.433 94.5716C426.433 94.9132 426.559 95.1717 426.811 95.3471C427.063 95.5195 427.385 95.6056 427.776 95.6056ZM435.734 89.4657V90.5737H431.86V89.4657H435.734ZM432.899 87.7669H434.28V94.4746C434.28 94.7424 434.32 94.944 434.4 95.0794C434.48 95.2117 434.583 95.3025 434.709 95.3517C434.838 95.3979 434.978 95.421 435.129 95.421C435.24 95.421 435.337 95.4133 435.42 95.3979C435.503 95.3825 435.568 95.3702 435.614 95.361L435.863 96.5012C435.783 96.532 435.669 96.5628 435.521 96.5936C435.374 96.6274 435.189 96.6459 434.967 96.649C434.604 96.6551 434.266 96.5905 433.952 96.4551C433.638 96.3197 433.384 96.1104 433.19 95.8272C432.996 95.5441 432.899 95.1886 432.899 94.7608V87.7669ZM439.851 96.6998C439.152 96.6998 438.55 96.5505 438.045 96.252C437.544 95.9503 437.156 95.5272 436.882 94.9824C436.611 94.4346 436.476 93.7929 436.476 93.0574C436.476 92.331 436.611 91.6909 436.882 91.1369C437.156 90.5829 437.538 90.1505 438.027 89.8397C438.519 89.5288 439.095 89.3734 439.754 89.3734C440.154 89.3734 440.541 89.4396 440.917 89.5719C441.292 89.7042 441.629 89.912 441.928 90.1951C442.226 90.4783 442.462 90.8461 442.634 91.2985C442.807 91.7478 442.893 92.2941 442.893 92.9373V93.4267H437.256V92.3926H441.54C441.54 92.0294 441.466 91.7078 441.319 91.4277C441.171 91.1446 440.963 90.9215 440.695 90.7583C440.431 90.5952 440.12 90.5137 439.763 90.5137C439.375 90.5137 439.036 90.6091 438.747 90.7999C438.461 90.9876 438.239 91.2338 438.082 91.5385C437.929 91.8401 437.852 92.1679 437.852 92.5218V93.3297C437.852 93.8037 437.935 94.2069 438.101 94.5392C438.27 94.8716 438.506 95.1255 438.807 95.301C439.109 95.4733 439.461 95.5595 439.864 95.5595C440.126 95.5595 440.365 95.5225 440.58 95.4487C440.795 95.3717 440.982 95.2579 441.139 95.1071C441.295 94.9563 441.416 94.7701 441.499 94.5485L442.805 94.7839C442.7 95.1686 442.513 95.5056 442.242 95.7949C441.974 96.0811 441.637 96.3043 441.231 96.4643C440.828 96.6213 440.368 96.6998 439.851 96.6998ZM446.729 88.3301V87.1021H454.046V88.3301H451.096V96.5566H449.675V88.3301H446.729ZM455.163 96.5566V89.4657H456.543V96.5566H455.163ZM455.86 88.3716C455.62 88.3716 455.413 88.2916 455.241 88.1316C455.072 87.9685 454.987 87.7746 454.987 87.5499C454.987 87.3221 455.072 87.1283 455.241 86.9682C455.413 86.8051 455.62 86.7235 455.86 86.7235C456.1 86.7235 456.304 86.8051 456.474 86.9682C456.646 87.1283 456.732 87.3221 456.732 87.5499C456.732 87.7746 456.646 87.9685 456.474 88.1316C456.304 88.2916 456.1 88.3716 455.86 88.3716ZM458.01 96.5566V89.4657H459.335V90.6199H459.422C459.57 90.229 459.812 89.9243 460.147 89.7058C460.483 89.4842 460.884 89.3734 461.352 89.3734C461.826 89.3734 462.223 89.4842 462.543 89.7058C462.866 89.9274 463.105 90.2321 463.259 90.6199H463.333C463.502 90.2413 463.771 89.9397 464.141 89.715C464.51 89.4873 464.95 89.3734 465.461 89.3734C466.104 89.3734 466.629 89.575 467.035 89.9782C467.444 90.3813 467.649 90.9892 467.649 91.8017V96.5566H466.269V91.9309C466.269 91.4508 466.138 91.103 465.876 90.8876C465.615 90.6722 465.302 90.5645 464.939 90.5645C464.49 90.5645 464.141 90.7029 463.891 90.9799C463.642 91.2538 463.517 91.6062 463.517 92.0371V96.5566H462.142V91.8432C462.142 91.4585 462.022 91.1492 461.781 90.9153C461.541 90.6814 461.229 90.5645 460.844 90.5645C460.583 90.5645 460.341 90.6337 460.12 90.7722C459.901 90.9076 459.724 91.0969 459.589 91.34C459.456 91.5832 459.39 91.8648 459.39 92.1848V96.5566H458.01ZM472.165 96.6998C471.467 96.6998 470.865 96.5505 470.36 96.252C469.859 95.9503 469.471 95.5272 469.197 94.9824C468.926 94.4346 468.791 93.7929 468.791 93.0574C468.791 92.331 468.926 91.6909 469.197 91.1369C469.471 90.5829 469.852 90.1505 470.342 89.8397C470.834 89.5288 471.41 89.3734 472.068 89.3734C472.468 89.3734 472.856 89.4396 473.232 89.5719C473.607 89.7042 473.944 89.912 474.243 90.1951C474.541 90.4783 474.777 90.8461 474.949 91.2985C475.121 91.7478 475.207 92.2941 475.207 92.9373V93.4267H469.571V92.3926H473.855C473.855 92.0294 473.781 91.7078 473.633 91.4277C473.486 91.1446 473.278 90.9215 473.01 90.7583C472.745 90.5952 472.434 90.5137 472.077 90.5137C471.69 90.5137 471.351 90.6091 471.062 90.7999C470.776 90.9876 470.554 91.2338 470.397 91.5385C470.243 91.8401 470.166 92.1679 470.166 92.5218V93.3297C470.166 93.8037 470.249 94.2069 470.416 94.5392C470.585 94.8716 470.82 95.1255 471.122 95.301C471.423 95.4733 471.776 95.5595 472.179 95.5595C472.441 95.5595 472.679 95.5225 472.895 95.4487C473.11 95.3717 473.296 95.2579 473.453 95.1071C473.61 94.9563 473.73 94.7701 473.813 94.5485L475.12 94.7839C475.015 95.1686 474.827 95.5056 474.557 95.7949C474.289 96.0811 473.952 96.3043 473.546 96.4643C473.142 96.6213 472.682 96.6998 472.165 96.6998Z" fill="white"/>
<rect x="20.2153" y="157.926" width="476.313" height="1.89748" fill="#F5F5F9"/>
<rect x="20.2153" y="199.823" width="476.313" height="1.89748" fill="#F5F5F9"/>
<rect x="20.2153" y="241.721" width="476.313" height="1.89748" fill="#F5F5F9"/>
<rect x="20.2153" y="283.618" width="476.313" height="1.89748" fill="#F5F5F9"/>
<g filter="url(#filter2_d_600_1983)">
<rect x="324.215" y="161" width="191.929" height="200" rx="10" fill="white"/>
<rect x="324.715" y="161.5" width="190.929" height="199" rx="9.5" stroke="#EEEEEE"/>
</g>
<rect x="340.715" y="222.5" width="160" height="115" rx="14.5" fill="white" stroke="#DEE1E2"/>
<path d="M483.37 248.869C483.228 248.181 482.843 247.564 482.283 247.126C481.723 246.688 481.023 246.456 480.306 246.471H478.99C478.209 246.471 477.459 246.168 476.907 245.627C476.354 245.087 476.044 244.354 476.044 243.589V229.674C476.057 226.718 475.177 223.824 473.513 221.357C471.85 218.889 469.477 216.958 466.694 215.806C466.415 215.702 466.174 215.517 466.002 215.278C465.831 215.038 465.737 214.753 465.733 214.46V213.574C465.758 212.436 465.34 211.331 464.564 210.482C463.787 209.634 462.71 209.107 461.551 209.006C460.951 208.975 460.35 209.063 459.786 209.266C459.223 209.469 458.707 209.783 458.271 210.187C457.835 210.592 457.489 211.079 457.252 211.619C457.015 212.16 456.893 212.741 456.894 213.329V214.436C456.89 214.731 456.794 215.018 456.62 215.26C456.446 215.501 456.201 215.685 455.918 215.787C453.167 216.845 450.805 218.688 449.14 221.076C447.475 223.465 446.584 226.289 446.583 229.18V243.589C446.583 244.354 446.272 245.087 445.72 245.627C445.167 246.168 444.418 246.471 443.637 246.471H442.321C441.604 246.456 440.904 246.688 440.344 247.126C439.784 247.564 439.399 248.181 439.257 248.869C439.185 249.283 439.206 249.707 439.319 250.112C439.432 250.517 439.634 250.892 439.911 251.213C440.187 251.534 440.533 251.791 440.922 251.968C441.311 252.144 441.735 252.236 442.164 252.235H480.463C480.892 252.236 481.316 252.144 481.705 251.968C482.094 251.791 482.439 251.534 482.716 251.213C482.993 250.892 483.195 250.517 483.308 250.112C483.42 249.707 483.442 249.283 483.37 248.869Z" fill="#F0C419"/>
<path d="M452.228 230.137C451.835 230.137 451.457 229.99 451.179 229.729C450.901 229.467 450.745 229.113 450.745 228.743C450.74 226.784 451.366 224.87 452.541 223.252C453.715 221.635 455.384 220.389 457.326 219.68C457.509 219.607 457.705 219.569 457.903 219.568C458.101 219.568 458.298 219.604 458.481 219.676C458.664 219.748 458.829 219.854 458.968 219.987C459.107 220.12 459.216 220.278 459.288 220.451C459.361 220.625 459.396 220.81 459.391 220.996C459.386 221.183 459.342 221.366 459.26 221.536C459.179 221.706 459.062 221.859 458.916 221.985C458.771 222.112 458.6 222.21 458.414 222.273C457.026 222.779 455.835 223.668 454.995 224.823C454.156 225.978 453.708 227.344 453.711 228.743C453.711 229.113 453.555 229.467 453.277 229.729C452.999 229.99 452.621 230.137 452.228 230.137Z" fill="#F3D55B"/>
<path d="M466.117 252.235V253.677C466.117 254.823 465.611 255.923 464.71 256.734C463.809 257.545 462.587 258 461.313 258C460.039 258 458.817 257.545 457.916 256.734C457.016 255.923 456.509 254.823 456.509 253.677V252.235H466.117Z" fill="#F29C1F"/>
<path opacity="0.4" d="M359.615 250C362.045 250 364.015 248.03 364.015 245.6C364.015 243.17 362.045 241.2 359.615 241.2C357.185 241.2 355.215 243.17 355.215 245.6C355.215 248.03 357.185 250 359.615 250Z" fill="#4482C3"/>
<path opacity="0.4" d="M359.615 285.2C362.045 285.2 364.015 283.23 364.015 280.8C364.015 278.37 362.045 276.4 359.615 276.4C357.185 276.4 355.215 278.37 355.215 280.8C355.215 283.23 357.185 285.2 359.615 285.2Z" fill="#E64C3C"/>
<path opacity="0.4" d="M359.615 320.401C362.045 320.401 364.015 318.431 364.015 316.001C364.015 313.571 362.045 311.601 359.615 311.601C357.185 311.601 355.215 313.571 355.215 316.001C355.215 318.431 357.185 320.401 359.615 320.401Z" fill="#F29C1F"/>
<path d="M417.54 243.4H374.604C373.812 243.4 373.051 243.168 372.491 242.756C371.93 242.343 371.615 241.783 371.615 241.2C371.615 240.617 371.93 240.057 372.491 239.644C373.051 239.232 373.812 239 374.604 239H417.54C418.333 239 419.093 239.232 419.654 239.644C420.214 240.057 420.529 240.617 420.529 241.2C420.529 241.783 420.214 242.343 419.654 242.756C419.093 243.168 418.333 243.4 417.54 243.4ZM417.54 252.2H374.604C373.812 252.2 373.051 251.968 372.491 251.556C371.93 251.143 371.615 250.583 371.615 250C371.615 249.417 371.93 248.857 372.491 248.444C373.051 248.032 373.812 247.8 374.604 247.8H417.54C418.333 247.8 419.093 248.032 419.654 248.444C420.214 248.857 420.529 249.417 420.529 250C420.529 250.583 420.214 251.143 419.654 251.556C419.093 251.968 418.333 252.2 417.54 252.2ZM448.791 278.6H374.604C373.812 278.6 373.051 278.368 372.491 277.956C371.93 277.543 371.615 276.983 371.615 276.4C371.615 275.817 371.93 275.257 372.491 274.844C373.051 274.432 373.812 274.2 374.604 274.2H448.791C449.584 274.2 450.344 274.432 450.904 274.844C451.465 275.257 451.78 275.817 451.78 276.4C451.78 276.983 451.465 277.543 450.904 277.956C450.344 278.368 449.584 278.6 448.791 278.6ZM478.683 287.4H374.604C373.812 287.4 373.051 287.168 372.491 286.756C371.93 286.343 371.615 285.783 371.615 285.2C371.615 284.617 371.93 284.057 372.491 283.644C373.051 283.232 373.812 283 374.604 283H478.683C479.475 283 480.236 283.232 480.796 283.644C481.357 284.057 481.672 284.617 481.672 285.2C481.672 285.783 481.357 286.343 480.796 286.756C480.236 287.168 479.475 287.4 478.683 287.4ZM479.226 313.8H374.604C373.812 313.8 373.051 313.568 372.491 313.156C371.93 312.743 371.615 312.183 371.615 311.6C371.615 311.017 371.93 310.457 372.491 310.044C373.051 309.632 373.812 309.4 374.604 309.4H479.226C480.019 309.4 480.779 309.632 481.34 310.044C481.9 310.457 482.215 311.017 482.215 311.6C482.215 312.183 481.9 312.743 481.34 313.156C480.779 313.568 480.019 313.8 479.226 313.8ZM479.226 322.6H374.604C373.812 322.6 373.051 322.368 372.491 321.956C371.93 321.543 371.615 320.983 371.615 320.4C371.615 319.817 371.93 319.257 372.491 318.844C373.051 318.432 373.812 318.2 374.604 318.2H479.226C480.019 318.2 480.779 318.432 481.34 318.844C481.9 319.257 482.215 319.817 482.215 320.4C482.215 320.983 481.9 321.543 481.34 321.956C480.779 322.368 480.019 322.6 479.226 322.6Z" fill="#DFE6EE"/>
<path d="M334.215 161.5H506.215C511.462 161.5 515.715 165.753 515.715 171V199.5H324.715V171C324.715 165.753 328.969 161.5 334.215 161.5Z" fill="#295583" stroke="#295583"/>
<rect x="324.995" y="199.381" width="191.929" height="0.957602" fill="#EAEAEA"/>
<path d="M339.464 186V175.091H343.352C344.197 175.091 344.899 175.237 345.456 175.528C346.017 175.819 346.436 176.222 346.713 176.737C346.99 177.248 347.129 177.839 347.129 178.511C347.129 179.178 346.989 179.766 346.708 180.274C346.431 180.778 346.012 181.17 345.451 181.451C344.893 181.732 344.192 181.872 343.347 181.872H340.401V180.455H343.198C343.73 180.455 344.164 180.379 344.498 180.226C344.835 180.073 345.082 179.851 345.238 179.56C345.394 179.269 345.472 178.919 345.472 178.511C345.472 178.099 345.392 177.742 345.233 177.44C345.076 177.138 344.83 176.907 344.492 176.748C344.158 176.584 343.72 176.502 343.176 176.502H341.11V186H339.464ZM344.849 181.078L347.544 186H345.669L343.027 181.078H344.849ZM351.978 186.165C351.172 186.165 350.477 185.993 349.895 185.648C349.316 185.3 348.869 184.812 348.553 184.184C348.24 183.551 348.084 182.811 348.084 181.962C348.084 181.124 348.24 180.386 348.553 179.746C348.869 179.107 349.309 178.608 349.874 178.25C350.442 177.891 351.106 177.712 351.866 177.712C352.327 177.712 352.775 177.788 353.208 177.941C353.641 178.093 354.03 178.333 354.375 178.66C354.719 178.987 354.991 179.411 355.19 179.933C355.389 180.451 355.488 181.082 355.488 181.824V182.388H348.984V181.195H353.927C353.927 180.776 353.842 180.405 353.672 180.082C353.501 179.755 353.261 179.498 352.952 179.31C352.647 179.121 352.288 179.027 351.876 179.027C351.429 179.027 351.038 179.137 350.705 179.358C350.374 179.574 350.119 179.858 349.938 180.21C349.76 180.558 349.671 180.936 349.671 181.344V182.277C349.671 182.824 349.767 183.289 349.959 183.672C350.154 184.056 350.426 184.349 350.774 184.551C351.122 184.75 351.528 184.849 351.994 184.849C352.295 184.849 352.571 184.807 352.819 184.722C353.068 184.633 353.283 184.501 353.464 184.327C353.645 184.153 353.783 183.939 353.879 183.683L355.387 183.955C355.266 184.398 355.049 184.787 354.737 185.121C354.428 185.451 354.039 185.709 353.57 185.893C353.105 186.075 352.574 186.165 351.978 186.165ZM356.805 186V177.818H358.334V179.15H358.435C358.605 178.699 358.884 178.347 359.271 178.095C359.658 177.839 360.122 177.712 360.662 177.712C361.208 177.712 361.667 177.839 362.036 178.095C362.409 178.351 362.684 178.702 362.862 179.15H362.947C363.142 178.713 363.453 178.365 363.879 178.106C364.305 177.843 364.813 177.712 365.402 177.712C366.145 177.712 366.75 177.944 367.219 178.409C367.691 178.875 367.927 179.576 367.927 180.513V186H366.335V180.663C366.335 180.109 366.184 179.707 365.882 179.459C365.58 179.21 365.219 179.086 364.8 179.086C364.282 179.086 363.879 179.246 363.591 179.565C363.304 179.881 363.16 180.288 363.16 180.785V186H361.572V180.561C361.572 180.118 361.434 179.761 361.157 179.491C360.88 179.221 360.52 179.086 360.076 179.086C359.774 179.086 359.495 179.166 359.239 179.326C358.987 179.482 358.783 179.7 358.627 179.981C358.474 180.261 358.398 180.586 358.398 180.956V186H356.805ZM369.612 186V177.818H371.205V186H369.612ZM370.416 176.556C370.139 176.556 369.901 176.463 369.702 176.279C369.507 176.091 369.409 175.867 369.409 175.608C369.409 175.345 369.507 175.121 369.702 174.936C369.901 174.748 370.139 174.654 370.416 174.654C370.693 174.654 370.929 174.748 371.125 174.936C371.324 175.121 371.423 175.345 371.423 175.608C371.423 175.867 371.324 176.091 371.125 176.279C370.929 176.463 370.693 176.556 370.416 176.556ZM374.49 181.142V186H372.897V177.818H374.426V179.15H374.527C374.715 178.717 375.01 178.369 375.411 178.106C375.816 177.843 376.326 177.712 376.94 177.712C377.498 177.712 377.986 177.829 378.405 178.063C378.824 178.294 379.149 178.638 379.38 179.097C379.611 179.555 379.726 180.121 379.726 180.796V186H378.133V180.988C378.133 180.395 377.979 179.931 377.67 179.597C377.361 179.26 376.937 179.091 376.397 179.091C376.028 179.091 375.699 179.171 375.411 179.331C375.127 179.491 374.902 179.725 374.735 180.034C374.572 180.339 374.49 180.709 374.49 181.142ZM384.475 186.16C383.814 186.16 383.225 185.991 382.706 185.654C382.192 185.313 381.787 184.828 381.492 184.2C381.201 183.567 381.055 182.809 381.055 181.925C381.055 181.041 381.203 180.284 381.497 179.656C381.796 179.027 382.204 178.546 382.722 178.212C383.241 177.879 383.829 177.712 384.486 177.712C384.993 177.712 385.402 177.797 385.711 177.967C386.023 178.134 386.265 178.33 386.435 178.553C386.609 178.777 386.744 178.974 386.84 179.145H386.936V175.091H388.529V186H386.973V184.727H386.84C386.744 184.901 386.606 185.1 386.425 185.324C386.247 185.547 386.002 185.743 385.689 185.909C385.377 186.076 384.972 186.16 384.475 186.16ZM384.827 184.801C385.285 184.801 385.672 184.681 385.988 184.439C386.307 184.194 386.549 183.855 386.712 183.422C386.879 182.989 386.963 182.484 386.963 181.909C386.963 181.341 386.881 180.844 386.717 180.418C386.554 179.991 386.314 179.659 385.998 179.422C385.682 179.184 385.292 179.065 384.827 179.065C384.347 179.065 383.948 179.189 383.628 179.438C383.308 179.686 383.067 180.025 382.904 180.455C382.744 180.885 382.664 181.369 382.664 181.909C382.664 182.456 382.746 182.948 382.909 183.385C383.072 183.821 383.314 184.168 383.633 184.423C383.956 184.675 384.354 184.801 384.827 184.801ZM393.878 186.165C393.072 186.165 392.378 185.993 391.795 185.648C391.216 185.3 390.769 184.812 390.453 184.184C390.14 183.551 389.984 182.811 389.984 181.962C389.984 181.124 390.14 180.386 390.453 179.746C390.769 179.107 391.209 178.608 391.774 178.25C392.342 177.891 393.006 177.712 393.766 177.712C394.228 177.712 394.675 177.788 395.108 177.941C395.542 178.093 395.931 178.333 396.275 178.66C396.62 178.987 396.891 179.411 397.09 179.933C397.289 180.451 397.388 181.082 397.388 181.824V182.388H390.884V181.195H395.828C395.828 180.776 395.742 180.405 395.572 180.082C395.401 179.755 395.162 179.498 394.853 179.31C394.547 179.121 394.189 179.027 393.777 179.027C393.329 179.027 392.939 179.137 392.605 179.358C392.275 179.574 392.019 179.858 391.838 180.21C391.66 180.558 391.572 180.936 391.572 181.344V182.277C391.572 182.824 391.667 183.289 391.859 183.672C392.055 184.056 392.326 184.349 392.674 184.551C393.022 184.75 393.429 184.849 393.894 184.849C394.196 184.849 394.471 184.807 394.72 184.722C394.968 184.633 395.183 184.501 395.364 184.327C395.545 184.153 395.684 183.939 395.78 183.683L397.287 183.955C397.166 184.398 396.95 184.787 396.637 185.121C396.328 185.451 395.939 185.709 395.471 185.893C395.006 186.075 394.475 186.165 393.878 186.165ZM398.705 186V177.818H400.245V179.118H400.33C400.479 178.678 400.742 178.331 401.118 178.079C401.498 177.824 401.928 177.696 402.408 177.696C402.507 177.696 402.624 177.699 402.759 177.706C402.898 177.713 403.006 177.722 403.084 177.733V179.256C403.02 179.239 402.906 179.219 402.743 179.198C402.58 179.173 402.416 179.161 402.253 179.161C401.877 179.161 401.541 179.24 401.246 179.4C400.955 179.556 400.724 179.775 400.554 180.055C400.383 180.332 400.298 180.648 400.298 181.004V186H398.705Z" fill="white"/>
<defs>
<filter id="filter0_d_600_1983" x="0.286255" y="0.230469" width="516.627" height="354.343" filterUnits="userSpaceOnUse" color-interpolation-filters="sRGB">
<feFlood flood-opacity="0" result="BackgroundImageFix"/>
<feColorMatrix in="SourceAlpha" type="matrix" values="0 0 0 0 0 0 0 0 0 0 0 0 0 0 0 0 0 0 127 0" result="hardAlpha"/>
<feOffset dy="10"/>
<feGaussianBlur stdDeviation="10"/>
<feColorMatrix type="matrix" values="0 0 0 0 0 0 0 0 0 0 0 0 0 0 0 0 0 0 0.09 0"/>
<feBlend mode="normal" in2="BackgroundImageFix" result="effect1_dropShadow_600_1983"/>
<feBlend mode="normal" in="SourceGraphic" in2="effect1_dropShadow_600_1983" result="shape"/>
</filter>
<filter id="filter1_d_600_1983" x="15" y="28.5645" width="486.329" height="49.4434" filterUnits="userSpaceOnUse" color-interpolation-filters="sRGB">
<feFlood flood-opacity="0" result="BackgroundImageFix"/>
<feColorMatrix in="SourceAlpha" type="matrix" values="0 0 0 0 0 0 0 0 0 0 0 0 0 0 0 0 0 0 127 0" result="hardAlpha"/>
<feOffset dy="2"/>
<feGaussianBlur stdDeviation="2.5"/>
<feColorMatrix type="matrix" values="0 0 0 0 0 0 0 0 0 0 0 0 0 0 0 0 0 0 0.059 0"/>
<feBlend mode="normal" in2="BackgroundImageFix" result="effect1_dropShadow_600_1983"/>
<feBlend mode="normal" in="SourceGraphic" in2="effect1_dropShadow_600_1983" result="shape"/>
</filter>
<filter id="filter2_d_600_1983" x="299.215" y="141" width="241.929" height="250" filterUnits="userSpaceOnUse" color-interpolation-filters="sRGB">
<feFlood flood-opacity="0" result="BackgroundImageFix"/>
<feColorMatrix in="SourceAlpha" type="matrix" values="0 0 0 0 0 0 0 0 0 0 0 0 0 0 0 0 0 0 127 0" result="hardAlpha"/>
<feMorphology radius="5" operator="dilate" in="SourceAlpha" result="effect1_dropShadow_600_1983"/>
<feOffset dy="5"/>
<feGaussianBlur stdDeviation="10"/>
<feComposite in2="hardAlpha" operator="out"/>
<feColorMatrix type="matrix" values="0 0 0 0 0.917647 0 0 0 0 0.941176 0 0 0 0 0.960784 0 0 0 1 0"/>
<feBlend mode="normal" in2="BackgroundImageFix" result="effect1_dropShadow_600_1983"/>
<feBlend mode="normal" in="SourceGraphic" in2="effect1_dropShadow_600_1983" result="shape"/>
</filter>
</defs>
</svg>
