<svg width="36" height="36" viewBox="0 0 36 36" fill="none" xmlns="http://www.w3.org/2000/svg">
<g clip-path="url(#clip0_573_8610)">
<path d="M35.6459 17.7639L29.9097 4.03472L24.375 6.34722C24.4445 5.69444 24.4445 4.77083 24.0903 4.10417C23.2986 2.625 21.4514 2.0625 19.9722 2.85417C18.4931 3.64583 17.9306 5.49306 18.7222 6.97222C19 7.49306 19.4167 7.91667 19.9306 8.20139L14.0139 10.6667C13.882 10.25 13.6806 9.85417 13.4236 9.5C13.5 9.45833 13.5625 9.40972 13.625 9.34722C13.7709 9.20139 13.8611 9.00694 13.8611 8.79861L13.8334 6.50694H14.3056C14.4167 6.50694 14.5209 6.45833 14.5972 6.38194C14.6806 6.30556 14.7222 6.19444 14.7222 6.08333L14.6389 0L13.8056 0.0138889L13.882 5.67361L2.75002 5.75694L2.67363 0L1.8403 0.0138889L1.91669 6.1875C1.92363 6.41667 2.10419 6.59028 2.33335 6.59722H2.81946C2.81946 6.61806 2.84724 8.88889 2.84724 8.88889C2.85419 9.13889 2.97919 9.36806 3.18058 9.51389L2.87502 10C2.75696 10.1875 2.59724 10.6528 2.59724 10.6528H2.5903L1.37502 15.1875L1.69446 16.1736L1.24308 16.375C0.826408 16.5625 0.493075 16.9028 0.333353 17.3333C0.173631 17.7639 0.18752 18.2361 0.37502 18.6528L6.54863 32.4444L12.3334 29.8542C12.5417 29.7639 12.6875 29.5694 12.7084 29.3403C12.7292 29.1111 12.625 28.8889 12.4375 28.7639C11.6945 28.2431 11.1806 27.6806 11.0278 27.2222C10.6389 26.0694 11.257 24.8125 12.4167 24.4236C13.5695 24.0347 14.8264 24.6528 15.2153 25.8125C15.4028 26.3611 15.3611 26.9653 15.1042 27.4861C14.9931 27.7083 15.0347 27.9722 15.2084 28.1458C15.375 28.3264 15.6389 28.3819 15.8611 28.2778L20.6667 26.125C20.8959 26.0278 21.0903 25.8611 21.2292 25.6528L21.9584 25.3542C22.0417 26.0417 22.2986 26.6944 22.7084 27.2569C22.632 27.2986 22.5695 27.3542 22.507 27.4167C22.3542 27.5625 22.2709 27.7639 22.2709 27.9722L22.3056 30.2569H21.8334C21.7222 30.2569 21.6181 30.3056 21.5417 30.3819C21.4584 30.4583 21.4167 30.5694 21.4236 30.6806L21.5 35.9236H22.3334L22.257 31.0972L33.3889 31.0069L33.4653 35.9306H34.2986L34.2222 30.5903C34.2153 30.3611 34.0347 30.1806 33.8056 30.1736H33.3195C33.3195 30.1597 33.3264 30.1389 33.3264 30.125L33.2917 27.8889C33.2917 27.6389 33.1667 27.4028 32.9584 27.2639C33.1181 27.0069 33.2431 26.8125 33.2639 26.7708C33.382 26.5903 33.4722 26.3889 33.5278 26.1736L33.5417 26.125H33.5486L34.7639 21.5833L34.3195 20.1806L34.7222 20.0139C35.5972 19.6528 36.0139 18.6597 35.6528 17.7847C35.6528 17.7778 35.6459 17.7708 35.6459 17.7639ZM6.55558 14L6.48613 14.1181C6.01391 14.9514 5.15974 15.3194 5.1528 15.3194L4.84724 15.4444C4.84724 15.4444 5.32641 18.3403 5.45835 19.1806C5.53474 19.6806 5.44446 20.1944 5.19446 20.6319C5.01391 20.8889 4.72224 21.0417 4.40974 21.0417C4.19446 21.0347 4.10419 20.9236 4.06946 20.8611L2.7153 16.6319L2.45835 15.8333L2.24308 15.1667L3.41669 10.7986C3.45141 10.6736 3.50696 10.5556 3.57641 10.4444C3.57641 10.4444 3.79169 10.0972 4.03474 9.72222L12.4792 9.65278C12.8403 10.0347 13.1042 10.5 13.25 11.0069L6.55558 14ZM12.875 8.82639H12.8611V8.8125L3.85419 8.88194C3.79169 8.88889 3.73613 8.86806 3.68752 8.83333V8.75L3.65974 6.65278C3.70835 6.625 3.76391 6.60417 3.81946 6.60417L12.8403 6.53472C12.9028 6.52778 12.9584 6.54861 13.007 6.58333L13.0417 8.77778C12.9931 8.80556 12.9306 8.82639 12.875 8.82639ZM20.3264 25.3611L16.0695 27.2708C16.4792 25.6389 15.4931 23.9861 13.8611 23.5764C12.2292 23.1667 10.5764 24.1528 10.1667 25.7847C10.0209 26.3472 10.0486 26.9444 10.2292 27.4931C10.4653 28.1806 11.0972 28.7917 11.6736 29.2361L6.95835 31.3472L1.12502 18.3125C1.0278 18.0972 1.02085 17.8542 1.11113 17.6319C1.19446 17.4097 1.36113 17.2361 1.57641 17.1389L1.94446 16.9722L3.30558 21.2153C3.51391 21.6111 3.91669 21.8681 4.36808 21.875C4.36808 21.875 5.45141 21.8958 5.89585 21.0694V21.0556C6.24308 20.4444 6.37502 19.7361 6.26391 19.0417C6.15974 18.375 5.87502 16.6319 5.75696 15.9306C6.31252 15.625 6.78474 15.1806 7.13196 14.6528L14.1806 11.4931C14.1806 11.4931 14.375 11.3819 14.5278 11.4167C14.6181 11.4514 14.7014 11.5556 14.7431 11.6458L16.9236 16.6319C17.0139 16.8611 17.2431 17 17.4861 16.9861C17.7292 16.9722 17.9375 16.8056 18.0139 16.5764C18.2014 15.9444 18.6597 15.4375 19.2709 15.1875C20.3542 14.7014 21.632 15.1806 22.1181 16.2639C22.5695 17.2639 22.2014 18.4375 21.257 19C20.6528 19.3403 19.5972 19.2569 19.1736 19.2083C18.9514 19.1806 18.7292 19.2778 18.5903 19.4583C18.5903 19.4653 18.3889 19.6944 18.5209 20.0903L20.5834 24.6875C20.6597 24.8611 20.632 25.0694 20.5139 25.2153C20.4722 25.2778 20.4028 25.3333 20.3264 25.3611ZM32.4584 28.0069L32.4931 30.1042C32.4445 30.1389 32.3889 30.1597 32.3264 30.1528L23.3056 30.2222C23.2431 30.2292 23.1875 30.2083 23.1389 30.1736L23.1042 28.0139L32.4584 28.0069ZM32.7222 25.9583C32.6875 26.0833 32.632 26.2014 32.5625 26.3125V26.3264C32.5625 26.3264 32.3542 26.6667 32.1111 27.0417L32.0278 27.1736H23.7292L23.6597 27.1042C23.125 26.5347 22.8056 25.7917 22.7639 25.0069L28.7778 22.5C28.6459 22.7361 28.5209 22.9861 28.4028 23.2361L29.1597 23.5903C29.3125 23.2639 29.4792 22.9444 29.6528 22.6389C29.8264 22.3333 30.0625 22.0694 30.3334 21.8472C30.5347 21.6806 30.75 21.5486 30.9861 21.4375L31.2917 21.3125L31.2431 20.9861C31.2361 20.9792 31.2153 20.8264 31.1736 20.5972C31.0486 19.8472 30.7847 18.2222 30.6806 17.5833C30.6042 17.0833 30.6945 16.5694 30.9445 16.1319C31.125 15.875 31.4167 15.7153 31.7292 15.7153C31.9445 15.7222 32.0347 15.8333 32.0695 15.9028L33.2917 19.7083L33.5486 20.5069L33.8959 21.5972L32.7222 25.9583ZM34.882 18.7639C34.7917 18.9792 34.6181 19.1528 34.4028 19.2431L34.0625 19.3889L32.8264 15.5417C32.6181 15.1458 32.2153 14.8958 31.7709 14.8819C30.7014 14.9097 30.2361 15.6944 30.2361 15.6944C29.8889 16.3056 29.757 17.0139 29.8681 17.7083C29.9722 18.3819 30.257 20.1181 30.375 20.8194C30.2153 20.9097 30.0625 21.0139 29.9167 21.125L21.4445 24.6667C21.4236 24.5556 19.4931 20.2083 19.4931 20.2083C20.1806 20.2569 20.9722 20.2222 21.5625 19.9097L21.8264 19.75C22.1459 19.5347 22.4236 19.2639 22.6389 18.9444L22.7292 18.8056C22.8889 18.5417 23.007 18.2569 23.0834 17.9583C23.0903 17.9444 23.0903 17.9306 23.0903 17.9167H23.0972C23.1736 17.6458 23.2084 17.3681 23.2084 17.0833C23.2084 16.7778 23.1597 16.4653 23.0695 16.1736C22.5695 14.5694 20.8611 13.6806 19.257 14.1806C18.8739 14.3017 18.5186 14.4971 18.2111 14.7557C17.9037 15.0142 17.6502 15.3309 17.4653 15.6875L16.9722 14.5833C16.8125 14.1875 15.75 11.8542 15.5139 11.3125C15.4584 11.2083 15.3959 11.1042 15.3195 11.0139L20.8125 8.75C21.0417 8.65278 21.1806 8.42361 21.1667 8.18056C21.1597 7.9375 20.9931 7.72917 20.7639 7.65972C19.5972 7.30556 18.9375 6.07639 19.2917 4.90278C19.3264 4.79167 19.3681 4.6875 19.4167 4.58333C19.6875 4.01389 20.1875 3.58333 20.7986 3.41667C21.7986 3.13194 22.8611 3.57639 23.3542 4.49306C23.6806 5.10417 23.5695 6.15278 23.507 6.57639C23.4792 6.80556 23.5695 7.02778 23.75 7.16667C23.9306 7.30556 24.1667 7.34028 24.375 7.25L29.4584 5.125L34.875 18.0833C34.9722 18.2986 34.9722 18.5486 34.882 18.7639Z" fill="#ECAD08" stroke="#ECAD08" stroke-width="0.2"/>
<path d="M8.80701 33.0146L9.5475 32.6325L10.5093 34.4961L9.76875 34.8782L8.80701 33.0146ZM2.7959 34.5296L3.7577 32.666L4.49826 33.0482L3.53645 34.9118L2.7959 34.5296ZM6.19402 35.9562L6.24527 33.8596L7.07833 33.88L7.02708 35.9765L6.19402 35.9562ZM26.4256 1.55853L27.1661 1.17637L28.1279 3.03998L27.3874 3.42214L26.4256 1.55853ZM32.439 3.06797L33.4008 1.20436L34.1412 1.58658L33.1794 3.45012L32.439 3.06797ZM29.8103 2.18693L29.8616 0.090332L30.6946 0.110679L30.6435 2.20721L29.8103 2.18693Z" fill="#ECAD08" stroke="#ECAD08" stroke-width="0.2"/>
</g>
<defs>
<clipPath id="clip0_573_8610">
<rect width="36" height="36" fill="white"/>
</clipPath>
</defs>
</svg>
