<svg width="36" height="36" viewBox="0 0 36 36" fill="none" xmlns="http://www.w3.org/2000/svg">
<path d="M17.6462 28.4291C17.2048 28.4288 16.7712 28.3125 16.3889 28.0917L8.89115 23.7661C8.31213 23.4308 7.88978 22.8795 7.71677 22.2332C7.54377 21.5869 7.63425 20.8983 7.96835 20.3186L9.04976 18.4441C9.62146 17.6485 10.3697 16.9961 11.2357 16.5381C12.1018 16.0801 13.0621 15.8288 14.0415 15.8041C14.0905 15.7955 14.1369 15.7763 14.1776 15.7478C14.2183 15.7194 14.2522 15.6823 14.277 15.6392C14.3018 15.5961 14.3167 15.5482 14.3209 15.4987C14.3251 15.4492 14.3183 15.3994 14.3011 15.3528C13.8319 14.4917 13.5687 13.5335 13.5322 12.5536C13.4956 11.5736 13.6868 10.5986 14.0906 9.70494L15.172 7.8305C15.5075 7.25221 16.0585 6.83034 16.7042 6.65714C17.35 6.48394 18.0381 6.57351 18.618 6.90626L26.1158 11.2319C26.6948 11.5672 27.1172 12.1185 27.2902 12.7648C27.4632 13.4111 27.3727 14.0997 27.0386 14.6794L25.9572 16.5538C25.3853 17.3501 24.6367 18.003 23.7702 18.4613C22.9036 18.9196 21.9425 19.1709 20.9625 19.1954C20.9135 19.2035 20.8669 19.2224 20.8261 19.2506C20.7853 19.2789 20.7512 19.3159 20.7264 19.3589C20.7016 19.402 20.6866 19.4499 20.6825 19.4995C20.6785 19.549 20.6855 19.5987 20.703 19.6452C21.1724 20.5065 21.4357 21.4649 21.4723 22.4451C21.5088 23.4253 21.3175 24.4007 20.9135 25.2945L19.8321 27.1689C19.6104 27.5524 19.2917 27.8707 18.908 28.0919C18.5243 28.3131 18.0891 28.4294 17.6462 28.4291ZM17.3578 8.73312C17.2944 8.73299 17.2321 8.74959 17.1772 8.78123C17.1223 8.81287 17.0767 8.85845 17.045 8.91335L15.9635 10.7878C15.7454 11.396 15.6621 12.0443 15.7194 12.6879C15.7767 13.3315 15.9731 13.9549 16.2952 14.515C16.4414 14.8696 16.5042 15.2531 16.4788 15.6358C16.4533 16.0185 16.3404 16.3903 16.1485 16.7224C15.9567 17.0546 15.6911 17.3382 15.3723 17.5515C15.0535 17.7647 14.6899 17.9019 14.3097 17.9525C13.6638 17.9538 13.0259 18.0954 12.4401 18.3675C11.8543 18.6396 11.3346 19.0357 10.917 19.5284L9.83558 21.4029C9.81177 21.4439 9.79627 21.4891 9.78998 21.5361C9.78369 21.5831 9.78673 21.6308 9.79891 21.6766C9.8111 21.7225 9.8322 21.7654 9.86101 21.803C9.88981 21.8407 9.92576 21.8723 9.96679 21.896L17.4645 26.2216C17.5475 26.2684 17.6456 26.2807 17.7375 26.2558C17.8295 26.231 17.908 26.1711 17.9562 26.089L19.0376 24.2145C19.2557 23.6063 19.339 22.958 19.2818 22.3144C19.2245 21.6709 19.0281 21.0474 18.706 20.4873C18.5595 20.1328 18.4964 19.7494 18.5217 19.3666C18.547 18.9839 18.6599 18.6121 18.8519 18.2799C19.0438 17.9478 19.3095 17.6643 19.6285 17.4512C19.9475 17.2382 20.3112 17.1013 20.6915 17.0513C21.3374 17.0491 21.9751 16.907 22.5608 16.6347C23.1465 16.3623 23.6662 15.9663 24.0842 15.4739L25.1656 13.5994C25.1894 13.5585 25.2049 13.5132 25.2112 13.4662C25.2175 13.4192 25.2145 13.3715 25.2023 13.3257C25.1901 13.2799 25.169 13.2369 25.1402 13.1993C25.1114 13.1616 25.0754 13.1301 25.0344 13.1063L17.5366 8.7807C17.4821 8.74974 17.4205 8.73335 17.3578 8.73312Z" fill="#309120"/>
<path d="M31.9209 18.5812C31.6341 18.5812 31.359 18.4673 31.1562 18.2645C30.9534 18.0616 30.8395 17.7866 30.8395 17.4998C30.8396 14.8618 30.0575 12.283 28.592 10.0895C27.1264 7.89609 25.0434 6.1865 22.6062 5.17696C20.169 4.16743 17.4872 3.9033 14.8999 4.41799C12.3126 4.93268 9.93607 6.20306 8.07081 8.06847C7.62369 8.51622 7.20838 8.99464 6.82791 9.50025C6.65583 9.7297 6.39964 9.88139 6.11572 9.92195C5.8318 9.96251 5.54339 9.88862 5.31394 9.71653C5.0845 9.54445 4.93281 9.28827 4.89225 9.00434C4.85169 8.72042 4.92558 8.43201 5.09766 8.20257C5.5402 7.61785 6.02193 7.06386 6.53954 6.54441C8.70686 4.37617 11.4685 2.89933 14.4751 2.30064C17.4818 1.70195 20.5985 2.00831 23.4311 3.18096C26.2636 4.35362 28.6848 6.33991 30.3885 8.88865C32.0922 11.4374 33.0018 14.4341 33.0023 17.4998C33.0023 17.7866 32.8883 18.0616 32.6855 18.2645C32.4827 18.4673 32.2077 18.5812 31.9209 18.5812ZM17.5021 32.9999C15.4665 33.0003 13.4507 32.5997 11.57 31.8208C9.68927 31.042 7.9804 29.9003 6.541 28.4609C5.1016 27.0215 3.95988 25.3126 3.18106 23.4319C2.40224 21.5511 2.00157 19.5354 2.00195 17.4998C2.00195 17.213 2.11589 16.9379 2.31869 16.7351C2.52149 16.5323 2.79655 16.4184 3.08336 16.4184C3.37017 16.4184 3.64523 16.5323 3.84803 16.7351C4.05083 16.9379 4.16477 17.213 4.16477 17.4998C4.16462 20.1378 4.94676 22.7166 6.41227 24.91C7.87779 27.1035 9.96085 28.8131 12.398 29.8226C14.8352 30.8321 17.517 31.0963 20.1043 30.5816C22.6916 30.0669 25.0682 28.7965 26.9334 26.9311C27.3803 26.4841 27.7952 26.0061 28.1749 25.5007C28.3526 25.2876 28.6054 25.1509 28.8811 25.1187C29.1567 25.0866 29.4342 25.1615 29.6562 25.328C29.8782 25.4945 30.0278 25.7399 30.0741 26.0135C30.1205 26.2872 30.06 26.5681 29.9051 26.7984C29.4632 27.3841 28.9814 27.9386 28.4633 28.458C27.0271 29.9021 25.3189 31.047 23.4375 31.8266C21.556 32.6062 19.5387 33.005 17.5021 32.9999Z" fill="#309120"/>
<path d="M29.7361 30.8155C29.4493 30.8155 29.1742 30.7016 28.9714 30.4988C28.7686 30.296 28.6547 30.0209 28.6547 29.7341V26.7379H25.657C25.3702 26.7379 25.0951 26.624 24.8923 26.4212C24.6895 26.2184 24.5756 25.9433 24.5756 25.6565C24.5756 25.3697 24.6895 25.0946 24.8923 24.8918C25.0951 24.689 25.3702 24.5751 25.657 24.5751H29.7361C30.0229 24.5751 30.2979 24.689 30.5007 24.8918C30.7035 25.0946 30.8175 25.3697 30.8175 25.6565V29.7341C30.8175 30.0209 30.7035 30.296 30.5007 30.4988C30.2979 30.7016 30.0229 30.8155 29.7361 30.8155ZM9.34507 10.4245H5.26744C4.98064 10.4245 4.70557 10.3106 4.50277 10.1078C4.29997 9.90498 4.18604 9.62992 4.18604 9.34311V5.26549C4.18604 4.97868 4.29997 4.70362 4.50277 4.50082C4.70557 4.29802 4.98064 4.18408 5.26744 4.18408C5.55425 4.18408 5.82931 4.29802 6.03211 4.50082C6.23491 4.70362 6.34885 4.97868 6.34885 5.26549V8.26171H9.34507C9.63187 8.26171 9.90693 8.37564 10.1097 8.57844C10.3125 8.78125 10.4265 9.05631 10.4265 9.34311C10.4265 9.62992 10.3125 9.90498 10.1097 10.1078C9.90693 10.3106 9.63187 10.4245 9.34507 10.4245Z" fill="#309120"/>
</svg>
