<svg width="36" height="36" viewBox="0 0 36 36" fill="none" xmlns="http://www.w3.org/2000/svg">
<path d="M21.2702 23.2709C21.1726 23.176 21.0418 23.1228 20.9057 23.1228C20.7695 23.1228 20.6387 23.176 20.5411 23.2709L17.1808 26.631C15.0863 28.7252 11.6303 28.6767 9.47677 26.5229C7.40987 24.4558 7.27916 20.9091 9.369 18.819L12.7291 15.4592C12.8242 15.3617 12.8775 15.2308 12.8775 15.0945C12.8775 14.9583 12.8242 14.8274 12.7291 14.7299L8.93304 10.9338C8.83449 10.8407 8.70406 10.7889 8.56849 10.7889C8.43292 10.7889 8.30248 10.8407 8.20394 10.9338L4.84358 14.2942C0.307077 18.8306 0.398344 26.3038 5.04726 30.9527C6.1637 32.0752 7.4907 32.9663 8.9522 33.575C10.4137 34.1837 11.981 34.498 13.5642 34.4999C15.0748 34.5069 16.5719 34.215 17.9693 33.6411C19.3667 33.0673 20.6368 32.2227 21.7065 31.1561L25.0666 27.7963C25.1623 27.699 25.2159 27.5679 25.2159 27.4315C25.2159 27.295 25.1623 27.164 25.0666 27.0667L21.2702 23.2709ZM20.9768 30.4265C16.842 34.5607 10.0236 34.4697 5.77661 30.223C1.52989 25.9766 1.43837 19.1578 5.57294 15.0232L8.56875 12.0277L11.6352 15.0947L8.6399 18.0899C6.14323 20.5863 6.1917 24.6963 8.74767 27.2523C11.3029 29.8082 15.4135 29.8567 17.9101 27.3603L20.9057 24.3645L23.9724 27.4315L20.9768 30.4265ZM12.0668 11.8099C12.203 11.8111 12.3341 11.7583 12.4313 11.6629L14.0215 10.073L14.2476 10.833C14.2731 10.9186 14.3204 10.9962 14.3848 11.058C14.4492 11.1198 14.5286 11.1639 14.6152 11.1858C14.7018 11.2078 14.7926 11.2068 14.8787 11.1831C14.9648 11.1594 15.0432 11.1138 15.1064 11.0506L17.5884 8.56894C17.6363 8.52105 17.6743 8.46419 17.7002 8.40162C17.7261 8.33905 17.7394 8.27199 17.7394 8.20426C17.7394 8.13654 17.7261 8.06947 17.7002 8.0069C17.6743 7.94433 17.6363 7.88748 17.5884 7.83959C17.5405 7.7917 17.4836 7.75371 17.4211 7.72779C17.3585 7.70187 17.2914 7.68853 17.2237 7.68853C17.156 7.68853 17.0889 7.70187 17.0263 7.72779C16.9638 7.75371 16.9069 7.7917 16.859 7.83959L14.9894 9.70924L14.7635 8.94869C14.738 8.86306 14.6907 8.78552 14.6263 8.72367C14.5618 8.66182 14.4824 8.61778 14.3958 8.59587C14.3092 8.57396 14.2183 8.57492 14.1322 8.59867C14.0461 8.62243 13.9676 8.66815 13.9045 8.73136L11.702 10.9338C11.6321 11.0065 11.5849 11.0979 11.5663 11.197C11.5477 11.296 11.5584 11.3983 11.5971 11.4914C11.6359 11.5844 11.701 11.6641 11.7844 11.7206C11.8679 11.7772 11.966 11.8081 12.0668 11.8096V11.8099ZM27.4312 18.4117L24.9495 20.8936C24.8864 20.9568 24.8407 21.0353 24.817 21.1214C24.7933 21.2075 24.7924 21.2983 24.8143 21.3848C24.8363 21.4714 24.8803 21.5508 24.9421 21.6152C25.004 21.6797 25.0815 21.7269 25.1671 21.7524L25.9271 21.9782L24.3369 23.5689C24.2403 23.6656 24.186 23.7967 24.186 23.9335C24.186 24.0702 24.2403 24.2013 24.3369 24.298C24.4346 24.3929 24.5654 24.446 24.7016 24.446C24.8378 24.446 24.9686 24.3929 25.0663 24.298L27.2688 22.0953C27.332 22.0321 27.3776 21.9536 27.4013 21.8675C27.425 21.7814 27.4259 21.6906 27.404 21.6041C27.3821 21.5175 27.338 21.4381 27.2762 21.3737C27.2143 21.3092 27.1368 21.262 27.0512 21.2365L26.2909 21.0107L28.1606 19.141C28.2573 19.0443 28.3117 18.9131 28.3117 18.7763C28.3118 18.6395 28.2574 18.5083 28.1607 18.4115C28.064 18.3148 27.9328 18.2604 27.796 18.2604C27.6592 18.2604 27.528 18.3149 27.4312 18.4117ZM20.7051 10.2646C20.471 9.11344 20.556 7.9202 20.951 6.81391C21.346 5.70762 22.036 4.73038 22.9463 3.98788C23.0322 3.40389 23.2432 2.84535 23.565 2.35052C21.8138 3.26152 20.4946 4.82896 19.896 6.71001C19.2974 8.59106 19.4681 10.6326 20.3707 12.3882L20.7051 10.2646ZM30.4799 2.35052C30.8017 2.84535 31.0128 3.40389 31.0986 3.98788C32.0089 4.73041 32.6988 5.70766 33.0938 6.81395C33.4887 7.92024 33.5737 9.11346 33.3396 10.2646L33.6737 12.3882C34.5763 10.6327 34.747 8.59126 34.1485 6.71028C33.55 4.8293 32.231 3.26161 30.4799 2.35052ZM27.0223 15.4244C25.7834 15.4253 24.5707 15.0669 23.5313 14.3926H21.8735C23.2608 15.7167 25.1048 16.4554 27.0225 16.4554C28.9402 16.4554 30.7842 15.7167 32.1714 14.3926H30.5137C29.4741 15.0669 28.2614 15.4254 27.0223 15.4244ZM32.2034 9.68036C32.1574 9.42759 32.0309 9.19647 31.8427 9.0216C31.6545 8.84672 31.4147 8.73748 31.1592 8.71022L28.8948 8.35418C28.858 8.34877 28.8227 8.33568 28.7912 8.31577C28.4708 8.46951 28.1318 8.5808 27.7826 8.6468L27.786 8.65505C27.8701 8.84536 28.0014 9.01112 28.1673 9.13669C28.3333 9.26226 28.5285 9.34352 28.7345 9.37279L31.0102 9.73063C31.1234 9.74585 31.1796 9.80643 31.1835 9.83221L31.5764 12.3299H22.4686L22.8628 9.8237C22.8651 9.80643 22.9215 9.74585 23.0458 9.72883L25.3105 9.37305C25.5165 9.34366 25.7116 9.2623 25.8775 9.13664C26.0434 9.01098 26.1746 8.84515 26.2587 8.65479L26.262 8.6468C25.9129 8.58079 25.5738 8.46951 25.2535 8.31577C25.2221 8.33555 25.187 8.34855 25.1503 8.35392L22.897 8.70841C22.6408 8.7337 22.3996 8.84123 22.2096 9.01493C22.0195 9.18863 21.8908 9.41918 21.8426 9.67211L21.3558 12.7656C21.3443 12.8392 21.3488 12.9144 21.3691 12.986C21.3894 13.0577 21.425 13.1241 21.4734 13.1807C21.5218 13.2373 21.5819 13.2827 21.6496 13.3139C21.7172 13.345 21.7908 13.3611 21.8653 13.3611H32.1797C32.2541 13.3611 32.3277 13.345 32.3953 13.3138C32.4629 13.2826 32.523 13.2372 32.5714 13.1806C32.6197 13.124 32.6553 13.0576 32.6756 12.986C32.6959 12.9143 32.7004 12.8391 32.6888 12.7656L32.2034 9.68036ZM27.0223 7.68851C27.6343 7.68851 28.2326 7.50704 28.7414 7.16703C29.2503 6.82703 29.6469 6.34378 29.8811 5.77838C30.1153 5.21297 30.1766 4.59082 30.0572 3.9906C29.9378 3.39037 29.6431 2.83903 29.2103 2.40629C28.7776 1.97355 28.2262 1.67885 27.626 1.55946C27.0258 1.44006 26.4036 1.50134 25.8382 1.73554C25.2728 1.96973 24.7895 2.36633 24.4495 2.87518C24.1095 3.38403 23.928 3.98227 23.928 4.59426C23.9289 5.41463 24.2552 6.20115 24.8353 6.78124C25.4154 7.36134 26.202 7.68762 27.0223 7.68851ZM27.0223 2.53151C27.4303 2.53151 27.8291 2.65248 28.1684 2.87914C28.5076 3.1058 28.772 3.42796 28.9281 3.80488C29.0842 4.18179 29.1251 4.59654 29.0455 4.99668C28.9659 5.39681 28.7694 5.76436 28.4809 6.05284C28.1925 6.34132 27.8249 6.53778 27.4248 6.61737C27.0246 6.69696 26.6099 6.65611 26.2329 6.49999C25.856 6.34386 25.5339 6.07948 25.3072 5.74026C25.0805 5.40104 24.9596 5.00223 24.9596 4.59426C24.9602 4.04737 25.1777 3.52306 25.5644 3.13635C25.9511 2.74964 26.4754 2.53212 27.0223 2.53151Z" fill="#2D70B6" stroke="#2D70B6" stroke-width="0.5"/>
</svg>
