<svg width="16" height="16" viewBox="0 0 16 16" fill="none" xmlns="http://www.w3.org/2000/svg">
<path fill-rule="evenodd" clip-rule="evenodd" d="M11.5167 2.2235C10.8635 2.00975 9.974 2 8 2C6.94175 2 6.185 2 5.58875 2.04125C4.99925 2.081 4.62125 2.15825 4.31525 2.28575C3.86014 2.47412 3.44659 2.75031 3.09824 3.09854C2.74988 3.44676 2.47354 3.86021 2.285 4.31525C2.1575 4.622 2.08025 4.99925 2.0405 5.58875C2 6.185 2 6.941 2 8C2 9.059 2 9.815 2.04125 10.4113C2.081 11.0008 2.15825 11.3788 2.28575 11.6848C2.47421 12.1397 2.75043 12.5531 3.09865 12.9013C3.44687 13.2496 3.86027 13.5258 4.31525 13.7143C4.622 13.8418 4.99925 13.919 5.58875 13.9588C6.185 14 6.9425 14 8 14C9.0575 14 9.815 14 10.4113 13.9588C11.0008 13.919 11.3788 13.8418 11.6848 13.7143C12.1397 13.5258 12.5531 13.2496 12.9013 12.9013C13.2496 12.5531 13.5258 12.1397 13.7142 11.6848C13.8417 11.378 13.919 11.0008 13.9587 10.4113C14 9.815 14 9.059 14 8C14 7.4255 14 6.938 13.9925 6.512C13.9893 6.31309 14.0653 6.12106 14.2037 5.97816C14.3421 5.83525 14.5316 5.75318 14.7305 5.75C14.9294 5.74682 15.1214 5.82278 15.2643 5.96119C15.4072 6.09959 15.4893 6.28909 15.4925 6.488C15.5 6.92675 15.5 7.42625 15.5 7.9955V8.02775C15.5 9.053 15.5 9.86 15.455 10.5133C15.41 11.1793 15.3155 11.7388 15.1002 12.2593C14.5674 13.5455 13.5455 14.5674 12.2593 15.1003C11.7388 15.3155 11.1792 15.41 10.5132 15.4558C9.86075 15.5 9.05225 15.5 8.02775 15.5H7.97225C6.947 15.5 6.14 15.5 5.48675 15.455C4.82075 15.41 4.26125 15.3155 3.74075 15.1003C2.45451 14.5674 1.43259 13.5455 0.89975 12.2593C0.6845 11.7388 0.59 11.1793 0.54425 10.5133C0.5 9.86075 0.5 9.053 0.5 8.02775V7.97225C0.5 6.94775 0.5 6.14 0.545 5.48675C0.59 4.82075 0.6845 4.26125 0.89975 3.74075C1.43241 2.45465 2.45404 1.43275 3.74 0.89975C4.2605 0.6845 4.82 0.59 5.486 0.54425C6.13925 0.5 6.947 0.5 7.97225 0.5H8.16125C9.92375 0.5 11.072 0.5 11.9833 0.79775C12.1671 0.863665 12.3179 0.998681 12.4038 1.17409C12.4896 1.34951 12.5036 1.55148 12.4429 1.73708C12.3821 1.92267 12.2514 2.07725 12.0784 2.16795C11.9055 2.25864 11.704 2.27905 11.5167 2.2235ZM15.398 2.747C15.4477 2.83209 15.4801 2.92613 15.4934 3.02375C15.5067 3.12137 15.5006 3.22066 15.4756 3.31594C15.4505 3.41122 15.4069 3.50063 15.3473 3.57905C15.2876 3.65747 15.2131 3.72338 15.128 3.773L14.9615 3.86975C12.2654 5.44248 10.0991 7.78312 8.7395 10.5928C8.6874 10.7005 8.6103 10.7941 8.51462 10.866C8.41894 10.9378 8.30746 10.9857 8.1895 11.0057C8.07154 11.0256 7.95051 11.0171 7.83652 10.9807C7.72253 10.9444 7.61889 10.8813 7.53425 10.7968L4.5245 7.78925C4.45119 7.72051 4.39245 7.63773 4.35176 7.54584C4.31107 7.45395 4.28926 7.35482 4.28762 7.25434C4.28599 7.15386 4.30457 7.05407 4.34226 6.96091C4.37995 6.86775 4.43597 6.78311 4.50701 6.71202C4.57804 6.64093 4.66264 6.58485 4.75578 6.5471C4.84891 6.50934 4.94869 6.49069 5.04917 6.49225C5.14966 6.49381 5.2488 6.51555 5.34072 6.55618C5.43264 6.59681 5.51546 6.65549 5.58425 6.72875L7.87175 9.014C9.37158 6.34134 11.5582 4.11793 14.2055 2.57375L14.372 2.477C14.4571 2.42734 14.5511 2.39492 14.6488 2.38161C14.7464 2.3683 14.8457 2.37436 14.9409 2.39943C15.0362 2.42451 15.1256 2.46811 15.204 2.52774C15.2825 2.58738 15.3484 2.66188 15.398 2.747Z" fill="#002955"/>
</svg>
