<svg width="36" height="36" viewBox="0 0 36 36" fill="none" xmlns="http://www.w3.org/2000/svg">
<g clip-path="url(#clip0_204_621)">
<path d="M29.9658 12.5079V16.4413C29.9658 16.5458 29.9243 16.646 29.8505 16.7198C29.7766 16.7937 29.6764 16.8352 29.5719 16.8352H28.5146C28.1835 16.8352 28.0001 17.2188 28.2081 17.4765L31.1725 21.1496C31.3301 21.3449 31.6279 21.3449 31.7855 21.1496L34.7499 17.4765C34.9578 17.2189 34.7744 16.8352 34.4434 16.8352H33.3861C33.2816 16.8352 33.1814 16.7937 33.1076 16.7198C33.0337 16.646 32.9922 16.5458 32.9922 16.4413V8.45135C32.9922 8.34689 32.9507 8.2467 32.8768 8.17283C32.803 8.09896 32.7028 8.05746 32.5983 8.05746H30.3597C30.2552 8.05746 30.1551 8.09896 30.0812 8.17283C30.0073 8.2467 29.9658 8.34689 29.9658 8.45135V10.0469M20.6199 10.0575C20.9103 9.6075 21.2759 9.19195 21.631 8.79188C22.3306 8.00297 23.7509 6.93773 23.1413 6.07781C22.5183 5.20031 21.0488 5.7375 19.9266 6.19102C19.7157 6.27609 19.4738 6.21141 19.3325 6.03352C18.8445 5.41828 17.9403 5.01539 17.3996 5.01539C16.8582 5.01539 15.9546 5.41828 15.4667 6.03352C15.3978 6.12028 15.3028 6.18248 15.1957 6.21086C15.0887 6.23924 14.9753 6.23228 14.8725 6.19102C13.7503 5.7375 12.2801 5.20031 11.6578 6.07781C11.0475 6.93773 12.4686 8.00297 13.1682 8.79188C13.5232 9.19195 13.8889 9.6075 14.1793 10.0575M5.00101 28.2535V21.1816C5.00101 21.0772 4.95951 20.977 4.88565 20.9031C4.81178 20.8292 4.71159 20.7878 4.60712 20.7878H2.95836C2.8539 20.7878 2.75371 20.8292 2.67984 20.9031C2.60597 20.977 2.56447 21.0772 2.56447 21.1816V28.2535C2.56447 28.3579 2.52297 28.4581 2.44911 28.532C2.37524 28.6059 2.27505 28.6474 2.17058 28.6474H1.55676C1.22565 28.6474 1.04228 29.031 1.25026 29.2887L3.47629 32.0468C3.63393 32.2421 3.9317 32.2421 4.08934 32.0468L6.31536 29.2887C6.52328 29.031 6.3399 28.6474 6.00887 28.6474H5.39504C5.34331 28.6474 5.29207 28.6372 5.24427 28.6174C5.19646 28.5976 5.15302 28.5686 5.11643 28.532C5.07984 28.4955 5.05081 28.452 5.03101 28.4042C5.01121 28.3564 5.00101 28.3052 5.00101 28.2535ZM8.22196 9.22212V0.921234C8.22196 0.816768 8.18046 0.71658 8.10659 0.642712C8.03272 0.568843 7.93253 0.527344 7.82807 0.527344H5.79829C5.74656 0.527344 5.69534 0.537532 5.64755 0.557327C5.59976 0.577122 5.55634 0.606136 5.51976 0.642712C5.48319 0.679288 5.45417 0.72271 5.43438 0.770499C5.41458 0.818288 5.4044 0.869508 5.4044 0.921234V9.22212C5.4044 9.32658 5.3629 9.42677 5.28903 9.50064C5.21516 9.57451 5.11497 9.61601 5.01051 9.61601H4.11022C3.77912 9.61601 3.59575 9.99963 3.80373 10.2573L6.50668 13.6065C6.66433 13.8018 6.9621 13.8018 7.11974 13.6065L9.82269 10.2573C10.0306 9.9997 9.84723 9.61601 9.5162 9.61601H8.61592C8.56419 9.61602 8.51296 9.60584 8.46516 9.58604C8.41736 9.56625 8.37393 9.53724 8.33735 9.50066C8.30077 9.46409 8.27175 9.42066 8.25195 9.37287C8.23215 9.32508 8.22196 9.27385 8.22196 9.22212Z" stroke="#E50000" stroke-width="1.2" stroke-miterlimit="10" stroke-linecap="round" stroke-linejoin="round"/>
<path d="M30.5308 33.7858C31.108 32.3922 30.4463 30.7946 29.0527 30.2173C27.6591 29.6401 26.0614 30.3018 25.4842 31.6954C24.9069 33.089 25.5687 34.6867 26.9623 35.2639C28.3559 35.8412 29.9535 35.1794 30.5308 33.7858Z" stroke="#E50000" stroke-width="1.2" stroke-miterlimit="10" stroke-linecap="round" stroke-linejoin="round"/>
<path d="M21.1509 26.4164C22.264 26.7616 23.0712 27.7987 23.0712 29.025C23.0712 30.5332 21.8484 31.7559 20.3395 31.7559C18.8313 31.7559 17.6086 30.5332 17.6086 29.025C17.6086 28.9617 17.6107 28.8991 17.6149 28.8365M18.9873 17.8841C18.9873 17.8841 18.0105 17.0629 16.8585 17.41C15.8007 17.7286 15.6158 19.0103 16.418 19.4472C16.7933 19.6516 17.169 19.7822 18.0018 20.0895C20.0067 20.829 19.1431 22.7686 17.5291 22.7686C16.7209 22.7686 16.0426 22.4146 15.6319 21.9616M17.3996 24.0211V22.765M17.3996 17.3248V16.0719M8.80756 26.4051C8.49889 25.5544 8.33154 24.6157 8.33154 23.5983C8.33154 20.8251 11.3297 16.1205 13.8293 12.4741" stroke="#E50000" stroke-width="1.2" stroke-miterlimit="10" stroke-linecap="round" stroke-linejoin="round"/>
<path d="M20.9699 12.4741C23.4695 16.1205 26.4677 20.8251 26.4677 23.5983C26.4677 24.4287 26.3559 25.207 26.1463 25.9277C26.1034 26.0754 25.9227 26.1302 25.8025 26.0332C25.0734 25.4426 24.1417 25.098 23.2016 25.1409C22.1891 25.1866 21.3025 26.0543 20.6788 27.1062C20.6071 27.2271 20.4742 27.2967 20.3343 27.2918C19.1643 27.2503 19.3148 28.1144 19.6431 28.9821C19.7057 29.1473 19.5524 29.3133 19.3816 29.2669C18.2214 28.949 16.7273 28.4379 15.9074 29.1551C15.3077 29.6796 14.8858 30.3975 14.6959 31.1709C14.6671 31.2883 14.5469 31.3615 14.4302 31.3291C12.6154 30.8264 11.0615 29.854 9.97656 28.4934" stroke="#E50000" stroke-width="1.2" stroke-miterlimit="10" stroke-linecap="round" stroke-linejoin="round"/>
<path d="M20.7308 10.0576H14.0679C13.3943 10.0576 12.8481 10.6037 12.8481 11.2774C12.8481 11.9511 13.3943 12.4972 14.0679 12.4972H20.7308C21.4045 12.4972 21.9506 11.9511 21.9506 11.2774C21.9506 10.6037 21.4045 10.0576 20.7308 10.0576Z" stroke="#E50000" stroke-width="1.2" stroke-miterlimit="10" stroke-linecap="round" stroke-linejoin="round"/>
</g>
<defs>
<clipPath id="clip0_204_621">
<rect width="36" height="36" fill="white"/>
</clipPath>
</defs>
</svg>
