<svg width="36" height="36" viewBox="0 0 36 36" fill="none" xmlns="http://www.w3.org/2000/svg">
<path fill-rule="evenodd" clip-rule="evenodd" d="M33.2824 24.7333L30.0393 16.0194C29.9807 15.8622 29.7985 15.7794 29.6417 15.8373L27.4676 16.647C27.31 16.7052 27.2272 16.8869 27.2858 17.0437L30.5286 25.758C30.5872 25.9162 30.7673 25.9985 30.9253 25.9397L33.0998 25.1308C33.2579 25.072 33.3408 24.8913 33.2824 24.7333ZM29.0635 24.6532L26.2627 26.162C26.2255 26.1116 26.1863 26.0627 26.145 26.0156L23.0729 22.5424C23.0164 22.4784 22.9442 22.4301 22.8635 22.4022C22.7827 22.3744 22.6961 22.368 22.6121 22.3836C21.1275 22.6606 19.6004 22.5213 18.0729 21.9686C18.0002 21.9425 17.9224 21.9338 17.8458 21.9431C17.7691 21.9524 17.6956 21.9795 17.6313 22.0223L13.5297 24.7571C13.0989 25.0441 12.5312 24.9559 12.2081 24.5517L12.1424 24.4693C11.9899 24.2794 11.913 24.0399 11.9264 23.7967C11.9398 23.5535 12.0427 23.3239 12.2151 23.1519L17.7543 17.6125C18.5232 17.2702 19.3154 17.0656 20.111 17.0028C21.2858 16.9113 22.2942 17.1729 23.3622 17.4498C24.572 17.7635 25.3327 17.9273 26.6055 18.0473L29.0635 24.6532ZM25.6343 27.0944C25.6136 27.0607 25.5969 27.0247 25.5844 26.9871C25.5553 26.8978 25.4597 26.7078 25.3973 26.6602L22.5153 23.402C21.0215 23.6337 19.4965 23.4919 17.9749 22.98L14.0771 25.5784C13.2179 26.1515 12.0822 25.9752 11.4376 25.1685L11.3715 25.0861C10.741 24.2993 10.8042 23.1669 11.517 22.4537L16.8274 17.1434C14.5316 16.6378 13.0512 17.473 10.9043 17.8468C10.4032 17.9345 9.8967 18.0003 9.39392 18.0477L6.93591 24.6537L10.9141 26.7957C10.9583 26.8193 10.9986 26.8497 11.0335 26.8856L15.6905 31.6588C15.6963 31.6637 15.7017 31.67 15.7067 31.6758C16.3513 32.4044 16.9492 32.7287 17.3493 32.567C17.7864 32.3898 17.9898 31.6608 17.8288 31.2241C17.6548 30.7516 18.2247 30.3511 18.6106 30.676C19.7886 31.6678 20.9351 31.0333 20.405 29.7302C20.21 29.2507 20.7989 28.8315 21.1877 29.1725C22.4657 30.2939 23.3643 29.4845 23.1402 28.3212C23.0454 27.8294 23.6648 27.5267 23.9952 27.9003C24.727 28.7281 25.8099 27.8461 25.6343 27.0944ZM8.71388 17.0446L5.47158 25.7587C5.41189 25.9173 5.2329 25.9993 5.07399 25.9404L2.89981 25.1317C2.74141 25.0725 2.65926 24.8927 2.71808 24.7341L5.96038 16.02C6.0195 15.8603 6.20382 15.781 6.35797 15.8378L8.53251 16.6475C8.6907 16.7063 8.77199 16.8865 8.71388 17.0446ZM12.1734 16.5505C13.3781 16.2475 14.5175 15.9065 15.9652 16.0193C16.6502 16.0726 17.333 16.2194 17.9992 16.4534C18.6671 16.2184 19.3491 16.0725 20.034 16.0192C21.4762 15.9067 22.624 16.2464 23.8255 16.5502L23.8252 3.79526C23.8252 3.57155 23.6434 3.38896 23.4197 3.38896L15.3889 3.38918L15.389 5.21236C15.389 5.98046 14.7636 6.60513 13.9954 6.60513L12.1731 6.6052L12.1734 16.5505ZM12.8718 5.61786L14.4017 4.08743V5.21236C14.4017 5.43606 14.2196 5.61786 13.9954 5.61786H12.8718ZM34.1698 25.3804C34.0995 25.5353 33.9992 25.6748 33.8746 25.7907C33.75 25.9066 33.6037 25.9967 33.4442 26.0557L31.2696 26.8651C30.6035 27.1143 29.8533 26.7749 29.6032 26.1024L29.4119 25.5872L26.6332 27.0832C26.7695 28.3977 25.4043 29.5512 24.1181 29.1372C23.8792 30.3712 22.7465 31.0116 21.5198 30.5312C21.46 31.1946 21.0819 31.6873 20.6083 31.9381C20.0851 32.2147 19.4522 32.2139 18.8321 31.9594C18.6803 32.8284 18.0581 33.5979 17.1242 33.5979C16.5661 33.5979 15.8392 33.3119 14.9754 32.3392L10.38 27.6292L6.58859 25.5879C6.39239 26.1153 6.29274 26.5675 5.72113 26.8292C5.56658 26.9006 5.39941 26.9406 5.2293 26.9468C5.05919 26.9531 4.88952 26.9256 4.73012 26.8659L2.55558 26.0567C1.88605 25.8075 1.54362 25.0594 1.79281 24.3904L5.03504 15.6763C5.28459 15.0063 6.03188 14.664 6.70184 14.9136L8.87639 15.7223C9.41538 15.9226 9.75442 16.4561 9.7177 17.0211C10.2047 16.9645 10.7065 16.8888 11.1865 16.7869L11.1862 6.11171C11.1862 5.98074 11.2382 5.85554 11.3309 5.7628L14.5463 2.54728C14.5921 2.50137 14.6465 2.46495 14.7063 2.44012C14.7662 2.41528 14.8304 2.40252 14.8952 2.40256L23.4196 2.40234C24.1877 2.40234 24.8124 3.02738 24.8124 3.79547L24.8126 16.7866C25.2931 16.8889 25.794 16.964 26.2823 17.0206C26.2457 16.4647 26.5742 15.9257 27.1231 15.7219L29.2977 14.913C29.9668 14.6634 30.7154 15.0057 30.964 15.6748L34.2067 24.3896C34.327 24.7129 34.3141 25.0643 34.1698 25.3804ZM14.1158 13.7126C13.9849 13.7126 13.8593 13.6606 13.7668 13.568C13.6742 13.4755 13.6222 13.3499 13.6222 13.219C13.6222 13.0881 13.6742 12.9625 13.7668 12.8699C13.8593 12.7774 13.9849 12.7253 14.1158 12.7253L21.8833 12.7251C22.0142 12.7252 22.1397 12.7772 22.2322 12.8698C22.3248 12.9624 22.3768 13.0879 22.3769 13.2188C22.3768 13.3497 22.3248 13.4752 22.2322 13.5677C22.1397 13.6603 22.0142 13.7123 21.8833 13.7124L14.1158 13.7126ZM13.6221 9.49283C13.6221 9.36192 13.6742 9.23637 13.7667 9.1438C13.8593 9.05123 13.9848 8.99922 14.1158 8.9992L21.8832 8.99898C22.0141 8.99906 22.1396 9.05109 22.2322 9.14365C22.3247 9.23621 22.3767 9.36172 22.3768 9.49262C22.3767 9.62351 22.3247 9.74903 22.2322 9.84158C22.1396 9.93414 22.0141 9.98617 21.8832 9.98625L14.1158 9.98646C13.9848 9.98646 13.8593 9.93446 13.7667 9.84188C13.6741 9.74931 13.6221 9.62375 13.6221 9.49283Z" fill="#F47A18" stroke="#F47A18" stroke-width="0.5"/>
</svg>
