<svg width="32" height="32" viewBox="0 0 32 32" fill="none" xmlns="http://www.w3.org/2000/svg">
<path d="M11.73 14.9302C11.4462 14.9302 11.1741 14.8175 10.9734 14.6168C10.7728 14.4161 10.66 14.144 10.66 13.8602V10.6602C10.6456 10.5117 10.6624 10.3618 10.7094 10.2201C10.7564 10.0785 10.8324 9.94822 10.9327 9.83773C11.033 9.72723 11.1553 9.63894 11.2918 9.57851C11.4282 9.51809 11.5758 9.48688 11.725 9.48688C11.8743 9.48688 12.0218 9.51809 12.1583 9.57851C12.2947 9.63894 12.417 9.72723 12.5173 9.83773C12.6176 9.94822 12.6937 10.0785 12.7407 10.2201C12.7876 10.3618 12.8044 10.5117 12.79 10.6602V13.8602C12.79 14.1423 12.6787 14.4129 12.4802 14.6133C12.2817 14.8137 12.0121 14.9276 11.73 14.9302ZM16 14.9302C15.7162 14.9302 15.4441 14.8175 15.2434 14.6168C15.0428 14.4161 14.93 14.144 14.93 13.8602V9.6002C14.9557 9.33554 15.079 9.08993 15.2759 8.91122C15.4728 8.73252 15.7291 8.63352 15.995 8.63352C16.2609 8.63352 16.5173 8.73252 16.7142 8.91122C16.9111 9.08993 17.0344 9.33554 17.06 9.6002V13.8702C17.0574 14.1505 16.9449 14.4186 16.7467 14.6168C16.5485 14.8151 16.2804 14.9276 16 14.9302ZM20.27 14.9302C19.9862 14.9302 19.7141 14.8175 19.5134 14.6168C19.3128 14.4161 19.2 14.144 19.2 13.8602V7.47019C19.1856 7.32167 19.2024 7.17176 19.2494 7.03012C19.2964 6.88848 19.3724 6.75822 19.4727 6.64773C19.573 6.53723 19.6953 6.44894 19.8318 6.38851C19.9682 6.32809 20.1158 6.29688 20.265 6.29688C20.4143 6.29688 20.5618 6.32809 20.6983 6.38851C20.8347 6.44894 20.957 6.53723 21.0573 6.64773C21.1576 6.75822 21.2337 6.88848 21.2807 7.03012C21.3276 7.17176 21.3444 7.32167 21.33 7.47019V13.8702C21.3274 14.1505 21.2149 14.4186 21.0167 14.6168C20.8185 14.8151 20.5504 14.9276 20.27 14.9302Z" fill="#45BBAB"/>
<path d="M24.53 32H7.46996C6.33748 32 5.25139 31.5501 4.45061 30.7493C3.64983 29.9486 3.19996 28.8625 3.19996 27.73V8.4C3.19874 7.61745 3.37019 6.84427 3.70206 6.13557C4.03394 5.42688 4.51808 4.80013 5.11996 4.3L8.79996 1.24C9.75748 0.442065 10.9635 0.00349283 12.21 0L24.53 0C25.6624 0 26.7485 0.449874 27.5493 1.25065C28.3501 2.05143 28.8 3.13753 28.8 4.27V27.73C28.8 28.8625 28.3501 29.9486 27.5493 30.7493C26.7485 31.5501 25.6624 32 24.53 32ZM12.21 2.13C11.4784 2.14154 10.7728 2.40263 10.21 2.87L6.47996 5.94C6.11909 6.24018 5.82891 6.61629 5.63013 7.04152C5.43134 7.46675 5.32885 7.9306 5.32996 8.4V27.73C5.33259 28.2941 5.55784 28.8343 5.95673 29.2332C6.35561 29.6321 6.89586 29.8574 7.45996 29.86H24.53C25.0941 29.8574 25.6343 29.6321 26.0332 29.2332C26.4321 28.8343 26.6573 28.2941 26.66 27.73V4.27C26.6573 3.7059 26.4321 3.16565 26.0332 2.76677C25.6343 2.36788 25.0941 2.14263 24.53 2.14L12.21 2.13Z" fill="#45BBAB"/>
<path d="M22.4001 25.5998H9.60008C9.45155 25.6142 9.30165 25.5974 9.16 25.5504C9.01836 25.5034 8.88811 25.4274 8.77761 25.3271C8.66711 25.2268 8.57882 25.1045 8.51839 24.968C8.45797 24.8316 8.42676 24.684 8.42676 24.5348C8.42676 24.3855 8.45797 24.238 8.51839 24.1015C8.57882 23.9651 8.66711 23.8428 8.77761 23.7425C8.88811 23.6422 9.01836 23.5661 9.16 23.5191C9.30165 23.4722 9.45155 23.4554 9.60008 23.4698H22.4001C22.5486 23.4554 22.6985 23.4722 22.8402 23.5191C22.9818 23.5661 23.112 23.6422 23.2225 23.7425C23.333 23.8428 23.4213 23.9651 23.4818 24.1015C23.5422 24.238 23.5734 24.3855 23.5734 24.5348C23.5734 24.684 23.5422 24.8316 23.4818 24.968C23.4213 25.1045 23.333 25.2268 23.2225 25.3271C23.112 25.4274 22.9818 25.5034 22.8402 25.5504C22.6985 25.5974 22.5486 25.6142 22.4001 25.5998ZM22.4001 20.2698H9.60008C9.33543 20.2441 9.08981 20.1208 8.91111 19.9239C8.7324 19.727 8.6334 19.4707 8.6334 19.2048C8.6334 18.9389 8.7324 18.6825 8.91111 18.4856C9.08981 18.2887 9.33543 18.1654 9.60008 18.1398H22.4001C22.5486 18.1254 22.6985 18.1422 22.8402 18.1891C22.9818 18.2361 23.112 18.3122 23.2225 18.4125C23.333 18.5128 23.4213 18.6351 23.4818 18.7715C23.5422 18.908 23.5734 19.0555 23.5734 19.2048C23.5734 19.354 23.5422 19.5016 23.4818 19.638C23.4213 19.7745 23.333 19.8968 23.2225 19.9971C23.112 20.0974 22.9818 20.1734 22.8402 20.2204C22.6985 20.2674 22.5486 20.2842 22.4001 20.2698Z" fill="#45BBAB"/>
</svg>
