<svg width="487" height="425" viewBox="0 0 487 425" fill="none" xmlns="http://www.w3.org/2000/svg">
<path d="M487 11.9873H138V212.468H487V11.9873Z" fill="white"/>
<path d="M477 29.0742H148V200.197H477V29.0742Z" fill="white"/>
<path d="M487 0.0537109H138V18.3516H487V0.0537109Z" fill="#033262"/>
<path d="M149.925 13.5783C151.681 13.5783 153.105 12.1536 153.105 10.3961C153.105 8.6386 151.681 7.21387 149.925 7.21387C148.169 7.21387 146.745 8.6386 146.745 10.3961C146.745 12.1536 148.169 13.5783 149.925 13.5783Z" fill="white"/>
<path d="M161.055 13.5783C162.811 13.5783 164.235 12.1536 164.235 10.3961C164.235 8.6386 162.811 7.21387 161.055 7.21387C159.298 7.21387 157.875 8.6386 157.875 10.3961C157.875 12.1536 159.298 13.5783 161.055 13.5783Z" fill="white"/>
<path d="M172.582 13.5783C174.119 13.5783 175.364 12.1536 175.364 10.3961C175.364 8.6386 174.119 7.21387 172.582 7.21387C171.045 7.21387 169.8 8.6386 169.8 10.3961C169.8 12.1536 171.045 13.5783 172.582 13.5783Z" fill="white"/>
<path d="M457.807 162.349H274.517C274.365 162.349 274.219 162.283 274.111 162.167C274.004 162.051 273.943 161.893 273.943 161.728V66.7064C273.943 66.5418 274.004 66.384 274.111 66.2676C274.219 66.1513 274.365 66.0859 274.517 66.0859C274.669 66.0859 274.815 66.1513 274.922 66.2676C275.03 66.384 275.09 66.5418 275.09 66.7064V161.108H457.807C457.959 161.108 458.105 161.173 458.212 161.289C458.32 161.406 458.38 161.564 458.38 161.728C458.38 161.893 458.32 162.051 458.212 162.167C458.105 162.283 457.959 162.349 457.807 162.349Z" fill="#002A54"/>
<path d="M313.597 155.984H297.093C296.646 155.983 296.218 155.788 295.902 155.442C295.586 155.096 295.408 154.626 295.408 154.136V129.192C295.408 128.702 295.586 128.232 295.902 127.886C296.218 127.539 296.646 127.344 297.093 127.344H313.597C314.044 127.344 314.472 127.539 314.788 127.886C315.104 128.232 315.282 128.702 315.282 129.192V154.136C315.282 154.626 315.104 155.096 314.788 155.442C314.472 155.788 314.044 155.983 313.597 155.984Z" fill="#0D467F"/>
<path d="M343.806 155.984H327.303C326.856 155.983 326.428 155.787 326.112 155.439C325.796 155.092 325.618 154.62 325.617 154.128V105.332C325.618 104.84 325.796 104.368 326.112 104.021C326.428 103.673 326.856 103.477 327.303 103.477H343.806C344.253 103.477 344.682 103.673 344.998 104.021C345.314 104.368 345.491 104.84 345.492 105.332V154.128C345.491 154.62 345.314 155.092 344.998 155.439C344.682 155.787 344.253 155.983 343.806 155.984Z" fill="#F96464"/>
<path d="M374.744 155.984H357.58C357.115 155.983 356.67 155.788 356.341 155.442C356.012 155.096 355.827 154.626 355.827 154.136V129.192C355.827 128.702 356.012 128.232 356.341 127.886C356.67 127.539 357.115 127.344 357.58 127.344H374.744C375.208 127.344 375.654 127.539 375.983 127.886C376.311 128.232 376.496 128.702 376.497 129.192V154.136C376.496 154.626 376.311 155.096 375.983 155.442C375.654 155.788 375.208 155.983 374.744 155.984Z" fill="#FFA412"/>
<path d="M405.021 155.983H388.517C388.08 155.994 387.658 155.815 387.342 155.486C387.026 155.157 386.842 154.706 386.832 154.23V96.4794C386.842 96.0036 387.026 95.5519 387.342 95.2232C387.658 94.8946 388.08 94.7158 388.517 94.726H405.021C405.457 94.7158 405.88 94.8946 406.196 95.2232C406.512 95.5519 406.695 96.0036 406.706 96.4794V154.23C406.695 154.706 406.512 155.157 406.196 155.486C405.88 155.815 405.457 155.994 405.021 155.983Z" fill="#298BD0"/>
<path d="M435.23 155.983H418.727C418.28 155.983 417.851 155.789 417.535 155.445C417.219 155.101 417.042 154.634 417.041 154.147V79.8552C417.042 79.3683 417.219 78.9014 417.535 78.5571C417.851 78.2128 418.28 78.0191 418.727 78.0186H435.23C435.677 78.0191 436.105 78.2128 436.421 78.5571C436.737 78.9014 436.915 79.3683 436.916 79.8552V154.147C436.915 154.634 436.737 155.101 436.421 155.445C436.105 155.789 435.677 155.983 435.23 155.983Z" fill="#F9896B"/>
<path d="M305.345 119.389C307.321 119.389 308.922 117.786 308.922 115.809C308.922 113.831 307.321 112.229 305.345 112.229C303.369 112.229 301.768 113.831 301.768 115.809C301.768 117.786 303.369 119.389 305.345 119.389Z" fill="#042768"/>
<path d="M335.952 95.5214C337.708 95.5214 339.132 93.9185 339.132 91.9413C339.132 89.9642 337.708 88.3613 335.952 88.3613C334.196 88.3613 332.772 89.9642 332.772 91.9413C332.772 93.9185 334.196 95.5214 335.952 95.5214Z" fill="#042768"/>
<path d="M366.162 119.389C367.918 119.389 369.342 117.786 369.342 115.809C369.342 113.831 367.918 112.229 366.162 112.229C364.405 112.229 362.982 113.831 362.982 115.809C362.982 117.786 364.405 119.389 366.162 119.389Z" fill="#042768"/>
<path d="M396.769 83.5878C398.745 83.5878 400.346 81.9849 400.346 80.0078C400.346 78.0306 398.745 76.4277 396.769 76.4277C394.793 76.4277 393.191 78.0306 393.191 80.0078C393.191 81.9849 394.793 83.5878 396.769 83.5878Z" fill="#042768"/>
<path d="M426.978 70.0624C428.954 70.0624 430.556 68.4596 430.556 66.4824C430.556 64.5052 428.954 62.9023 426.978 62.9023C425.003 62.9023 423.401 64.5052 423.401 66.4824C423.401 68.4596 425.003 70.0624 426.978 70.0624Z" fill="#042768"/>
<path d="M366.299 117.002L335.76 92.1807L305.637 116.663L304.948 115.664L335.76 90.6217L366.153 115.325L396.358 79.4599L396.479 79.4062L426.946 66.0859L427.376 67.2434L397.03 80.51L366.299 117.002Z" fill="#002A54"/>
<path d="M238.964 49.3779H188.879V53.3557H238.964V49.3779Z" fill="#00458A"/>
<path d="M265.993 62.1074H188.879V66.0852H265.993V62.1074Z" fill="#F9896B"/>
<path d="M252.478 73.2451H189.674V78.0185H252.478V73.2451Z" fill="#00458A"/>
<path d="M226.244 86.7695H188.879V90.7473H226.244V86.7695Z" fill="#00458A"/>
<path d="M244.529 99.499H188.879V103.477H244.529V99.499Z" fill="#F9896B"/>
<path d="M172.185 47.7871H166.62V54.9471H172.185V47.7871Z" fill="#00458A"/>
<path d="M172.185 60.5166H166.62V67.6766H172.185V60.5166Z" fill="#F9896B"/>
<path d="M172.185 72.4492H166.62V78.8137H172.185V72.4492Z" fill="#00458A"/>
<path d="M172.185 85.1787H166.62V92.3387H172.185V85.1787Z" fill="#00458A"/>
<path d="M172.185 97.9072H166.62V105.067H172.185V97.9072Z" fill="#F9896B"/>
<path d="M238.964 112.229H188.879V116.206H238.964V112.229Z" fill="#00458A"/>
<path d="M265.993 124.161H188.879V128.139H265.993V124.161Z" fill="#F9896B"/>
<path d="M252.478 136.095H189.674V140.073H252.478V136.095Z" fill="#00458A"/>
<path d="M226.244 148.824H188.879V153.598H226.244V148.824Z" fill="#F9896B"/>
<path d="M244.529 161.553H188.879V166.326H244.529V161.553Z" fill="#00458A"/>
<path d="M172.185 110.637H166.62V117.797H172.185V110.637Z" fill="#00458A"/>
<path d="M172.185 123.366H166.62V129.731H172.185V123.366Z" fill="#F9896B"/>
<path d="M172.185 134.504H166.62V141.664H172.185V134.504Z" fill="#00458A"/>
<path d="M172.185 148.028H166.62V154.393H172.185V148.028Z" fill="#F9896B"/>
<path d="M172.185 160.757H166.62V167.121H172.185V160.757Z" fill="#00458A"/>
<path d="M76.4191 377.289L75.669 395.721C75.669 395.721 94.153 402.674 94.3453 406.093L58.5539 405.923L58.5434 377.155L76.4191 377.289Z" fill="#263238"/>
<path d="M64.6095 394.117C63.9155 394.303 63.4338 395.08 63.5909 395.78C63.748 396.481 64.5334 396.978 65.2303 396.805C65.9271 396.632 66.5345 395.717 66.2993 395.038C66.0652 394.359 65.1103 393.826 64.4753 394.162" fill="#E0E0E0"/>
<path d="M58.5548 405.923L58.6672 403.023L92.9411 404.271C92.9411 404.271 94.5309 404.971 94.3453 406.093L58.5548 405.923Z" fill="#455A64"/>
<path d="M76.2506 395.541C76.244 395.716 75.37 395.791 74.5066 396.348C73.6298 396.884 73.1823 397.639 73.0224 397.569C72.8615 397.535 73.1271 396.49 74.1838 395.833C75.2329 395.168 76.2887 395.381 76.2506 395.541Z" fill="white"/>
<path d="M79.9968 397.112C80.0359 397.281 79.2781 397.574 78.6802 398.311C78.0614 399.03 77.9082 399.829 77.734 399.82C77.5693 399.847 77.4541 398.822 78.2138 397.921C78.9658 397.014 79.994 396.945 79.9968 397.112Z" fill="white"/>
<path d="M82.1073 401.615C81.9484 401.651 81.7094 400.777 82.1625 399.822C82.609 398.863 83.4354 398.49 83.5087 398.636C83.6067 398.781 83.0736 399.291 82.7138 400.081C82.3349 400.862 82.2816 401.599 82.1073 401.615Z" fill="white"/>
<path d="M75.9555 391.322C75.8812 391.481 75.0806 391.236 74.0924 391.298C73.1033 391.34 72.3322 391.669 72.2427 391.518C72.1418 391.392 72.8958 390.748 74.061 390.691C75.2244 390.625 76.0421 391.185 75.9555 391.322Z" fill="white"/>
<path d="M21.3745 381.578L16.7306 403.408L18.0368 421.733C18.131 423.053 17.0867 424.179 15.7625 424.183C15.0208 424.184 14.3287 423.834 13.8984 423.23C11.1576 419.388 1.14735 405.204 1.5767 403.626C2.07364 401.798 4.94583 380.274 4.94583 380.274L21.3745 381.578Z" fill="#263238"/>
<path d="M15.7634 424.182L1.85658 402.146L1.68139 403.076C1.53002 403.879 1.66427 404.71 2.06887 405.42C3.15224 407.32 6.25861 412.499 13.8327 423.218C14.2735 423.842 14.9999 424.205 15.7634 424.182Z" fill="#455A64"/>
<g opacity="0.6">
<path d="M7.69426 395.923C8.17216 396.406 8.19406 397.272 7.73139 397.769C7.26776 398.266 6.38812 398.296 5.90165 397.821C5.41613 397.346 5.3571 396.308 5.87309 395.867C6.39002 395.425 7.4239 395.445 7.78185 396.023" fill="white"/>
</g>
<path d="M12.5608 413.653C12.6731 413.737 13.3852 412.682 14.8066 412.311C16.2165 411.897 17.3693 412.434 17.4226 412.305C17.4522 412.255 17.2066 412.032 16.7068 411.862C16.2127 411.691 15.4568 411.622 14.6752 411.839C13.8945 412.057 13.2824 412.504 12.9463 412.906C12.6055 413.307 12.5103 413.624 12.5608 413.653Z" fill="white"/>
<path d="M13.5681 416.886C13.6547 417 14.4934 416.42 15.6892 416.31C16.883 416.173 17.8216 416.568 17.8835 416.438C17.9682 416.338 17.0001 415.674 15.6387 415.822C14.2754 415.956 13.4653 416.805 13.5681 416.886Z" fill="white"/>
<path d="M10.3645 409.34C10.4473 409.464 11.7325 408.565 13.5775 408.23C15.4168 407.867 16.9419 408.232 16.9742 408.086C17.0323 407.976 15.4596 407.364 13.4871 407.749C11.5088 408.113 10.2703 409.258 10.3645 409.34Z" fill="white"/>
<path d="M11.2213 402.587C11.2547 402.73 12.5618 402.452 14.1497 402.692C15.7405 402.911 16.9153 403.548 16.9876 403.421C17.0685 403.325 15.929 402.447 14.2192 402.207C12.5132 401.953 11.1709 402.472 11.2213 402.587Z" fill="white"/>
<path d="M12.4219 396.143C12.4657 396.282 13.8223 395.782 15.473 396.173C17.1324 396.527 18.1434 397.56 18.2424 397.452C18.2871 397.413 18.0996 397.093 17.6493 396.705C17.2028 396.318 16.4707 395.897 15.5806 395.694C14.6886 395.495 13.847 395.563 13.2777 395.722C12.7056 395.88 12.3981 396.089 12.4219 396.143Z" fill="white"/>
<path d="M15.6653 394.94C15.6929 394.945 15.7986 394.66 15.8519 394.116C15.9033 393.575 15.8976 392.765 15.6035 391.819C15.4435 391.367 15.2959 390.797 14.7381 390.392C14.461 390.188 13.9965 390.16 13.6823 390.401C13.371 390.635 13.2216 390.979 13.1483 391.325C12.9083 392.721 13.8489 394.293 15.3769 394.789C16.9163 395.259 18.5099 394.63 19.36 393.546C19.5552 393.26 19.7218 392.897 19.6218 392.494C19.5247 392.088 19.1078 391.856 18.7831 391.85C18.1129 391.825 17.6312 392.122 17.1961 392.328C16.326 392.793 15.7368 393.344 15.3778 393.75C15.0161 394.158 14.8742 394.428 14.898 394.444C14.9637 394.516 15.6558 393.472 17.3523 392.638C17.775 392.452 18.2691 392.21 18.746 392.255C18.9793 392.276 19.1582 392.404 19.2049 392.604C19.2553 392.797 19.1573 393.063 18.9926 393.285C18.2805 394.17 16.822 394.741 15.5273 394.324C14.2354 393.919 13.411 392.536 13.5938 391.41C13.6414 391.139 13.7651 390.881 13.9394 390.748C14.1107 390.618 14.3354 390.615 14.522 390.735C14.9161 390.987 15.1151 391.502 15.2769 391.929C15.8948 393.714 15.5644 394.944 15.6653 394.94Z" fill="white"/>
<path d="M89.6015 227.399C89.6015 227.399 89.7491 237.1 89.1008 249.645C88.8504 254.499 78.6326 389.449 78.6326 389.449L56.5586 390.003L59.5993 263.877L55.796 264.804C55.796 264.804 44.1664 306.867 41.636 316.491C38.6229 327.948 22.4379 392.862 22.4379 392.862L2.26125 393.601L15.5331 317.531L26.9866 245.129L29.2809 224.072L89.6015 227.399Z" fill="#0E1824"/>
<path d="M55.796 251.115C55.7837 251.143 56.113 251.325 56.7299 251.611C57.3497 251.884 58.2598 252.302 59.4879 252.499C60.1 252.595 60.7959 252.61 61.5223 252.463C62.2439 252.316 63.0103 251.987 63.6234 251.388C64.2365 250.787 64.6201 249.958 64.8562 249.101C65.0942 248.237 65.2208 247.341 65.3808 246.431C65.9939 242.777 66.387 239.446 66.6041 237.03C66.7136 235.822 66.7812 234.842 66.8145 234.164C66.8469 233.486 66.8478 233.11 66.8154 233.107C66.783 233.105 66.7212 233.476 66.6336 234.148C66.5365 234.918 66.4175 235.869 66.2756 236.994C65.9748 239.397 65.5302 242.711 64.92 246.355C64.6087 248.155 64.4116 249.986 63.3187 251.084C62.2268 252.162 60.6731 252.31 59.5326 252.172C58.354 252.026 57.4354 251.664 56.7994 251.443C56.1635 251.209 55.8094 251.083 55.796 251.115Z" fill="#263238"/>
<path d="M62.0107 233.862C62.0173 233.842 61.865 233.751 61.5537 233.74C61.2462 233.724 60.7807 233.83 60.3285 234.168C59.8953 234.504 59.4403 235.099 59.4412 235.896C59.425 236.703 60.0743 237.481 60.9026 237.755C61.7232 238.052 62.7152 237.844 63.2026 237.199C63.6967 236.574 63.7081 235.825 63.5758 235.292C63.4301 234.747 63.1293 234.377 62.8789 234.198C62.6276 234.014 62.4515 233.991 62.4439 234.011C62.3848 234.073 63.0741 234.366 63.253 235.362C63.3321 235.831 63.2711 236.46 62.8732 236.922C62.4905 237.395 61.7375 237.551 61.0568 237.313C60.3752 237.078 59.8801 236.49 59.8725 235.882C59.8458 235.272 60.1867 234.741 60.5389 234.421C61.2957 233.751 62.0183 233.948 62.0107 233.862Z" fill="#263238"/>
<path d="M27.2589 243.828C27.2579 243.86 27.5254 243.894 28.0138 243.927C28.5012 243.968 29.2114 243.962 30.0844 243.899C31.8294 243.777 34.2408 243.292 36.6922 242.192C39.1408 241.083 41.1 239.595 42.3462 238.367C42.9726 237.755 43.4457 237.226 43.738 236.834C44.036 236.446 44.1883 236.224 44.1636 236.203C44.0998 236.149 43.4115 236.979 42.1215 238.125C40.8373 239.272 38.8942 240.68 36.4999 241.766C34.1019 242.842 31.7609 243.366 30.0511 243.57C28.3394 243.778 27.2608 243.744 27.2589 243.828Z" fill="#263238"/>
<path d="M80.6994 233.8C80.6661 233.825 80.9555 234.705 81.5715 236.013C82.1845 237.321 83.1546 239.031 84.4151 240.658C85.6793 242.281 86.9798 243.491 87.9632 244.239C88.9476 244.99 89.5997 245.32 89.6149 245.272C89.6368 245.204 89.0218 244.769 88.0803 243.956C87.1378 243.145 85.8821 241.915 84.6388 240.319C83.3993 238.72 82.4188 237.073 81.7628 235.828C81.1059 234.584 80.7461 233.763 80.6994 233.8Z" fill="#263238"/>
<path d="M68.0206 94.3197C67.3276 85.4176 59.9134 78.5413 50.9846 78.5175L50.0973 78.5146C40.5287 79.0468 35.6364 87.4711 36.4332 97.0206L38.4724 126.723L55.5247 144.447L59.8896 133.85L59.8648 126.795C59.8648 126.795 69.0659 125.39 69.2049 116.196C69.2715 111.755 68.6651 102.599 68.0206 94.3197Z" fill="#FDCDB4"/>
<path d="M59.9409 126.783C59.9409 126.783 54.068 127.12 47.9019 123.224C47.9019 123.224 50.717 129.849 59.8952 129.046L59.9409 126.783Z" fill="#EB996E"/>
<path d="M65.5587 101.983C65.5816 102.676 65.0132 103.267 64.2887 103.304C63.5662 103.34 62.9607 102.81 62.9388 102.116C62.916 101.422 63.4843 100.831 64.2069 100.794C64.9313 100.758 65.5368 101.29 65.5587 101.983Z" fill="#263238"/>
<path d="M66.031 98.8139C65.8682 98.9843 64.8753 98.2456 63.4615 98.2456C62.0497 98.2256 61.0111 98.9491 60.8588 98.7759C60.7835 98.6987 60.9501 98.3903 61.4023 98.0628C61.8479 97.7363 62.6066 97.4202 63.4872 97.4269C64.3669 97.4345 65.1066 97.7601 65.5312 98.0933C65.9653 98.4274 66.1119 98.7368 66.031 98.8139Z" fill="#263238"/>
<path d="M52.7781 102.338C52.801 103.031 52.2326 103.622 51.5082 103.66C50.7856 103.697 50.1801 103.166 50.1582 102.472C50.1354 101.778 50.7047 101.186 51.4272 101.149C52.1507 101.113 52.7562 101.644 52.7781 102.338Z" fill="#263238"/>
<path d="M52.1413 99.0385C51.9775 99.2099 50.9837 98.4711 49.5719 98.4701C48.161 98.4502 47.1214 99.1737 46.9691 99.0004C46.8939 98.9233 47.0595 98.6148 47.5136 98.2874C47.9592 97.9608 48.7179 97.6448 49.5976 97.6505C50.4772 97.6581 51.2169 97.9837 51.6425 98.3169C52.0737 98.6529 52.2213 98.9623 52.1413 99.0385Z" fill="#263238"/>
<path d="M57.2401 109.532C57.2335 109.451 58.1122 109.302 59.5363 109.124C59.8972 109.087 60.2389 109.017 60.3008 108.77C60.3865 108.51 60.237 108.121 60.0628 107.7C59.7258 106.826 59.3736 105.911 59.0032 104.95C57.5324 101.034 56.468 97.8147 56.6261 97.7567C56.7851 97.6986 58.1055 100.826 59.5763 104.742C59.9305 105.708 60.2694 106.628 60.5912 107.509C60.7264 107.919 60.9605 108.385 60.7749 108.926C60.6768 109.195 60.4112 109.39 60.1799 109.452C59.9486 109.522 59.7458 109.525 59.5668 109.536C58.1341 109.608 57.2458 109.612 57.2401 109.532Z" fill="#263238"/>
<path d="M53.0789 110.498C53.3084 110.486 53.3074 112.02 54.6174 113.111C55.9254 114.207 57.56 114.04 57.5724 114.254C57.5933 114.35 57.2077 114.551 56.5166 114.568C55.8397 114.59 54.8515 114.369 54.05 113.702C53.2512 113.031 52.9095 112.139 52.8581 111.511C52.8019 110.869 52.9742 110.489 53.0789 110.498Z" fill="#263238"/>
<path d="M52.5211 93.5025C52.3812 93.8862 50.9703 93.7006 49.3119 93.8957C47.6497 94.0576 46.3112 94.5393 46.0922 94.1946C45.9942 94.029 46.2284 93.6682 46.7701 93.2979C47.307 92.9285 48.1628 92.5772 49.1586 92.4696C50.1544 92.3639 51.0655 92.5239 51.6681 92.7714C52.2755 93.017 52.5811 93.3207 52.5211 93.5025Z" fill="#263238"/>
<path d="M65.5235 94.7229C65.2741 95.0437 64.3011 94.7076 63.1311 94.6886C61.9611 94.6286 60.9691 94.898 60.7416 94.562C60.6426 94.3992 60.7987 94.0774 61.2328 93.7747C61.6603 93.4729 62.3752 93.2273 63.1796 93.2539C63.9841 93.2815 64.68 93.5748 65.0865 93.9042C65.4978 94.2354 65.633 94.5667 65.5235 94.7229Z" fill="#263238"/>
<path d="M71.4249 86.2766C71.2736 85.4369 70.472 84.7086 69.6247 84.8105C70.0788 84.6629 70.5462 84.5087 70.9108 84.2003C71.2755 83.8918 71.5192 83.3892 71.3811 82.9312C71.166 82.2134 70.2606 82.0411 69.5457 81.8165C68.6137 81.5232 67.7788 80.9311 67.1942 80.1476C66.3517 79.0195 66.0566 77.5743 65.3359 76.3653C64.403 74.7993 62.736 73.693 60.9301 73.4417C59.1251 73.1904 57.2182 73.8006 55.894 75.0515C54.5317 73.5693 52.4335 72.7982 50.4352 73.0457C48.437 73.2922 46.5901 74.5498 45.6286 76.3187C43.2191 75.2343 40.2307 75.5685 38.1202 77.1583C36.0096 78.7482 34.8643 81.529 35.2423 84.1441L40.8657 87.815C41.0095 86.049 43.0239 84.7001 44.7109 85.2408C46.4245 85.7892 47.4726 87.8207 49.2614 88.0083C50.6551 88.1539 51.8737 87.1058 53.236 86.7821C54.8897 86.3889 56.6042 87.0953 58.0608 87.9721C59.5173 88.8489 60.8949 89.9246 62.5294 90.3883C64.4468 90.9309 66.5164 90.5615 68.3804 89.8599C69.1792 89.5591 69.9722 89.1868 70.5767 88.5852C71.1841 87.9854 71.5763 87.1162 71.4249 86.2766Z" fill="#263238"/>
<path d="M41.9376 85.1472L68.1528 85.7432C67.3388 83.9344 65.8842 82.4845 64.3048 81.285C60.8995 78.6993 56.7126 77.0819 52.4372 77.0048C48.1618 76.9267 39.4548 82.1284 36.355 85.0749C33.8751 87.432 33.8894 89.4741 33.8894 89.4741C33.4933 92.8727 35.3926 96.7378 36.1475 100.076C36.5359 101.797 37.2861 107.004 37.2861 107.004H37.2871C38.7312 107 39.2691 105.851 39.0502 104.423L38.7836 98.8199C38.7836 98.8199 43.6988 95.3317 41.3759 88.9409C41.0018 88.4316 40.2069 86.0964 41.9376 85.1472Z" fill="#263238"/>
<path d="M38.3857 98.4362C37.1843 93.7562 36.1 88.7477 37.6498 84.1715C37.3909 84.1534 37.1319 84.1353 36.872 84.1172L36.5407 84.3447C35.0889 83.8097 33.3182 84.3181 32.371 85.5423C31.4247 86.7666 31.3771 88.6078 32.2596 89.8787C30.7088 89.7616 29.1818 91.0182 28.9961 92.5614C28.8686 93.6267 29.3036 94.672 29.753 95.6469C30.2023 96.6217 30.6859 97.6318 30.6621 98.7047C30.6383 99.7776 29.9186 100.923 28.8495 101.02C29.2951 102.133 30.6098 102.818 31.7779 102.547C31.3838 103.444 30.7288 104.224 29.9129 104.767C31.5865 105.979 33.9427 105.648 35.8248 104.797C36.9415 104.292 38.0449 103.557 38.5276 102.431C39.0635 101.183 38.7237 99.7519 38.3857 98.4362Z" fill="#263238"/>
<path d="M37.8041 103.832C37.648 103.764 31.4914 101.947 31.6751 108.234C31.8589 114.521 38.1325 113.039 38.1383 112.858C38.143 112.677 37.8041 103.832 37.8041 103.832Z" fill="#FDCDB4"/>
<path d="M36.7007 110.532C36.6722 110.513 36.5932 110.612 36.4104 110.703C36.2324 110.79 35.9239 110.857 35.5926 110.744C34.9214 110.519 34.3312 109.481 34.2674 108.348C34.2351 107.777 34.3388 107.229 34.5283 106.772C34.7073 106.306 34.9948 105.976 35.327 105.907C35.6574 105.821 35.9001 106.014 35.982 106.189C36.0715 106.362 36.0353 106.489 36.0686 106.499C36.0867 106.514 36.2 106.389 36.1419 106.131C36.1124 106.007 36.0343 105.861 35.883 105.745C35.7287 105.627 35.505 105.57 35.2727 105.603C34.7891 105.65 34.3655 106.109 34.157 106.611C33.9219 107.116 33.7914 107.732 33.8286 108.374C33.9057 109.64 34.5892 110.806 35.506 111.043C35.9515 111.145 36.3161 111.001 36.5027 110.847C36.6941 110.685 36.7226 110.544 36.7007 110.532Z" fill="#EB996E"/>
<path d="M31.4343 98.4417C31.4152 98.4531 31.2648 98.2008 31.34 97.7086C31.4124 97.2298 31.7798 96.5434 32.5605 96.1055C33.3325 95.6647 34.3855 95.5819 35.4555 95.4924C36.5141 95.4076 37.7289 95.142 38.3619 94.1186C38.9941 93.1219 39.0465 91.8814 38.9474 90.838C38.8275 89.7804 38.5762 88.8141 38.4619 87.9868C38.1773 86.316 38.5257 85.265 38.5809 85.2946C38.6552 85.3079 38.44 86.3208 38.8027 87.9268C38.957 88.7322 39.2425 89.6728 39.3958 90.7876C39.5196 91.8862 39.5053 93.2161 38.7723 94.3861C38.4067 94.9621 37.8365 95.3915 37.2405 95.6095C36.6436 95.8322 36.0457 95.8979 35.4955 95.9408C34.3959 96.0055 33.4277 96.055 32.7204 96.412C32.0216 96.7557 31.6437 97.3364 31.5275 97.7496C31.4028 98.1751 31.4781 98.434 31.4343 98.4417Z" fill="#455A64"/>
<path d="M29.9977 95.6605C29.973 95.669 29.8644 95.4777 29.8197 95.0874C29.7787 94.7037 29.8254 94.1059 30.1786 93.4813C30.3547 93.1729 30.6079 92.8616 30.9497 92.6064C31.2877 92.3399 31.7408 92.1828 32.1702 92.0781C32.6014 91.9658 33.0488 91.8677 33.3763 91.623C33.7029 91.3803 33.8581 90.9681 33.8819 90.4863C33.9142 90.0084 33.8552 89.5029 33.8819 88.9993C33.9028 88.5005 33.9751 88.0235 34.0827 87.5789C34.3036 86.6879 34.6501 85.9396 35.0471 85.3608C35.4431 84.7639 36.0562 84.484 36.4618 84.5173C36.8778 84.5335 37.0463 84.7248 37.0273 84.741C37.0092 84.7791 36.8197 84.6639 36.4713 84.7077C36.1219 84.742 35.6602 84.999 35.3346 85.554C35.0081 86.1043 34.7044 86.8421 34.5226 87.6798C34.4331 88.1006 34.375 88.55 34.3607 89.0165C34.3407 89.4782 34.4045 89.9732 34.3702 90.5187C34.3531 91.0509 34.1389 91.6716 33.6638 92.0057C33.2002 92.3351 32.7004 92.4122 32.2787 92.5151C31.4143 92.6588 30.825 93.1205 30.4737 93.6603C29.7768 94.7665 30.092 95.6671 29.9977 95.6605Z" fill="#455A64"/>
<path d="M67.1991 80.1547C67.2381 80.1652 66.7155 80.4832 65.9044 80.0729C65.5064 79.8825 65.1209 79.4931 64.7477 79.0295C64.3764 78.5601 63.9528 78.0594 63.3273 77.6948C62.1211 76.9627 60.1419 76.7256 58.5844 77.8737C57.7914 78.4145 57.0822 79.1808 56.1616 79.813C55.7008 80.1233 55.1687 80.3956 54.5699 80.4946C53.9711 80.5946 53.3427 80.4936 52.7877 80.2747C51.6672 79.8358 50.7942 79.1171 49.8279 78.7353C48.8655 78.3307 47.8573 78.1355 46.8958 78.1203C44.9594 78.0699 43.2639 78.7515 42.0949 79.6207C40.9058 80.487 40.1975 81.4818 39.7758 82.1873C39.3645 82.9051 39.2103 83.3439 39.1703 83.3297C39.1541 83.3239 39.1798 83.2107 39.2427 82.9974C39.3074 82.7851 39.4254 82.4786 39.6092 82.0968C39.989 81.3476 40.6754 80.2852 41.8883 79.3446C43.0792 78.4021 44.8595 77.6415 46.9024 77.67C47.9173 77.6738 48.9873 77.869 50.0126 78.2926C51.0551 78.7048 51.9461 79.4274 52.9619 79.8177C53.4674 80.0157 53.9891 80.0957 54.4937 80.0148C54.9973 79.9339 55.4657 79.7016 55.8951 79.416C56.7566 78.8372 57.482 78.0708 58.3312 77.5025C59.1699 76.9075 60.1876 76.6361 61.0996 76.6733C62.0183 76.7037 62.8523 76.9874 63.5091 77.4015C64.1746 77.8138 64.623 78.3878 64.9638 78.8619C65.3141 79.3379 65.6454 79.7082 65.9967 79.9072C66.706 80.3337 67.2029 80.1081 67.1991 80.1547Z" fill="#455A64"/>
<path d="M104.039 163.478L136.567 137.774L141.202 132.907C141.202 132.907 152.285 122.559 153.223 121.429C154.307 120.124 155.196 120.332 155.65 120.764C156.358 121.439 156.121 122.803 155.225 123.952C154.915 124.349 149.778 130.418 149.778 130.418C149.778 130.418 150.479 130.145 152.334 129.754C154.191 129.364 156.856 130.477 158.975 132.36C161.094 134.243 161.52 134.958 160.827 135.815C160.549 136.159 160.13 136.273 159.715 136.281C159.038 136.294 158.38 136.023 157.867 135.58C154.433 132.611 151.941 133.693 151.941 133.693L151.335 134.33C151.335 134.33 154.716 134.582 155.871 136.627C156.06 136.96 156.157 137.287 156.199 137.603C157.117 138.384 157.606 139.648 157.428 140.842C157.242 142.085 156.347 143.196 155.173 143.643C154.613 143.856 153.883 143.882 153.507 143.414C153.309 143.167 153.256 142.839 153.203 142.526C153.174 142.363 153.14 142.194 153.084 142.038L151.135 143.583C151.135 143.583 146.573 146.822 144.747 148.455L117.55 178.039C113.779 182.14 107.378 182.353 103.344 178.51C98.9558 174.332 99.2833 167.235 104.039 163.478Z" fill="#FFD5C0"/>
<path d="M137.92 138.189C138.414 138.897 139.462 138.975 140.279 138.696C141.097 138.417 141.796 137.87 142.591 137.533C144.969 136.525 147.869 137.513 150.195 136.393C150.52 136.236 150.871 135.941 150.788 135.592C150.709 135.267 150.319 135.147 149.992 135.085C147.19 134.55 144.389 134.014 141.587 133.479" fill="#FFD5C0"/>
<path d="M141.588 133.478C141.595 133.445 141.924 133.475 142.514 133.559C143.106 133.642 143.957 133.778 145.008 133.957C146.1 134.15 147.339 134.369 148.693 134.608C149.04 134.672 149.396 134.737 149.756 134.803C150.089 134.891 150.562 134.858 150.929 135.323C151.101 135.564 151.056 135.929 150.897 136.132C150.747 136.345 150.558 136.475 150.36 136.583C149.974 136.764 149.585 136.911 149.171 137.002C147.512 137.374 145.944 137.168 144.572 137.304C143.885 137.361 143.245 137.487 142.687 137.714C142.13 137.939 141.636 138.253 141.151 138.495C140.196 139.03 139.193 139.079 138.622 138.818C138.03 138.565 137.899 138.186 137.92 138.189C137.955 138.153 138.136 138.468 138.685 138.639C139.231 138.816 140.093 138.737 140.989 138.191C141.447 137.939 141.932 137.603 142.531 137.34C143.129 137.077 143.815 136.928 144.529 136.856C145.956 136.695 147.527 136.876 149.059 136.526C149.439 136.445 149.804 136.304 150.135 136.151C150.453 135.992 150.649 135.726 150.526 135.58C150.415 135.4 150.03 135.326 149.669 135.26C149.308 135.189 148.955 135.118 148.608 135.049C147.262 134.772 146.028 134.519 144.942 134.295C143.9 134.073 143.058 133.886 142.478 133.745C141.899 133.605 141.582 133.511 141.588 133.478Z" fill="#F79E6E"/>
<path d="M151.227 134.293C151.266 134.343 151.635 133.735 152.607 133.451C153.084 133.314 153.693 133.329 154.311 133.566C154.933 133.794 155.546 134.213 156.159 134.702C156.775 135.189 157.374 135.673 158.008 135.988C158.64 136.298 159.276 136.461 159.825 136.415C160.383 136.378 160.77 136.053 160.922 135.799C161.08 135.54 161.097 135.372 161.085 135.368C161.058 135.355 160.998 135.509 160.823 135.726C160.649 135.94 160.307 136.185 159.812 136.192C159.323 136.207 158.729 136.036 158.142 135.729C157.551 135.419 156.976 134.945 156.354 134.453C155.734 133.959 155.083 133.522 154.409 133.291C153.739 133.051 153.052 133.058 152.543 133.237C152.028 133.41 151.682 133.695 151.482 133.91C151.282 134.131 151.212 134.283 151.227 134.293Z" fill="#F79E6E"/>
<path d="M155.564 123.504C155.527 123.478 155.146 123.946 154.535 124.703C153.85 125.544 153.033 126.546 152.132 127.653C151.213 128.747 150.382 129.736 149.684 130.566C149.055 131.308 148.666 131.77 148.699 131.802C148.729 131.831 149.176 131.422 149.85 130.715C150.525 130.009 151.423 129.002 152.374 127.854C153.324 126.706 154.145 125.634 154.712 124.839C155.28 124.044 155.598 123.528 155.564 123.504Z" fill="#F79E6E"/>
<path d="M151.46 136.818C151.455 136.842 151.628 136.884 151.929 136.976C152.214 137.068 152.691 137.232 152.905 137.713C153.009 137.945 152.972 138.226 152.798 138.483C152.633 138.743 152.364 138.965 152.083 139.224C151.809 139.477 151.486 139.819 151.432 140.301C151.386 140.77 151.599 141.244 151.96 141.559C152.331 141.883 152.826 141.986 153.261 141.94C153.701 141.892 154.101 141.735 154.419 141.467C155.004 140.942 155.393 140.377 155.697 139.884C155.992 139.386 156.166 138.943 156.224 138.621C156.281 138.296 156.238 138.114 156.223 138.117C156.195 138.118 156.195 138.294 156.105 138.591C156.015 138.888 155.818 139.299 155.508 139.766C155.195 140.225 154.782 140.774 154.235 141.244C153.714 141.665 152.768 141.838 152.168 141.323C151.876 141.069 151.707 140.684 151.739 140.333C151.773 139.98 152.019 139.688 152.284 139.436C152.548 139.181 152.835 138.935 153.022 138.621C153.221 138.321 153.264 137.908 153.108 137.622C152.805 137.041 152.255 136.921 151.959 136.858C151.64 136.8 151.463 136.799 151.46 136.818Z" fill="#F79E6E"/>
<path d="M153.314 141.672C153.305 141.66 153.163 141.762 153.061 142.045C152.964 142.317 152.931 142.801 153.248 143.263C153.558 143.713 154.211 144.039 154.929 143.963C155.645 143.893 156.35 143.468 156.864 142.853C157.38 142.235 157.656 141.481 157.7 140.788C157.75 140.09 157.569 139.47 157.338 139.007C157.105 138.541 156.819 138.224 156.606 138.032C156.39 137.841 156.248 137.768 156.237 137.782C156.192 137.824 156.737 138.196 157.136 139.101C157.328 139.547 157.471 140.128 157.41 140.766C157.355 141.401 157.093 142.086 156.621 142.651C156.152 143.214 155.515 143.602 154.896 143.675C154.279 143.755 153.707 143.495 153.425 143.129C153.137 142.76 153.124 142.333 153.178 142.078C153.235 141.814 153.337 141.688 153.314 141.672Z" fill="#F79E6E"/>
<path d="M145.709 142.253C145.729 142.232 145.547 142.006 145.119 141.775C144.7 141.549 144.005 141.342 143.207 141.486L143.362 141.716C143.548 141.438 143.735 141.125 143.904 140.79C144.86 138.922 144.847 137.179 144.768 137.192C144.673 137.176 144.545 138.852 143.624 140.647C143.459 140.972 143.283 141.277 143.11 141.551L142.917 141.854L143.265 141.781C143.978 141.633 144.623 141.779 145.038 141.947C145.462 142.115 145.683 142.286 145.709 142.253Z" fill="#F79E6E"/>
<path d="M154.48 131.954C154.399 131.935 154.27 132.569 154.615 133.244C154.955 133.924 155.542 134.197 155.574 134.12C155.626 134.044 155.189 133.696 154.896 133.103C154.594 132.516 154.573 131.958 154.48 131.954Z" fill="#F79E6E"/>
<path d="M105.512 180.578L86.7293 167.568C86.7293 167.568 88.381 217.931 88.3762 218.399C88.3762 218.399 91.8177 219.76 91.2056 223.354L90.2117 228.427C69.5267 233.179 49.031 236.271 28.1737 228.584L25.8003 188.47L18.4833 139.473L35.2651 132.332L38.1373 125.721L55.5237 144.447L59.9705 132.355L59.8496 127.794L64.0584 132.362L84.4407 135.678L109.816 156.251L118.139 149.524L130.695 166.959L116.429 181.377C112.803 182.343 108.958 182.061 105.512 180.578Z" fill="#FF8776"/>
<path d="M58.0874 142.163C58.0427 142.218 58.8414 142.406 59.306 143.522C59.5411 144.065 59.6639 144.765 59.6763 145.596C59.7144 146.417 59.6601 147.405 60.0781 148.419L60.2809 148.912L60.4941 148.42C61.0596 147.115 61.447 145.624 61.825 144.054C62.5428 140.969 63.0017 138.145 63.3082 136.1C63.61 134.052 63.7318 132.777 63.6652 132.767C63.5967 132.756 63.352 134.012 62.9626 136.041C62.5685 138.067 62.0554 140.877 61.3423 143.939C60.9701 145.495 60.5931 146.985 60.079 148.233L60.4951 148.235C60.1104 147.361 60.1219 146.41 60.0571 145.576C60.0152 144.735 59.8467 143.966 59.5564 143.406C59.2746 142.837 58.8842 142.48 58.5834 142.32C58.2797 142.156 58.0912 142.146 58.0874 142.163Z" fill="#263238"/>
<path d="M36.2352 134.634C36.2095 134.656 36.4151 134.949 36.8112 135.461C37.2062 135.973 37.7917 136.703 38.5219 137.598C39.9832 139.387 42.0281 141.838 44.3101 144.524C45.6124 146.044 46.8452 147.481 47.9448 148.765L48.2266 149.093L48.3304 148.676C48.8463 146.608 49.2662 144.859 49.547 143.632C49.6613 143.017 50.0049 142.665 50.3372 142.659C50.6561 142.629 50.7751 142.816 50.7941 142.79C50.8179 142.798 50.7284 142.538 50.3324 142.518C50.1487 142.513 49.904 142.575 49.706 142.775C49.5099 142.967 49.3833 143.254 49.29 143.562C48.932 144.779 48.4541 146.506 47.8981 148.566L48.2837 148.477C47.1956 147.184 45.977 145.736 44.688 144.205C42.4061 141.518 40.3193 139.104 38.7894 137.372C38.025 136.506 37.3986 135.811 36.9578 135.338C36.518 134.864 36.2619 134.612 36.2352 134.634Z" fill="#263238"/>
<path d="M61.3442 213.462C61.3613 213.462 61.3775 213.242 61.3928 212.823C61.4032 212.353 61.4175 211.745 61.4337 210.991C61.4632 209.4 61.4642 207.098 61.4299 204.254C61.3642 198.565 61.0938 190.706 60.4493 182.048C59.7991 173.386 58.8966 165.573 58.116 159.938C57.7266 157.12 57.3829 154.844 57.1173 153.275C56.9888 152.532 56.8841 151.933 56.8041 151.47C56.727 151.059 56.6785 150.844 56.6613 150.846C56.6442 150.848 56.6604 151.068 56.7051 151.484C56.7622 151.951 56.8355 152.554 56.926 153.303C57.1325 154.939 57.4181 157.206 57.7675 159.983C58.4587 165.626 59.305 173.434 59.9543 182.085C60.5978 190.733 60.9234 198.579 61.0786 204.261C61.1452 207.058 61.2004 209.343 61.2395 210.992C61.2614 211.746 61.2776 212.353 61.2909 212.823C61.3099 213.242 61.328 213.462 61.3442 213.462Z" fill="#263238"/>
<path d="M66.1509 225.028C66.286 225.054 66.6668 223.153 66.5916 220.792C66.5231 218.436 66.2261 216.558 66.1013 216.566C65.9538 216.577 66.029 218.478 66.0966 220.804C66.1699 223.13 66.0157 225.007 66.1509 225.028Z" fill="#263238"/>
<path d="M41.9654 211.175C41.9549 211.208 42.4966 211.411 43.4848 211.749C44.472 212.091 45.9143 212.544 47.7078 213.066C51.294 214.113 56.3101 215.369 61.926 216.37C67.5456 217.365 72.6874 217.914 76.4144 218.167C78.2785 218.295 79.7883 218.366 80.8336 218.385C81.878 218.408 82.4558 218.405 82.4577 218.371C82.4587 218.336 81.8847 218.275 80.8441 218.193C79.7217 218.097 78.2385 217.971 76.444 217.819C72.7321 217.478 67.6142 216.875 62.0136 215.883C56.4158 214.885 51.4045 213.688 47.8021 212.73C46.0647 212.255 44.6281 211.863 43.5419 211.566C42.5375 211.283 41.9758 211.143 41.9654 211.175Z" fill="#263238"/>
<path d="M86.7855 179.108C86.9226 179.107 87.0082 172.104 86.9778 163.468C86.9473 154.828 86.8112 147.827 86.6741 147.828C86.537 147.828 86.4513 154.83 86.4818 163.469C86.5122 172.106 86.6484 179.109 86.7855 179.108Z" fill="#263238"/>
<g opacity="0.3">
<path d="M53.9157 146.063C52.8724 146.089 51.8185 146.71 51.629 147.735C51.4396 148.762 51.5814 149.836 51.3139 150.844C51.0464 151.852 50.1287 152.834 49.1072 152.623C48.4874 152.495 48.0352 151.974 47.6478 151.474C45.6457 148.894 44.0264 145.677 42.8516 142.63C42.8802 142.703 48.1238 148.684 48.1238 148.684C48.2856 147.182 48.7597 145.687 49.3071 144.279C49.4842 143.825 49.6851 143.048 50.1287 142.844C50.8446 142.517 51.7918 143.564 52.265 144.192C52.7381 144.82 53.7748 145.915 53.9176 145.968" fill="black"/>
</g>
<g opacity="0.3">
<path d="M62.5122 140.633C62.3371 143.922 61.824 147.37 60.5921 150.423C60.4664 150.734 60.3284 151.054 60.078 151.277C59.8276 151.5 59.4325 151.596 59.1526 151.41C58.947 151.274 58.292 149.616 58.2083 149.385C57.7208 148.026 55.7473 147.9 55.7473 147.9C55.7473 147.9 56.5327 144.403 57.0363 143.369C57.2648 142.899 57.7484 142.492 58.2635 142.578C58.8756 142.68 59.5411 143.513 59.6163 144.13C59.9142 146.574 59.8771 147.694 60.236 148.546C61.1623 145.947 61.9115 142.814 62.5227 140.544" fill="black"/>
</g>
<g opacity="0.3">
<path d="M47.9104 212.751C46.9289 212.226 46.808 210.718 47.4554 209.814C48.1027 208.909 49.3232 208.545 50.4275 208.684C51.5319 208.823 52.5372 209.389 53.4387 210.042C54.3412 210.694 55.1752 211.442 56.1233 212.025C58.4567 213.459 61.2975 213.785 64.0354 213.829C66.7734 213.872 69.5418 213.673 72.2302 214.194C74.9187 214.716 77.6043 216.101 78.9019 218.513C78.9019 218.513 55.4998 216.81 47.9104 212.751Z" fill="black"/>
</g>
<path d="M18.4843 139.475C18.4843 139.475 11.4024 144.518 9.68593 149.094C7.96947 153.668 1.64436 185.053 0.610493 190.413C-0.688988 197.15 -0.730858 205.487 8.97193 208.655C12.5791 209.832 34.6807 208.03 34.6807 208.03L33.9657 192.329L22.0324 192.783C22.0324 192.783 22.7521 191.718 21.0357 190.448L24.8237 170.026C24.8237 170.026 23.4204 148.341 23.2491 147.828C23.0767 147.315 18.4843 139.475 18.4843 139.475Z" fill="#FF8776"/>
<path d="M18.1272 140.001C18.0501 140.148 21.0946 141.052 23.6764 143.803C26.303 146.511 27.0627 149.595 27.2131 149.525C27.2654 149.514 27.1598 148.738 26.6981 147.567C26.2411 146.399 25.3662 144.859 24.0353 143.461C22.7006 142.067 21.205 141.12 20.0598 140.609C18.9107 140.091 18.1415 139.949 18.1272 140.001Z" fill="#263238"/>
<path d="M14.263 195.936C14.3459 195.958 14.501 195.419 14.977 194.684C15.4464 193.947 16.2756 193.038 17.4027 192.311C18.5271 191.585 19.6923 191.184 20.5577 191.069C21.423 190.938 21.9743 191.042 21.9914 190.959C22.0095 190.912 21.4602 190.675 20.5234 190.719C19.5924 190.75 18.3233 191.125 17.1333 191.895C15.9405 192.663 15.0922 193.678 14.6743 194.507C14.2478 195.34 14.2126 195.93 14.263 195.936Z" fill="#263238"/>
<path d="M27.1208 157.6C27.0875 157.593 26.9704 158.042 26.7885 158.861C26.5981 159.776 26.3554 160.942 26.065 162.336C25.4748 165.275 24.6932 169.341 23.8602 173.837C23.0272 178.335 22.2999 182.412 21.7982 185.367C21.5697 186.772 21.3793 187.948 21.2289 188.87C21.1051 189.699 21.0527 190.16 21.087 190.166C21.1203 190.171 21.2374 189.721 21.4193 188.902C21.6097 187.988 21.8524 186.821 22.1428 185.427C22.733 182.488 23.5137 178.423 24.3467 173.926C25.1797 169.432 25.9061 165.357 26.4078 162.403C26.6362 160.996 26.8266 159.821 26.977 158.898C27.1018 158.068 27.1541 157.606 27.1208 157.6Z" fill="#263238"/>
<path d="M34.6806 208.03C34.712 208.028 34.7234 207.598 34.7158 206.816C34.6958 205.944 34.6701 204.829 34.6396 203.489C34.5549 200.667 34.4064 196.74 34.2112 192.318L34.2008 192.073L33.9561 192.083C33.3278 192.107 32.6623 192.132 31.9883 192.158C28.3146 192.318 24.9045 192.465 22.0371 192.59L21.9685 192.593L21.9181 192.634C20.0607 194.15 19.1078 195.956 18.6537 197.227C18.4242 197.87 18.3081 198.393 18.2462 198.749C18.191 199.107 18.1796 199.299 18.1986 199.303C18.2557 199.315 18.3633 198.548 18.8726 197.312C19.38 196.093 20.3606 194.376 22.1723 192.955L22.0533 192.999C24.9207 192.899 28.3317 192.781 32.0074 192.652C32.6814 192.625 33.3459 192.599 33.9751 192.574L33.72 192.339C33.9285 196.761 34.137 200.685 34.3093 203.503C34.4007 204.841 34.4769 205.953 34.5359 206.824C34.5987 207.604 34.6491 208.032 34.6806 208.03Z" fill="#263238"/>
<path d="M52.1288 189.02L61.3689 170.192C61.9963 168.914 63.2967 168.103 64.7218 168.103H87.9383C88.7998 168.103 89.3501 169.021 88.9436 169.781L73.2289 199.119C72.7881 199.941 71.9313 200.454 70.9984 200.454H46.9194L52.1288 189.02Z" fill="#455A64"/>
<path d="M88.7883 169.918C88.7883 169.934 88.6284 169.946 88.3237 169.956C87.9706 169.961 87.5317 169.969 86.9938 169.977C85.7771 169.977 84.1226 169.978 82.1043 169.978C77.9231 169.942 72.253 169.894 65.987 169.84C65.2196 169.872 64.4638 169.995 63.844 170.358C63.2204 170.713 62.7749 171.309 62.4189 171.935C61.7439 173.221 61.1765 174.563 60.5882 175.787C59.4353 178.245 58.3929 180.466 57.5084 182.352C56.6374 184.173 55.9224 185.665 55.3979 186.763C55.158 187.244 54.9618 187.637 54.8038 187.953C54.6639 188.222 54.5839 188.361 54.5696 188.356C54.5563 188.349 54.6096 188.199 54.7239 187.917C54.8619 187.592 55.0332 187.188 55.2436 186.693C55.7377 185.581 56.4089 184.069 57.2286 182.224C58.0892 180.327 59.1021 178.092 60.2236 175.619C60.8071 174.378 61.3469 173.073 62.0466 171.725C62.416 171.068 62.9034 170.397 63.6251 169.983C64.3391 169.564 65.1702 169.438 65.9679 169.404C72.2911 169.446 77.9755 169.583 82.1081 169.67C84.1254 169.726 85.78 169.773 86.9957 169.807C87.5326 169.831 87.9725 169.851 88.3247 169.866C88.6293 169.886 88.7883 169.903 88.7883 169.918Z" fill="#263238"/>
<path d="M74.4837 174.043C75.0463 174.336 75.0672 174.8 74.8321 175.208C74.596 175.616 74.0571 175.799 73.603 175.673C73.3022 175.59 73.0214 175.363 72.9633 175.055C72.9043 174.749 73.1861 174.085 73.6725 173.984C73.6725 173.984 74.2038 173.898 74.4837 174.043Z" fill="white"/>
<path d="M34.2265 192.947L40.0013 192.388C40.0013 192.388 42.6117 189.422 43.6427 188.521C44.6728 187.619 50.5533 184.738 50.5533 184.738C50.5533 184.738 53.6101 181.491 54.0138 181.54C54.4174 181.588 55.6693 181.97 55.1257 183.585C54.6021 185.14 53.7406 187.213 53.1103 188.192L64.7314 189.847C65.4635 189.951 66.1366 190.351 66.5212 190.983C66.7792 191.408 66.8544 191.851 66.2765 192.058C64.9913 192.519 59.8953 193.137 59.8953 193.137L62.1743 192.832C62.1743 192.832 62.3943 195.004 60.8758 195.84C59.365 196.671 59.2441 196.851 59.2441 196.851C59.2441 196.851 58.9356 198.842 58.2321 199.578C57.5286 200.314 50.559 202.902 50.559 202.902C50.559 202.902 46.215 203.638 44.1054 203.282L34.6796 204.713L34.2265 192.947Z" fill="#FFBE9D"/>
<path d="M54.226 188.378C54.2089 188.494 52.7333 188.377 50.9093 188.352C49.0833 188.334 47.5849 188.246 47.5906 188.118C47.5963 188.017 49.0728 187.919 50.9178 187.937C52.7666 187.962 54.2451 188.267 54.226 188.378Z" fill="#EB996E"/>
<path d="M52.0498 193.362C52.0288 193.233 54.2241 192.908 56.9316 192.922C58.2844 192.913 59.5049 192.937 60.3874 192.946C61.2699 192.957 61.8154 192.95 61.8221 193.009C61.8287 193.063 61.2851 193.175 60.3969 193.239C59.5096 193.307 58.2844 193.329 56.9354 193.337C54.2346 193.324 52.066 193.46 52.0498 193.362Z" fill="#EB996E"/>
<path d="M51.5918 197.174C51.6071 197.053 53.3112 197.205 55.4046 197.094C57.5 196.994 59.1802 196.673 59.2069 196.792C59.2364 196.894 57.5657 197.406 55.4256 197.509C53.2864 197.621 51.5728 197.279 51.5918 197.174Z" fill="#EB996E"/>
<path d="M51.7822 201.531C51.668 201.536 51.5538 201.058 51.5271 200.463C51.5004 199.868 51.5718 199.382 51.687 199.377C51.8013 199.372 51.9155 199.85 51.9422 200.445C51.9688 201.04 51.8974 201.527 51.7822 201.531Z" fill="#EB996E"/>
<path d="M51.3529 196.291C51.2368 196.269 51.2215 195.882 51.0692 195.458C50.9274 195.031 50.7008 194.718 50.7779 194.628C50.8417 194.537 51.2748 194.779 51.4614 195.323C51.6518 195.866 51.4605 196.324 51.3529 196.291Z" fill="#EB996E"/>
<path d="M50.638 191.01C50.5209 191.008 50.4314 190.75 50.3238 190.457C50.221 190.162 50.1258 189.906 50.2153 189.83C50.2991 189.755 50.5818 189.944 50.7141 190.316C50.8483 190.689 50.7503 191.015 50.638 191.01Z" fill="#EB996E"/>
</svg>
