<svg width="40" height="40" viewBox="0 0 40 40" fill="none" xmlns="http://www.w3.org/2000/svg">
<path d="M37.2898 20.8969C35.4518 19.0671 33.3268 20.7797 33.3268 20.7797V11.1468C33.328 11.0691 33.3138 10.9919 33.2849 10.9197C33.2561 10.8475 33.2131 10.7818 33.1586 10.7264C33.1041 10.671 33.0391 10.6269 32.9674 10.5969C32.8957 10.5669 32.8187 10.5514 32.741 10.5514C32.6632 10.5514 32.5863 10.5669 32.5146 10.5969C32.4429 10.6269 32.3779 10.671 32.3233 10.7264C32.2688 10.7818 32.2259 10.8475 32.197 10.9197C32.1681 10.9919 32.1539 11.0691 32.1552 11.1468V21.6039C32.1552 21.6039 29.3613 23.8064 28.1605 24.3447V7.00031C28.1605 6.19405 28.8163 5.53827 29.6225 5.53827H30.6931C31.4994 5.53827 32.1552 6.19405 32.1552 7.00031V8.74813C32.1552 9.07188 32.4174 9.33407 32.7411 9.33407C32.8181 9.33407 32.8942 9.31891 32.9653 9.28946C33.0364 9.26001 33.101 9.21685 33.1553 9.16243C33.2097 9.10802 33.2529 9.04342 33.2823 8.97234C33.3117 8.90125 33.3268 8.82506 33.3268 8.74813V7.00031C33.3268 5.54796 32.1455 4.3667 30.6931 4.3667H29.6225C28.1702 4.3667 26.9886 5.54796 26.9886 7.00031V24.8094C26.6377 24.9075 26.2788 24.9743 25.9162 25.0089V12.6562C25.9162 11.1965 24.7287 10.0091 23.2694 10.0091H22.2247C20.7654 10.0091 19.5779 11.1966 19.5779 12.6562V18.6261L18.5053 19.1956V17.2089C18.5053 15.8948 17.4362 14.8257 16.1224 14.8257H14.5501C13.236 14.8257 12.1673 15.8947 12.1673 17.2088V22.5598L10.254 23.5752L4.88175 25.1105C3.94698 25.3775 3.16635 25.9897 2.68408 26.8339C2.20165 27.6782 2.07079 28.6615 2.31548 29.6024L2.91634 31.9144C2.99759 32.2276 3.31736 32.4152 3.6308 32.334C3.78121 32.2949 3.90991 32.1976 3.9886 32.0636C4.06729 31.9296 4.08952 31.7698 4.05041 31.6194L3.44955 29.3076C3.10103 27.9667 3.87158 26.6178 5.20401 26.2372L10.1158 24.8334L13.8076 34.6863C14.0548 35.3462 14.0157 37.2285 12.0629 37.9221L8.35099 38.7653C7.05731 39.0589 5.78261 38.2835 5.44878 36.9993L4.69534 34.0998C4.6562 33.9495 4.55897 33.8208 4.42501 33.742C4.29105 33.6633 4.13131 33.6409 3.98088 33.6799C3.83044 33.719 3.70169 33.8163 3.62294 33.9503C3.5442 34.0843 3.5219 34.2441 3.56096 34.3946L4.31479 37.2944C4.73839 38.9235 6.1855 39.9999 7.79653 39.9999C8.98036 39.9999 12.3226 39.0647 12.3226 39.0647C13.2473 38.8548 14.0523 38.2896 14.5638 37.4912C15.0752 36.6927 15.252 35.7251 15.0561 34.7974L27.898 31.6535C28.96 31.3932 29.9683 30.8887 30.8131 30.1944L37.0625 25.0596C38.9677 23.3697 37.8501 21.4545 37.2898 20.8969ZM22.2247 11.181H23.2694C24.0826 11.181 24.7443 11.8429 24.7443 12.6562V25.0381L21.0471 25.0366C20.7074 25.0336 20.9424 24.8092 20.961 24.794L22.0258 23.9316C23.0191 23.1269 23.668 22.0081 23.9539 20.6058C24.1355 19.7162 23.7961 18.8257 23.0689 18.2819C22.3895 17.774 21.5158 17.6764 20.7498 18.0121V12.6562C20.7498 11.8429 21.4115 11.181 22.2247 11.181ZM13.3392 17.2088C13.3392 16.5411 13.8824 15.9976 14.5502 15.9976H16.1224C16.7902 15.9976 17.3337 16.5411 17.3337 17.2088V19.8175L13.3389 21.9378V17.2089L13.3392 17.2088ZM36.3187 24.1544L30.069 29.2893C29.354 29.8753 28.5171 30.2942 27.6194 30.5152L14.6829 33.6826L11.2039 24.3982L21.1374 19.1254C21.5411 18.9108 22.0011 18.9465 22.3669 19.2203C22.7329 19.494 22.897 19.9243 22.8058 20.3717C22.5754 21.5005 22.0648 22.392 21.2882 23.0209L20.2233 23.8837C19.787 24.237 19.6261 24.8074 19.8136 25.3369C20.0009 25.8661 20.4849 26.2085 21.0465 26.2085L25.3156 26.2103H25.3187C26.8384 26.2103 28.299 25.7483 29.5423 24.874L34.3134 21.5188C34.6347 21.2912 35.0268 21.1859 35.4189 21.2221C35.811 21.2583 36.1773 21.4334 36.4515 21.716C36.7802 22.0517 37.4235 23.0493 36.3187 24.1543V24.1544Z" fill="#EB6C4E"/>
<path d="M11.5636 35.0619C11.5636 33.7889 10.5281 32.7532 9.25524 32.7532C7.98234 32.7532 6.94686 33.7889 6.94686 35.0619C6.94686 36.3346 7.98234 37.3703 9.25524 37.3703C10.5281 37.3703 11.5636 36.3345 11.5636 35.0619ZM8.11874 35.0619C8.11874 34.435 8.62844 33.925 9.25524 33.925C9.8818 33.925 10.3917 34.435 10.3917 35.0618C10.3917 35.6884 9.88211 36.1983 9.25524 36.1983C8.62844 36.1983 8.11874 35.6884 8.11874 35.0618V35.0619ZM5.0417 18.397L13.5592 9.81388L15.475 10.8048C15.8096 10.978 16.19 11.0419 16.5628 10.9877C16.9356 10.9334 17.282 10.7637 17.5533 10.5024L22.1896 6.03949C22.1896 6.03949 22.062 8.33169 23.9923 8.33169C24.986 8.33169 25.7946 7.52293 25.7946 6.52894V1.80235C25.7946 1.79689 25.7943 1.7911 25.7943 1.78532C25.7879 0.552034 24.8861 0 23.9923 0H19.3069C18.3129 0 17.5045 0.808755 17.5045 1.80235C17.5045 3.78362 19.5208 3.60471 19.5208 3.60471L15.9838 7.00942L14.0401 6.00418C13.3373 5.64035 12.4904 5.77371 11.9326 6.33527L2.48309 15.8577C1.78301 16.5631 1.78722 17.7067 2.49285 18.4067C2.83278 18.744 3.99364 19.445 5.0417 18.397ZM3.31465 16.6831L12.7642 7.16067C12.8863 7.03801 13.0821 6.82316 13.5018 7.04504L15.8184 8.24317C15.9272 8.29946 16.0508 8.32025 16.172 8.30262C16.2932 8.28499 16.4058 8.22983 16.494 8.14489L21.3805 3.44119C21.4647 3.36015 21.5227 3.2558 21.5471 3.14155C21.5715 3.0273 21.5612 2.90836 21.5175 2.80001C21.4738 2.69166 21.3987 2.59885 21.3019 2.53349C21.205 2.46813 21.0909 2.43321 20.9741 2.43322H19.3069C18.9593 2.43322 18.6764 2.15025 18.6764 1.80235C18.6764 1.45477 18.9593 1.17188 19.3069 1.17188H23.9923C24.1647 1.17188 24.6224 1.17188 24.6224 1.79868C24.6224 1.80392 24.6227 1.80907 24.6227 1.81462V6.52894C24.6227 6.8766 24.3399 7.15942 23.9923 7.15942C23.6444 7.15942 23.3615 6.8766 23.3615 6.52894V4.66221C23.3616 4.54724 23.3279 4.43478 23.2645 4.33886C23.2011 4.24293 23.1109 4.16778 23.0051 4.12278C22.8993 4.07778 22.7826 4.06492 22.6695 4.08579C22.5565 4.10667 22.452 4.16036 22.3693 4.24018L16.7407 9.65826C16.6458 9.74967 16.5246 9.80904 16.3942 9.82802C16.2638 9.84701 16.1307 9.82466 16.0137 9.76412L13.7157 8.57552C13.6049 8.51826 13.4787 8.49784 13.3555 8.51721C13.2323 8.53659 13.1185 8.59475 13.0306 8.68325L4.21013 17.5716C3.8256 17.956 3.43716 17.693 3.31809 17.5749C3.07153 17.3298 3.06997 16.9297 3.31473 16.6831H3.31465Z" fill="#EB6C4E"/>
</svg>
