<svg width="41" height="41" viewBox="0 0 41 41" fill="none" xmlns="http://www.w3.org/2000/svg">
<path d="M24.2244 26.5031C24.1133 26.3951 23.9643 26.3345 23.8093 26.3345C23.6542 26.3345 23.5052 26.3951 23.3941 26.5031L19.5671 30.3299C17.1817 32.715 13.2457 32.6597 10.793 30.2068C8.43906 27.8526 8.2902 23.8133 10.6703 21.4329L14.4971 17.6065C14.6054 17.4954 14.6661 17.3464 14.6661 17.1911C14.6661 17.036 14.6054 16.8869 14.4971 16.7759L10.1738 12.4525C10.0615 12.3465 9.913 12.2875 9.7586 12.2875C9.6042 12.2875 9.45564 12.3465 9.34342 12.4525L5.51634 16.2797C0.349767 21.4461 0.45371 29.9573 5.74831 35.2519C7.01981 36.5303 8.53112 37.5451 10.1956 38.2384C11.8601 38.9316 13.6451 39.2896 15.4482 39.2917C17.1686 39.2997 18.8736 38.9673 20.4651 38.3136C22.0566 37.6601 23.5031 36.6982 24.7213 35.4835L28.5481 31.6571C28.6571 31.5462 28.7182 31.3969 28.7182 31.2416C28.7182 31.0861 28.6571 30.9369 28.5481 30.8261L24.2244 26.5031ZM23.8903 34.6526C19.1812 39.361 11.4158 39.2573 6.57896 34.4208C1.74242 29.5846 1.63818 21.8188 6.347 17.1099L9.7589 13.6984L13.2512 17.1914L9.83993 20.6025C6.9965 23.4457 7.0517 28.1265 9.96267 31.0375C12.8728 33.9484 17.5543 34.0036 20.3977 31.1605L23.8093 27.7486L27.3019 31.2416L23.8903 34.6526ZM13.7428 13.4503C13.8979 13.4517 14.0472 13.3916 14.1579 13.2829L15.969 11.4722L16.2265 12.3377C16.2555 12.4352 16.3094 12.5236 16.3827 12.594C16.4561 12.6644 16.5465 12.7146 16.6451 12.7395C16.7438 12.7646 16.8472 12.7635 16.9452 12.7365C17.0433 12.7095 17.1326 12.6575 17.2046 12.5856L20.0313 9.75924C20.0858 9.70469 20.1291 9.63994 20.1586 9.56868C20.1881 9.49742 20.2032 9.42104 20.2032 9.3439C20.2032 9.26678 20.1881 9.19039 20.1586 9.11913C20.1291 9.04787 20.0858 8.98313 20.0313 8.92859C19.9767 8.87404 19.9119 8.83078 19.8407 8.80126C19.7694 8.77174 19.693 8.75655 19.6159 8.75655C19.5388 8.75655 19.4624 8.77174 19.3911 8.80126C19.3199 8.83078 19.2551 8.87404 19.2006 8.92859L17.0713 11.0579L16.814 10.1917C16.785 10.0942 16.7311 10.0059 16.6578 9.93546C16.5843 9.86501 16.4939 9.81486 16.3953 9.78991C16.2966 9.76495 16.1931 9.76605 16.095 9.79309C15.997 9.82015 15.9076 9.87222 15.8357 9.94421L13.3273 12.4525C13.2477 12.5353 13.194 12.6394 13.1728 12.7523C13.1516 12.8651 13.1638 12.9816 13.2078 13.0876C13.252 13.1935 13.3262 13.2843 13.4212 13.3486C13.5163 13.4131 13.628 13.4486 13.7428 13.4503ZM31.2411 20.969L28.4147 23.7957C28.3429 23.8676 28.2908 23.957 28.2638 24.0551C28.2369 24.1532 28.2358 24.2566 28.2608 24.3551C28.2858 24.4537 28.3359 24.5441 28.4063 24.6175C28.4768 24.6909 28.5651 24.7447 28.6626 24.7737L29.5281 25.0309L27.7171 26.8425C27.6071 26.9527 27.5452 27.102 27.5452 27.2578C27.5452 27.4134 27.6071 27.5628 27.7171 27.6729C27.8283 27.781 27.9773 27.8414 28.1324 27.8414C28.2875 27.8414 28.4365 27.781 28.5478 27.6729L31.0562 25.1643C31.1282 25.0923 31.1801 25.0029 31.2071 24.9048C31.2341 24.8068 31.2351 24.7033 31.2102 24.6048C31.1852 24.5062 31.135 24.4158 31.0646 24.3424C30.9941 24.269 30.9058 24.2152 30.8084 24.1862L29.9425 23.929L32.0718 21.7996C32.182 21.6895 32.2439 21.5401 32.2439 21.3843C32.244 21.2285 32.1821 21.0791 32.072 20.9688C31.9618 20.8587 31.8124 20.7967 31.6566 20.7967C31.5008 20.7967 31.3514 20.8588 31.2411 20.969ZM23.5808 11.6904C23.3142 10.3794 23.411 9.02039 23.8609 7.76045C24.3108 6.50051 25.0966 5.38754 26.1333 4.54192C26.2312 3.87682 26.4715 3.2407 26.838 2.67714C24.8435 3.71467 23.3411 5.49981 22.6594 7.64212C21.9776 9.78443 22.172 12.1095 23.2 14.1089L23.5808 11.6904ZM34.7133 2.67714C35.0798 3.2407 35.3202 3.87682 35.4179 4.54192C36.4546 5.38758 37.2403 6.50055 37.6902 7.7605C38.14 9.02044 38.2368 10.3794 37.9701 11.6904L38.3506 14.1089C39.3786 12.1096 39.573 9.78465 38.8914 7.64243C38.2098 5.5002 36.7076 3.71478 34.7133 2.67714ZM30.7754 17.5668C29.3645 17.5679 27.9833 17.1597 26.7996 16.3917H24.9115C26.4915 17.8997 28.5916 18.741 30.7757 18.741C32.9597 18.741 35.0598 17.8997 36.6397 16.3917H34.7518C33.5678 17.1597 32.1866 17.568 30.7754 17.5668ZM36.6761 11.025C36.6237 10.7371 36.4797 10.4739 36.2653 10.2748C36.051 10.0756 35.7779 9.95118 35.4869 9.92014L32.908 9.51465C32.8661 9.50849 32.8259 9.49358 32.79 9.4709C32.4251 9.646 32.039 9.77274 31.6413 9.84791L31.6452 9.8573C31.741 10.074 31.8905 10.2628 32.0795 10.4058C32.2685 10.5488 32.4908 10.6414 32.7254 10.6747L35.3172 11.0823C35.4461 11.0996 35.5101 11.1686 35.5146 11.198L35.9621 14.0426H25.5893L26.0382 11.1883C26.0409 11.1686 26.1051 11.0996 26.2466 11.0802L28.8259 10.675C29.0605 10.6416 29.2827 10.5489 29.4716 10.4058C29.6606 10.2627 29.81 10.0738 29.9058 9.85701L29.9095 9.84791C29.512 9.77273 29.1258 9.646 28.761 9.4709C28.7252 9.49343 28.6852 9.50824 28.6434 9.51435L26.0772 9.91808C25.7854 9.94688 25.5107 10.0693 25.2943 10.2672C25.0778 10.465 24.9312 10.7276 24.8763 11.0156L24.3219 14.5388C24.3088 14.6226 24.314 14.7082 24.3371 14.7898C24.3602 14.8714 24.4007 14.9471 24.4559 15.0115C24.511 15.076 24.5794 15.1277 24.6565 15.1632C24.7335 15.1986 24.8173 15.217 24.9022 15.217H36.6491C36.7339 15.217 36.8177 15.1986 36.8947 15.1631C36.9717 15.1276 37.0401 15.0759 37.0952 15.0114C37.1503 14.9469 37.1908 14.8713 37.2139 14.7898C37.237 14.7081 37.2422 14.6225 37.229 14.5388L36.6761 11.025ZM30.7754 8.75652C31.4724 8.75652 32.1538 8.54985 32.7333 8.16261C33.3129 7.77539 33.7646 7.22502 34.0313 6.5811C34.298 5.93716 34.3678 5.2286 34.2319 4.54501C34.0959 3.86142 33.7602 3.2335 33.2673 2.74066C32.7745 2.24782 32.1465 1.91219 31.463 1.77622C30.7794 1.64023 30.0708 1.71002 29.4269 1.97675C28.783 2.24347 28.2325 2.69515 27.8453 3.27467C27.4581 3.8542 27.2514 4.53553 27.2514 5.23252C27.2524 6.16683 27.624 7.06258 28.2847 7.72324C28.9454 8.38391 29.8412 8.75551 30.7754 8.75652ZM30.7754 2.88327C31.2401 2.88327 31.6943 3.02104 32.0807 3.27918C32.467 3.53732 32.7682 3.90423 32.9459 4.3335C33.1237 4.76276 33.1703 5.23511 33.0796 5.69083C32.989 6.14653 32.7652 6.56513 32.4366 6.89368C32.1082 7.22222 31.6895 7.44597 31.2338 7.53661C30.7781 7.62726 30.3058 7.58073 29.8764 7.40293C29.4472 7.22512 29.0803 6.92402 28.8221 6.53768C28.5639 6.15135 28.4263 5.69715 28.4263 5.23252C28.4269 4.60967 28.6746 4.01254 29.1151 3.57212C29.5555 3.1317 30.1526 2.88397 30.7754 2.88327Z" fill="#2D70B6" stroke="#2D70B6" stroke-width="0.5"/>
</svg>
