<svg width="40" height="40" viewBox="0 0 40 40" fill="none" xmlns="http://www.w3.org/2000/svg">
<path fill-rule="evenodd" clip-rule="evenodd" d="M22.2866 14.253C22.2692 14.0818 22.1992 13.9203 22.0863 13.7904C21.9733 13.6606 21.8229 13.569 21.6558 13.528C20.6111 13.2713 19.5197 13.2713 18.475 13.528C18.3078 13.569 18.1575 13.6606 18.0445 13.7904C17.9316 13.9203 17.8616 14.0818 17.8441 14.253L17.74 15.2764C17.5304 15.3793 17.328 15.4963 17.1341 15.6264L16.1958 15.2039C16.0388 15.1335 15.864 15.1134 15.6951 15.1462C15.5263 15.179 15.3717 15.2632 15.2525 15.3872C14.5078 16.164 13.9623 17.1096 13.6625 18.143C13.6145 18.3082 13.6187 18.4841 13.6747 18.6468C13.7306 18.8094 13.8355 18.9507 13.975 19.0514L14.8083 19.653C14.7941 19.8864 14.7941 20.1197 14.8083 20.353L13.975 20.9547C13.8354 21.0554 13.7304 21.1969 13.6744 21.3597C13.6184 21.5225 13.6143 21.6986 13.6625 21.8639C13.9624 22.897 14.5079 23.8423 15.2525 24.6189C15.4966 24.873 15.8741 24.9472 16.1958 24.8022L17.1341 24.3805C17.3283 24.5097 17.5308 24.628 17.74 24.7305L17.8441 25.7539C17.8616 25.9251 17.9316 26.0867 18.0445 26.2165C18.1575 26.3463 18.3078 26.4379 18.475 26.4789C19.5197 26.7356 20.6111 26.7356 21.6558 26.4789C21.8229 26.4379 21.9733 26.3463 22.0863 26.2165C22.1992 26.0867 22.2692 25.9251 22.2866 25.7539L22.3908 24.7305C22.6004 24.6276 22.8028 24.5106 22.9966 24.3805L23.935 24.803C24.2566 24.9472 24.635 24.873 24.8783 24.6197C25.623 23.8429 26.1685 22.8973 26.4683 21.8639C26.5163 21.6987 26.5121 21.5228 26.4561 21.3601C26.4002 21.1975 26.2953 21.0562 26.1558 20.9555L25.3225 20.3539C25.3366 20.1205 25.3366 19.8872 25.3225 19.6539L26.1558 19.0522C26.2954 18.9515 26.4004 18.81 26.4564 18.6472C26.5123 18.4844 26.5165 18.3083 26.4683 18.143C26.1684 17.1099 25.6228 16.1646 24.8783 15.388C24.7591 15.264 24.6045 15.1799 24.4357 15.1471C24.2668 15.1142 24.092 15.1344 23.935 15.2047L22.9966 15.6264C22.8025 15.4967 22.6001 15.3798 22.3908 15.2764L22.2866 14.253ZM20.6916 15.0422L20.7816 15.9322C20.815 16.2489 21.0233 16.5172 21.32 16.6289C21.6983 16.7689 22.05 16.9714 22.3616 17.2289C22.4814 17.3279 22.6266 17.3915 22.7806 17.4124C22.9346 17.4333 23.0914 17.4107 23.2333 17.3472L24.05 16.9805C24.3025 17.3139 24.5125 17.678 24.675 18.0639L23.95 18.5889C23.8239 18.6799 23.7259 18.8044 23.667 18.9483C23.6081 19.0922 23.5906 19.2497 23.6166 19.403C23.6833 19.8005 23.6833 20.2064 23.6166 20.6039C23.5905 20.7573 23.6078 20.915 23.6667 21.059C23.7257 21.2031 23.8238 21.3278 23.95 21.4189L24.6758 21.943C24.5129 22.3287 24.3027 22.6926 24.05 23.0264L23.2333 22.6597C23.0914 22.5959 22.9345 22.5731 22.7803 22.5938C22.6261 22.6146 22.4808 22.6781 22.3608 22.7772C22.05 23.0355 21.6983 23.238 21.32 23.3772C21.1742 23.4319 21.0467 23.5261 20.9516 23.6493C20.8565 23.7726 20.7976 23.9199 20.7816 24.0747L20.6916 24.9647C20.2758 25.0178 19.855 25.0178 19.4391 24.9647L19.3491 24.0747C19.3158 23.758 19.1075 23.4897 18.8108 23.378C18.4322 23.2382 18.0801 23.0353 17.7691 22.778C17.6493 22.679 17.5042 22.6154 17.3502 22.5945C17.1962 22.5736 17.0393 22.5962 16.8975 22.6597L16.0808 23.0264C15.828 22.6928 15.618 22.3289 15.4558 21.943L16.1808 21.418C16.3069 21.327 16.4049 21.2025 16.4638 21.0586C16.5227 20.9147 16.5402 20.7572 16.5141 20.6039C16.4473 20.2064 16.4473 19.8005 16.5141 19.403C16.5403 19.2496 16.523 19.0919 16.464 18.9479C16.4051 18.8038 16.307 18.6791 16.1808 18.588L15.455 18.0639C15.6183 17.678 15.8283 17.3139 16.0808 16.9805L16.8975 17.3472C17.0394 17.411 17.1963 17.4338 17.3505 17.4131C17.5047 17.3923 17.65 17.3288 17.77 17.2297C18.0808 16.9714 18.4325 16.7689 18.8108 16.6297C19.1075 16.5172 19.3166 16.248 19.3491 15.9322L19.4391 15.0422C19.855 14.9891 20.2758 14.9891 20.6916 15.0422ZM20.065 17.1855C18.51 17.1855 17.2483 18.448 17.2483 20.003C17.2483 21.558 18.51 22.8214 20.065 22.8214C21.62 22.8214 22.8833 21.5589 22.8833 20.003C22.8833 18.4472 21.6208 17.1864 20.065 17.1864V17.1855ZM20.065 18.8539C20.3624 18.8652 20.6439 18.9913 20.8503 19.2057C21.0567 19.4202 21.172 19.7062 21.172 20.0039C21.172 20.3015 21.0567 20.5876 20.8503 20.802C20.6439 21.0164 20.3624 21.1425 20.065 21.1539C19.7676 21.1425 19.4861 21.0164 19.2797 20.802C19.0732 20.5876 18.9579 20.3015 18.9579 20.0039C18.9579 19.7062 19.0732 19.4202 19.2797 19.2057C19.4861 18.9913 19.7676 18.8652 20.065 18.8539Z" fill="#C16CC1"/>
<path d="M20 3.33317C20.4602 3.33317 20.8333 2.96007 20.8333 2.49984C20.8333 2.0396 20.4602 1.6665 20 1.6665C19.5397 1.6665 19.1666 2.0396 19.1666 2.49984C19.1666 2.96007 19.5397 3.33317 20 3.33317Z" fill="#C16CC1"/>
<path d="M36.6666 17.4998C36.6666 17.9601 37.0397 18.3332 37.4999 18.3332C37.9602 18.3332 38.3333 17.9601 38.3333 17.4998C38.3333 17.0396 37.9602 16.6665 37.4999 16.6665C37.0397 16.6665 36.6666 17.0396 36.6666 17.4998Z" fill="#C16CC1"/>
<path d="M33.1668 30.6612C32.8414 30.9867 32.8414 31.5143 33.1668 31.8397C33.4922 32.1652 34.0199 32.1652 34.3453 31.8397C34.6708 31.5143 34.6708 30.9867 34.3453 30.6612C34.0199 30.3358 33.4922 30.3358 33.1668 30.6612Z" fill="#C16CC1"/>
<path d="M6.80874 30.6956C6.4833 30.3702 5.95566 30.3702 5.63023 30.6956C5.30479 31.021 5.30479 31.5487 5.63023 31.8741C5.95566 32.1996 6.4833 32.1996 6.80874 31.8741C7.13418 31.5487 7.13418 31.021 6.80874 30.6956Z" fill="#C16CC1"/>
<path d="M3.33329 17.4998C3.33329 17.9601 2.9602 18.3332 2.49996 18.3332C2.03972 18.3332 1.66663 17.9601 1.66663 17.4998C1.66663 17.0396 2.03972 16.6665 2.49996 16.6665C2.9602 16.6665 3.33329 17.0396 3.33329 17.4998Z" fill="#C16CC1"/>
<path d="M8.21621 5.71015C7.89077 6.03559 7.36313 6.03559 7.0377 5.71015C6.71226 5.38471 6.71226 4.85708 7.0377 4.53164C7.36313 4.2062 7.89077 4.2062 8.21621 4.53164C8.54165 4.85708 8.54165 5.38471 8.21621 5.71015Z" fill="#C16CC1"/>
<path d="M31.7956 5.71572C31.4702 5.39028 31.4702 4.86265 31.7956 4.53721C32.121 4.21177 32.6487 4.21177 32.9741 4.53721C33.2995 4.86265 33.2995 5.39028 32.9741 5.71572C32.6487 6.04116 32.121 6.04116 31.7956 5.71572Z" fill="#C16CC1"/>
<path fill-rule="evenodd" clip-rule="evenodd" d="M27.4566 32.5C27.4566 31.837 27.1932 31.2011 26.7244 30.7322C26.2555 30.2634 25.6196 30 24.9566 30H14.9591C14.2961 30 13.6602 30.2634 13.1913 30.7322C12.7225 31.2011 12.4591 31.837 12.4591 32.5C12.4591 33.163 12.7225 33.7989 13.1913 34.2678C13.6602 34.7366 14.2961 35 14.9591 35H24.9566C25.6196 35 26.2555 34.7366 26.7244 34.2678C27.1932 33.7989 27.4566 33.163 27.4566 32.5ZM25.7899 32.5C25.7899 32.721 25.7021 32.933 25.5459 33.0893C25.3896 33.2455 25.1776 33.3333 24.9566 33.3333H14.9591C14.4983 33.3333 14.1258 32.96 14.1258 32.5C14.1258 32.279 14.2136 32.067 14.3698 31.9107C14.5261 31.7545 14.7381 31.6667 14.9591 31.6667H24.9566C25.1776 31.6667 25.3896 31.7545 25.5459 31.9107C25.7021 32.067 25.7899 32.279 25.7899 32.5Z" fill="#C16CC1"/>
<path fill-rule="evenodd" clip-rule="evenodd" d="M21.5375 35C21.5238 35.4329 21.3422 35.8435 21.0311 36.1449C20.7201 36.4463 20.304 36.6148 19.8708 36.6148C19.4377 36.6148 19.0216 36.4463 18.7105 36.1449C18.3995 35.8435 18.2179 35.4329 18.2042 35C18.2042 34.779 18.1164 34.567 17.9601 34.4107C17.8038 34.2545 17.5918 34.1667 17.3708 34.1667C17.1498 34.1667 16.9379 34.2545 16.7816 34.4107C16.6253 34.567 16.5375 34.779 16.5375 35C16.5375 35.8841 16.8887 36.7319 17.5138 37.357C18.1389 37.9821 18.9868 38.3333 19.8708 38.3333C20.7549 38.3333 21.6027 37.9821 22.2279 37.357C22.853 36.7319 23.2042 35.8841 23.2042 35C23.2042 34.779 23.1164 34.567 22.9601 34.4107C22.8038 34.2545 22.5918 34.1667 22.3708 34.1667C22.1498 34.1667 21.9379 34.2545 21.7816 34.4107C21.6253 34.567 21.5375 34.779 21.5375 35ZM27.2333 25.4233C25.8658 26.8993 24.8765 28.6847 24.35 30.6267C24.2949 30.839 24.3258 31.0645 24.436 31.2542C24.5461 31.4439 24.7266 31.5825 24.9383 31.64C25.15 31.6975 25.3758 31.6692 25.5668 31.5612C25.7577 31.4533 25.8984 31.2744 25.9583 31.0633C26.4147 29.3812 27.2716 27.8346 28.4558 26.5558C28.596 26.392 28.6673 26.1803 28.6548 25.9651C28.6423 25.7498 28.547 25.5478 28.3887 25.4013C28.2305 25.2549 28.0218 25.1753 27.8062 25.1794C27.5906 25.1835 27.3859 25.271 27.2333 25.4233ZM16.1917 30.6042C15.7041 28.8048 14.7762 27.1552 13.4917 25.8042H13.49C11.9171 24.1592 11.0405 21.9701 11.0433 19.6942C11.0433 17.8117 11.6308 16.0667 12.6333 14.6308C12.7544 14.4495 12.7996 14.2279 12.7592 14.0136C12.7187 13.7993 12.5959 13.6094 12.417 13.4846C12.2382 13.3599 12.0176 13.3102 11.8025 13.3462C11.5874 13.3823 11.3951 13.5012 11.2667 13.6775C10.0335 15.4413 9.37359 17.5421 9.37667 19.6942C9.37354 22.3984 10.4156 24.9993 12.285 26.9533C13.3782 28.104 14.1683 29.5083 14.5842 31.04C14.6112 31.1472 14.6593 31.248 14.7257 31.3364C14.7921 31.4249 14.8755 31.4992 14.9709 31.555C15.0664 31.6109 15.172 31.6472 15.2816 31.6618C15.3912 31.6763 15.5026 31.6689 15.6094 31.64C15.7161 31.611 15.816 31.5611 15.9032 31.4931C15.9904 31.4252 16.0632 31.3405 16.1174 31.244C16.1715 31.1476 16.2059 31.0414 16.2185 30.9315C16.2311 30.8216 16.2225 30.7104 16.1917 30.6042ZM15.3383 12.1C16.6717 11.295 18.235 10.8325 19.905 10.8325C24.7967 10.8325 28.7667 14.8033 28.7667 19.6942C28.7667 20.5833 28.6358 21.4425 28.3917 22.2525C28.3355 22.4617 28.3629 22.6846 28.4683 22.8739C28.5736 23.0632 28.7485 23.2041 28.9559 23.2666C29.1633 23.3291 29.387 23.3084 29.5794 23.2089C29.7718 23.1093 29.9179 22.9388 29.9867 22.7333C30.2767 21.7708 30.4333 20.7508 30.4333 19.6942C30.4333 13.8833 25.7158 9.16583 19.905 9.16583C17.92 9.16583 16.0625 9.71667 14.4775 10.6742C14.2995 10.7934 14.1743 10.9767 14.1279 11.1858C14.0814 11.395 14.1173 11.614 14.2281 11.7973C14.3389 11.9807 14.516 12.1144 14.7228 12.1706C14.9295 12.2268 15.15 12.2012 15.3383 12.0992V12.1ZM19.1667 5.83333V6.66667C19.1667 6.88768 19.2545 7.09964 19.4107 7.25592C19.567 7.4122 19.779 7.5 20 7.5C20.221 7.5 20.433 7.4122 20.5893 7.25592C20.7455 7.09964 20.8333 6.88768 20.8333 6.66667V5.83333C20.8333 5.61232 20.7455 5.40036 20.5893 5.24408C20.433 5.0878 20.221 5 20 5C19.779 5 19.567 5.0878 19.4107 5.24408C19.2545 5.40036 19.1667 5.61232 19.1667 5.83333ZM34.1667 16.6667H33.3333C33.1123 16.6667 32.9004 16.7545 32.7441 16.9107C32.5878 17.067 32.5 17.279 32.5 17.5C32.5 17.721 32.5878 17.933 32.7441 18.0893C32.9004 18.2455 33.1123 18.3333 33.3333 18.3333H34.1667C34.3877 18.3333 34.5996 18.2455 34.7559 18.0893C34.9122 17.933 35 17.721 35 17.5C35 17.279 34.9122 17.067 34.7559 16.9107C34.5996 16.7545 34.3877 16.6667 34.1667 16.6667ZM32.0267 28.2975L31.4375 27.7083C31.2803 27.5565 31.0698 27.4725 30.8513 27.4744C30.6328 27.4763 30.4238 27.564 30.2693 27.7185C30.1148 27.873 30.0272 28.082 30.0253 28.3005C30.0234 28.519 30.1074 28.7295 30.2592 28.8867L30.8483 29.4758C31.0055 29.6276 31.216 29.7116 31.4345 29.7097C31.653 29.7078 31.862 29.6202 32.0165 29.4657C32.171 29.3112 32.2587 29.1022 32.2606 28.8837C32.2625 28.6652 32.1785 28.4547 32.0267 28.2975ZM9.17333 29.5558L9.7625 28.9667C9.9143 28.8095 9.99829 28.599 9.99639 28.3805C9.9945 28.162 9.90686 27.953 9.75235 27.7985C9.59784 27.644 9.38883 27.5563 9.17033 27.5544C8.95184 27.5525 8.74133 27.6365 8.58417 27.7883L7.995 28.3775C7.8432 28.5347 7.75921 28.7452 7.7611 28.9637C7.763 29.1822 7.85064 29.3912 8.00515 29.5457C8.15966 29.7002 8.36867 29.7878 8.58717 29.7897C8.80566 29.7916 9.01617 29.7076 9.17333 29.5558ZM5.83333 18.3333H6.66667C6.88768 18.3333 7.09964 18.2455 7.25592 18.0893C7.4122 17.933 7.5 17.721 7.5 17.5C7.5 17.279 7.4122 17.067 7.25592 16.9107C7.09964 16.7545 6.88768 16.6667 6.66667 16.6667H5.83333C5.61232 16.6667 5.40036 16.7545 5.24408 16.9107C5.0878 17.067 5 17.279 5 17.5C5 17.721 5.0878 17.933 5.24408 18.0893C5.40036 18.2455 5.61232 18.3333 5.83333 18.3333ZM9.4 8.0275L9.98917 8.61667C10.1463 8.76847 10.3568 8.85246 10.5753 8.85056C10.7938 8.84866 11.0028 8.76102 11.1573 8.60652C11.3119 8.45201 11.3995 8.243 11.4014 8.0245C11.4033 7.806 11.3193 7.5955 11.1675 7.43833L10.5783 6.84917C10.4212 6.69737 10.2107 6.61337 9.99217 6.61527C9.77367 6.61717 9.56466 6.70481 9.41015 6.85932C9.25564 7.01382 9.168 7.22284 9.1661 7.44133C9.16421 7.65983 9.2482 7.87033 9.4 8.0275ZM29.4725 6.9L28.8833 7.48917C28.7315 7.64634 28.6475 7.85684 28.6494 8.07533C28.6513 8.29383 28.739 8.50284 28.8935 8.65735C29.048 8.81186 29.257 8.8995 29.4755 8.9014C29.694 8.90329 29.9045 8.8193 30.0617 8.6675L30.6508 8.07833C30.8026 7.92117 30.8866 7.71066 30.8847 7.49217C30.8828 7.27367 30.7952 7.06466 30.6407 6.91015C30.4862 6.75564 30.2772 6.668 30.0587 6.6661C29.8402 6.66421 29.6297 6.7482 29.4725 6.9Z" fill="#C16CC1"/>
</svg>
