<svg width="405" height="302" viewBox="0 0 405 302" fill="none" xmlns="http://www.w3.org/2000/svg">
<line opacity="0.2" x1="91.4775" y1="206.619" x2="343.036" y2="206.619" stroke="#B4B6C4" stroke-width="1.07504" stroke-linecap="round"/>
<path d="M91.8867 224.388H93.0167L95.6738 230.878H95.7654L98.4224 224.388H99.5525V232.206H98.6668V226.266H98.5904L96.1471 232.206H95.292L92.8487 226.266H92.7724V232.206H91.8867V224.388ZM103.054 232.343C102.683 232.343 102.345 232.273 102.042 232.134C101.74 231.991 101.499 231.786 101.321 231.519C101.143 231.249 101.054 230.923 101.054 230.542C101.054 230.206 101.12 229.933 101.252 229.725C101.385 229.513 101.561 229.348 101.783 229.228C102.004 229.109 102.249 229.02 102.516 228.961C102.786 228.9 103.057 228.852 103.329 228.816C103.685 228.77 103.974 228.736 104.196 228.713C104.42 228.687 104.582 228.646 104.684 228.587C104.789 228.528 104.841 228.427 104.841 228.282V228.251C104.841 227.874 104.738 227.582 104.532 227.373C104.328 227.164 104.019 227.06 103.604 227.06C103.174 227.06 102.837 227.154 102.592 227.342C102.348 227.531 102.176 227.732 102.077 227.946L101.222 227.64C101.374 227.284 101.578 227.006 101.833 226.808C102.09 226.607 102.37 226.467 102.672 226.388C102.978 226.307 103.278 226.266 103.573 226.266C103.762 226.266 103.978 226.289 104.222 226.335C104.469 226.378 104.707 226.468 104.936 226.606C105.168 226.743 105.36 226.95 105.513 227.228C105.665 227.505 105.742 227.877 105.742 228.343V232.206H104.841V231.412H104.795C104.734 231.539 104.632 231.675 104.49 231.82C104.347 231.966 104.157 232.089 103.921 232.191C103.684 232.293 103.395 232.343 103.054 232.343ZM103.192 231.534C103.548 231.534 103.848 231.464 104.093 231.324C104.339 231.184 104.525 231.004 104.65 230.782C104.777 230.561 104.841 230.328 104.841 230.083V229.259C104.803 229.305 104.719 229.347 104.589 229.385C104.462 229.42 104.314 229.452 104.146 229.48C103.981 229.506 103.819 229.529 103.661 229.549C103.506 229.567 103.38 229.582 103.283 229.595C103.049 229.625 102.83 229.675 102.627 229.744C102.426 229.81 102.263 229.91 102.138 230.045C102.016 230.178 101.955 230.358 101.955 230.587C101.955 230.9 102.07 231.137 102.302 231.297C102.536 231.455 102.833 231.534 103.192 231.534ZM107.386 232.206V226.342H108.257V227.228H108.318C108.425 226.938 108.618 226.702 108.898 226.522C109.178 226.341 109.493 226.251 109.845 226.251C109.911 226.251 109.994 226.252 110.093 226.254C110.192 226.257 110.267 226.261 110.318 226.266V227.182C110.288 227.174 110.218 227.163 110.108 227.148C110.001 227.13 109.888 227.121 109.768 227.121C109.483 227.121 109.229 227.181 109.005 227.3C108.783 227.418 108.608 227.58 108.478 227.789C108.351 227.995 108.287 228.231 108.287 228.495V232.206H107.386Z" fill="#5D6180"/>
<path d="M151.334 232.206H150.342L153.213 224.388H154.19L157.061 232.206H156.068L153.732 225.625H153.671L151.334 232.206ZM151.701 229.152H155.702V229.992H151.701V229.152ZM158.156 234.405V226.342H159.027V227.274H159.134C159.2 227.172 159.291 227.042 159.409 226.884C159.528 226.724 159.699 226.581 159.92 226.457C160.144 226.329 160.447 226.266 160.829 226.266C161.322 226.266 161.758 226.389 162.134 226.636C162.511 226.883 162.805 227.233 163.016 227.686C163.227 228.139 163.333 228.674 163.333 229.289C163.333 229.91 163.227 230.449 163.016 230.904C162.805 231.357 162.512 231.708 162.138 231.958C161.764 232.205 161.333 232.328 160.844 232.328C160.467 232.328 160.166 232.266 159.939 232.141C159.713 232.014 159.538 231.87 159.416 231.71C159.294 231.547 159.2 231.412 159.134 231.305H159.057V234.405H158.156ZM159.042 229.274C159.042 229.717 159.107 230.108 159.237 230.446C159.367 230.782 159.556 231.046 159.806 231.236C160.055 231.425 160.36 231.519 160.722 231.519C161.098 231.519 161.413 231.42 161.665 231.221C161.919 231.02 162.11 230.75 162.237 230.412C162.367 230.071 162.432 229.692 162.432 229.274C162.432 228.862 162.368 228.49 162.241 228.159C162.117 227.826 161.927 227.563 161.672 227.369C161.42 227.173 161.104 227.075 160.722 227.075C160.355 227.075 160.047 227.168 159.798 227.354C159.549 227.537 159.36 227.794 159.233 228.125C159.106 228.453 159.042 228.836 159.042 229.274ZM164.707 232.206V226.342H165.578V227.228H165.639C165.746 226.938 165.939 226.702 166.219 226.522C166.499 226.341 166.815 226.251 167.166 226.251C167.232 226.251 167.315 226.252 167.414 226.254C167.513 226.257 167.588 226.261 167.639 226.266V227.182C167.609 227.174 167.539 227.163 167.429 227.148C167.322 227.13 167.209 227.121 167.09 227.121C166.805 227.121 166.55 227.181 166.326 227.3C166.105 227.418 165.929 227.58 165.799 227.789C165.672 227.995 165.608 228.231 165.608 228.495V232.206H164.707Z" fill="#5D6180"/>
<path d="M206.916 224.388H208.046L210.703 230.878H210.794L213.451 224.388H214.581V232.206H213.696V226.266H213.619L211.176 232.206H210.321L207.878 226.266H207.801V232.206H206.916V224.388ZM218.083 232.343C217.711 232.343 217.374 232.273 217.071 232.134C216.768 231.991 216.528 231.786 216.35 231.519C216.172 231.249 216.083 230.923 216.083 230.542C216.083 230.206 216.149 229.933 216.281 229.725C216.413 229.513 216.59 229.348 216.812 229.228C217.033 229.109 217.277 229.02 217.545 228.961C217.814 228.9 218.085 228.852 218.358 228.816C218.714 228.77 219.003 228.736 219.224 228.713C219.448 228.687 219.611 228.646 219.713 228.587C219.817 228.528 219.87 228.427 219.87 228.282V228.251C219.87 227.874 219.767 227.582 219.56 227.373C219.357 227.164 219.048 227.06 218.633 227.06C218.203 227.06 217.865 227.154 217.621 227.342C217.377 227.531 217.205 227.732 217.106 227.946L216.251 227.64C216.403 227.284 216.607 227.006 216.861 226.808C217.118 226.607 217.398 226.467 217.701 226.388C218.007 226.307 218.307 226.266 218.602 226.266C218.79 226.266 219.007 226.289 219.251 226.335C219.498 226.378 219.736 226.468 219.965 226.606C220.197 226.743 220.389 226.95 220.541 227.228C220.694 227.505 220.771 227.877 220.771 228.343V232.206H219.87V231.412H219.824C219.763 231.539 219.661 231.675 219.518 231.82C219.376 231.966 219.186 232.089 218.95 232.191C218.713 232.293 218.424 232.343 218.083 232.343ZM218.22 231.534C218.577 231.534 218.877 231.464 219.121 231.324C219.368 231.184 219.554 231.004 219.679 230.782C219.806 230.561 219.87 230.328 219.87 230.083V229.259C219.831 229.305 219.747 229.347 219.618 229.385C219.49 229.42 219.343 229.452 219.175 229.48C219.009 229.506 218.848 229.529 218.69 229.549C218.535 229.567 218.409 229.582 218.312 229.595C218.078 229.625 217.859 229.675 217.655 229.744C217.454 229.81 217.291 229.91 217.167 230.045C217.045 230.178 216.983 230.358 216.983 230.587C216.983 230.9 217.099 231.137 217.331 231.297C217.565 231.455 217.862 231.534 218.22 231.534ZM222.785 234.405C222.633 234.405 222.496 234.392 222.377 234.367C222.257 234.344 222.174 234.321 222.129 234.298L222.358 233.504C222.577 233.56 222.77 233.58 222.938 233.565C223.106 233.55 223.255 233.475 223.385 233.34C223.517 233.208 223.638 232.992 223.747 232.695L223.915 232.237L221.747 226.342H222.724L224.343 231.015H224.404L226.023 226.342H227L224.511 233.061C224.399 233.364 224.26 233.615 224.095 233.813C223.929 234.014 223.737 234.163 223.518 234.26C223.302 234.357 223.058 234.405 222.785 234.405Z" fill="#5D6180"/>
<path d="M269.036 224.388H269.983V229.977C269.983 230.475 269.891 230.899 269.708 231.248C269.525 231.597 269.266 231.861 268.933 232.042C268.599 232.223 268.206 232.313 267.753 232.313C267.326 232.313 266.945 232.235 266.612 232.08C266.278 231.922 266.016 231.698 265.825 231.408C265.634 231.118 265.539 230.773 265.539 230.374H266.471C266.471 230.595 266.525 230.788 266.635 230.954C266.747 231.117 266.899 231.244 267.093 231.336C267.286 231.427 267.506 231.473 267.753 231.473C268.026 231.473 268.257 231.416 268.448 231.301C268.639 231.187 268.784 231.019 268.883 230.797C268.985 230.573 269.036 230.3 269.036 229.977V224.388ZM275.453 229.809V226.342H276.354V232.206H275.453V231.213H275.392C275.255 231.511 275.041 231.764 274.751 231.973C274.461 232.179 274.094 232.282 273.651 232.282C273.285 232.282 272.959 232.202 272.674 232.042C272.389 231.879 272.165 231.635 272.002 231.309C271.839 230.981 271.758 230.567 271.758 230.068V226.342H272.659V230.007C272.659 230.435 272.778 230.776 273.018 231.03C273.259 231.285 273.567 231.412 273.942 231.412C274.166 231.412 274.393 231.355 274.625 231.24C274.859 231.126 275.055 230.95 275.213 230.713C275.373 230.477 275.453 230.175 275.453 229.809ZM278.905 228.679V232.206H278.004V226.342H278.875V227.258H278.951C279.089 226.961 279.297 226.721 279.577 226.541C279.857 226.357 280.219 226.266 280.662 226.266C281.059 226.266 281.406 226.347 281.704 226.51C282.001 226.671 282.233 226.915 282.399 227.243C282.564 227.569 282.647 227.981 282.647 228.48V232.206H281.746V228.541C281.746 228.081 281.626 227.722 281.387 227.465C281.148 227.205 280.819 227.075 280.402 227.075C280.114 227.075 279.857 227.138 279.631 227.262C279.407 227.387 279.23 227.569 279.1 227.808C278.97 228.047 278.905 228.338 278.905 228.679Z" fill="#5D6180"/>
<path d="M324.938 224.388H325.885V229.977C325.885 230.475 325.793 230.899 325.61 231.248C325.426 231.597 325.168 231.861 324.835 232.042C324.501 232.223 324.108 232.313 323.655 232.313C323.228 232.313 322.847 232.235 322.514 232.08C322.18 231.922 321.918 231.698 321.727 231.408C321.536 231.118 321.441 230.773 321.441 230.374H322.372C322.372 230.595 322.427 230.788 322.537 230.954C322.649 231.117 322.801 231.244 322.995 231.336C323.188 231.427 323.408 231.473 323.655 231.473C323.927 231.473 324.159 231.416 324.35 231.301C324.541 231.187 324.686 231.019 324.785 230.797C324.887 230.573 324.938 230.3 324.938 229.977V224.388ZM331.355 229.809V226.342H332.256V232.206H331.355V231.213H331.294C331.157 231.511 330.943 231.764 330.653 231.973C330.363 232.179 329.996 232.282 329.553 232.282C329.187 232.282 328.861 232.202 328.576 232.042C328.291 231.879 328.067 231.635 327.904 231.309C327.741 230.981 327.66 230.567 327.66 230.068V226.342H328.561V230.007C328.561 230.435 328.68 230.776 328.92 231.03C329.161 231.285 329.469 231.412 329.843 231.412C330.067 231.412 330.295 231.355 330.527 231.24C330.761 231.126 330.957 230.95 331.115 230.713C331.275 230.477 331.355 230.175 331.355 229.809ZM334.807 224.388V232.206H333.906V224.388H334.807Z" fill="#5D6180"/>
<rect x="25.8901" y="17.3076" width="354" height="251" rx="12" fill="#859BF3" fill-opacity="0.05"/>
<g filter="url(#filter0_d_631_1848)">
<rect x="41.4883" y="33" width="322.511" height="219.307" rx="6.45022" fill="white"/>
</g>
<line opacity="0.2" x1="91.4775" y1="177.592" x2="343.036" y2="177.592" stroke="#B4B6C4" stroke-width="1.07504" stroke-linecap="round"/>
<line opacity="0.2" x1="91.4775" y1="148.566" x2="343.036" y2="148.566" stroke="#B4B6C4" stroke-width="1.07504" stroke-linecap="round"/>
<line opacity="0.2" x1="91.4775" y1="119.541" x2="343.036" y2="119.541" stroke="#B4B6C4" stroke-width="1.07504" stroke-linecap="round"/>
<line opacity="0.2" x1="91.4775" y1="90.5152" x2="343.036" y2="90.5152" stroke="#B4B6C4" stroke-width="1.07504" stroke-linecap="round"/>
<path d="M62.0948 123.736C61.7741 123.731 61.4534 123.67 61.1327 123.553C60.812 123.435 60.5194 123.238 60.2547 122.961C59.99 122.681 59.7775 122.303 59.6171 121.827C59.4568 121.349 59.3766 120.748 59.3766 120.025C59.3766 119.333 59.4415 118.719 59.5713 118.185C59.7011 117.648 59.8895 117.196 60.1363 116.83C60.3832 116.461 60.681 116.181 61.0296 115.99C61.3809 115.799 61.7766 115.704 62.2169 115.704C62.6547 115.704 63.0441 115.791 63.3851 115.967C63.7287 116.14 64.0086 116.382 64.225 116.692C64.4413 117.003 64.5813 117.36 64.6449 117.765H63.7134C63.6269 117.414 63.4589 117.122 63.2095 116.891C62.9601 116.659 62.6292 116.543 62.2169 116.543C61.6112 116.543 61.134 116.807 60.7853 117.334C60.4392 117.861 60.2649 118.6 60.2623 119.552H60.3234C60.4659 119.335 60.6352 119.151 60.8311 118.998C61.0296 118.843 61.2485 118.723 61.4878 118.639C61.727 118.555 61.9802 118.513 62.2475 118.513C62.6954 118.513 63.1051 118.625 63.4767 118.849C63.8483 119.071 64.1461 119.377 64.37 119.769C64.594 120.159 64.706 120.605 64.706 121.109C64.706 121.593 64.5978 122.036 64.3815 122.438C64.1652 122.837 63.861 123.156 63.4691 123.392C63.0797 123.626 62.6216 123.741 62.0948 123.736ZM62.0948 122.896C62.4154 122.896 62.703 122.816 62.9575 122.655C63.2146 122.495 63.4169 122.28 63.5645 122.01C63.7147 121.74 63.7898 121.44 63.7898 121.109C63.7898 120.786 63.7172 120.492 63.5722 120.227C63.4296 119.96 63.2324 119.748 62.9804 119.59C62.731 119.432 62.446 119.353 62.1253 119.353C61.8835 119.353 61.6583 119.402 61.4496 119.498C61.2409 119.592 61.0576 119.722 60.8998 119.888C60.7446 120.053 60.6224 120.243 60.5334 120.456C60.4443 120.668 60.3997 120.89 60.3997 121.125C60.3997 121.435 60.4723 121.725 60.6173 121.995C60.765 122.265 60.966 122.482 61.2205 122.648C61.4776 122.813 61.769 122.896 62.0948 122.896ZM68.7574 123.736C68.1822 123.736 67.6923 123.579 67.2876 123.266C66.883 122.951 66.5738 122.494 66.36 121.896C66.1462 121.295 66.0393 120.57 66.0393 119.72C66.0393 118.875 66.1462 118.153 66.36 117.555C66.5763 116.954 66.8868 116.496 67.2915 116.181C67.6987 115.863 68.1873 115.704 68.7574 115.704C69.3275 115.704 69.8149 115.863 70.2196 116.181C70.6268 116.496 70.9373 116.954 71.1511 117.555C71.3674 118.153 71.4756 118.875 71.4756 119.72C71.4756 120.57 71.3687 121.295 71.1549 121.896C70.9411 122.494 70.6319 122.951 70.2272 123.266C69.8225 123.579 69.3326 123.736 68.7574 123.736ZM68.7574 122.896C69.3275 122.896 69.7704 122.621 70.0859 122.071C70.4015 121.522 70.5593 120.738 70.5593 119.72C70.5593 119.043 70.4868 118.466 70.3417 117.99C70.1992 117.514 69.9931 117.152 69.7233 116.902C69.456 116.653 69.1341 116.528 68.7574 116.528C68.1924 116.528 67.7508 116.807 67.4327 117.364C67.1146 117.919 66.9555 118.704 66.9555 119.72C66.9555 120.397 67.0268 120.972 67.1693 121.445C67.3118 121.919 67.5167 122.279 67.7839 122.526C68.0537 122.772 68.3782 122.896 68.7574 122.896Z" fill="#5D6180"/>
<path d="M62.1406 152.762C61.6366 152.762 61.1874 152.676 60.793 152.503C60.401 152.33 60.0892 152.089 59.8576 151.781C59.6286 151.471 59.5039 151.11 59.4835 150.701H60.4455C60.4659 150.953 60.5524 151.17 60.7051 151.353C60.8579 151.534 61.0576 151.674 61.3045 151.773C61.5514 151.873 61.825 151.922 62.1253 151.922C62.4612 151.922 62.759 151.864 63.0186 151.747C63.2782 151.63 63.4818 151.467 63.6294 151.258C63.777 151.049 63.8509 150.808 63.8509 150.533C63.8509 150.245 63.7796 149.992 63.6371 149.773C63.4945 149.552 63.2858 149.378 63.011 149.254C62.7361 149.129 62.4002 149.067 62.0031 149.067H61.377V148.227H62.0031C62.3136 148.227 62.586 148.171 62.8201 148.059C63.0568 147.947 63.2413 147.789 63.3736 147.585C63.5085 147.382 63.576 147.143 63.576 146.868C63.576 146.603 63.5174 146.373 63.4004 146.177C63.2833 145.981 63.1179 145.828 62.9041 145.719C62.6928 145.609 62.4434 145.555 62.1558 145.555C61.8861 145.555 61.6316 145.604 61.3923 145.703C61.1556 145.8 60.9622 145.941 60.812 146.127C60.6619 146.31 60.5804 146.532 60.5677 146.791H59.6515C59.6668 146.382 59.7902 146.023 60.0218 145.715C60.2534 145.404 60.5563 145.163 60.9304 144.99C61.3071 144.816 61.7206 144.73 62.1711 144.73C62.6547 144.73 63.0695 144.828 63.4156 145.024C63.7618 145.217 64.0277 145.473 64.2135 145.791C64.3993 146.109 64.4922 146.453 64.4922 146.822C64.4922 147.262 64.3764 147.638 64.1448 147.948C63.9157 148.259 63.604 148.474 63.2095 148.593V148.654C63.7032 148.736 64.0888 148.946 64.3662 149.284C64.6436 149.62 64.7823 150.036 64.7823 150.533C64.7823 150.958 64.6665 151.339 64.4349 151.678C64.2059 152.014 63.8928 152.279 63.4958 152.472C63.0988 152.665 62.647 152.762 62.1406 152.762ZM68.8939 152.762C68.3187 152.762 67.8288 152.606 67.4241 152.293C67.0195 151.977 66.7102 151.52 66.4964 150.922C66.2827 150.321 66.1758 149.596 66.1758 148.746C66.1758 147.901 66.2827 147.18 66.4964 146.581C66.7128 145.981 67.0233 145.523 67.4279 145.207C67.8352 144.889 68.3238 144.73 68.8939 144.73C69.464 144.73 69.9514 144.889 70.356 145.207C70.7633 145.523 71.0738 145.981 71.2875 146.581C71.5039 147.18 71.612 147.901 71.612 148.746C71.612 149.596 71.5051 150.321 71.2914 150.922C71.0776 151.52 70.7683 151.977 70.3637 152.293C69.959 152.606 69.4691 152.762 68.8939 152.762ZM68.8939 151.922C69.464 151.922 69.9068 151.647 70.2224 151.098C70.538 150.548 70.6958 149.764 70.6958 148.746C70.6958 148.069 70.6233 147.493 70.4782 147.017C70.3357 146.541 70.1295 146.178 69.8598 145.929C69.5925 145.679 69.2706 145.555 68.8939 145.555C68.3289 145.555 67.8873 145.833 67.5692 146.391C67.2511 146.945 67.092 147.731 67.092 148.746C67.092 149.423 67.1633 149.998 67.3058 150.472C67.4483 150.945 67.6532 151.305 67.9204 151.552C68.1902 151.799 68.5147 151.922 68.8939 151.922Z" fill="#5D6180"/>
<path d="M62.2475 173.861V181.68H61.3007V174.854H61.2549L59.3461 176.121V175.159L61.3007 173.861H62.2475ZM67.0462 181.787C66.471 181.787 65.9811 181.63 65.5764 181.317C65.1717 181.001 64.8625 180.545 64.6487 179.946C64.4349 179.346 64.3281 178.621 64.3281 177.77C64.3281 176.926 64.4349 176.204 64.6487 175.606C64.8651 175.005 65.1756 174.547 65.5802 174.232C65.9874 173.913 66.4761 173.754 67.0462 173.754C67.6163 173.754 68.1037 173.913 68.5083 174.232C68.9155 174.547 69.226 175.005 69.4398 175.606C69.6561 176.204 69.7643 176.926 69.7643 177.77C69.7643 178.621 69.6574 179.346 69.4436 179.946C69.2299 180.545 68.9206 181.001 68.516 181.317C68.1113 181.63 67.6214 181.787 67.0462 181.787ZM67.0462 180.947C67.6163 180.947 68.0591 180.672 68.3747 180.122C68.6903 179.572 68.8481 178.788 68.8481 177.77C68.8481 177.093 68.7756 176.517 68.6305 176.041C68.488 175.565 68.2818 175.202 68.012 174.953C67.7448 174.704 67.4229 174.579 67.0462 174.579C66.4812 174.579 66.0396 174.858 65.7215 175.415C65.4033 175.97 65.2443 176.755 65.2443 177.77C65.2443 178.447 65.3155 179.023 65.4581 179.496C65.6006 179.969 65.8055 180.33 66.0727 180.576C66.3425 180.823 66.667 180.947 67.0462 180.947Z" fill="#5D6180"/>
<path d="M62.0489 210.813C61.4738 210.813 60.9838 210.656 60.5792 210.343C60.1745 210.028 59.8653 209.571 59.6515 208.973C59.4377 208.372 59.3308 207.647 59.3308 206.797C59.3308 205.952 59.4377 205.23 59.6515 204.632C59.8678 204.032 60.1783 203.574 60.583 203.258C60.9902 202.94 61.4788 202.781 62.0489 202.781C62.619 202.781 63.1064 202.94 63.5111 203.258C63.9183 203.574 64.2288 204.032 64.4426 204.632C64.6589 205.23 64.7671 205.952 64.7671 206.797C64.7671 207.647 64.6602 208.372 64.4464 208.973C64.2326 209.571 63.9234 210.028 63.5187 210.343C63.1141 210.656 62.6241 210.813 62.0489 210.813ZM62.0489 209.973C62.619 209.973 63.0619 209.698 63.3775 209.148C63.6931 208.599 63.8509 207.815 63.8509 206.797C63.8509 206.12 63.7783 205.543 63.6332 205.067C63.4907 204.592 63.2846 204.229 63.0148 203.979C62.7476 203.73 62.4256 203.605 62.0489 203.605C61.4839 203.605 61.0424 203.884 60.7242 204.441C60.4061 204.996 60.247 205.781 60.247 206.797C60.247 207.474 60.3183 208.049 60.4608 208.522C60.6033 208.996 60.8082 209.356 61.0755 209.603C61.3452 209.85 61.6697 209.973 62.0489 209.973Z" fill="#5D6180"/>
<path d="M61.9879 86.6772C62.3085 86.6797 62.6292 86.7408 62.9499 86.8604C63.2706 86.9801 63.5633 87.1786 63.8279 87.456C64.0926 87.7309 64.3051 88.1063 64.4655 88.5822C64.6258 89.0581 64.706 89.6549 64.706 90.3726C64.706 91.0674 64.6398 91.6846 64.5075 92.2242C64.3777 92.7612 64.1893 93.2142 63.9425 93.5832C63.6981 93.9523 63.4004 94.2322 63.0492 94.4231C62.7005 94.614 62.306 94.7094 61.8657 94.7094C61.4279 94.7094 61.0373 94.6229 60.6937 94.4498C60.3527 94.2742 60.0727 94.0312 59.8538 93.7207C59.6375 93.4076 59.4988 93.045 59.4377 92.6327H60.3692C60.4532 92.9915 60.6199 93.288 60.8693 93.5222C61.1213 93.7538 61.4534 93.8696 61.8657 93.8696C62.4689 93.8696 62.9448 93.6061 63.2935 93.0793C63.6447 92.5525 63.8203 91.8081 63.8203 90.846H63.7592C63.6167 91.0598 63.4475 91.2443 63.2515 91.3996C63.0555 91.5548 62.8379 91.6744 62.5987 91.7584C62.3594 91.8424 62.1049 91.8844 61.8352 91.8844C61.3872 91.8844 60.9762 91.7737 60.6021 91.5523C60.2305 91.3283 59.9327 91.0216 59.7088 90.6322C59.4873 90.2403 59.3766 89.7924 59.3766 89.2884C59.3766 88.81 59.4835 88.3722 59.6973 87.9752C59.9136 87.5756 60.2165 87.2575 60.6059 87.0208C60.9978 86.7841 61.4585 86.6696 61.9879 86.6772ZM61.9879 87.5171C61.6672 87.5171 61.3783 87.5972 61.1213 87.7576C60.8668 87.9154 60.6644 88.1292 60.5143 88.3989C60.3667 88.6662 60.2928 88.9627 60.2928 89.2884C60.2928 89.6142 60.3641 89.9107 60.5066 90.1779C60.6517 90.4426 60.8489 90.6539 61.0984 90.8117C61.3503 90.9669 61.6366 91.0445 61.9573 91.0445C62.1991 91.0445 62.4243 90.9975 62.633 90.9033C62.8417 90.8066 63.0237 90.6755 63.179 90.5101C63.3367 90.3421 63.4602 90.1525 63.5493 89.9412C63.6383 89.7275 63.6829 89.5048 63.6829 89.2732C63.6829 88.9678 63.6091 88.6814 63.4615 88.4142C63.3164 88.147 63.1153 87.9306 62.8583 87.7652C62.6038 87.5998 62.3136 87.5171 61.9879 87.5171ZM68.7574 94.7094C68.1822 94.7094 67.6923 94.5529 67.2876 94.2399C66.883 93.9243 66.5738 93.4674 66.36 92.8693C66.1462 92.2687 66.0393 91.5434 66.0393 90.6933C66.0393 89.8484 66.1462 89.1268 66.36 88.5287C66.5763 87.9281 66.8868 87.47 67.2915 87.1544C67.6987 86.8363 68.1873 86.6772 68.7574 86.6772C69.3275 86.6772 69.8149 86.8363 70.2196 87.1544C70.6268 87.47 70.9373 87.9281 71.1511 88.5287C71.3674 89.1268 71.4756 89.8484 71.4756 90.6933C71.4756 91.5434 71.3687 92.2687 71.1549 92.8693C70.9411 93.4674 70.6319 93.9243 70.2272 94.2399C69.8225 94.5529 69.3326 94.7094 68.7574 94.7094ZM68.7574 93.8696C69.3275 93.8696 69.7704 93.5947 70.0859 93.045C70.4015 92.4952 70.5593 91.7113 70.5593 90.6933C70.5593 90.0163 70.4868 89.4399 70.3417 88.9639C70.1992 88.488 69.9931 88.1253 69.7233 87.8759C69.456 87.6265 69.1341 87.5018 68.7574 87.5018C68.1924 87.5018 67.7508 87.7805 67.4327 88.3379C67.1146 88.8927 66.9555 89.6778 66.9555 90.6933C66.9555 91.3703 67.0268 91.9455 67.1693 92.4189C67.3118 92.8923 67.5167 93.2524 67.7839 93.4993C68.0537 93.7461 68.3782 93.8696 68.7574 93.8696Z" fill="#5D6180"/>
<path d="M63.7217 65.3076H59.8415V54.3618H63.7538C64.8548 54.3618 65.8025 54.5809 66.5971 55.0192C67.3917 55.4539 68.0028 56.0792 68.4303 56.8952C68.8615 57.7111 69.077 58.6874 69.077 59.824C69.077 60.9642 68.8615 61.9441 68.4303 62.7636C68.0028 63.5831 67.3881 64.212 66.5864 64.6502C65.7883 65.0885 64.8334 65.3076 63.7217 65.3076ZM62.1557 63.3248H63.6255C64.3096 63.3248 64.885 63.2036 65.3518 62.9613C65.8221 62.7155 66.1749 62.336 66.41 61.8229C66.6488 61.3063 66.7681 60.64 66.7681 59.824C66.7681 59.0152 66.6488 58.3542 66.41 57.8412C66.1749 57.3281 65.8239 56.9504 65.3572 56.7081C64.8904 56.4658 64.3149 56.3447 63.6308 56.3447H62.1557V63.3248ZM73.0895 65.4626C72.5657 65.4626 72.099 65.3718 71.6892 65.19C71.2795 65.0048 70.9552 64.7322 70.7165 64.3723C70.4813 64.0089 70.3637 63.5564 70.3637 63.0148C70.3637 62.5587 70.4475 62.1757 70.6149 61.8657C70.7824 61.5557 71.0104 61.3063 71.2991 61.1174C71.5877 60.9286 71.9155 60.7861 72.2825 60.6898C72.653 60.5936 73.0414 60.5259 73.4476 60.4868C73.9251 60.4369 74.3099 60.3905 74.602 60.3478C74.8942 60.3015 75.1062 60.2338 75.2381 60.1447C75.3699 60.0556 75.4358 59.9238 75.4358 59.7492V59.7171C75.4358 59.3786 75.3289 59.1167 75.1151 58.9315C74.9049 58.7462 74.6056 58.6535 74.2172 58.6535C73.8075 58.6535 73.4815 58.7444 73.2392 58.9261C72.9969 59.1043 72.8365 59.3287 72.7581 59.5995L70.6524 59.4285C70.7592 58.9297 70.9695 58.4985 71.283 58.1351C71.5966 57.7681 72.001 57.4866 72.4963 57.2907C72.9951 57.0911 73.5723 56.9914 74.2279 56.9914C74.684 56.9914 75.1205 57.0448 75.5374 57.1517C75.9578 57.2586 76.3301 57.4243 76.6544 57.6487C76.9822 57.8732 77.2405 58.1618 77.4294 58.5146C77.6182 58.8638 77.7126 59.2824 77.7126 59.7706V65.3076H75.5534V64.1692H75.4893C75.3574 64.4258 75.1811 64.652 74.9601 64.848C74.7392 65.0404 74.4738 65.1918 74.1638 65.3023C73.8538 65.4092 73.4957 65.4626 73.0895 65.4626ZM73.7416 63.8913C74.0765 63.8913 74.3722 63.8254 74.6288 63.6935C74.8853 63.5581 75.0866 63.3764 75.2327 63.1484C75.3788 62.9203 75.4518 62.662 75.4518 62.3734V61.5022C75.3806 61.5486 75.2826 61.5913 75.1579 61.6305C75.0367 61.6661 74.8996 61.7 74.7464 61.7321C74.5931 61.7606 74.4399 61.7873 74.2867 61.8122C74.1335 61.8336 73.9945 61.8532 73.8698 61.871C73.6026 61.9102 73.3692 61.9726 73.1697 62.0581C72.9702 62.1436 72.8152 62.2594 72.7047 62.4055C72.5942 62.548 72.539 62.7262 72.539 62.9399C72.539 63.2499 72.6513 63.4869 72.8757 63.6508C73.1038 63.8111 73.3924 63.8913 73.7416 63.8913ZM86.3095 59.4392L84.2251 59.5675C84.1894 59.3893 84.1128 59.229 83.9953 59.0865C83.8777 58.9404 83.7227 58.8246 83.5303 58.7391C83.3414 58.65 83.1152 58.6054 82.8515 58.6054C82.4988 58.6054 82.2012 58.6803 81.9589 58.8299C81.7167 58.976 81.5955 59.172 81.5955 59.4178C81.5955 59.6138 81.6739 59.7795 81.8307 59.9149C81.9875 60.0503 82.2565 60.1589 82.6377 60.2409L84.1235 60.5402C84.9217 60.7041 85.5167 60.9678 85.9086 61.3312C86.3006 61.6946 86.4965 62.1721 86.4965 62.7636C86.4965 63.3016 86.338 63.7737 86.0209 64.1799C85.7073 64.5861 85.2762 64.9032 84.7275 65.1312C84.1823 65.3557 83.5534 65.468 82.8408 65.468C81.7541 65.468 80.8882 65.2417 80.2433 64.7892C79.602 64.3331 79.2261 63.7131 79.1156 62.9293L81.355 62.8117C81.4227 63.143 81.5866 63.396 81.8467 63.5706C82.1068 63.7416 82.44 63.8272 82.8462 63.8272C83.2452 63.8272 83.5659 63.7505 83.8082 63.5973C84.054 63.4406 84.1788 63.2392 84.1823 62.9934C84.1788 62.7867 84.0915 62.6175 83.9204 62.4856C83.7494 62.3502 83.4857 62.2469 83.1294 62.1757L81.7077 61.8924C80.9061 61.7321 80.3092 61.4541 79.9173 61.0586C79.5289 60.6631 79.3347 60.1589 79.3347 59.5461C79.3347 59.0188 79.4773 58.5645 79.7623 58.1832C80.0509 57.802 80.4553 57.508 80.9755 57.3013C81.4993 57.0947 82.1122 56.9914 82.8141 56.9914C83.851 56.9914 84.6669 57.2105 85.2619 57.6487C85.8605 58.087 86.2097 58.6838 86.3095 59.4392ZM90.2071 60.5616V65.3076H87.9302V54.3618H90.1429V58.5466H90.2391C90.4244 58.0621 90.7237 57.6826 91.137 57.4082C91.5504 57.1303 92.0688 56.9914 92.6923 56.9914C93.2624 56.9914 93.7595 57.1161 94.1835 57.3655C94.6111 57.6113 94.9424 57.9659 95.1776 58.4291C95.4163 58.8887 95.5339 59.4392 95.5303 60.0806V65.3076H93.2535V60.4868C93.2571 59.9808 93.1288 59.5871 92.8687 59.3056C92.6122 59.0241 92.2523 58.8834 91.7891 58.8834C91.4791 58.8834 91.2047 58.9493 90.966 59.0811C90.7308 59.2129 90.5456 59.4054 90.4102 59.6583C90.2783 59.9077 90.2106 60.2088 90.2071 60.5616ZM97.3649 65.3076V54.3618H99.6417V58.4772H99.7112C99.8109 58.2563 99.9552 58.0318 100.144 57.8037C100.336 57.5721 100.586 57.3797 100.892 57.2265C101.202 57.0697 101.587 56.9914 102.047 56.9914C102.645 56.9914 103.198 57.1481 103.704 57.4617C104.21 57.7717 104.614 58.2402 104.917 58.8673C105.22 59.4909 105.371 60.273 105.371 61.2136C105.371 62.1293 105.223 62.9025 104.928 63.5332C104.635 64.1603 104.236 64.636 103.73 64.9602C103.228 65.2809 102.665 65.4412 102.041 65.4412C101.6 65.4412 101.224 65.3682 100.914 65.2221C100.607 65.076 100.356 64.8925 100.16 64.6716C99.9642 64.4471 99.8145 64.2209 99.7112 63.9928H99.6096V65.3076H97.3649ZM99.5936 61.2029C99.5936 61.6911 99.6613 62.1169 99.7967 62.4803C99.9321 62.8437 100.128 63.127 100.385 63.3301C100.641 63.5296 100.953 63.6294 101.32 63.6294C101.69 63.6294 102.004 63.5279 102.261 63.3248C102.517 63.1181 102.711 62.833 102.843 62.4696C102.979 62.1026 103.046 61.6804 103.046 61.2029C103.046 60.729 102.98 60.3122 102.848 59.9523C102.717 59.5924 102.522 59.3109 102.266 59.1078C102.009 58.9047 101.694 58.8032 101.32 58.8032C100.949 58.8032 100.636 58.9012 100.379 59.0971C100.126 59.2931 99.9321 59.571 99.7967 59.9309C99.6613 60.2908 99.5936 60.7148 99.5936 61.2029ZM110.6 65.468C109.769 65.468 109.051 65.2916 108.446 64.9388C107.843 64.5825 107.379 64.0873 107.051 63.453C106.723 62.8152 106.559 62.0759 106.559 61.235C106.559 60.387 106.723 59.6459 107.051 59.0116C107.379 58.3738 107.843 57.8786 108.446 57.5258C109.051 57.1695 109.769 56.9914 110.6 56.9914C111.43 56.9914 112.146 57.1695 112.748 57.5258C113.354 57.8786 113.821 58.3738 114.148 59.0116C114.476 59.6459 114.64 60.387 114.64 61.235C114.64 62.0759 114.476 62.8152 114.148 63.453C113.821 64.0873 113.354 64.5825 112.748 64.9388C112.146 65.2916 111.43 65.468 110.6 65.468ZM110.61 63.7042C110.988 63.7042 111.303 63.5973 111.556 63.3835C111.809 63.1662 112 62.8705 112.128 62.4963C112.26 62.1222 112.326 61.6964 112.326 61.219C112.326 60.7415 112.26 60.3157 112.128 59.9416C112 59.5675 111.809 59.2717 111.556 59.0544C111.303 58.837 110.988 58.7284 110.61 58.7284C110.229 58.7284 109.908 58.837 109.648 59.0544C109.392 59.2717 109.197 59.5675 109.066 59.9416C108.937 60.3157 108.873 60.7415 108.873 61.219C108.873 61.6964 108.937 62.1222 109.066 62.4963C109.197 62.8705 109.392 63.1662 109.648 63.3835C109.908 63.5973 110.229 63.7042 110.61 63.7042ZM118.462 65.4626C117.938 65.4626 117.471 65.3718 117.061 65.19C116.651 65.0048 116.327 64.7322 116.088 64.3723C115.853 64.0089 115.736 63.5564 115.736 63.0148C115.736 62.5587 115.819 62.1757 115.987 61.8657C116.154 61.5557 116.382 61.3063 116.671 61.1174C116.96 60.9286 117.287 60.7861 117.654 60.6898C118.025 60.5936 118.413 60.5259 118.82 60.4868C119.297 60.4369 119.682 60.3905 119.974 60.3478C120.266 60.3015 120.478 60.2338 120.61 60.1447C120.742 60.0556 120.808 59.9238 120.808 59.7492V59.7171C120.808 59.3786 120.701 59.1167 120.487 58.9315C120.277 58.7462 119.978 58.6535 119.589 58.6535C119.179 58.6535 118.853 58.7444 118.611 58.9261C118.369 59.1043 118.209 59.3287 118.13 59.5995L116.024 59.4285C116.131 58.9297 116.341 58.4985 116.655 58.1351C116.969 57.7681 117.373 57.4866 117.868 57.2907C118.367 57.0911 118.944 56.9914 119.6 56.9914C120.056 56.9914 120.492 57.0448 120.909 57.1517C121.33 57.2586 121.702 57.4243 122.026 57.6487C122.354 57.8732 122.613 58.1618 122.801 58.5146C122.99 58.8638 123.085 59.2824 123.085 59.7706V65.3076H120.925V64.1692H120.861C120.729 64.4258 120.553 64.652 120.332 64.848C120.111 65.0404 119.846 65.1918 119.536 65.3023C119.226 65.4092 118.868 65.4626 118.462 65.4626ZM119.114 63.8913C119.448 63.8913 119.744 63.8254 120.001 63.6935C120.257 63.5581 120.459 63.3764 120.605 63.1484C120.751 62.9203 120.824 62.662 120.824 62.3734V61.5022C120.753 61.5486 120.655 61.5913 120.53 61.6305C120.409 61.6661 120.272 61.7 120.118 61.7321C119.965 61.7606 119.812 61.7873 119.659 61.8122C119.506 61.8336 119.367 61.8532 119.242 61.871C118.975 61.9102 118.741 61.9726 118.542 62.0581C118.342 62.1436 118.187 62.2594 118.077 62.4055C117.966 62.548 117.911 62.7262 117.911 62.9399C117.911 63.2499 118.023 63.4869 118.248 63.6508C118.476 63.8111 118.764 63.8913 119.114 63.8913ZM124.851 65.3076V57.0982H127.058V58.5306H127.144C127.294 58.0211 127.545 57.6363 127.897 57.3762C128.25 57.1125 128.656 56.9807 129.116 56.9807C129.23 56.9807 129.353 56.9878 129.485 57.002C129.617 57.0163 129.732 57.0359 129.832 57.0608V59.0811C129.725 59.049 129.577 59.0205 129.389 58.9956C129.2 58.9707 129.027 58.9582 128.87 58.9582C128.535 58.9582 128.236 59.0312 127.972 59.1773C127.712 59.3198 127.506 59.5194 127.352 59.7759C127.203 60.0325 127.128 60.3282 127.128 60.6631V65.3076H124.851ZM133.652 65.4412C133.029 65.4412 132.464 65.2809 131.958 64.9602C131.456 64.636 131.057 64.1603 130.761 63.5332C130.469 62.9025 130.323 62.1293 130.323 61.2136C130.323 60.273 130.474 59.4909 130.777 58.8673C131.08 58.2402 131.482 57.7717 131.985 57.4617C132.491 57.1481 133.045 56.9914 133.647 56.9914C134.107 56.9914 134.49 57.0697 134.796 57.2265C135.106 57.3797 135.355 57.5721 135.544 57.8037C135.737 58.0318 135.883 58.2563 135.983 58.4772H136.052V54.3618H138.324V65.3076H136.079V63.9928H135.983C135.876 64.2209 135.724 64.4471 135.528 64.6716C135.336 64.8925 135.085 65.076 134.775 65.2221C134.468 65.3682 134.094 65.4412 133.652 65.4412ZM134.374 63.6294C134.741 63.6294 135.051 63.5296 135.304 63.3301C135.56 63.127 135.756 62.8437 135.892 62.4803C136.031 62.1169 136.1 61.6911 136.1 61.2029C136.1 60.7148 136.032 60.2908 135.897 59.9309C135.762 59.571 135.566 59.2931 135.309 59.0971C135.053 58.9012 134.741 58.8032 134.374 58.8032C134 58.8032 133.684 58.9047 133.428 59.1078C133.171 59.3109 132.977 59.5924 132.845 59.9523C132.713 60.3122 132.648 60.729 132.648 61.2029C132.648 61.6804 132.713 62.1026 132.845 62.4696C132.981 62.833 133.175 63.1181 133.428 63.3248C133.684 63.5279 134 63.6294 134.374 63.6294Z" fill="#060C3C"/>
<path opacity="0.4" d="M125.011 183.743C113.599 183.743 103.179 189.917 94.1655 213.607H346.799V105.028C335.854 105.028 325.464 125.093 313.842 125.093C303.136 125.093 300.083 137.539 295.694 137.539C291.724 137.539 289.739 134.868 286.762 134.868C283.785 134.868 283.785 148.759 277.831 148.759C273.862 148.759 269.893 144.643 263.442 144.643C256.992 144.643 252.987 155.961 247.565 155.961C233.176 155.961 239.626 132.81 230.199 132.81C222.26 132.81 220.772 146.701 211.841 146.701C200.429 146.701 203.406 127.665 195.963 127.665C186.536 127.665 191.996 160.077 176.613 160.077C164.208 160.077 163.438 170.299 156.766 170.367C150.093 170.434 143.369 164.212 137.415 164.212C128.484 164.212 134.934 183.743 125.011 183.743Z" fill="url(#paint0_linear_631_1848)"/>
<path d="M94.1655 213.607C103.179 189.917 113.599 183.743 125.011 183.743C134.934 183.743 128.484 164.212 137.415 164.212C143.369 164.212 150.093 170.434 156.766 170.367C163.438 170.299 164.208 160.077 176.613 160.077C191.996 160.077 186.536 127.665 195.963 127.665C203.406 127.665 200.429 146.701 211.841 146.701C220.772 146.701 222.26 132.81 230.199 132.81C239.626 132.81 233.176 155.961 247.565 155.961C252.987 155.961 256.992 144.643 263.442 144.643C269.893 144.643 273.862 148.759 277.831 148.759C283.785 148.759 283.785 134.868 286.762 134.868C289.739 134.868 291.724 137.539 295.694 137.539C300.083 137.539 303.136 125.093 313.843 125.093C325.464 125.093 335.854 105.028 346.799 105.028" stroke="#0169C2" stroke-width="2.15007" stroke-linecap="round" stroke-linejoin="round"/>
<path d="M94.1655 213.606C103.179 189.916 114.333 193.959 125.745 193.959C135.668 193.959 135.36 177.93 144.291 177.93C150.245 177.93 157.167 180.583 163.84 180.516C170.513 180.448 171.988 165.521 184.392 165.521C199.775 165.521 193.01 147.425 202.437 147.425C209.88 147.425 207.567 151.561 218.979 151.561C227.91 151.561 234.098 134.867 242.036 134.867C251.464 134.867 240.179 165.521 254.568 165.521C259.99 165.521 266.163 180.516 272.613 180.516C279.063 180.516 277.666 158.283 281.636 158.283C287.59 158.283 285.145 145.357 291.16 145.357C297.175 145.357 297.717 145.357 301.686 145.357C306.075 145.357 304.012 141.221 314.719 141.221C326.34 141.221 335.352 151.561 346.298 151.561" stroke="#FF7B39" stroke-width="2.15007" stroke-linecap="round" stroke-linejoin="round"/>
<path d="M229.234 123.805C228.835 124.138 228.256 124.138 227.857 123.805L220.207 117.43C218.662 116.143 219.573 113.629 221.584 113.629L235.507 113.629C237.518 113.629 238.428 116.143 236.884 117.43L229.234 123.805Z" fill="#0169C2"/>
<rect x="190.919" y="84.6025" width="75.2526" height="35.4762" rx="4.30015" fill="#0169C2"/>
<path d="M200.596 100.475V99.3299L204.65 92.9255H205.552V94.6113H204.98L202.08 99.2016V99.2749H207.637V100.475H200.596ZM205.044 102.308V100.127L205.053 99.6048V92.9255H206.395V102.308H205.044ZM209.036 100.475V99.3299L213.091 92.9255H213.993V94.6113H213.42L210.521 99.2016V99.2749H216.078V100.475H209.036ZM213.485 102.308V100.127L213.494 99.6048V92.9255H214.836V102.308H213.485Z" fill="white"/>
<path opacity="0.8" d="M200.277 113.027V106.773H201.034V112.355H203.942V113.027H200.277ZM206.984 113.125C206.532 113.125 206.142 113.025 205.814 112.826C205.488 112.624 205.237 112.343 205.06 111.983C204.885 111.62 204.797 111.199 204.797 110.718C204.797 110.238 204.885 109.814 205.06 109.448C205.237 109.079 205.483 108.792 205.799 108.587C206.116 108.379 206.487 108.275 206.91 108.275C207.155 108.275 207.396 108.316 207.634 108.397C207.872 108.479 208.089 108.611 208.285 108.794C208.48 108.976 208.636 109.216 208.752 109.515C208.868 109.814 208.926 110.183 208.926 110.621V110.926H205.31V110.303H208.193C208.193 110.038 208.14 109.802 208.034 109.595C207.93 109.387 207.782 109.223 207.588 109.103C207.397 108.983 207.171 108.923 206.91 108.923C206.623 108.923 206.375 108.994 206.165 109.136C205.958 109.277 205.798 109.46 205.686 109.686C205.574 109.912 205.518 110.154 205.518 110.413V110.828C205.518 111.183 205.579 111.483 205.701 111.729C205.825 111.974 205.997 112.16 206.217 112.288C206.437 112.414 206.693 112.478 206.984 112.478C207.173 112.478 207.344 112.451 207.497 112.398C207.652 112.343 207.785 112.262 207.897 112.154C208.009 112.044 208.095 111.908 208.156 111.745L208.853 111.94C208.78 112.176 208.656 112.384 208.483 112.563C208.31 112.74 208.096 112.879 207.842 112.978C207.587 113.076 207.301 113.125 206.984 113.125ZM211.403 113.137C211.106 113.137 210.836 113.081 210.594 112.969C210.351 112.855 210.159 112.691 210.016 112.478C209.874 112.262 209.803 112.001 209.803 111.696C209.803 111.427 209.856 111.209 209.961 111.042C210.067 110.873 210.209 110.741 210.386 110.645C210.563 110.549 210.759 110.478 210.972 110.431C211.188 110.383 211.405 110.344 211.623 110.315C211.908 110.279 212.139 110.251 212.316 110.233C212.495 110.212 212.626 110.179 212.707 110.132C212.791 110.085 212.832 110.004 212.832 109.888V109.863C212.832 109.562 212.75 109.328 212.585 109.161C212.422 108.994 212.175 108.91 211.843 108.91C211.499 108.91 211.229 108.986 211.033 109.136C210.838 109.287 210.701 109.448 210.621 109.619L209.937 109.375C210.059 109.09 210.222 108.868 210.426 108.709C210.631 108.548 210.855 108.436 211.098 108.373C211.342 108.308 211.582 108.275 211.818 108.275C211.969 108.275 212.142 108.294 212.338 108.33C212.535 108.365 212.725 108.437 212.909 108.547C213.094 108.657 213.248 108.823 213.37 109.045C213.492 109.267 213.553 109.564 213.553 109.937V113.027H212.832V112.392H212.796C212.747 112.494 212.665 112.603 212.551 112.719C212.437 112.835 212.286 112.934 212.096 113.015C211.907 113.097 211.676 113.137 211.403 113.137ZM211.513 112.49C211.798 112.49 212.038 112.434 212.234 112.322C212.431 112.21 212.58 112.065 212.68 111.888C212.781 111.711 212.832 111.525 212.832 111.329V110.67C212.802 110.706 212.735 110.74 212.631 110.77C212.529 110.799 212.411 110.824 212.276 110.847C212.144 110.867 212.015 110.885 211.889 110.902C211.764 110.916 211.664 110.928 211.586 110.938C211.399 110.963 211.224 111.002 211.061 111.057C210.9 111.11 210.77 111.191 210.67 111.299C210.572 111.405 210.523 111.549 210.523 111.732C210.523 111.983 210.616 112.172 210.801 112.3C210.989 112.427 211.226 112.49 211.513 112.49ZM216.64 113.125C216.249 113.125 215.904 113.026 215.605 112.829C215.305 112.629 215.071 112.348 214.902 111.986C214.733 111.621 214.649 111.191 214.649 110.694C214.649 110.201 214.733 109.774 214.902 109.411C215.071 109.049 215.306 108.769 215.608 108.571C215.909 108.374 216.257 108.275 216.652 108.275C216.958 108.275 217.199 108.326 217.376 108.428C217.555 108.528 217.692 108.642 217.785 108.77C217.881 108.896 217.955 109 218.008 109.081H218.069V106.773H218.79V113.027H218.094V112.307H218.008C217.955 112.392 217.88 112.5 217.782 112.63C217.684 112.759 217.545 112.874 217.364 112.975C217.183 113.075 216.941 113.125 216.64 113.125ZM216.738 112.478C217.027 112.478 217.271 112.402 217.471 112.252C217.67 112.099 217.822 111.888 217.926 111.619C218.03 111.349 218.081 111.036 218.081 110.682C218.081 110.332 218.031 110.025 217.929 109.763C217.827 109.498 217.676 109.292 217.477 109.146C217.277 108.997 217.031 108.923 216.738 108.923C216.432 108.923 216.178 109.001 215.974 109.158C215.773 109.313 215.621 109.523 215.519 109.79C215.419 110.055 215.369 110.352 215.369 110.682C215.369 111.016 215.42 111.319 215.522 111.592C215.626 111.863 215.779 112.079 215.98 112.239C216.184 112.398 216.436 112.478 216.738 112.478Z" fill="white"/>
<circle cx="250.046" cy="101.804" r="7.52526" fill="white"/>
<path d="M250.598 99.916C250.313 99.6126 249.778 99.6126 249.494 99.916L246.677 102.924C246.302 103.324 246.632 103.921 247.229 103.921L252.862 103.921C253.459 103.921 253.789 103.324 253.414 102.924L250.598 99.916Z" fill="#38E7B2"/>
<circle cx="228.545" cy="132.979" r="3.76263" fill="#6C8EFF" stroke="#4166D4" stroke-width="1.07504"/>
<defs>
<filter id="filter0_d_631_1848" x="0.636893" y="0.748904" width="404.214" height="301.01" filterUnits="userSpaceOnUse" color-interpolation-filters="sRGB">
<feFlood flood-opacity="0" result="BackgroundImageFix"/>
<feColorMatrix in="SourceAlpha" type="matrix" values="0 0 0 0 0 0 0 0 0 0 0 0 0 0 0 0 0 0 127 0" result="hardAlpha"/>
<feMorphology radius="2.15007" operator="erode" in="SourceAlpha" result="effect1_dropShadow_631_1848"/>
<feOffset dy="8.60029"/>
<feGaussianBlur stdDeviation="21.5007"/>
<feColorMatrix type="matrix" values="0 0 0 0 0.0235294 0 0 0 0 0.0470588 0 0 0 0 0.231373 0 0 0 0.08 0"/>
<feBlend mode="normal" in2="BackgroundImageFix" result="effect1_dropShadow_631_1848"/>
<feBlend mode="normal" in="SourceGraphic" in2="effect1_dropShadow_631_1848" result="shape"/>
</filter>
<linearGradient id="paint0_linear_631_1848" x1="220.482" y1="72.9718" x2="220.482" y2="213.607" gradientUnits="userSpaceOnUse">
<stop stop-color="#74A9FF"/>
<stop offset="1" stop-color="#9374FF" stop-opacity="0"/>
</linearGradient>
</defs>
</svg>
