<svg width="163" height="151" viewBox="0 0 163 151" fill="none" xmlns="http://www.w3.org/2000/svg">
<g filter="url(#filter0_d_631_1839)">
<rect x="37" y="30" width="89" height="76" rx="5.61991" fill="white"/>
<rect x="36.5" y="29.5" width="90" height="77" rx="6.11991" stroke="#F4FBFF"/>
</g>
<g clip-path="url(#clip0_631_1839)">
<path d="M99.9999 78.0001C99.9999 87.9412 91.9412 95.9999 82.0001 95.9999C72.0587 95.9999 64 87.9412 64 78.0001C64 68.0588 72.0587 60 82.0001 60C91.9412 60 99.9999 68.0588 99.9999 78.0001Z" fill="#FFC107"/>
<path d="M85.7179 86.1816C85.1779 86.1816 84.7001 85.8284 84.5431 85.3112L82.0001 76.9133L79.4554 85.3112C79.2969 85.838 78.8648 86.1571 78.2461 86.1816C77.693 86.1655 77.2187 85.7825 77.0893 85.2441L74.1145 72.9713C73.954 72.3119 74.3581 71.6491 75.0161 71.4888C75.6738 71.3234 76.3381 71.7342 76.4987 72.3922L78.413 80.2876L80.8269 72.3251C80.9823 71.8079 81.4599 71.4543 82.0001 71.4543C82.5401 71.4543 83.018 71.808 83.1749 72.3251L85.5885 80.2876L87.5031 72.3923C87.6634 71.7342 88.3247 71.3285 88.9842 71.4889C89.6418 71.6492 90.0461 72.3119 89.8872 72.9699L86.9125 85.2427C86.7831 85.7808 86.3085 86.1638 85.7554 86.1802C85.7407 86.1817 85.7293 86.1817 85.7179 86.1817V86.1816Z" fill="#FAFAFA"/>
<path d="M90.591 77.1816H88.1053C87.4278 77.1816 86.878 76.6318 86.878 75.9543C86.878 75.2769 87.4278 74.7271 88.1053 74.7271H90.591C91.2684 74.7271 91.8183 75.2769 91.8183 75.9543C91.8183 76.6318 91.2684 77.1816 90.591 77.1816ZM75.8945 77.1816H73.4092C72.7317 77.1816 72.1819 76.6318 72.1819 75.9543C72.1819 75.2769 72.7317 74.7271 73.4092 74.7271H75.8945C76.572 74.7271 77.1218 75.2769 77.1218 75.9543C77.1218 76.6318 76.572 77.1816 75.8945 77.1816ZM90.6057 81.2724H87.467C86.7895 81.2724 86.2397 80.7226 86.2397 80.0451C86.2397 79.3677 86.7895 78.8179 87.467 78.8179H90.6056C91.283 78.8179 91.8328 79.3677 91.8328 80.0451C91.8328 80.7226 91.283 81.2724 90.6056 81.2724H90.6057ZM76.5478 81.2724H73.4092C72.7317 81.2724 72.1819 80.7226 72.1819 80.0451C72.1819 79.3677 72.7317 78.8179 73.4092 78.8179H76.5478C77.2249 78.8179 77.775 79.3677 77.775 80.0451C77.775 80.7226 77.2249 81.2724 76.5478 81.2724Z" fill="#FAFAFA"/>
</g>
<path d="M69.9477 51L67.2561 41.4632H69.1141L70.8324 48.4714H70.9209L72.7556 41.4632H74.446L76.2854 48.4761H76.3692L78.0875 41.4632H79.9455L77.2539 51H75.5496L73.6404 44.3084H73.5659L71.652 51H69.9477ZM83.4589 51.1397C82.7604 51.1397 82.1551 50.986 81.6428 50.6787C81.1306 50.3714 80.7332 49.9414 80.4507 49.3888C80.1713 48.8362 80.0316 48.1905 80.0316 47.4516C80.0316 46.7128 80.1713 46.0655 80.4507 45.5098C80.7332 44.9541 81.1306 44.5226 81.6428 44.2153C82.1551 43.9079 82.7604 43.7542 83.4589 43.7542C84.1574 43.7542 84.7628 43.9079 85.275 44.2153C85.7873 44.5226 86.1831 44.9541 86.4625 45.5098C86.745 46.0655 86.8862 46.7128 86.8862 47.4516C86.8862 48.1905 86.745 48.8362 86.4625 49.3888C86.1831 49.9414 85.7873 50.3714 85.275 50.6787C84.7628 50.986 84.1574 51.1397 83.4589 51.1397ZM83.4683 49.7893C83.847 49.7893 84.1636 49.6853 84.4182 49.4773C84.6728 49.2662 84.8621 48.9837 84.9863 48.6298C85.1136 48.2759 85.1772 47.8816 85.1772 47.447C85.1772 47.0092 85.1136 46.6134 84.9863 46.2595C84.8621 45.9025 84.6728 45.6185 84.4182 45.4074C84.1636 45.1963 83.847 45.0907 83.4683 45.0907C83.0802 45.0907 82.7573 45.1963 82.4997 45.4074C82.2451 45.6185 82.0542 45.9025 81.9269 46.2595C81.8027 46.6134 81.7406 47.0092 81.7406 47.447C81.7406 47.8816 81.8027 48.2759 81.9269 48.6298C82.0542 48.9837 82.2451 49.2662 82.4997 49.4773C82.7573 49.6853 83.0802 49.7893 83.4683 49.7893ZM90.0027 46.809V51H88.317V43.8474H89.9282V45.0628H90.012C90.1765 44.6623 90.4389 44.3441 90.799 44.1082C91.1622 43.8722 91.6108 43.7542 92.1448 43.7542C92.6384 43.7542 93.0683 43.8598 93.4347 44.0709C93.8041 44.282 94.0897 44.5878 94.2915 44.9883C94.4964 45.3887 94.5973 45.8746 94.5942 46.4458V51H92.9085V46.7066C92.9085 46.2285 92.7843 45.8544 92.5359 45.5843C92.2907 45.3142 91.9507 45.1792 91.5161 45.1792C91.2212 45.1792 90.9589 45.2444 90.7291 45.3748C90.5025 45.502 90.324 45.6868 90.1936 45.9289C90.0663 46.1711 90.0027 46.4644 90.0027 46.809Z" fill="#060C3C"/>
<defs>
<filter id="filter0_d_631_1839" x="0.40721" y="0.900429" width="162.186" height="149.186" filterUnits="userSpaceOnUse" color-interpolation-filters="sRGB">
<feFlood flood-opacity="0" result="BackgroundImageFix"/>
<feColorMatrix in="SourceAlpha" type="matrix" values="0 0 0 0 0 0 0 0 0 0 0 0 0 0 0 0 0 0 127 0" result="hardAlpha"/>
<feMorphology radius="1.8733" operator="erode" in="SourceAlpha" result="effect1_dropShadow_631_1839"/>
<feOffset dy="7.49322"/>
<feGaussianBlur stdDeviation="18.733"/>
<feColorMatrix type="matrix" values="0 0 0 0 0.0235294 0 0 0 0 0.0470588 0 0 0 0 0.231373 0 0 0 0.08 0"/>
<feBlend mode="normal" in2="BackgroundImageFix" result="effect1_dropShadow_631_1839"/>
<feBlend mode="normal" in="SourceGraphic" in2="effect1_dropShadow_631_1839" result="shape"/>
</filter>
<clipPath id="clip0_631_1839">
<rect width="36" height="36" fill="white" transform="translate(64 60)"/>
</clipPath>
</defs>
</svg>
