<svg width="311" height="169" viewBox="0 0 311 169" fill="none" xmlns="http://www.w3.org/2000/svg">
<g filter="url(#filter0_d_631_1887)">
<rect x="43" y="33.5293" width="225.166" height="84.2987" rx="11.3429" fill="white"/>
</g>
<path d="M124.011 82V70.3636H126.472V79.9716H131.46V82H124.011ZM137.021 82.1705C136.124 82.1705 135.351 81.9886 134.703 81.625C134.059 81.2576 133.563 80.7386 133.214 80.0682C132.866 79.3939 132.692 78.5966 132.692 77.6761C132.692 76.7784 132.866 75.9905 133.214 75.3125C133.563 74.6345 134.054 74.1061 134.686 73.7273C135.322 73.3485 136.069 73.1591 136.925 73.1591C137.5 73.1591 138.036 73.2519 138.533 73.4375C139.033 73.6193 139.468 73.8939 139.839 74.2614C140.214 74.6288 140.506 75.0909 140.714 75.6477C140.923 76.2008 141.027 76.8485 141.027 77.5909V78.2557H133.658V76.7557H138.749C138.749 76.4072 138.673 76.0985 138.521 75.8295C138.37 75.5606 138.16 75.3504 137.891 75.1989C137.625 75.0436 137.317 74.9659 136.964 74.9659C136.597 74.9659 136.271 75.0511 135.987 75.2216C135.707 75.3883 135.487 75.6136 135.328 75.8977C135.169 76.178 135.088 76.4905 135.084 76.8352V78.2614C135.084 78.6932 135.163 79.0663 135.322 79.3807C135.485 79.6951 135.714 79.9375 136.01 80.108C136.305 80.2784 136.656 80.3636 137.061 80.3636C137.33 80.3636 137.576 80.3258 137.8 80.25C138.023 80.1742 138.214 80.0606 138.374 79.9091C138.533 79.7576 138.654 79.572 138.737 79.3523L140.976 79.5C140.862 80.0379 140.629 80.5076 140.277 80.9091C139.929 81.3068 139.478 81.6174 138.925 81.8409C138.375 82.0606 137.741 82.1705 137.021 82.1705ZM145.095 82.1648C144.538 82.1648 144.042 82.0682 143.607 81.875C143.171 81.678 142.826 81.3883 142.572 81.0057C142.322 80.6193 142.197 80.1383 142.197 79.5625C142.197 79.0777 142.286 78.6705 142.464 78.3409C142.643 78.0114 142.885 77.7462 143.192 77.5455C143.499 77.3447 143.847 77.1932 144.237 77.0909C144.631 76.9886 145.044 76.9167 145.476 76.875C145.983 76.822 146.393 76.7727 146.703 76.7273C147.014 76.678 147.239 76.6061 147.379 76.5114C147.519 76.4167 147.589 76.2765 147.589 76.0909V76.0568C147.589 75.697 147.476 75.4186 147.249 75.2216C147.025 75.0246 146.707 74.9261 146.294 74.9261C145.858 74.9261 145.512 75.0227 145.254 75.2159C144.997 75.4053 144.826 75.6439 144.743 75.9318L142.504 75.75C142.618 75.2197 142.841 74.7614 143.175 74.375C143.508 73.9848 143.938 73.6856 144.464 73.4773C144.995 73.2652 145.608 73.1591 146.305 73.1591C146.79 73.1591 147.254 73.2159 147.697 73.3295C148.144 73.4432 148.54 73.6193 148.885 73.858C149.233 74.0966 149.508 74.4034 149.709 74.7784C149.91 75.1496 150.01 75.5947 150.01 76.1136V82H147.714V80.7898H147.646C147.506 81.0625 147.319 81.303 147.084 81.5114C146.849 81.7159 146.567 81.8769 146.237 81.9943C145.908 82.108 145.527 82.1648 145.095 82.1648ZM145.788 80.4943C146.144 80.4943 146.459 80.4242 146.732 80.2841C147.004 80.1402 147.218 79.947 147.374 79.7045C147.529 79.4621 147.607 79.1875 147.607 78.8807V77.9545C147.531 78.0038 147.427 78.0492 147.294 78.0909C147.165 78.1288 147.019 78.1648 146.857 78.1989C146.694 78.2292 146.531 78.2576 146.368 78.2841C146.205 78.3068 146.057 78.3277 145.925 78.3466C145.641 78.3883 145.393 78.4545 145.18 78.5455C144.968 78.6364 144.804 78.7595 144.686 78.9148C144.569 79.0663 144.51 79.2557 144.51 79.483C144.51 79.8125 144.629 80.0644 144.868 80.2386C145.11 80.4091 145.417 80.4943 145.788 80.4943ZM155.104 82.142C154.441 82.142 153.84 81.9716 153.303 81.6307C152.768 81.286 152.344 80.7803 152.03 80.1136C151.719 79.4432 151.564 78.6212 151.564 77.6477C151.564 76.6477 151.725 75.8163 152.047 75.1534C152.369 74.4867 152.797 73.9886 153.331 73.6591C153.869 73.3258 154.458 73.1591 155.098 73.1591C155.587 73.1591 155.994 73.2424 156.32 73.4091C156.649 73.572 156.914 73.7765 157.115 74.0227C157.32 74.2652 157.475 74.5038 157.581 74.7386H157.655V70.3636H160.07V82H157.683V80.6023H157.581C157.467 80.8447 157.306 81.0852 157.098 81.3239C156.893 81.5587 156.626 81.7538 156.297 81.9091C155.971 82.0644 155.573 82.142 155.104 82.142ZM155.871 80.2159C156.261 80.2159 156.59 80.1098 156.859 79.8977C157.132 79.6818 157.34 79.3807 157.484 78.9943C157.632 78.608 157.706 78.1553 157.706 77.6364C157.706 77.1174 157.634 76.6667 157.49 76.2841C157.346 75.9015 157.138 75.6061 156.865 75.3977C156.592 75.1894 156.261 75.0852 155.871 75.0852C155.473 75.0852 155.138 75.1932 154.865 75.4091C154.592 75.625 154.386 75.9242 154.246 76.3068C154.106 76.6894 154.036 77.1326 154.036 77.6364C154.036 78.1439 154.106 78.5928 154.246 78.983C154.39 79.3693 154.596 79.6723 154.865 79.892C155.138 80.108 155.473 80.2159 155.871 80.2159ZM176.075 74.4375H173.587C173.541 74.1155 173.448 73.8295 173.308 73.5795C173.168 73.3258 172.988 73.1098 172.768 72.9318C172.549 72.7538 172.295 72.6174 172.007 72.5227C171.723 72.428 171.414 72.3807 171.081 72.3807C170.479 72.3807 169.954 72.5303 169.507 72.8295C169.06 73.125 168.714 73.5568 168.467 74.125C168.221 74.6894 168.098 75.375 168.098 76.1818C168.098 77.0114 168.221 77.7083 168.467 78.2727C168.717 78.8371 169.066 79.2633 169.513 79.5511C169.96 79.839 170.477 79.983 171.064 79.983C171.393 79.983 171.698 79.9394 171.979 79.8523C172.263 79.7652 172.515 79.6383 172.734 79.4716C172.954 79.3011 173.136 79.0947 173.28 78.8523C173.428 78.6098 173.53 78.3333 173.587 78.0227L176.075 78.0341C176.011 78.5682 175.85 79.0833 175.592 79.5795C175.339 80.072 174.996 80.5133 174.564 80.9034C174.136 81.2898 173.625 81.5966 173.03 81.8239C172.439 82.0473 171.77 82.1591 171.024 82.1591C169.986 82.1591 169.058 81.9242 168.24 81.4545C167.426 80.9848 166.782 80.3049 166.308 79.4148C165.839 78.5246 165.604 77.447 165.604 76.1818C165.604 74.9129 165.842 73.8333 166.32 72.9432C166.797 72.053 167.445 71.375 168.263 70.9091C169.081 70.4394 170.001 70.2045 171.024 70.2045C171.698 70.2045 172.323 70.2992 172.899 70.4886C173.479 70.678 173.992 70.9545 174.439 71.3182C174.886 71.678 175.25 72.1193 175.53 72.642C175.814 73.1648 175.996 73.7633 176.075 74.4375ZM180.283 82.1648C179.726 82.1648 179.23 82.0682 178.794 81.875C178.358 81.678 178.014 81.3883 177.76 81.0057C177.51 80.6193 177.385 80.1383 177.385 79.5625C177.385 79.0777 177.474 78.6705 177.652 78.3409C177.83 78.0114 178.072 77.7462 178.379 77.5455C178.686 77.3447 179.035 77.1932 179.425 77.0909C179.819 76.9886 180.232 76.9167 180.663 76.875C181.171 76.822 181.58 76.7727 181.891 76.7273C182.201 76.678 182.427 76.6061 182.567 76.5114C182.707 76.4167 182.777 76.2765 182.777 76.0909V76.0568C182.777 75.697 182.663 75.4186 182.436 75.2216C182.213 75.0246 181.894 74.9261 181.482 74.9261C181.046 74.9261 180.699 75.0227 180.442 75.2159C180.184 75.4053 180.014 75.6439 179.93 75.9318L177.692 75.75C177.805 75.2197 178.029 74.7614 178.362 74.375C178.696 73.9848 179.125 73.6856 179.652 73.4773C180.182 73.2652 180.796 73.1591 181.493 73.1591C181.978 73.1591 182.442 73.2159 182.885 73.3295C183.332 73.4432 183.728 73.6193 184.072 73.858C184.421 74.0966 184.696 74.4034 184.896 74.7784C185.097 75.1496 185.197 75.5947 185.197 76.1136V82H182.902V80.7898H182.834C182.694 81.0625 182.506 81.303 182.271 81.5114C182.036 81.7159 181.754 81.8769 181.425 81.9943C181.095 82.108 180.714 82.1648 180.283 82.1648ZM180.976 80.4943C181.332 80.4943 181.646 80.4242 181.919 80.2841C182.192 80.1402 182.406 79.947 182.561 79.7045C182.716 79.4621 182.794 79.1875 182.794 78.8807V77.9545C182.718 78.0038 182.614 78.0492 182.482 78.0909C182.353 78.1288 182.207 78.1648 182.044 78.1989C181.881 78.2292 181.718 78.2576 181.555 78.2841C181.393 78.3068 181.245 78.3277 181.112 78.3466C180.828 78.3883 180.58 78.4545 180.368 78.5455C180.156 78.6364 179.991 78.7595 179.874 78.9148C179.756 79.0663 179.697 79.2557 179.697 79.483C179.697 79.8125 179.817 80.0644 180.055 80.2386C180.298 80.4091 180.605 80.4943 180.976 80.4943ZM187.075 85.2727V73.2727H189.462V74.7386H189.57C189.676 74.5038 189.829 74.2652 190.03 74.0227C190.234 73.7765 190.5 73.572 190.825 73.4091C191.155 73.2424 191.564 73.1591 192.053 73.1591C192.689 73.1591 193.276 73.3258 193.814 73.6591C194.352 73.9886 194.782 74.4867 195.104 75.1534C195.426 75.8163 195.587 76.6477 195.587 77.6477C195.587 78.6212 195.429 79.4432 195.115 80.1136C194.804 80.7803 194.38 81.286 193.842 81.6307C193.308 81.9716 192.71 82.142 192.047 82.142C191.577 82.142 191.178 82.0644 190.848 81.9091C190.522 81.7538 190.255 81.5587 190.047 81.3239C189.839 81.0852 189.679 80.8447 189.57 80.6023H189.496V85.2727H187.075ZM189.445 77.6364C189.445 78.1553 189.517 78.608 189.661 78.9943C189.804 79.3807 190.013 79.6818 190.286 79.8977C190.558 80.1098 190.89 80.2159 191.28 80.2159C191.674 80.2159 192.007 80.108 192.28 79.892C192.553 79.6723 192.759 79.3693 192.899 78.983C193.043 78.5928 193.115 78.1439 193.115 77.6364C193.115 77.1326 193.045 76.6894 192.905 76.3068C192.765 75.9242 192.558 75.625 192.286 75.4091C192.013 75.1932 191.678 75.0852 191.28 75.0852C190.886 75.0852 190.553 75.1894 190.28 75.3977C190.011 75.6061 189.804 75.9015 189.661 76.2841C189.517 76.6667 189.445 77.1174 189.445 77.6364ZM201.842 73.2727V75.0909H196.587V73.2727H201.842ZM197.78 71.1818H200.2V79.3182C200.2 79.5417 200.234 79.7159 200.303 79.8409C200.371 79.9621 200.465 80.0473 200.587 80.0966C200.712 80.1458 200.856 80.1705 201.018 80.1705C201.132 80.1705 201.246 80.161 201.359 80.142C201.473 80.1193 201.56 80.1023 201.621 80.0909L202.001 81.892C201.88 81.9299 201.71 81.9735 201.49 82.0227C201.27 82.0758 201.003 82.108 200.689 82.1193C200.106 82.142 199.594 82.0644 199.155 81.8864C198.719 81.7083 198.38 81.4318 198.138 81.0568C197.895 80.6818 197.776 80.2083 197.78 79.6364V71.1818ZM209.016 78.2841V73.2727H211.436V82H209.112V80.4148H209.021C208.824 80.9261 208.497 81.3371 208.038 81.6477C207.584 81.9583 207.029 82.1136 206.374 82.1136C205.79 82.1136 205.277 81.9811 204.834 81.7159C204.391 81.4508 204.044 81.0739 203.794 80.5852C203.548 80.0966 203.423 79.5114 203.419 78.8295V73.2727H205.839V78.3977C205.843 78.9129 205.982 79.3201 206.254 79.6193C206.527 79.9186 206.893 80.0682 207.351 80.0682C207.643 80.0682 207.915 80.0019 208.169 79.8693C208.423 79.733 208.627 79.5322 208.783 79.267C208.942 79.0019 209.019 78.6742 209.016 78.2841ZM213.372 82V73.2727H215.719V74.7955H215.81C215.969 74.2538 216.236 73.8447 216.611 73.5682C216.986 73.2879 217.418 73.1477 217.906 73.1477C218.027 73.1477 218.158 73.1553 218.298 73.1705C218.438 73.1856 218.562 73.2064 218.668 73.233V75.3807C218.554 75.3466 218.397 75.3163 218.196 75.2898C217.995 75.2633 217.812 75.25 217.645 75.25C217.289 75.25 216.971 75.3277 216.69 75.483C216.414 75.6345 216.194 75.8466 216.031 76.1193C215.872 76.392 215.793 76.7064 215.793 77.0625V82H213.372ZM223.49 82.1705C222.592 82.1705 221.82 81.9886 221.172 81.625C220.528 81.2576 220.032 80.7386 219.683 80.0682C219.335 79.3939 219.161 78.5966 219.161 77.6761C219.161 76.7784 219.335 75.9905 219.683 75.3125C220.032 74.6345 220.522 74.1061 221.155 73.7273C221.791 73.3485 222.537 73.1591 223.393 73.1591C223.969 73.1591 224.505 73.2519 225.001 73.4375C225.501 73.6193 225.937 73.8939 226.308 74.2614C226.683 74.6288 226.975 75.0909 227.183 75.6477C227.392 76.2008 227.496 76.8485 227.496 77.5909V78.2557H220.126V76.7557H225.217C225.217 76.4072 225.142 76.0985 224.99 75.8295C224.839 75.5606 224.628 75.3504 224.359 75.1989C224.094 75.0436 223.786 74.9659 223.433 74.9659C223.066 74.9659 222.74 75.0511 222.456 75.2216C222.176 75.3883 221.956 75.6136 221.797 75.8977C221.638 76.178 221.556 76.4905 221.553 76.8352V78.2614C221.553 78.6932 221.632 79.0663 221.791 79.3807C221.954 79.6951 222.183 79.9375 222.479 80.108C222.774 80.2784 223.125 80.3636 223.53 80.3636C223.799 80.3636 224.045 80.3258 224.268 80.25C224.492 80.1742 224.683 80.0606 224.842 79.9091C225.001 79.7576 225.123 79.572 225.206 79.3523L227.445 79.5C227.331 80.0379 227.098 80.5076 226.746 80.9091C226.397 81.3068 225.946 81.6174 225.393 81.8409C224.844 82.0606 224.21 82.1705 223.49 82.1705ZM232.291 82.142C231.628 82.142 231.028 81.9716 230.49 81.6307C229.956 81.286 229.532 80.7803 229.217 80.1136C228.907 79.4432 228.751 78.6212 228.751 77.6477C228.751 76.6477 228.912 75.8163 229.234 75.1534C229.556 74.4867 229.984 73.9886 230.518 73.6591C231.056 73.3258 231.645 73.1591 232.286 73.1591C232.774 73.1591 233.181 73.2424 233.507 73.4091C233.837 73.572 234.102 73.7765 234.303 74.0227C234.507 74.2652 234.662 74.5038 234.768 74.7386H234.842V70.3636H237.257V82H234.871V80.6023H234.768C234.655 80.8447 234.494 81.0852 234.286 81.3239C234.081 81.5587 233.814 81.7538 233.484 81.9091C233.159 82.0644 232.761 82.142 232.291 82.142ZM233.058 80.2159C233.448 80.2159 233.778 80.1098 234.047 79.8977C234.32 79.6818 234.528 79.3807 234.672 78.9943C234.82 78.608 234.893 78.1553 234.893 77.6364C234.893 77.1174 234.821 76.6667 234.678 76.2841C234.534 75.9015 234.325 75.6061 234.053 75.3977C233.78 75.1894 233.448 75.0852 233.058 75.0852C232.661 75.0852 232.325 75.1932 232.053 75.4091C231.78 75.625 231.573 75.9242 231.433 76.3068C231.293 76.6894 231.223 77.1326 231.223 77.6364C231.223 78.1439 231.293 78.5928 231.433 78.983C231.577 79.3693 231.784 79.6723 232.053 79.892C232.325 80.108 232.661 80.2159 233.058 80.2159Z" fill="#060C3C"/>
<path fill-rule="evenodd" clip-rule="evenodd" d="M69.0912 86.6667L77.2057 81.9663C78.7293 81.0834 80.2773 80.4574 81.9526 81.0003C83.8185 81.6068 86.8658 82.9054 89.9741 83.4654C91.1284 83.8396 91.8474 84.994 91.5344 86.1654C91.2189 87.3368 90.2309 87.9408 88.832 87.7257L89.9203 87.8993C91.1651 88.0998 92.3072 87.9287 93.3979 87.2927L101.199 82.7488C107.264 79.2174 108.155 84.6515 106.139 85.8939L91.9795 94.6124C90.6784 95.4121 89.2526 95.6005 87.7755 95.2043L77.5064 92.453L73.7011 94.6491C72.9699 95.0698 72.0308 94.8179 71.6077 94.0866L68.5311 88.7601C68.1105 88.0289 68.3624 87.0898 69.0912 86.6667Z" fill="#F6DCCD"/>
<path fill-rule="evenodd" clip-rule="evenodd" d="M70.0328 84.3285L76.4697 95.7005C76.7803 96.2508 76.5846 96.9551 76.0367 97.2657L73.8455 98.5056C73.2977 98.8162 72.5934 98.6206 72.2804 98.0703L65.846 86.6983C65.5329 86.148 65.7286 85.4437 66.2788 85.1331L68.4676 83.8932C69.0179 83.5827 69.7222 83.7782 70.0328 84.3285Z" fill="#D1D1D6"/>
<path fill-rule="evenodd" clip-rule="evenodd" d="M73.4199 92.1422L74.5571 94.1549L75.6845 96.1456C75.9951 96.6935 75.8019 97.3953 75.2541 97.7084L76.0367 97.2657C76.5845 96.9551 76.7802 96.2508 76.4696 95.7005L75.3397 93.7025L73.0702 89.6918L70.7983 85.6785L70.0328 84.3285C69.7638 83.8517 69.1988 83.6413 68.6951 83.7954L70.0181 86.1334L72.2876 90.1442L73.4175 92.1398L73.4199 92.1422Z" fill="#B1B1B5"/>
<path fill-rule="evenodd" clip-rule="evenodd" d="M65.6967 69.1409C65.6954 64.656 69.3657 60.9858 73.8518 60.9858H81.6162C81.7306 60.9859 81.8403 61.0313 81.9212 61.1122C82.0021 61.1932 82.0476 61.3029 82.0476 61.4173L82.0466 64.6993C82.0466 64.8137 82.0011 64.9234 81.9202 65.0042C81.8394 65.0851 81.7296 65.1306 81.6153 65.1306H73.853C71.6459 65.1306 69.8414 66.9351 69.8414 69.1421C69.8402 71.3481 71.6459 73.1538 73.853 73.1538H81.6153C81.7296 73.1538 81.8394 73.1993 81.9202 73.2801C82.0011 73.361 82.0466 73.4707 82.0466 73.5851L82.0476 76.867C82.0475 76.9814 82.002 77.0911 81.9211 77.172C81.8402 77.2529 81.7305 77.2984 81.6161 77.2985L73.853 77.2973C69.3669 77.2973 65.6967 73.6271 65.6967 69.1409Z" fill="#FE646F"/>
<path fill-rule="evenodd" clip-rule="evenodd" d="M65.708 69.5714C65.7004 69.428 65.6966 69.2845 65.6967 69.1409C65.6954 64.656 69.3657 60.9858 73.8518 60.9858H81.6162C81.7306 60.9859 81.8403 61.0313 81.9212 61.1122C82.0021 61.1932 82.0476 61.3029 82.0476 61.4173L82.0473 62.2654C82.0435 62.1536 81.9964 62.0476 81.916 61.9698C81.8356 61.8921 81.7281 61.8486 81.6162 61.8486H73.8518C69.5107 61.8486 65.9337 65.2852 65.708 69.5714ZM69.8644 69.5744C70.0809 71.5791 71.792 73.1538 73.853 73.1538H81.6153C81.7296 73.1538 81.8394 73.1993 81.9202 73.2801C82.0011 73.361 82.0466 73.4707 82.0466 73.5851L82.0476 76.867L82.0473 76.8817L82.0466 74.4479C82.0466 74.3335 82.0011 74.2238 81.9202 74.1429C81.8394 74.062 81.7296 74.0166 81.6153 74.0166H73.853C71.6459 74.0166 69.8402 72.2108 69.8414 70.0049C69.8414 69.8595 69.8491 69.7159 69.8644 69.5744Z" fill="#FD4755"/>
<path fill-rule="evenodd" clip-rule="evenodd" d="M79.1719 77.2985L79.1707 73.1538H81.6152C81.7295 73.1538 81.8393 73.1993 81.9202 73.2801C82.001 73.361 82.0465 73.4707 82.0465 73.5851L82.0475 76.867C82.0475 76.9237 82.0364 76.9798 82.0147 77.0321C81.993 77.0845 81.9613 77.1321 81.9212 77.1721C81.8811 77.2122 81.8336 77.244 81.7812 77.2657C81.7289 77.2874 81.6728 77.2985 81.6161 77.2985H79.1719ZM79.1719 65.1293V60.9858H81.6162C81.7306 60.9858 81.8403 61.0313 81.9212 61.1122C82.0021 61.1931 82.0476 61.3028 82.0476 61.4172V64.698C82.0476 64.8124 82.0021 64.9221 81.9212 65.003C81.8403 65.0839 81.7306 65.1293 81.6162 65.1293H79.1719Z" fill="#ECEFF1"/>
<path fill-rule="evenodd" clip-rule="evenodd" d="M79.1719 61.8486V60.9858H81.6162C81.7306 60.9858 81.8403 61.0313 81.9212 61.1122C82.0021 61.1931 82.0476 61.3028 82.0476 61.4172V62.28C82.0476 62.1656 82.0021 62.0558 81.9212 61.9749C81.8403 61.894 81.7306 61.8486 81.6162 61.8486H79.1719ZM79.1709 74.0166L79.1707 73.1538H81.6152C81.7295 73.1538 81.8393 73.1993 81.9202 73.2801C82.001 73.361 82.0465 73.4707 82.0465 73.5851L82.0475 76.867C82.0475 76.8719 82.0474 76.8768 82.0472 76.8817L82.0465 74.4479C82.0465 74.3335 82.001 74.2238 81.9202 74.1429C81.8393 74.062 81.7295 74.0166 81.6152 74.0166H79.1709Z" fill="#D1D1D6"/>
<path fill-rule="evenodd" clip-rule="evenodd" d="M97.4834 78.938C102.879 78.938 107.28 74.5378 107.28 69.1427C107.28 63.7475 102.879 59.3462 97.4834 59.3462C92.0882 59.3462 87.6869 63.7475 87.6869 69.1427C87.6869 74.5378 92.0882 78.938 97.4834 78.938Z" fill="#837683"/>
<path fill-rule="evenodd" clip-rule="evenodd" d="M105.537 69.1427C105.537 71.1466 104.936 73.0094 103.904 74.5622C103.506 75.16 103.044 75.7125 102.526 76.2098C100.961 77.7115 98.8996 78.6985 96.6122 78.8998C96.899 78.9252 97.1895 78.938 97.4834 78.938C97.9589 78.938 98.4275 78.9045 98.8857 78.8385C98.9444 78.8302 99.003 78.8214 99.0615 78.8119C103.722 78.0575 107.28 74.0148 107.28 69.1427C107.28 63.7325 102.894 59.3462 97.4834 59.3462C97.1895 59.3462 96.899 59.359 96.6122 59.3844C101.615 59.8252 105.537 64.0252 105.537 69.1427Z" fill="#685E68"/>
<path fill-rule="evenodd" clip-rule="evenodd" d="M97.4834 70.0869C93.9545 70.0869 91.0492 72.7608 90.6813 76.1926C92.4434 77.8922 94.8407 78.9382 97.4834 78.9382C97.959 78.9382 98.4275 78.9046 98.8857 78.8386C100.968 78.5401 102.84 77.5855 104.284 76.1926C103.918 72.7597 101.012 70.0869 97.4834 70.0869Z" fill="#8AC9FE"/>
<path fill-rule="evenodd" clip-rule="evenodd" d="M96.6133 70.1425C100.685 70.6597 102.325 73.7408 102.703 77.4328C103.271 77.0751 103.801 76.6595 104.284 76.1926C103.918 72.7597 101.012 70.0869 97.4834 70.0869C97.1883 70.0869 96.8979 70.1055 96.6133 70.1425Z" fill="#60B7FF"/>
<path fill-rule="evenodd" clip-rule="evenodd" d="M97.4835 69.57C99.3891 69.57 100.943 68.0161 100.943 66.1117C100.943 64.2061 99.3891 62.6533 97.4835 62.6533C95.579 62.6533 94.0251 64.2061 94.0251 66.1117C94.0251 68.0161 95.579 69.57 97.4835 69.57Z" fill="#F6DCCD"/>
<path fill-rule="evenodd" clip-rule="evenodd" d="M100.072 66.1117C100.072 67.875 98.7527 69.3293 97.0483 69.5434C97.1907 69.5607 97.3365 69.57 97.4834 69.57C99.3936 69.57 100.942 68.0219 100.942 66.1117C100.942 64.2014 99.3936 62.6533 97.4834 62.6533C97.3365 62.6533 97.1907 62.6626 97.0483 62.68C98.7527 62.894 100.072 64.3484 100.072 66.1117Z" fill="#F1CBBC"/>
<path fill-rule="evenodd" clip-rule="evenodd" d="M76.4613 94.0454L77.1225 95.2135L77.1234 95.2153C77.6186 96.096 77.3047 97.22 76.4288 97.7147L74.2474 98.9511L74.2453 98.9523C73.3644 99.4474 72.2405 99.1336 71.7456 98.2574L65.3305 86.922C64.8308 86.0405 65.1448 84.9155 66.0217 84.4203L68.2057 83.1838L68.2062 83.1835C69.0828 82.6885 70.2071 82.9997 70.7062 83.8762L70.7072 83.8777L71.2525 84.8414L77.0376 81.492C78.734 80.511 80.4661 79.8652 82.3292 80.4702C84.1683 81.0665 87.171 82.3514 90.2352 82.9051C90.2657 82.9106 90.2957 82.9181 90.3251 82.9277C91.8272 83.414 92.7424 84.9315 92.3322 86.4568C92.2505 86.7609 92.1345 87.037 91.9865 87.2818C92.3935 87.1872 92.7897 87.03 93.1779 86.8037L100.956 82.2735C103.724 80.6609 105.568 80.8209 106.612 81.5216C107.5 82.1172 107.91 83.135 107.883 84.1333C107.856 85.141 107.379 86.105 106.589 86.5917L92.4741 95.2819C91.0094 96.1858 89.405 96.3977 87.7429 95.9543L87.7422 95.9541L77.7797 93.2841L76.4613 94.0454ZM75.9204 95.8921L69.5065 84.5589L69.5059 84.5578C69.3812 84.3409 69.1028 84.2625 68.8852 84.3854L66.7017 85.6215L66.7011 85.6219C66.484 85.7445 66.4078 86.0232 66.5314 86.2413L66.5317 86.2418L72.9469 97.5774L72.9472 97.578C73.0701 97.7956 73.3495 97.8719 73.5682 97.7493L75.7482 96.5138L75.7491 96.5133C75.9667 96.3903 76.0431 96.1109 75.9204 95.8921ZM75.7815 92.844L77.3371 91.9457C77.4156 91.9004 77.5023 91.871 77.5921 91.8591C77.682 91.8473 77.7733 91.8533 77.8609 91.8768L88.0989 94.6206C89.3809 94.9626 90.6193 94.8045 91.7491 94.1072L91.7497 94.1068L105.865 85.4163C106.251 85.1782 106.456 84.7018 106.497 84.2118C106.559 83.4591 106.203 82.6301 105.272 82.4351C104.435 82.2597 103.255 82.5319 101.651 83.4662L93.8729 87.9964C92.6427 88.7133 91.3534 88.9109 89.9483 88.6872L89.9459 88.6869L88.9805 88.5298C88.9709 88.5282 88.9613 88.5264 88.9517 88.5244C87.1979 88.1644 85.5713 87.6345 83.7664 87.1494C83.3985 87.0505 83.18 86.6716 83.2789 86.3037C83.3778 85.9358 83.7567 85.7175 84.1246 85.8163C85.8921 86.2913 87.4853 86.8121 89.2014 87.1665C90.1195 87.2696 90.7882 86.8843 90.999 86.0987L90.9991 86.0984C91.2135 85.3013 90.7159 84.5263 89.9399 84.2544C86.8241 83.6835 83.7737 82.3897 81.9033 81.7832L81.903 81.7831C80.4265 81.3037 79.0731 81.9094 77.7289 82.6869L71.9324 86.0428L75.7815 92.844ZM68.616 85.7922C69.1111 85.7185 69.5708 86.0603 69.6445 86.5554C69.7153 87.0506 69.3735 87.5133 68.8783 87.584C68.3832 87.6577 67.9234 87.3129 67.8498 86.8177C67.779 86.3227 68.1209 85.8629 68.616 85.7922ZM79.2332 77.9738L73.9387 77.973C69.073 77.973 65.0922 73.9923 65.0922 69.1266C65.091 64.262 69.0717 60.2812 73.9375 60.2812H82.1334C82.324 60.2812 82.4966 60.3585 82.6215 60.4834C82.6857 60.5474 82.7365 60.6235 82.7712 60.7072C82.8059 60.7909 82.8237 60.8807 82.8236 60.9713V65.1149C82.8237 65.2057 82.8058 65.2956 82.771 65.3794C82.7362 65.4633 82.6852 65.5395 82.6208 65.6035C82.5568 65.6679 82.4806 65.7189 82.3967 65.7537C82.3129 65.7885 82.223 65.8064 82.1322 65.8063H73.9387C72.1113 65.8063 70.6173 67.3003 70.6173 69.1277V69.1281C70.6162 70.9544 72.1114 72.4491 73.9387 72.4491H82.1322C82.3152 72.4491 82.4907 72.5218 82.6201 72.6512C82.7496 72.7806 82.8223 72.9561 82.8224 73.1392L82.8236 77.2839C82.8236 77.3745 82.8057 77.4643 82.7711 77.5481C82.7364 77.6318 82.6856 77.7079 82.6215 77.772C82.5574 77.8361 82.4813 77.887 82.3975 77.9217C82.3138 77.9564 82.224 77.9742 82.1334 77.9742H79.2577C79.2495 77.9742 79.2414 77.9741 79.2332 77.9738ZM78.5675 61.6615H73.9375C69.8311 61.6615 66.4714 65.021 66.4726 69.1264V69.1265C66.4726 73.233 69.8322 76.5926 73.9388 76.5926L78.5672 76.5933L78.5664 73.8295H73.9387C71.3518 73.8295 69.2355 71.713 69.2369 69.1275C69.237 66.5407 71.3519 64.4259 73.9387 64.4259H78.5675V61.6615ZM81.443 61.6615H79.9479V64.4247H81.4422L81.443 61.6615ZM81.443 76.5938L81.4422 73.8295H79.9468L79.9476 76.5936L81.443 76.5938ZM87.284 68.3342L84.5126 68.3194C84.3296 68.3184 84.1545 68.2447 84.0258 68.1146C83.8971 67.9845 83.8253 67.8086 83.8262 67.6256C83.8272 67.4426 83.9009 67.2675 84.031 67.1388C84.1611 67.01 84.337 66.9382 84.52 66.9391L87.4832 66.9548C87.5684 66.557 87.6773 66.1646 87.8093 65.7798H85.1004C84.7195 65.7798 84.4102 65.4705 84.4102 65.0896C84.4102 64.7087 84.7195 64.3994 85.1004 64.3994H88.3989C88.6062 63.998 88.8397 63.6107 89.0979 63.24H84.5163C84.1354 63.24 83.8261 62.9308 83.8261 62.5498C83.8261 62.1689 84.1354 61.8596 84.5163 61.8596H90.249C92.1177 59.9777 94.7072 58.8125 97.5692 58.8125C103.267 58.8125 107.884 63.4302 107.884 69.1277C107.884 74.8252 103.267 79.4429 97.5692 79.4429C94.7072 79.4429 92.1177 78.2777 90.249 76.3958H85.1004C84.7195 76.3958 84.4102 76.0865 84.4102 75.7056C84.4102 75.3247 84.7195 75.0154 85.1004 75.0154H89.0979C88.8397 74.6447 88.6062 74.2574 88.3989 73.856H84.5163C84.1354 73.856 83.8261 73.5468 83.8261 73.1658C83.8261 72.7849 84.1354 72.4756 84.5163 72.4756H87.8093C87.6538 72.0222 87.5304 71.5584 87.4399 71.0877H85.1004C84.7195 71.0877 84.4102 70.7785 84.4102 70.3975C84.4102 70.0166 84.7195 69.7073 85.1004 69.7073H87.27C87.2447 69.2498 87.2494 68.7911 87.284 68.3342ZM91.62 75.7944C93.1998 77.2051 95.2843 78.0625 97.5692 78.0625C99.8541 78.0625 101.938 77.2051 103.518 75.7944C103.049 72.9318 100.563 70.7471 97.5692 70.7471C94.5751 70.7471 92.0895 72.9318 91.62 75.7944ZM104.647 74.5815C105.811 73.0727 106.504 71.1812 106.504 69.1277C106.504 64.1927 102.504 60.1929 97.5692 60.1929C92.6341 60.1929 88.6344 64.1927 88.6344 69.1277C88.6344 71.1812 89.3269 73.0727 90.4911 74.5815C91.1724 72.3839 92.8485 70.6235 94.9923 69.8275C94.0707 69.0761 93.4798 67.9328 93.4798 66.6578C93.4798 64.4079 95.3193 62.5685 97.5692 62.5685C99.819 62.5685 101.659 64.4079 101.659 66.6578C101.659 67.9328 101.068 69.0761 100.146 69.8275C102.29 70.6235 103.966 72.3839 104.647 74.5815ZM97.5692 69.3667C99.0596 69.3667 100.278 68.1481 100.278 66.6578C100.278 65.1674 99.0596 63.9489 97.5692 63.9489C96.0788 63.9489 94.8602 65.1674 94.8602 66.6578C94.8602 68.1481 96.0788 69.3667 97.5692 69.3667Z" fill="black"/>
<path d="M32 38C32 29.1634 39.1634 22 48 22H266C274.837 22 282 29.1634 282 38V115C282 123.837 274.837 131 266 131H48C39.1634 131 32 123.837 32 115V38Z" fill="#9585F3" fill-opacity="0.05"/>
<defs>
<filter id="filter0_d_631_1887" x="0.850643" y="0.253488" width="309.465" height="168.598" filterUnits="userSpaceOnUse" color-interpolation-filters="sRGB">
<feFlood flood-opacity="0" result="BackgroundImageFix"/>
<feColorMatrix in="SourceAlpha" type="matrix" values="0 0 0 0 0 0 0 0 0 0 0 0 0 0 0 0 0 0 127 0" result="hardAlpha"/>
<feMorphology radius="2.21839" operator="erode" in="SourceAlpha" result="effect1_dropShadow_631_1887"/>
<feOffset dy="8.87355"/>
<feGaussianBlur stdDeviation="22.1839"/>
<feColorMatrix type="matrix" values="0 0 0 0 0.0235294 0 0 0 0 0.0470588 0 0 0 0 0.231373 0 0 0 0.08 0"/>
<feBlend mode="normal" in2="BackgroundImageFix" result="effect1_dropShadow_631_1887"/>
<feBlend mode="normal" in="SourceGraphic" in2="effect1_dropShadow_631_1887" result="shape"/>
</filter>
</defs>
</svg>
