<svg width="274" height="173" viewBox="0 0 274 173" fill="none" xmlns="http://www.w3.org/2000/svg">
<g filter="url(#filter0_d_631_1894)">
<rect x="32.5156" y="25.418" width="209.061" height="108.752" rx="5.05792" fill="white"/>
</g>
<g clip-path="url(#clip0_631_1894)">
<path fill-rule="evenodd" clip-rule="evenodd" d="M60.1483 53.252H62.6059C63.2488 53.252 63.7732 53.7763 63.7732 54.4193V70.4204C63.7732 71.0633 63.2488 71.5877 62.6059 71.5877H60.1483C59.5053 71.5877 58.981 71.0633 58.981 70.4204V54.4193C58.981 53.7763 59.5053 53.252 60.1483 53.252Z" fill="#FFE177"/>
<path fill-rule="evenodd" clip-rule="evenodd" d="M69.0465 56.5205H71.5041C72.147 56.5205 72.6714 57.0449 72.6714 57.6878V70.4206C72.6714 71.0636 72.147 71.588 71.5041 71.588H69.0465C68.4035 71.588 67.8792 71.0636 67.8792 70.4206V57.6878C67.8792 57.0449 68.4036 56.5205 69.0465 56.5205Z" fill="#6CF5C2"/>
<path fill-rule="evenodd" clip-rule="evenodd" d="M77.9449 48.2412H80.4025C81.0455 48.2412 81.5698 48.7656 81.5698 49.4085V70.4202C81.5698 71.0632 81.0455 71.5875 80.4025 71.5875H77.9449C77.3019 71.5875 76.7776 71.0632 76.7776 70.4202V49.4085C76.7776 48.7656 77.3019 48.2412 77.9449 48.2412Z" fill="#8AC9FE"/>
<path fill-rule="evenodd" clip-rule="evenodd" d="M51.2498 62.0024H53.7074C54.3504 62.0024 54.8748 62.5268 54.8748 63.1698V70.4204C54.8748 71.0634 54.3504 71.5877 53.7074 71.5877H51.2498C50.6069 71.5877 50.0825 71.0634 50.0825 70.4204V63.1698C50.0825 62.5268 50.6069 62.0024 51.2498 62.0024Z" fill="#FE646F"/>
<path fill-rule="evenodd" clip-rule="evenodd" d="M79.0399 60.1633C80.0747 60.3669 81.0585 60.7747 81.9338 61.3629L83.4771 60.6775L84.8057 62.0061L84.1205 63.5489C84.709 64.4244 85.1169 65.4085 85.3204 66.4435L86.8948 67.0495V68.9284L85.32 69.5346C85.1164 70.5694 84.7086 71.5532 84.1203 72.4285L84.8057 73.9718L83.4772 75.3004L81.9344 74.6152C81.0589 75.2037 80.0748 75.6116 79.0398 75.8151L78.4338 77.3895H76.5549L75.9487 75.8147C74.9139 75.6112 73.9301 75.2033 73.0548 74.615L71.5114 75.3004L70.1829 73.9718L70.8681 72.429C70.2797 71.5535 69.8717 70.5694 69.6682 69.5344L68.0938 68.9284V67.0495L69.6685 66.4433C69.8719 65.4084 70.2798 64.4245 70.8682 63.5492L70.1829 62.006L71.5114 60.6774L73.0548 61.3628C73.9301 60.7745 74.9139 60.3667 75.9488 60.1632L76.555 58.5884H78.4338L79.0399 60.1633ZM77.4943 64.0274C75.3063 64.0274 73.5326 65.801 73.5326 67.989C73.5326 70.177 75.3063 71.9506 77.4943 71.9506C79.6823 71.9506 81.4559 70.177 81.4559 67.989C81.4559 65.801 79.6823 64.0274 77.4943 64.0274Z" fill="#ECEFF1"/>
<path fill-rule="evenodd" clip-rule="evenodd" d="M77.4947 71.3736C75.6354 71.3736 74.1263 69.8627 74.1263 68.0059C74.1263 66.1487 75.6354 64.6377 77.4947 64.6377C79.3505 64.6377 80.8631 66.1486 80.8631 68.0059C80.8631 69.8627 79.3505 71.3736 77.4947 71.3736ZM77.4947 63.4501C74.9806 63.4501 72.9393 65.4935 72.9393 68.0059C72.9393 70.5171 74.9807 72.5613 77.4947 72.5613C80.0053 72.5613 82.0502 70.517 82.0502 68.0059C82.0501 65.4936 80.0052 63.4501 77.4947 63.4501ZM86.3009 68.5371V67.4737L85.1069 67.0143C85.0134 66.9776 84.9305 66.9183 84.8657 66.8415C84.8009 66.7648 84.7562 66.6732 84.7357 66.5748C84.5466 65.613 84.1755 64.7121 83.6258 63.8962C83.5137 63.7271 83.4927 63.511 83.5767 63.3248L84.0984 62.1542L83.3456 61.4025L82.1726 61.9221C82.081 61.9629 81.9806 61.9797 81.8808 61.971C81.7809 61.9623 81.6849 61.9284 81.6018 61.8723C80.786 61.3247 79.8861 60.9511 78.9232 60.7627C78.825 60.7432 78.7333 60.699 78.6567 60.6344C78.5802 60.5698 78.5213 60.4869 78.4855 60.3933L78.0234 59.199H76.9624L76.5002 60.3933C76.4302 60.5838 76.2621 60.7235 76.0625 60.7627C75.1045 60.9502 74.1938 61.3275 73.3839 61.8723C73.3008 61.9283 73.2048 61.9623 73.1049 61.971C73.0051 61.9797 72.9047 61.9629 72.8131 61.9221L71.6437 61.4025L70.8909 62.1542L71.4091 63.3248C71.4932 63.5118 71.4721 63.7278 71.3601 63.897C70.8138 64.7128 70.4392 65.6137 70.2501 66.5749C70.2309 66.6732 70.1871 66.765 70.1228 66.8419C70.0585 66.9187 69.9759 66.978 69.8825 67.0144L68.6885 67.4738V68.5372L69.8825 68.9973C69.976 69.0334 70.0588 69.0926 70.1231 69.1695C70.1874 69.2464 70.2311 69.3383 70.2501 69.4367C70.4392 70.3986 70.8139 71.2988 71.3601 72.1147C71.4721 72.2845 71.4932 72.5005 71.4091 72.6868L70.8909 73.8574L71.6437 74.6092L72.8131 74.0888C72.9047 74.0483 73.0051 74.0315 73.1049 74.0402C73.2047 74.0489 73.3007 74.0828 73.3839 74.1385C74.1935 74.6841 75.1044 75.0616 76.0625 75.2489C76.2621 75.288 76.4302 75.4278 76.5002 75.6186L76.9624 76.8126H78.0234L78.4855 75.6186C78.5591 75.4278 78.7236 75.2881 78.9232 75.2495C79.8861 75.0604 80.786 74.6872 81.6018 74.1395C81.6856 74.0834 81.7821 74.0494 81.8825 74.0407C81.9829 74.0319 82.0839 74.0487 82.176 74.0894L83.3455 74.609L84.0983 73.8573L83.5766 72.686C83.4926 72.4997 83.5136 72.2837 83.6257 72.1146C84.1754 71.298 84.5466 70.3971 84.7356 69.4366C84.7776 69.2363 84.9142 69.0711 85.1068 68.9972L86.3009 68.5371ZM68.4713 71.0525V69.7276L69.1541 69.9905C69.2407 70.3513 69.3506 70.706 69.4832 71.0525H68.4713ZM72.0778 57.1723V60.2959L71.7522 60.1514C71.528 60.0519 71.2654 60.1009 71.0904 60.2743L69.7633 61.6027C69.6781 61.6873 69.6205 61.7956 69.598 61.9135C69.5755 62.0314 69.5892 62.1534 69.6372 62.2634L70.194 63.5141C69.7143 64.2925 69.3641 65.1328 69.154 66.0212L68.4712 66.2838V57.1723H72.0778ZM80.9751 48.893V60.1748C80.4927 59.9589 79.9909 59.789 79.4765 59.6675L78.9863 58.3915C78.9433 58.2797 78.8674 58.1835 78.7686 58.1157C78.6698 58.0479 78.5529 58.0116 78.433 58.0116H77.3721V48.893H80.9751ZM87.1062 66.5118L85.8317 66.0212C85.6216 65.1329 85.2714 64.2919 84.7917 63.5135L85.3485 62.2634C85.3962 62.1536 85.4101 62.032 85.3883 61.9143C85.3664 61.7966 85.3099 61.6881 85.2259 61.6027L83.8953 60.2743C83.7237 60.1009 83.4611 60.0519 83.2335 60.1514L82.1621 60.6275V48.2992C82.1621 47.9711 81.8959 47.7058 81.5703 47.7058H76.7768C76.4476 47.7058 76.1815 47.9712 76.1815 48.2992V58.1436C76.1045 58.2073 76.038 58.292 75.9995 58.3915L75.5093 59.6675C74.7229 59.854 73.9671 60.1518 73.2648 60.5519V56.5784C73.2648 56.2503 72.9988 55.9846 72.6696 55.9846H67.8796C67.5504 55.9846 67.2844 56.2503 67.2844 56.5784V71.6464C67.2844 71.9741 67.5505 72.2399 67.8796 72.2399H70.0435C70.0926 72.326 70.1416 72.4128 70.1941 72.4976L69.6374 73.7473C69.5893 73.8574 69.5756 73.9795 69.5981 74.0975C69.6206 74.2155 69.6782 74.324 69.7635 74.4087L71.0905 75.7371C71.2656 75.9108 71.5282 75.9599 71.7523 75.8597L73.0024 75.3044C73.7764 75.784 74.6231 76.1349 75.5094 76.3436L75.9996 77.6192C76.0425 77.7312 76.1183 77.8276 76.2171 77.8956C76.3159 77.9636 76.4329 78.0001 76.5529 78.0001H78.4331C78.5531 78.0001 78.6701 77.9636 78.7689 77.8956C78.8677 77.8276 78.9435 77.7312 78.9863 77.6192L79.4766 76.3443C80.3659 76.1341 81.2063 75.7855 81.9871 75.3043L83.2336 75.8596C83.4612 75.9597 83.7238 75.9107 83.8954 75.7371L85.226 74.4086C85.3101 74.3232 85.3666 74.2145 85.3885 74.0967C85.4103 73.9788 85.3964 73.8571 85.3485 73.7472L84.7918 72.4975C85.2715 71.7188 85.6217 70.878 85.8318 69.9905L87.1063 69.4992C87.2186 69.4565 87.3153 69.3807 87.3835 69.2817C87.4517 69.1828 87.4881 69.0655 87.488 68.9453V67.0661C87.4881 66.9459 87.4516 66.8285 87.3834 66.7295C87.3153 66.6305 87.2186 66.5546 87.1062 66.5118ZM51.9758 54.6484C52.0319 54.7121 52.1008 54.7631 52.1781 54.7981C52.2554 54.8331 52.3392 54.8512 52.4241 54.8512C52.5641 54.8512 52.7007 54.8029 52.8162 54.7041L61.9166 46.7309L69.6444 49.6553C69.7429 49.6924 69.8495 49.7028 69.9534 49.6856C70.0572 49.6684 70.1548 49.6241 70.2361 49.5573L79.1754 42.1376L78.7938 44.0011C78.7307 44.3226 78.9373 44.6367 79.2595 44.7018C79.298 44.7099 79.3365 44.7137 79.3785 44.7137C79.6516 44.7137 79.9003 44.5201 79.9598 44.2389L80.6776 40.7224C80.6948 40.6361 80.6927 40.5472 80.6715 40.4618C80.6503 40.3765 80.6106 40.2969 80.5551 40.2287C80.4998 40.1604 80.4299 40.1053 80.3505 40.0674C80.2712 40.0295 80.1844 40.0098 80.0964 40.0098L76.5074 40H76.504C76.1783 40 75.9122 40.265 75.9122 40.5925C75.9122 40.9206 76.1748 41.1871 76.504 41.1877L78.4543 41.193L69.7426 48.4225L62.0041 45.4945C61.8011 45.4164 61.57 45.4588 61.4054 45.6027L52.0319 53.8109C51.7867 54.0276 51.7622 54.4023 51.9758 54.6484ZM63.1771 71.0525H59.5741V53.9044H63.1771V71.0525ZM63.7723 52.7166C64.1015 52.7166 64.3641 52.9824 64.3641 53.3105V71.6464C64.3641 71.9741 64.1015 72.2399 63.7723 72.2399H58.9788C58.6532 72.2399 58.387 71.9741 58.387 71.6464V53.3105C58.387 52.9824 58.6532 52.7167 58.9788 52.7167L63.7723 52.7166ZM54.2798 71.0525H50.6768V62.6546H54.2798V71.0525ZM54.8751 61.4673H50.0816C49.7525 61.4673 49.4863 61.733 49.4863 62.0608V71.6464C49.4863 71.9734 49.7525 72.24 50.0816 72.24H54.8751C55.2007 72.24 55.4669 71.9735 55.4669 71.6464V62.0607C55.4668 61.733 55.2007 61.4673 54.8751 61.4673Z" fill="black"/>
</g>
<line x1="49.3755" y1="86.9017" x2="217.973" y2="86.9017" stroke="#B4B6C4" stroke-width="0.842987"/>
<path d="M100.292 54.9645V66H97.9591V54.9645H100.292ZM104.464 61.2151V66H102.169V57.7234H104.357V59.1837H104.454C104.637 58.7023 104.944 58.3215 105.375 58.0413C105.806 57.7575 106.329 57.6156 106.943 57.6156C107.518 57.6156 108.019 57.7414 108.446 57.9928C108.874 58.2443 109.206 58.6035 109.443 59.0705C109.68 59.5339 109.799 60.0871 109.799 60.7301V66H107.503V61.1397C107.507 60.6331 107.378 60.238 107.115 59.9542C106.853 59.6668 106.492 59.5231 106.032 59.5231C105.723 59.5231 105.45 59.5896 105.213 59.7225C104.98 59.8554 104.797 60.0494 104.664 60.3044C104.534 60.5559 104.468 60.8595 104.464 61.2151ZM115.163 66V54.9645H119.517C120.354 54.9645 121.067 55.1244 121.656 55.4441C122.245 55.7602 122.694 56.2003 123.003 56.7643C123.316 57.3247 123.472 57.9713 123.472 58.7041C123.472 59.4369 123.314 60.0835 122.998 60.6439C122.682 61.2043 122.224 61.6408 121.624 61.9533C121.027 62.2658 120.305 62.4221 119.458 62.4221H116.683V60.5523H119.08C119.529 60.5523 119.899 60.4751 120.19 60.3206C120.485 60.1626 120.704 59.9452 120.848 59.6686C120.995 59.3884 121.069 59.0669 121.069 58.7041C121.069 58.3377 120.995 58.018 120.848 57.745C120.704 57.4683 120.485 57.2546 120.19 57.1037C119.896 56.9493 119.522 56.872 119.07 56.872H117.496V66H115.163ZM124.944 66V57.7234H127.17V59.1675H127.256C127.407 58.6538 127.66 58.2658 128.016 58.0036C128.371 57.7378 128.781 57.6049 129.244 57.6049C129.359 57.6049 129.483 57.612 129.616 57.6264C129.749 57.6408 129.866 57.6605 129.966 57.6857V59.7225C129.859 59.6902 129.709 59.6614 129.519 59.6363C129.329 59.6111 129.154 59.5986 128.996 59.5986C128.659 59.5986 128.357 59.6722 128.091 59.8195C127.829 59.9632 127.621 60.1644 127.466 60.423C127.315 60.6816 127.24 60.9798 127.24 61.3175V66H124.944ZM134.507 66.1617C133.67 66.1617 132.947 65.9838 132.336 65.6282C131.729 65.269 131.26 64.7696 130.929 64.1302C130.599 63.4872 130.434 62.7418 130.434 61.894C130.434 61.0391 130.599 60.2919 130.929 59.6525C131.26 59.0094 131.729 58.5101 132.336 58.1545C132.947 57.7952 133.67 57.6156 134.507 57.6156C135.344 57.6156 136.066 57.7952 136.674 58.1545C137.284 58.5101 137.755 59.0094 138.085 59.6525C138.416 60.2919 138.581 61.0391 138.581 61.894C138.581 62.7418 138.416 63.4872 138.085 64.1302C137.755 64.7696 137.284 65.269 136.674 65.6282C136.066 65.9838 135.344 66.1617 134.507 66.1617ZM134.518 64.3835C134.899 64.3835 135.217 64.2757 135.472 64.0602C135.727 63.841 135.919 63.5429 136.048 63.1657C136.181 62.7885 136.248 62.3592 136.248 61.8779C136.248 61.3965 136.181 60.9672 136.048 60.59C135.919 60.2128 135.727 59.9147 135.472 59.6956C135.217 59.4764 134.899 59.3669 134.518 59.3669C134.134 59.3669 133.81 59.4764 133.548 59.6956C133.29 59.9147 133.094 60.2128 132.961 60.59C132.832 60.9672 132.767 61.3965 132.767 61.8779C132.767 62.3592 132.832 62.7885 132.961 63.1657C133.094 63.5429 133.29 63.841 133.548 64.0602C133.81 64.2757 134.134 64.3835 134.518 64.3835ZM143.802 69.2762C143.059 69.2762 142.421 69.1738 141.89 68.969C141.361 68.7678 140.941 68.493 140.629 68.1446C140.316 67.7961 140.113 67.4046 140.02 66.9699L142.143 66.6843C142.207 66.8496 142.31 67.004 142.45 67.1477C142.59 67.2914 142.775 67.4064 143.005 67.4926C143.238 67.5824 143.522 67.6273 143.856 67.6273C144.356 67.6273 144.767 67.5052 145.09 67.2609C145.417 67.0202 145.581 66.6161 145.581 66.0485V64.5344H145.484C145.383 64.7643 145.232 64.9816 145.031 65.1863C144.83 65.3911 144.571 65.5582 144.255 65.6875C143.939 65.8168 143.562 65.8815 143.123 65.8815C142.502 65.8815 141.936 65.7378 141.426 65.4504C140.92 65.1594 140.515 64.7158 140.214 64.1194C139.916 63.5195 139.766 62.7616 139.766 61.8455C139.766 60.908 139.919 60.1248 140.224 59.4962C140.53 58.8675 140.936 58.397 141.442 58.0844C141.952 57.7719 142.511 57.6156 143.118 57.6156C143.581 57.6156 143.969 57.6947 144.282 57.8527C144.594 58.0072 144.846 58.2012 145.036 58.4347C145.23 58.6646 145.379 58.8909 145.484 59.1136H145.57V57.7234H147.849V66.0808C147.849 66.7849 147.677 67.374 147.332 67.8482C146.987 68.3224 146.509 68.678 145.898 68.9151C145.291 69.1558 144.593 69.2762 143.802 69.2762ZM143.851 64.1572C144.221 64.1572 144.533 64.0656 144.788 63.8824C145.047 63.6956 145.245 63.4297 145.381 63.0849C145.521 62.7364 145.591 62.3197 145.591 61.8348C145.591 61.3498 145.523 60.9295 145.387 60.5739C145.25 60.2146 145.053 59.9362 144.794 59.7387C144.535 59.5411 144.221 59.4423 143.851 59.4423C143.474 59.4423 143.156 59.5447 142.897 59.7494C142.638 59.9506 142.443 60.2308 142.31 60.59C142.177 60.9493 142.11 61.3642 142.11 61.8348C142.11 62.3125 142.177 62.7256 142.31 63.0741C142.446 63.419 142.642 63.6866 142.897 63.877C143.156 64.0638 143.474 64.1572 143.851 64.1572ZM149.676 66V57.7234H151.901V59.1675H151.987C152.138 58.6538 152.392 58.2658 152.747 58.0036C153.103 57.7378 153.512 57.6049 153.976 57.6049C154.091 57.6049 154.215 57.612 154.348 57.6264C154.48 57.6408 154.597 57.6605 154.698 57.6857V59.7225C154.59 59.6902 154.441 59.6614 154.251 59.6363C154.06 59.6111 153.886 59.5986 153.728 59.5986C153.39 59.5986 153.088 59.6722 152.823 59.8195C152.56 59.9632 152.352 60.1644 152.198 60.423C152.047 60.6816 151.971 60.9798 151.971 61.3175V66H149.676ZM159.271 66.1617C158.42 66.1617 157.687 65.9892 157.073 65.6444C156.462 65.2959 155.991 64.8038 155.661 64.1679C155.33 63.5285 155.165 62.7723 155.165 61.8994C155.165 61.048 155.33 60.3009 155.661 59.6578C155.991 59.0148 156.457 58.5137 157.057 58.1545C157.66 57.7952 158.368 57.6156 159.18 57.6156C159.726 57.6156 160.234 57.7036 160.704 57.8797C161.179 58.0521 161.592 58.3125 161.944 58.661C162.299 59.0094 162.576 59.4477 162.774 59.9758C162.971 60.5002 163.07 61.1145 163.07 61.8186V62.449H156.081V61.0265H160.909C160.909 60.696 160.837 60.4032 160.694 60.1482C160.55 59.8931 160.351 59.6938 160.096 59.5501C159.844 59.4028 159.551 59.3291 159.217 59.3291C158.869 59.3291 158.56 59.41 158.29 59.5716C158.025 59.7297 157.816 59.9434 157.665 60.2128C157.515 60.4787 157.437 60.775 157.434 61.1019V62.4544C157.434 62.8639 157.509 63.2178 157.66 63.5159C157.815 63.8141 158.032 64.044 158.312 64.2057C158.592 64.3673 158.925 64.4481 159.309 64.4481C159.564 64.4481 159.797 64.4122 160.009 64.3404C160.221 64.2685 160.403 64.1608 160.554 64.0171C160.704 63.8734 160.819 63.6974 160.898 63.489L163.022 63.6291C162.914 64.1392 162.693 64.5846 162.359 64.9654C162.028 65.3426 161.601 65.6372 161.076 65.8491C160.555 66.0575 159.954 66.1617 159.271 66.1617ZM171.454 60.0835L169.353 60.2128C169.317 60.0332 169.24 59.8716 169.121 59.7279C169.003 59.5806 168.846 59.4639 168.652 59.3776C168.462 59.2878 168.234 59.2429 167.968 59.2429C167.612 59.2429 167.312 59.3184 167.068 59.4692C166.824 59.6165 166.702 59.8141 166.702 60.062C166.702 60.2595 166.781 60.4266 166.939 60.5631C167.097 60.6996 167.368 60.8092 167.753 60.8918L169.251 61.1935C170.055 61.3588 170.655 61.6246 171.05 61.991C171.445 62.3574 171.643 62.8388 171.643 63.4351C171.643 63.9775 171.483 64.4535 171.163 64.863C170.847 65.2726 170.413 65.5923 169.859 65.8222C169.31 66.0485 168.676 66.1617 167.957 66.1617C166.862 66.1617 165.989 65.9335 165.339 65.4773C164.692 65.0175 164.313 64.3925 164.202 63.6022L166.459 63.4836C166.528 63.8177 166.693 64.0727 166.955 64.2488C167.217 64.4212 167.553 64.5074 167.963 64.5074C168.365 64.5074 168.688 64.4302 168.933 64.2757C169.18 64.1176 169.306 63.9147 169.31 63.6668C169.306 63.4585 169.218 63.2878 169.046 63.1549C168.873 63.0184 168.608 62.9142 168.248 62.8424L166.815 62.5568C166.007 62.3952 165.405 62.115 165.01 61.7162C164.618 61.3175 164.423 60.8092 164.423 60.1913C164.423 59.6596 164.566 59.2016 164.854 58.8172C165.145 58.4329 165.552 58.1365 166.077 57.9282C166.605 57.7198 167.223 57.6156 167.93 57.6156C168.976 57.6156 169.798 57.8366 170.398 58.2784C171.002 58.7203 171.354 59.322 171.454 60.0835ZM179.975 60.0835L177.873 60.2128C177.837 60.0332 177.76 59.8716 177.642 59.7279C177.523 59.5806 177.367 59.4639 177.173 59.3776C176.982 59.2878 176.754 59.2429 176.489 59.2429C176.133 59.2429 175.833 59.3184 175.589 59.4692C175.344 59.6165 175.222 59.8141 175.222 60.062C175.222 60.2595 175.301 60.4266 175.459 60.5631C175.617 60.6996 175.889 60.8092 176.273 60.8918L177.771 61.1935C178.576 61.3588 179.176 61.6246 179.571 61.991C179.966 62.3574 180.163 62.8388 180.163 63.4351C180.163 63.9775 180.004 64.4535 179.684 64.863C179.368 65.2726 178.933 65.5923 178.38 65.8222C177.83 66.0485 177.196 66.1617 176.478 66.1617C175.382 66.1617 174.509 65.9335 173.859 65.4773C173.212 65.0175 172.833 64.3925 172.722 63.6022L174.98 63.4836C175.048 63.8177 175.213 64.0727 175.475 64.2488C175.738 64.4212 176.074 64.5074 176.483 64.5074C176.885 64.5074 177.209 64.4302 177.453 64.2757C177.701 64.1176 177.827 63.9147 177.83 63.6668C177.827 63.4585 177.739 63.2878 177.566 63.1549C177.394 63.0184 177.128 62.9142 176.769 62.8424L175.335 62.5568C174.527 62.3952 173.925 62.115 173.53 61.7162C173.139 61.3175 172.943 60.8092 172.943 60.1913C172.943 59.6596 173.087 59.2016 173.374 58.8172C173.665 58.4329 174.073 58.1365 174.597 57.9282C175.125 57.7198 175.743 57.6156 176.451 57.6156C177.496 57.6156 178.319 57.8366 178.919 58.2784C179.522 58.7203 179.874 59.322 179.975 60.0835Z" fill="#060C3C"/>
<rect x="49.3755" y="100.708" width="72.4969" height="5.01931" rx="2.50966" fill="#FFA412"/>
<rect x="49.3755" y="112.42" width="72.4969" height="5.01931" rx="2.50965" fill="#298BD0"/>
<rect x="180.881" y="112.42" width="43.8353" height="5.01931" rx="2.50965" fill="#48E070"/>
<rect x="20" y="12" width="234" height="134" rx="12" fill="#9585F3" fill-opacity="0.05"/>
<defs>
<filter id="filter0_d_631_1894" x="0.482113" y="0.128354" width="273.128" height="172.819" filterUnits="userSpaceOnUse" color-interpolation-filters="sRGB">
<feFlood flood-opacity="0" result="BackgroundImageFix"/>
<feColorMatrix in="SourceAlpha" type="matrix" values="0 0 0 0 0 0 0 0 0 0 0 0 0 0 0 0 0 0 127 0" result="hardAlpha"/>
<feMorphology radius="1.68597" operator="erode" in="SourceAlpha" result="effect1_dropShadow_631_1894"/>
<feOffset dy="6.7439"/>
<feGaussianBlur stdDeviation="16.8597"/>
<feColorMatrix type="matrix" values="0 0 0 0 0.0235294 0 0 0 0 0.0470588 0 0 0 0 0.231373 0 0 0 0.08 0"/>
<feBlend mode="normal" in2="BackgroundImageFix" result="effect1_dropShadow_631_1894"/>
<feBlend mode="normal" in="SourceGraphic" in2="effect1_dropShadow_631_1894" result="shape"/>
</filter>
<clipPath id="clip0_631_1894">
<rect width="38" height="38" fill="white" transform="translate(49.4883 40)"/>
</clipPath>
</defs>
</svg>
