<svg width="359" height="263" viewBox="0 0 359 263" fill="none" xmlns="http://www.w3.org/2000/svg">
<path d="M79.7013 237.108L77.7867 229.963C77.3771 228.434 78.2874 226.858 79.8159 226.448L86.9613 224.533C88.4898 224.124 89.4001 222.547 88.9905 221.019C88.581 219.49 87.0043 218.58 85.4758 218.989L78.3304 220.904C76.8019 221.314 75.2252 220.403 74.8157 218.875L72.9011 211.729C72.4915 210.201 70.9148 209.291 69.3863 209.7C67.8577 210.11 66.9475 211.686 67.357 213.215L69.2716 220.36C69.6812 221.889 68.7709 223.465 67.2424 223.875L60.097 225.79C58.5685 226.199 57.6582 227.776 58.0678 229.304C58.4773 230.833 60.054 231.743 61.5825 231.334L68.7279 229.419C70.2565 229.009 71.8331 229.92 72.2427 231.448L74.1572 238.594C74.5668 240.122 76.1435 241.032 77.672 240.623C79.2006 240.213 80.1108 238.637 79.7013 237.108Z" fill="#FFDC60"/>
<g opacity="0.2">
<path d="M201.655 106.181C201.468 107.184 200.509 107.841 199.506 107.655C198.502 107.468 197.845 106.509 198.032 105.506C198.218 104.502 199.177 103.845 200.181 104.032C201.184 104.218 201.841 105.177 201.655 106.181Z" fill="#715DE3"/>
<path d="M215.926 106.181C215.74 107.184 214.781 107.841 213.777 107.655C212.774 107.468 212.116 106.509 212.303 105.506C212.489 104.502 213.448 103.845 214.452 104.032C215.447 104.218 216.104 105.177 215.926 106.181Z" fill="#715DE3"/>
<path d="M230.189 106.181C230.002 107.184 229.043 107.841 228.04 107.655C227.036 107.468 226.379 106.509 226.565 105.506C226.752 104.502 227.711 103.845 228.715 104.032C229.709 104.218 230.375 105.177 230.189 106.181Z" fill="#715DE3"/>
<path d="M244.451 106.181C244.265 107.184 243.306 107.841 242.302 107.655C241.299 107.468 240.642 106.509 240.828 105.506C241.015 104.502 241.974 103.845 242.977 104.032C243.972 104.218 244.638 105.177 244.451 106.181Z" fill="#715DE3"/>
<path d="M258.714 106.181C258.527 107.184 257.568 107.841 256.565 107.655C255.561 107.468 254.904 106.509 255.09 105.506C255.277 104.502 256.236 103.845 257.24 104.032C258.243 104.218 258.9 105.177 258.714 106.181Z" fill="#715DE3"/>
<path d="M201.655 118.197C201.468 119.2 200.509 119.858 199.506 119.671C198.502 119.485 197.845 118.525 198.032 117.522C198.218 116.518 199.177 115.861 200.181 116.048C201.184 116.234 201.841 117.193 201.655 118.197Z" fill="#715DE3"/>
<path d="M215.926 118.197C215.74 119.2 214.781 119.858 213.777 119.671C212.774 119.485 212.116 118.525 212.303 117.522C212.489 116.518 213.448 115.861 214.452 116.048C215.447 116.234 216.104 117.193 215.926 118.197Z" fill="#715DE3"/>
<path d="M230.189 118.197C230.002 119.2 229.043 119.858 228.04 119.671C227.036 119.485 226.379 118.525 226.565 117.522C226.752 116.518 227.711 115.861 228.715 116.048C229.709 116.234 230.375 117.193 230.189 118.197Z" fill="#715DE3"/>
<path d="M244.451 118.197C244.265 119.2 243.306 119.858 242.302 119.671C241.299 119.485 240.642 118.525 240.828 117.522C241.015 116.518 241.974 115.861 242.977 116.048C243.972 116.234 244.638 117.193 244.451 118.197Z" fill="#715DE3"/>
<path d="M258.714 118.197C258.527 119.2 257.568 119.858 256.565 119.671C255.561 119.485 254.904 118.525 255.09 117.522C255.277 116.518 256.236 115.861 257.24 116.048C258.243 116.234 258.9 117.193 258.714 118.197Z" fill="#715DE3"/>
<path d="M201.655 130.212C201.468 131.216 200.509 131.873 199.506 131.686C198.502 131.5 197.845 130.541 198.032 129.537C198.218 128.534 199.177 127.876 200.181 128.063C201.184 128.249 201.841 129.208 201.655 130.212Z" fill="#715DE3"/>
<path d="M215.926 130.212C215.74 131.216 214.781 131.873 213.777 131.686C212.774 131.5 212.116 130.541 212.303 129.537C212.489 128.534 213.448 127.876 214.452 128.063C215.447 128.249 216.104 129.208 215.926 130.212Z" fill="#715DE3"/>
<path d="M230.189 130.212C230.002 131.216 229.043 131.873 228.04 131.686C227.036 131.5 226.379 130.541 226.565 129.537C226.752 128.534 227.711 127.876 228.715 128.063C229.709 128.249 230.375 129.208 230.189 130.212Z" fill="#715DE3"/>
<path d="M244.451 130.212C244.265 131.216 243.306 131.873 242.302 131.686C241.299 131.5 240.642 130.541 240.828 129.537C241.015 128.534 241.974 127.876 242.977 128.063C243.972 128.249 244.638 129.208 244.451 130.212Z" fill="#715DE3"/>
<path d="M258.714 130.212C258.527 131.216 257.568 131.873 256.565 131.686C255.561 131.5 254.904 130.541 255.09 129.537C255.277 128.534 256.236 127.876 257.24 128.063C258.243 128.249 258.9 129.208 258.714 130.212Z" fill="#715DE3"/>
<path d="M201.655 142.228C201.468 143.231 200.509 143.888 199.506 143.702C198.502 143.515 197.845 142.556 198.032 141.553C198.218 140.549 199.177 139.892 200.181 140.079C201.184 140.265 201.841 141.224 201.655 142.228Z" fill="#715DE3"/>
<path d="M215.926 142.228C215.74 143.231 214.781 143.888 213.777 143.702C212.774 143.515 212.116 142.556 212.303 141.553C212.489 140.549 213.448 139.892 214.452 140.079C215.447 140.265 216.104 141.224 215.926 142.228Z" fill="#715DE3"/>
<path d="M230.189 142.228C230.002 143.231 229.043 143.888 228.04 143.702C227.036 143.515 226.379 142.556 226.565 141.553C226.752 140.549 227.711 139.892 228.715 140.079C229.709 140.265 230.375 141.224 230.189 142.228Z" fill="#715DE3"/>
<path d="M244.451 142.228C244.265 143.231 243.306 143.888 242.302 143.702C241.299 143.515 240.642 142.556 240.828 141.553C241.015 140.549 241.974 139.892 242.977 140.079C243.972 140.265 244.638 141.224 244.451 142.228Z" fill="#715DE3"/>
<path d="M258.714 142.228C258.527 143.231 257.568 143.888 256.565 143.702C255.561 143.515 254.904 142.556 255.09 141.553C255.277 140.549 256.236 139.892 257.24 140.079C258.243 140.265 258.9 141.224 258.714 142.228Z" fill="#715DE3"/>
<path d="M201.655 154.244C201.468 155.247 200.509 155.904 199.506 155.718C198.502 155.531 197.845 154.572 198.032 153.569C198.218 152.565 199.177 151.908 200.181 152.095C201.184 152.281 201.841 153.24 201.655 154.244Z" fill="#715DE3"/>
<path d="M215.926 154.244C215.74 155.247 214.781 155.904 213.777 155.718C212.774 155.531 212.116 154.572 212.303 153.569C212.489 152.565 213.448 151.908 214.452 152.095C215.456 152.281 216.104 153.24 215.926 154.244Z" fill="#715DE3"/>
<path d="M230.189 154.244C230.002 155.247 229.043 155.904 228.04 155.718C227.036 155.531 226.379 154.572 226.565 153.569C226.752 152.565 227.711 151.908 228.715 152.095C229.709 152.281 230.375 153.24 230.189 154.244Z" fill="#715DE3"/>
<path d="M244.451 154.244C244.265 155.247 243.306 155.904 242.302 155.718C241.299 155.531 240.642 154.572 240.828 153.569C241.015 152.565 241.974 151.908 242.977 152.095C243.972 152.281 244.638 153.24 244.451 154.244Z" fill="#715DE3"/>
<path d="M258.714 154.244C258.527 155.247 257.568 155.904 256.565 155.718C255.561 155.531 254.904 154.572 255.09 153.569C255.277 152.565 256.236 151.908 257.24 152.095C258.243 152.281 258.9 153.24 258.714 154.244Z" fill="#715DE3"/>
<path d="M201.655 166.259C201.468 167.263 200.509 167.92 199.506 167.734C198.502 167.547 197.845 166.588 198.032 165.584C198.218 164.581 199.177 163.924 200.181 164.11C201.184 164.297 201.841 165.256 201.655 166.259Z" fill="#715DE3"/>
<path d="M215.926 166.259C215.74 167.263 214.781 167.92 213.777 167.734C212.774 167.547 212.116 166.588 212.303 165.584C212.489 164.581 213.448 163.924 214.452 164.11C215.456 164.297 216.104 165.256 215.926 166.259Z" fill="#715DE3"/>
<path d="M230.189 166.259C230.002 167.263 229.043 167.92 228.04 167.734C227.036 167.547 226.379 166.588 226.565 165.584C226.752 164.581 227.711 163.924 228.715 164.11C229.709 164.297 230.375 165.256 230.189 166.259Z" fill="#715DE3"/>
<path d="M244.451 166.259C244.265 167.263 243.306 167.92 242.302 167.734C241.299 167.547 240.642 166.588 240.828 165.584C241.015 164.581 241.974 163.924 242.977 164.11C243.972 164.297 244.638 165.256 244.451 166.259Z" fill="#715DE3"/>
<path d="M258.714 166.259C258.527 167.263 257.568 167.92 256.565 167.734C255.561 167.547 254.904 166.588 255.09 165.584C255.277 164.581 256.236 163.924 257.24 164.11C258.243 164.297 258.9 165.256 258.714 166.259Z" fill="#715DE3"/>
<path d="M201.655 178.275C201.468 179.278 200.509 179.935 199.506 179.749C198.502 179.562 197.845 178.603 198.032 177.6C198.218 176.596 199.177 175.939 200.181 176.125C201.184 176.312 201.841 177.271 201.655 178.275Z" fill="#715DE3"/>
<path d="M215.926 178.275C215.74 179.278 214.781 179.935 213.777 179.749C212.774 179.562 212.116 178.603 212.303 177.6C212.489 176.596 213.448 175.939 214.452 176.125C215.447 176.312 216.104 177.271 215.926 178.275Z" fill="#715DE3"/>
<path d="M230.189 178.275C230.002 179.278 229.043 179.935 228.04 179.749C227.036 179.562 226.379 178.603 226.565 177.6C226.752 176.596 227.711 175.939 228.715 176.125C229.709 176.312 230.375 177.271 230.189 178.275Z" fill="#715DE3"/>
<path d="M244.451 178.275C244.265 179.278 243.306 179.935 242.302 179.749C241.299 179.562 240.642 178.603 240.828 177.6C241.015 176.596 241.974 175.939 242.977 176.125C243.972 176.312 244.638 177.271 244.451 178.275Z" fill="#715DE3"/>
<path d="M258.714 178.275C258.527 179.278 257.568 179.935 256.565 179.749C255.561 179.562 254.904 178.603 255.09 177.6C255.277 176.596 256.236 175.939 257.24 176.125C258.243 176.312 258.9 177.271 258.714 178.275Z" fill="#715DE3"/>
<path d="M201.655 190.291C201.468 191.294 200.509 191.951 199.506 191.765C198.502 191.578 197.845 190.619 198.032 189.616C198.218 188.612 199.177 187.955 200.181 188.141C201.184 188.328 201.841 189.287 201.655 190.291Z" fill="#715DE3"/>
<path d="M215.926 190.291C215.74 191.294 214.781 191.951 213.777 191.765C212.774 191.578 212.116 190.619 212.303 189.616C212.489 188.612 213.448 187.955 214.452 188.141C215.447 188.328 216.104 189.287 215.926 190.291Z" fill="#715DE3"/>
<path d="M230.189 190.291C230.002 191.294 229.043 191.951 228.04 191.765C227.036 191.578 226.379 190.619 226.565 189.616C226.752 188.612 227.711 187.955 228.715 188.141C229.709 188.328 230.375 189.287 230.189 190.291Z" fill="#715DE3"/>
<path d="M244.451 190.291C244.265 191.294 243.306 191.951 242.302 191.765C241.299 191.578 240.642 190.619 240.828 189.616C241.015 188.612 241.974 187.955 242.977 188.141C243.972 188.328 244.638 189.287 244.451 190.291Z" fill="#715DE3"/>
<path d="M258.714 190.291C258.527 191.294 257.568 191.951 256.565 191.765C255.561 191.578 254.904 190.619 255.09 189.616C255.277 188.612 256.236 187.955 257.24 188.141C258.243 188.328 258.9 189.287 258.714 190.291Z" fill="#715DE3"/>
<path d="M201.655 202.306C201.468 203.31 200.509 203.967 199.506 203.78C198.502 203.594 197.845 202.635 198.032 201.631C198.218 200.628 199.177 199.971 200.181 200.157C201.184 200.344 201.841 201.303 201.655 202.306Z" fill="#715DE3"/>
<path d="M215.926 202.306C215.74 203.31 214.781 203.967 213.777 203.78C212.774 203.594 212.116 202.635 212.303 201.631C212.489 200.628 213.448 199.971 214.452 200.157C215.447 200.344 216.104 201.303 215.926 202.306Z" fill="#715DE3"/>
<path d="M230.189 202.306C230.002 203.31 229.043 203.967 228.04 203.78C227.036 203.594 226.379 202.635 226.565 201.631C226.752 200.628 227.711 199.971 228.715 200.157C229.709 200.344 230.375 201.303 230.189 202.306Z" fill="#715DE3"/>
<path d="M244.451 202.306C244.265 203.31 243.306 203.967 242.302 203.78C241.299 203.594 240.642 202.635 240.828 201.631C241.015 200.628 241.974 199.971 242.977 200.157C243.972 200.344 244.638 201.303 244.451 202.306Z" fill="#715DE3"/>
<path d="M258.714 202.306C258.527 203.31 257.568 203.967 256.565 203.78C255.561 203.594 254.904 202.635 255.09 201.631C255.277 200.628 256.236 199.971 257.24 200.157C258.243 200.344 258.9 201.303 258.714 202.306Z" fill="#715DE3"/>
<path d="M201.655 214.321C201.468 215.325 200.509 215.982 199.506 215.796C198.502 215.609 197.845 214.65 198.032 213.646C198.218 212.643 199.177 211.986 200.181 212.172C201.184 212.359 201.841 213.318 201.655 214.321Z" fill="#715DE3"/>
<path d="M215.926 214.321C215.74 215.325 214.781 215.982 213.777 215.796C212.774 215.609 212.116 214.65 212.303 213.646C212.489 212.643 213.448 211.986 214.452 212.172C215.447 212.359 216.104 213.318 215.926 214.321Z" fill="#715DE3"/>
<path d="M230.189 214.321C230.002 215.325 229.043 215.982 228.04 215.796C227.036 215.609 226.379 214.65 226.565 213.646C226.752 212.643 227.711 211.986 228.715 212.172C229.709 212.359 230.375 213.318 230.189 214.321Z" fill="#715DE3"/>
<path d="M244.451 214.321C244.265 215.325 243.306 215.982 242.302 215.796C241.299 215.609 240.642 214.65 240.828 213.646C241.015 212.643 241.974 211.986 242.977 212.172C243.972 212.359 244.638 213.318 244.451 214.321Z" fill="#715DE3"/>
<path d="M258.714 214.321C258.527 215.325 257.568 215.982 256.565 215.796C255.561 215.609 254.904 214.65 255.09 213.646C255.277 212.643 256.236 211.986 257.24 212.172C258.243 212.359 258.9 213.318 258.714 214.321Z" fill="#715DE3"/>
<path d="M201.655 226.338C201.468 227.341 200.509 227.998 199.506 227.812C198.502 227.625 197.845 226.666 198.032 225.663C198.218 224.659 199.177 224.002 200.181 224.188C201.184 224.375 201.841 225.334 201.655 226.338Z" fill="#715DE3"/>
<path d="M215.926 226.338C215.74 227.341 214.781 227.998 213.777 227.812C212.774 227.625 212.116 226.666 212.303 225.663C212.489 224.659 213.448 224.002 214.452 224.188C215.447 224.375 216.104 225.334 215.926 226.338Z" fill="#715DE3"/>
<path d="M230.189 226.338C230.002 227.341 229.043 227.998 228.04 227.812C227.036 227.625 226.379 226.666 226.565 225.663C226.752 224.659 227.711 224.002 228.715 224.188C229.709 224.375 230.375 225.334 230.189 226.338Z" fill="#715DE3"/>
<path d="M244.451 226.338C244.265 227.341 243.306 227.998 242.302 227.812C241.299 227.625 240.642 226.666 240.828 225.663C241.015 224.659 241.974 224.002 242.977 224.188C243.972 224.375 244.638 225.334 244.451 226.338Z" fill="#715DE3"/>
<path d="M258.714 226.338C258.527 227.341 257.568 227.998 256.565 227.812C255.561 227.625 254.904 226.666 255.09 225.663C255.277 224.659 256.236 224.002 257.24 224.188C258.243 224.375 258.9 225.334 258.714 226.338Z" fill="#715DE3"/>
<path d="M272.701 106.181C272.514 107.184 271.555 107.841 270.552 107.655C269.548 107.468 268.891 106.509 269.078 105.506C269.264 104.502 270.223 103.845 271.227 104.032C272.23 104.218 272.887 105.177 272.701 106.181Z" fill="#715DE3"/>
<path d="M286.972 106.181C286.786 107.184 285.827 107.841 284.823 107.655C283.82 107.468 283.162 106.509 283.349 105.506C283.535 104.502 284.495 103.845 285.498 104.032C286.493 104.218 287.15 105.177 286.972 106.181Z" fill="#715DE3"/>
<path d="M301.235 106.181C301.048 107.184 300.089 107.841 299.086 107.655C298.082 107.468 297.425 106.509 297.611 105.506C297.798 104.502 298.757 103.845 299.761 104.032C300.755 104.218 301.421 105.177 301.235 106.181Z" fill="#715DE3"/>
<path d="M315.497 106.181C315.311 107.184 314.352 107.841 313.348 107.655C312.345 107.468 311.688 106.509 311.874 105.506C312.061 104.502 313.02 103.845 314.023 104.032C315.018 104.218 315.684 105.177 315.497 106.181Z" fill="#715DE3"/>
<path d="M329.76 106.181C329.573 107.184 328.614 107.841 327.611 107.655C326.607 107.468 325.95 106.509 326.136 105.506C326.323 104.502 327.282 103.845 328.286 104.032C329.289 104.218 329.946 105.177 329.76 106.181Z" fill="#715DE3"/>
<path d="M272.701 118.197C272.514 119.2 271.555 119.858 270.552 119.671C269.548 119.485 268.891 118.525 269.078 117.522C269.264 116.518 270.223 115.861 271.227 116.048C272.23 116.234 272.887 117.193 272.701 118.197Z" fill="#715DE3"/>
<path d="M286.972 118.197C286.786 119.2 285.827 119.858 284.823 119.671C283.82 119.485 283.162 118.525 283.349 117.522C283.535 116.518 284.495 115.861 285.498 116.048C286.493 116.234 287.15 117.193 286.972 118.197Z" fill="#715DE3"/>
<path d="M301.235 118.197C301.048 119.2 300.089 119.858 299.086 119.671C298.082 119.485 297.425 118.525 297.611 117.522C297.798 116.518 298.757 115.861 299.761 116.048C300.755 116.234 301.421 117.193 301.235 118.197Z" fill="#715DE3"/>
<path d="M315.497 118.197C315.311 119.2 314.352 119.858 313.348 119.671C312.345 119.485 311.688 118.525 311.874 117.522C312.061 116.518 313.02 115.861 314.023 116.048C315.018 116.234 315.684 117.193 315.497 118.197Z" fill="#715DE3"/>
<path d="M329.76 118.197C329.573 119.2 328.614 119.858 327.611 119.671C326.607 119.485 325.95 118.525 326.136 117.522C326.323 116.518 327.282 115.861 328.286 116.048C329.289 116.234 329.946 117.193 329.76 118.197Z" fill="#715DE3"/>
<path d="M272.701 130.212C272.514 131.216 271.555 131.873 270.552 131.686C269.548 131.5 268.891 130.541 269.078 129.537C269.264 128.534 270.223 127.876 271.227 128.063C272.23 128.249 272.887 129.208 272.701 130.212Z" fill="#715DE3"/>
<path d="M286.972 130.212C286.786 131.216 285.827 131.873 284.823 131.686C283.82 131.5 283.162 130.541 283.349 129.537C283.535 128.534 284.495 127.876 285.498 128.063C286.493 128.249 287.15 129.208 286.972 130.212Z" fill="#715DE3"/>
<path d="M301.235 130.212C301.048 131.216 300.089 131.873 299.086 131.686C298.082 131.5 297.425 130.541 297.611 129.537C297.798 128.534 298.757 127.876 299.761 128.063C300.755 128.249 301.421 129.208 301.235 130.212Z" fill="#715DE3"/>
<path d="M315.497 130.212C315.311 131.216 314.352 131.873 313.348 131.686C312.345 131.5 311.688 130.541 311.874 129.537C312.061 128.534 313.02 127.876 314.023 128.063C315.018 128.249 315.684 129.208 315.497 130.212Z" fill="#715DE3"/>
<path d="M329.76 130.212C329.573 131.216 328.614 131.873 327.611 131.686C326.607 131.5 325.95 130.541 326.136 129.537C326.323 128.534 327.282 127.876 328.286 128.063C329.289 128.249 329.946 129.208 329.76 130.212Z" fill="#715DE3"/>
<path d="M272.701 142.228C272.514 143.231 271.555 143.888 270.552 143.702C269.548 143.515 268.891 142.556 269.078 141.553C269.264 140.549 270.223 139.892 271.227 140.079C272.23 140.265 272.887 141.224 272.701 142.228Z" fill="#715DE3"/>
<path d="M286.972 142.228C286.786 143.231 285.827 143.888 284.823 143.702C283.82 143.515 283.162 142.556 283.349 141.553C283.535 140.549 284.495 139.892 285.498 140.079C286.493 140.265 287.15 141.224 286.972 142.228Z" fill="#715DE3"/>
<path d="M301.235 142.228C301.048 143.231 300.089 143.888 299.086 143.702C298.082 143.515 297.425 142.556 297.611 141.553C297.798 140.549 298.757 139.892 299.761 140.079C300.755 140.265 301.421 141.224 301.235 142.228Z" fill="#715DE3"/>
<path d="M315.497 142.228C315.311 143.231 314.352 143.888 313.348 143.702C312.345 143.515 311.688 142.556 311.874 141.553C312.061 140.549 313.02 139.892 314.023 140.079C315.018 140.265 315.684 141.224 315.497 142.228Z" fill="#715DE3"/>
<path d="M329.76 142.228C329.573 143.231 328.614 143.888 327.611 143.702C326.607 143.515 325.95 142.556 326.136 141.553C326.323 140.549 327.282 139.892 328.286 140.079C329.289 140.265 329.946 141.224 329.76 142.228Z" fill="#715DE3"/>
<path d="M272.701 154.244C272.514 155.247 271.555 155.904 270.552 155.718C269.548 155.531 268.891 154.572 269.078 153.569C269.264 152.565 270.223 151.908 271.227 152.095C272.23 152.281 272.887 153.24 272.701 154.244Z" fill="#715DE3"/>
<path d="M286.972 154.244C286.786 155.247 285.827 155.904 284.823 155.718C283.82 155.531 283.162 154.572 283.349 153.569C283.535 152.565 284.495 151.908 285.498 152.095C286.502 152.281 287.15 153.24 286.972 154.244Z" fill="#715DE3"/>
<path d="M301.235 154.244C301.048 155.247 300.089 155.904 299.086 155.718C298.082 155.531 297.425 154.572 297.611 153.569C297.798 152.565 298.757 151.908 299.761 152.095C300.755 152.281 301.421 153.24 301.235 154.244Z" fill="#715DE3"/>
<path d="M315.497 154.244C315.311 155.247 314.352 155.904 313.348 155.718C312.345 155.531 311.688 154.572 311.874 153.569C312.061 152.565 313.02 151.908 314.023 152.095C315.018 152.281 315.684 153.24 315.497 154.244Z" fill="#715DE3"/>
<path d="M329.76 154.244C329.573 155.247 328.614 155.904 327.611 155.718C326.607 155.531 325.95 154.572 326.136 153.569C326.323 152.565 327.282 151.908 328.286 152.095C329.289 152.281 329.946 153.24 329.76 154.244Z" fill="#715DE3"/>
<path d="M272.701 166.259C272.514 167.263 271.555 167.92 270.552 167.734C269.548 167.547 268.891 166.588 269.078 165.584C269.264 164.581 270.223 163.924 271.227 164.11C272.23 164.297 272.887 165.256 272.701 166.259Z" fill="#715DE3"/>
<path d="M286.972 166.259C286.786 167.263 285.827 167.92 284.823 167.734C283.82 167.547 283.162 166.588 283.349 165.584C283.535 164.581 284.495 163.924 285.498 164.11C286.502 164.297 287.15 165.256 286.972 166.259Z" fill="#715DE3"/>
<path d="M301.235 166.259C301.048 167.263 300.089 167.92 299.086 167.734C298.082 167.547 297.425 166.588 297.611 165.584C297.798 164.581 298.757 163.924 299.761 164.11C300.755 164.297 301.421 165.256 301.235 166.259Z" fill="#715DE3"/>
<path d="M315.497 166.259C315.311 167.263 314.352 167.92 313.348 167.734C312.345 167.547 311.688 166.588 311.874 165.584C312.061 164.581 313.02 163.924 314.023 164.11C315.018 164.297 315.684 165.256 315.497 166.259Z" fill="#715DE3"/>
<path d="M329.76 166.259C329.573 167.263 328.614 167.92 327.611 167.734C326.607 167.547 325.95 166.588 326.136 165.584C326.323 164.581 327.282 163.924 328.286 164.11C329.289 164.297 329.946 165.256 329.76 166.259Z" fill="#715DE3"/>
<path d="M272.701 178.275C272.514 179.278 271.555 179.935 270.552 179.749C269.548 179.562 268.891 178.603 269.078 177.6C269.264 176.596 270.223 175.939 271.227 176.125C272.23 176.312 272.887 177.271 272.701 178.275Z" fill="#715DE3"/>
<path d="M286.972 178.275C286.786 179.278 285.827 179.935 284.823 179.749C283.82 179.562 283.162 178.603 283.349 177.6C283.535 176.596 284.495 175.939 285.498 176.125C286.493 176.312 287.15 177.271 286.972 178.275Z" fill="#715DE3"/>
<path d="M301.235 178.275C301.048 179.278 300.089 179.935 299.086 179.749C298.082 179.562 297.425 178.603 297.611 177.6C297.798 176.596 298.757 175.939 299.761 176.125C300.755 176.312 301.421 177.271 301.235 178.275Z" fill="#715DE3"/>
<path d="M315.497 178.275C315.311 179.278 314.352 179.935 313.348 179.749C312.345 179.562 311.688 178.603 311.874 177.6C312.061 176.596 313.02 175.939 314.023 176.125C315.018 176.312 315.684 177.271 315.497 178.275Z" fill="#715DE3"/>
<path d="M329.76 178.275C329.573 179.278 328.614 179.935 327.611 179.749C326.607 179.562 325.95 178.603 326.136 177.6C326.323 176.596 327.282 175.939 328.286 176.125C329.289 176.312 329.946 177.271 329.76 178.275Z" fill="#715DE3"/>
<path d="M272.701 190.291C272.514 191.294 271.555 191.951 270.552 191.765C269.548 191.578 268.891 190.619 269.078 189.616C269.264 188.612 270.223 187.955 271.227 188.141C272.23 188.328 272.887 189.287 272.701 190.291Z" fill="#715DE3"/>
<path d="M286.972 190.291C286.786 191.294 285.827 191.951 284.823 191.765C283.82 191.578 283.162 190.619 283.349 189.616C283.535 188.612 284.495 187.955 285.498 188.141C286.493 188.328 287.15 189.287 286.972 190.291Z" fill="#715DE3"/>
<path d="M301.235 190.291C301.048 191.294 300.089 191.951 299.086 191.765C298.082 191.578 297.425 190.619 297.611 189.616C297.798 188.612 298.757 187.955 299.761 188.141C300.755 188.328 301.421 189.287 301.235 190.291Z" fill="#715DE3"/>
<path d="M315.497 190.291C315.311 191.294 314.352 191.951 313.348 191.765C312.345 191.578 311.688 190.619 311.874 189.616C312.061 188.612 313.02 187.955 314.023 188.141C315.018 188.328 315.684 189.287 315.497 190.291Z" fill="#715DE3"/>
<path d="M329.76 190.291C329.573 191.294 328.614 191.951 327.611 191.765C326.607 191.578 325.95 190.619 326.136 189.616C326.323 188.612 327.282 187.955 328.286 188.141C329.289 188.328 329.946 189.287 329.76 190.291Z" fill="#715DE3"/>
<path d="M272.701 202.306C272.514 203.31 271.555 203.967 270.552 203.78C269.548 203.594 268.891 202.635 269.078 201.631C269.264 200.628 270.223 199.971 271.227 200.157C272.23 200.344 272.887 201.303 272.701 202.306Z" fill="#715DE3"/>
<path d="M286.972 202.306C286.786 203.31 285.827 203.967 284.823 203.78C283.82 203.594 283.162 202.635 283.349 201.631C283.535 200.628 284.495 199.971 285.498 200.157C286.493 200.344 287.15 201.303 286.972 202.306Z" fill="#715DE3"/>
<path d="M301.235 202.306C301.048 203.31 300.089 203.967 299.086 203.78C298.082 203.594 297.425 202.635 297.611 201.631C297.798 200.628 298.757 199.971 299.761 200.157C300.755 200.344 301.421 201.303 301.235 202.306Z" fill="#715DE3"/>
<path d="M315.497 202.306C315.311 203.31 314.352 203.967 313.348 203.78C312.345 203.594 311.688 202.635 311.874 201.631C312.061 200.628 313.02 199.971 314.023 200.157C315.018 200.344 315.684 201.303 315.497 202.306Z" fill="#715DE3"/>
<path d="M329.76 202.306C329.573 203.31 328.614 203.967 327.611 203.78C326.607 203.594 325.95 202.635 326.136 201.631C326.323 200.628 327.282 199.971 328.286 200.157C329.289 200.344 329.946 201.303 329.76 202.306Z" fill="#715DE3"/>
<path d="M272.701 214.321C272.514 215.325 271.555 215.982 270.552 215.796C269.548 215.609 268.891 214.65 269.078 213.646C269.264 212.643 270.223 211.986 271.227 212.172C272.23 212.359 272.887 213.318 272.701 214.321Z" fill="#715DE3"/>
<path d="M286.972 214.321C286.786 215.325 285.827 215.982 284.823 215.796C283.82 215.609 283.162 214.65 283.349 213.646C283.535 212.643 284.495 211.986 285.498 212.172C286.493 212.359 287.15 213.318 286.972 214.321Z" fill="#715DE3"/>
<path d="M301.235 214.321C301.048 215.325 300.089 215.982 299.086 215.796C298.082 215.609 297.425 214.65 297.611 213.646C297.798 212.643 298.757 211.986 299.761 212.172C300.755 212.359 301.421 213.318 301.235 214.321Z" fill="#715DE3"/>
<path d="M315.497 214.321C315.311 215.325 314.352 215.982 313.348 215.796C312.345 215.609 311.688 214.65 311.874 213.646C312.061 212.643 313.02 211.986 314.023 212.172C315.018 212.359 315.684 213.318 315.497 214.321Z" fill="#715DE3"/>
<path d="M329.76 214.321C329.573 215.325 328.614 215.982 327.611 215.796C326.607 215.609 325.95 214.65 326.136 213.646C326.323 212.643 327.282 211.986 328.286 212.172C329.289 212.359 329.946 213.318 329.76 214.321Z" fill="#715DE3"/>
<path d="M272.701 226.338C272.514 227.341 271.555 227.998 270.552 227.812C269.548 227.625 268.891 226.666 269.078 225.663C269.264 224.659 270.223 224.002 271.227 224.188C272.23 224.375 272.887 225.334 272.701 226.338Z" fill="#715DE3"/>
<path d="M286.972 226.338C286.786 227.341 285.827 227.998 284.823 227.812C283.82 227.625 283.162 226.666 283.349 225.663C283.535 224.659 284.495 224.002 285.498 224.188C286.493 224.375 287.15 225.334 286.972 226.338Z" fill="#715DE3"/>
<path d="M301.235 226.338C301.048 227.341 300.089 227.998 299.086 227.812C298.082 227.625 297.425 226.666 297.611 225.663C297.798 224.659 298.757 224.002 299.761 224.188C300.755 224.375 301.421 225.334 301.235 226.338Z" fill="#715DE3"/>
<path d="M315.497 226.338C315.311 227.341 314.352 227.998 313.348 227.812C312.345 227.625 311.688 226.666 311.874 225.663C312.061 224.659 313.02 224.002 314.023 224.188C315.018 224.375 315.684 225.334 315.497 226.338Z" fill="#715DE3"/>
<path d="M329.76 226.338C329.573 227.341 328.614 227.998 327.611 227.812C326.607 227.625 325.95 226.666 326.136 225.663C326.323 224.659 327.282 224.002 328.286 224.188C329.289 224.375 329.946 225.334 329.76 226.338Z" fill="#715DE3"/>
</g>
<g filter="url(#filter0_d_631_1895)">
<rect x="43.9727" y="35.3672" width="270.495" height="174.217" rx="6.877" fill="white"/>
</g>
<path d="M263.428 68H260.599V58.8307H263.554C264.443 58.8307 265.204 59.0142 265.837 59.3814C266.47 59.7455 266.955 60.2693 267.292 60.9529C267.629 61.6334 267.798 62.4483 267.798 63.3974C267.798 64.3526 267.628 65.1749 267.288 65.8644C266.947 66.5509 266.452 67.0792 265.801 67.4493C265.15 67.8164 264.359 68 263.428 68ZM261.709 67.015H263.357C264.115 67.015 264.743 66.8688 265.242 66.5762C265.74 66.2837 266.112 65.8674 266.356 65.3271C266.601 64.7869 266.723 64.1436 266.723 63.3974C266.723 62.6572 266.603 62.0199 266.361 61.4857C266.119 60.9484 265.758 60.5365 265.277 60.2499C264.797 59.9604 264.198 59.8157 263.482 59.8157H261.709V67.015ZM271.541 68.1612C271.105 68.1612 270.71 68.0791 270.354 67.9149C269.999 67.7478 269.717 67.5075 269.508 67.1941C269.299 66.8777 269.195 66.4957 269.195 66.0479C269.195 65.6539 269.272 65.3346 269.428 65.0898C269.583 64.8421 269.79 64.6481 270.05 64.5078C270.31 64.3675 270.596 64.263 270.91 64.1944C271.226 64.1227 271.544 64.066 271.863 64.0242C272.281 63.9705 272.62 63.9302 272.88 63.9033C273.142 63.8735 273.333 63.8243 273.453 63.7556C273.575 63.687 273.636 63.5676 273.636 63.3974V63.3616C273.636 62.9199 273.515 62.5766 273.274 62.3318C273.035 62.0871 272.672 61.9647 272.186 61.9647C271.681 61.9647 271.286 62.0752 270.999 62.296C270.713 62.5169 270.511 62.7527 270.395 63.0034L269.392 62.6453C269.571 62.2274 269.81 61.902 270.108 61.6692C270.41 61.4334 270.738 61.2693 271.093 61.1767C271.451 61.0812 271.804 61.0335 272.15 61.0335C272.371 61.0335 272.624 61.0603 272.911 61.114C273.2 61.1648 273.48 61.2707 273.748 61.4319C274.02 61.5931 274.245 61.8364 274.424 62.1617C274.603 62.4871 274.693 62.9228 274.693 63.4691V68H273.636V67.0687H273.583C273.511 67.218 273.392 67.3777 273.224 67.5478C273.057 67.7179 272.835 67.8627 272.557 67.9821C272.28 68.1015 271.941 68.1612 271.541 68.1612ZM271.702 67.212C272.12 67.212 272.472 67.1299 272.759 66.9658C273.048 66.8016 273.266 66.5897 273.412 66.33C273.562 66.0703 273.636 65.7972 273.636 65.5107V64.5436C273.592 64.5973 273.493 64.6466 273.341 64.6913C273.192 64.7331 273.018 64.7704 272.821 64.8033C272.627 64.8331 272.438 64.86 272.253 64.8839C272.071 64.9048 271.923 64.9227 271.81 64.9376C271.535 64.9734 271.278 65.0316 271.039 65.1122C270.804 65.1898 270.613 65.3077 270.466 65.4659C270.323 65.6211 270.252 65.833 270.252 66.1017C270.252 66.4688 270.387 66.7464 270.659 66.9344C270.934 67.1195 271.281 67.212 271.702 67.212ZM276.621 68V61.123H277.678V68H276.621ZM277.159 59.9768C276.953 59.9768 276.775 59.9067 276.626 59.7664C276.48 59.6261 276.407 59.4575 276.407 59.2605C276.407 59.0635 276.48 58.8948 276.626 58.7546C276.775 58.6143 276.953 58.5441 277.159 58.5441C277.365 58.5441 277.541 58.6143 277.687 58.7546C277.836 58.8948 277.911 59.0635 277.911 59.2605C277.911 59.4575 277.836 59.6261 277.687 59.7664C277.541 59.9067 277.365 59.9768 277.159 59.9768ZM280.67 58.8307V68H279.613V58.8307H280.67ZM283.286 70.5789C283.107 70.5789 282.947 70.564 282.807 70.5341C282.666 70.5072 282.569 70.4804 282.516 70.4535L282.784 69.5223C283.041 69.5879 283.268 69.6118 283.465 69.5939C283.662 69.576 283.836 69.4879 283.989 69.3297C284.144 69.1745 284.286 68.9223 284.414 68.5731L284.611 68.0358L282.068 61.123H283.214L285.112 66.6031H285.184L287.082 61.123H288.229L285.309 69.0029C285.178 69.3581 285.015 69.6521 284.821 69.8849C284.627 70.1207 284.402 70.2953 284.145 70.4087C283.892 70.5222 283.605 70.5789 283.286 70.5789Z" fill="#5D6180"/>
<path d="M69.8334 61.6862C69.7878 61.2266 69.5921 60.8695 69.2464 60.6149C68.9007 60.3604 68.4316 60.2332 67.839 60.2332C67.4363 60.2332 67.0963 60.2901 66.819 60.4041C66.5417 60.5143 66.3289 60.6681 66.1808 60.8657C66.0364 61.0632 65.9642 61.2873 65.9642 61.5381C65.9566 61.747 66.0003 61.9293 66.0953 62.0851C66.1941 62.2409 66.3289 62.3757 66.4999 62.4897C66.6708 62.5998 66.8684 62.6967 67.0925 62.7803C67.3166 62.8601 67.5559 62.9284 67.8105 62.9854L68.8589 63.2362C69.368 63.3501 69.8353 63.5021 70.2607 63.692C70.6862 63.882 71.0547 64.1156 71.3662 64.3929C71.6777 64.6702 71.9189 64.9969 72.0899 65.373C72.2646 65.7491 72.3539 66.1803 72.3577 66.6665C72.3539 67.3807 72.1715 67.9999 71.8107 68.5241C71.4536 69.0446 70.9369 69.4492 70.2607 69.7379C69.5883 70.0228 68.7773 70.1652 67.8276 70.1652C66.8854 70.1652 66.0649 70.0209 65.3659 69.7322C64.6707 69.4435 64.1275 69.0161 63.7362 68.4501C63.3487 67.8802 63.1455 67.1756 63.1265 66.336H65.5141C65.5407 66.7273 65.6527 67.054 65.8503 67.3161C66.0516 67.5744 66.3194 67.7701 66.6537 67.903C66.9918 68.0322 67.3736 68.0968 67.7991 68.0968C68.2169 68.0968 68.5797 68.036 68.8874 67.9144C69.1989 67.7929 69.4402 67.6238 69.6111 67.4073C69.7821 67.1908 69.8675 66.9419 69.8675 66.6608C69.8675 66.3987 69.7897 66.1784 69.6339 65.9998C69.482 65.8213 69.2578 65.6693 68.9615 65.544C68.669 65.4186 68.31 65.3046 67.8845 65.2021L66.6138 64.883C65.6299 64.6436 64.8531 64.2694 64.2832 63.7604C63.7134 63.2513 63.4304 62.5657 63.4342 61.7033C63.4304 60.9967 63.6184 60.3794 63.9983 59.8514C64.382 59.3233 64.9081 58.9112 65.5767 58.6149C66.2453 58.3185 67.0051 58.1704 67.8561 58.1704C68.7222 58.1704 69.4782 58.3185 70.124 58.6149C70.7736 58.9112 71.2788 59.3233 71.6397 59.8514C72.0006 60.3794 72.1867 60.991 72.1981 61.6862H69.8334ZM78.6272 61.2475V63.0709H73.3563V61.2475H78.6272ZM74.5529 59.1505H76.9804V67.3104C76.9804 67.5345 77.0146 67.7093 77.083 67.8347C77.1514 67.9562 77.2463 68.0417 77.3679 68.0911C77.4933 68.1405 77.6376 68.1652 77.801 68.1652C77.9149 68.1652 78.0289 68.1557 78.1429 68.1367C78.2568 68.1139 78.3442 68.0968 78.405 68.0854L78.7868 69.8917C78.6652 69.9297 78.4943 69.9734 78.2739 70.0228C78.0536 70.076 77.7858 70.1083 77.4705 70.1197C76.8854 70.1425 76.3726 70.0646 75.9319 69.886C75.4951 69.7075 75.1551 69.4302 74.9119 69.0541C74.6688 68.678 74.5491 68.2031 74.5529 67.6295V59.1505ZM82.7043 70.1652C82.1459 70.1652 81.6482 70.0684 81.2114 69.8746C80.7745 69.6771 80.4288 69.3865 80.1743 69.0028C79.9236 68.6153 79.7982 68.1329 79.7982 67.5554C79.7982 67.0692 79.8875 66.6608 80.066 66.3303C80.2446 65.9998 80.4877 65.7339 80.7954 65.5326C81.1031 65.3312 81.4526 65.1793 81.8439 65.0767C82.239 64.9741 82.653 64.9019 83.0861 64.8602C83.5952 64.807 84.0054 64.7576 84.3169 64.712C84.6284 64.6626 84.8545 64.5904 84.995 64.4955C85.1356 64.4005 85.2059 64.2599 85.2059 64.0738V64.0396C85.2059 63.6787 85.0919 63.3995 84.864 63.202C84.6398 63.0044 84.3207 62.9057 83.9067 62.9057C83.4698 62.9057 83.1222 63.0025 82.8639 63.1963C82.6056 63.3862 82.4346 63.6255 82.351 63.9142L80.1059 63.7319C80.2199 63.2001 80.444 62.7404 80.7783 62.3529C81.1126 61.9616 81.5438 61.6615 82.0718 61.4526C82.6037 61.2399 83.2191 61.1335 83.9181 61.1335C84.4043 61.1335 84.8697 61.1905 85.3141 61.3044C85.7624 61.4184 86.1594 61.595 86.5051 61.8344C86.8546 62.0737 87.13 62.3814 87.3313 62.7575C87.5327 63.1298 87.6333 63.5761 87.6333 64.0966V70H85.3312V68.7863H85.2629C85.1223 69.0598 84.9342 69.301 84.6987 69.5099C84.4632 69.7151 84.1802 69.8765 83.8497 69.9943C83.5192 70.1083 83.1374 70.1652 82.7043 70.1652ZM83.3995 68.49C83.7566 68.49 84.0719 68.4197 84.3454 68.2791C84.6189 68.1348 84.8336 67.941 84.9893 67.6979C85.1451 67.4548 85.223 67.1794 85.223 66.8716V65.9428C85.147 65.9922 85.0425 66.0378 84.9096 66.0796C84.7804 66.1176 84.6341 66.1537 84.4708 66.1879C84.3074 66.2182 84.1441 66.2467 83.9807 66.2733C83.8174 66.2961 83.6692 66.317 83.5363 66.336C83.2514 66.3778 83.0025 66.4443 82.7898 66.5355C82.5771 66.6266 82.4118 66.7501 82.2941 66.9058C82.1763 67.0578 82.1174 67.2477 82.1174 67.4757C82.1174 67.8062 82.2371 68.0588 82.4764 68.2335C82.7195 68.4045 83.0272 68.49 83.3995 68.49ZM94.1721 61.2475V63.0709H88.9012V61.2475H94.1721ZM90.0978 59.1505H92.5253V67.3104C92.5253 67.5345 92.5595 67.7093 92.6279 67.8347C92.6962 67.9562 92.7912 68.0417 92.9128 68.0911C93.0381 68.1405 93.1825 68.1652 93.3458 68.1652C93.4598 68.1652 93.5738 68.1557 93.6877 68.1367C93.8017 68.1139 93.8891 68.0968 93.9499 68.0854L94.3316 69.8917C94.2101 69.9297 94.0391 69.9734 93.8188 70.0228C93.5985 70.076 93.3307 70.1083 93.0153 70.1197C92.4303 70.1425 91.9175 70.0646 91.4768 69.886C91.0399 69.7075 90.7 69.4302 90.4568 69.0541C90.2137 68.678 90.094 68.2031 90.0978 67.6295V59.1505ZM95.7534 70V61.2475H98.1808V70H95.7534ZM96.9728 60.1192C96.6119 60.1192 96.3023 59.9995 96.044 59.7602C95.7895 59.5171 95.6622 59.2265 95.6622 58.8884C95.6622 58.5541 95.7895 58.2673 96.044 58.0279C96.3023 57.7848 96.6119 57.6632 96.9728 57.6632C97.3337 57.6632 97.6414 57.7848 97.8959 58.0279C98.1542 58.2673 98.2834 58.5541 98.2834 58.8884C98.2834 59.2265 98.1542 59.5171 97.8959 59.7602C97.6414 59.9995 97.3337 60.1192 96.9728 60.1192ZM107.408 63.7433L105.185 63.8801C105.147 63.6901 105.066 63.5192 104.94 63.3672C104.815 63.2115 104.65 63.088 104.445 62.9968C104.243 62.9019 104.002 62.8544 103.721 62.8544C103.345 62.8544 103.028 62.9341 102.769 63.0937C102.511 63.2494 102.382 63.4584 102.382 63.7205C102.382 63.9294 102.465 64.1061 102.633 64.2504C102.8 64.3948 103.087 64.5107 103.493 64.598L105.077 64.9171C105.928 65.0919 106.563 65.373 106.98 65.7605C107.398 66.148 107.607 66.657 107.607 67.2876C107.607 67.8612 107.438 68.3646 107.1 68.7977C106.766 69.2307 106.306 69.5688 105.721 69.812C105.14 70.0513 104.469 70.1709 103.71 70.1709C102.551 70.1709 101.628 69.9297 100.94 69.4473C100.256 68.961 99.8557 68.3 99.7379 67.4643L102.125 67.3389C102.198 67.6922 102.372 67.9619 102.65 68.1481C102.927 68.3304 103.282 68.4216 103.715 68.4216C104.141 68.4216 104.483 68.3399 104.741 68.1766C105.003 68.0094 105.136 67.7948 105.14 67.5326C105.136 67.3123 105.043 67.1319 104.861 66.9913C104.678 66.847 104.397 66.7368 104.017 66.6608L102.502 66.3588C101.647 66.1879 101.01 65.8915 100.593 65.4699C100.179 65.0482 99.9715 64.5107 99.9715 63.8573C99.9715 63.295 100.123 62.8107 100.427 62.4042C100.735 61.9977 101.166 61.6843 101.721 61.464C102.279 61.2437 102.933 61.1335 103.681 61.1335C104.787 61.1335 105.656 61.3671 106.291 61.8344C106.929 62.3016 107.301 62.9379 107.408 63.7433ZM113.791 61.2475V63.0709H108.52V61.2475H113.791ZM109.717 59.1505H112.144V67.3104C112.144 67.5345 112.179 67.7093 112.247 67.8347C112.315 67.9562 112.41 68.0417 112.532 68.0911C112.657 68.1405 112.802 68.1652 112.965 68.1652C113.079 68.1652 113.193 68.1557 113.307 68.1367C113.421 68.1139 113.508 68.0968 113.569 68.0854L113.951 69.8917C113.829 69.9297 113.658 69.9734 113.438 70.0228C113.218 70.076 112.95 70.1083 112.634 70.1197C112.049 70.1425 111.537 70.0646 111.096 69.886C110.659 69.7075 110.319 69.4302 110.076 69.0541C109.833 68.678 109.713 68.2031 109.717 67.6295V59.1505ZM115.373 70V61.2475H117.8V70H115.373ZM116.592 60.1192C116.231 60.1192 115.921 59.9995 115.663 59.7602C115.409 59.5171 115.281 59.2265 115.281 58.8884C115.281 58.5541 115.409 58.2673 115.663 58.0279C115.921 57.7848 116.231 57.6632 116.592 57.6632C116.953 57.6632 117.261 57.7848 117.515 58.0279C117.773 58.2673 117.903 58.5541 117.903 58.8884C117.903 59.2265 117.773 59.5171 117.515 59.7602C117.261 59.9995 116.953 60.1192 116.592 60.1192ZM123.699 70.1709C122.803 70.1709 122.031 69.981 121.386 69.6011C120.744 69.2174 120.25 68.6856 119.904 68.0056C119.562 67.3256 119.391 66.543 119.391 65.6579C119.391 64.7614 119.564 63.975 119.91 63.2988C120.259 62.6188 120.755 62.0889 121.397 61.709C122.039 61.3253 122.803 61.1335 123.688 61.1335C124.451 61.1335 125.12 61.2721 125.694 61.5495C126.267 61.8268 126.721 62.2162 127.055 62.7176C127.39 63.2191 127.574 63.8079 127.608 64.4841H125.317C125.253 64.0472 125.082 63.6958 124.805 63.4299C124.531 63.1602 124.172 63.0253 123.728 63.0253C123.352 63.0253 123.023 63.1279 122.742 63.333C122.464 63.5344 122.248 63.8288 122.092 64.2163C121.936 64.6037 121.859 65.0729 121.859 65.6237C121.859 66.1822 121.935 66.657 122.087 67.0483C122.242 67.4396 122.461 67.7378 122.742 67.9429C123.023 68.1481 123.352 68.2506 123.728 68.2506C124.005 68.2506 124.254 68.1936 124.474 68.0797C124.698 67.9657 124.882 67.8005 125.027 67.5839C125.175 67.3636 125.272 67.0996 125.317 66.7919H127.608C127.57 67.4605 127.388 68.0493 127.061 68.5583C126.738 69.0636 126.292 69.4587 125.722 69.7436C125.152 70.0285 124.478 70.1709 123.699 70.1709ZM136.445 63.7433L134.222 63.8801C134.184 63.6901 134.103 63.5192 133.977 63.3672C133.852 63.2115 133.687 63.088 133.482 62.9968C133.28 62.9019 133.039 62.8544 132.758 62.8544C132.382 62.8544 132.065 62.9341 131.806 63.0937C131.548 63.2494 131.419 63.4584 131.419 63.7205C131.419 63.9294 131.502 64.1061 131.67 64.2504C131.837 64.3948 132.124 64.5107 132.53 64.598L134.114 64.9171C134.965 65.0919 135.599 65.373 136.017 65.7605C136.435 66.148 136.644 66.657 136.644 67.2876C136.644 67.8612 136.475 68.3646 136.137 68.7977C135.803 69.2307 135.343 69.5688 134.758 69.812C134.177 70.0513 133.506 70.1709 132.747 70.1709C131.588 70.1709 130.665 69.9297 129.977 69.4473C129.293 68.961 128.893 68.3 128.775 67.4643L131.162 67.3389C131.235 67.6922 131.409 67.9619 131.687 68.1481C131.964 68.3304 132.319 68.4216 132.752 68.4216C133.178 68.4216 133.52 68.3399 133.778 68.1766C134.04 68.0094 134.173 67.7948 134.177 67.5326C134.173 67.3123 134.08 67.1319 133.898 66.9913C133.715 66.847 133.434 66.7368 133.054 66.6608L131.539 66.3588C130.684 66.1879 130.047 65.8915 129.63 65.4699C129.216 65.0482 129.008 64.5107 129.008 63.8573C129.008 63.295 129.16 62.8107 129.464 62.4042C129.772 61.9977 130.203 61.6843 130.758 61.464C131.316 61.2437 131.97 61.1335 132.718 61.1335C133.824 61.1335 134.693 61.3671 135.328 61.8344C135.966 62.3016 136.338 62.9379 136.445 63.7433Z" fill="#060C3C"/>
<path d="M71.481 135.645C71.481 133.435 73.2718 131.645 75.481 131.645H88.112C90.3211 131.645 92.112 133.435 92.112 135.645V187.245C92.112 189.454 90.3211 191.245 88.112 191.245H75.481C73.2718 191.245 71.481 189.454 71.481 187.245V135.645Z" fill="#F9896B"/>
<path d="M110.451 103.553C110.451 101.344 112.242 99.5527 114.451 99.5527H127.082C129.291 99.5527 131.082 101.344 131.082 103.553V187.246C131.082 189.455 129.291 191.246 127.082 191.246H114.451C112.242 191.246 110.451 189.455 110.451 187.246V103.553Z" fill="#5BDCDA"/>
<path d="M149.42 148.253C149.42 146.044 151.211 144.253 153.42 144.253H166.051C168.261 144.253 170.051 146.044 170.051 148.253V187.246C170.051 189.455 168.261 191.246 166.051 191.246H153.42C151.211 191.246 149.42 189.455 149.42 187.246V148.253Z" fill="#F7A155"/>
<path d="M188.39 126.476C188.39 124.266 190.181 122.476 192.39 122.476H205.021C207.23 122.476 209.021 124.266 209.021 126.476V187.246C209.021 189.455 207.23 191.246 205.021 191.246H192.39C190.181 191.246 188.39 189.455 188.39 187.246V126.476Z" fill="#8052C1"/>
<path d="M227.359 167.738C227.359 165.529 229.15 163.738 231.359 163.738H243.99C246.2 163.738 247.99 165.529 247.99 167.738V187.246C247.99 189.455 246.2 191.246 243.99 191.246H231.359C229.15 191.246 227.359 189.455 227.359 187.246V167.738Z" fill="#FFDC60"/>
<path d="M266.329 116.161C266.329 113.952 268.12 112.161 270.329 112.161H282.96C285.169 112.161 286.96 113.952 286.96 116.161V187.247C286.96 189.456 285.169 191.247 282.96 191.247H270.329C268.12 191.247 266.329 189.456 266.329 187.247V116.161Z" fill="#4687C9"/>
<defs>
<filter id="filter0_d_631_1895" x="0.418321" y="0.982186" width="357.604" height="261.326" filterUnits="userSpaceOnUse" color-interpolation-filters="sRGB">
<feFlood flood-opacity="0" result="BackgroundImageFix"/>
<feColorMatrix in="SourceAlpha" type="matrix" values="0 0 0 0 0 0 0 0 0 0 0 0 0 0 0 0 0 0 127 0" result="hardAlpha"/>
<feMorphology radius="2.29233" operator="erode" in="SourceAlpha" result="effect1_dropShadow_631_1895"/>
<feOffset dy="9.16933"/>
<feGaussianBlur stdDeviation="22.9233"/>
<feColorMatrix type="matrix" values="0 0 0 0 0.0235294 0 0 0 0 0.0470588 0 0 0 0 0.231373 0 0 0 0.08 0"/>
<feBlend mode="normal" in2="BackgroundImageFix" result="effect1_dropShadow_631_1895"/>
<feBlend mode="normal" in="SourceGraphic" in2="effect1_dropShadow_631_1895" result="shape"/>
</filter>
</defs>
</svg>
