<svg width="241" height="237" viewBox="0 0 241 237" fill="none" xmlns="http://www.w3.org/2000/svg">
<g opacity="0.2">
<path d="M93.6149 89.8443C93.4284 90.8479 92.4693 91.505 91.4658 91.3186C90.4622 91.1321 89.8051 90.1729 89.9916 89.1694C90.1781 88.1659 91.1372 87.5087 92.1407 87.6952C93.1442 87.8817 93.8014 88.8408 93.6149 89.8443Z" fill="#715DE3"/>
<path d="M107.886 89.8443C107.7 90.8479 106.741 91.505 105.737 91.3186C104.734 91.1321 104.076 90.1729 104.263 89.1694C104.449 88.1659 105.408 87.5087 106.412 87.6952C107.407 87.8817 108.064 88.8408 107.886 89.8443Z" fill="#715DE3"/>
<path d="M122.149 89.8443C121.962 90.8479 121.003 91.505 120 91.3186C118.996 91.1321 118.339 90.1729 118.526 89.1694C118.712 88.1659 119.671 87.5087 120.675 87.6952C121.669 87.8817 122.335 88.8408 122.149 89.8443Z" fill="#715DE3"/>
<path d="M136.411 89.8443C136.225 90.8479 135.266 91.505 134.262 91.3186C133.259 91.1321 132.601 90.1729 132.788 89.1694C132.974 88.1659 133.934 87.5087 134.937 87.6952C135.932 87.8817 136.598 88.8408 136.411 89.8443Z" fill="#715DE3"/>
<path d="M150.674 89.8443C150.487 90.8479 149.528 91.505 148.525 91.3186C147.521 91.1321 146.864 90.1729 147.05 89.1694C147.237 88.1659 148.196 87.5087 149.2 87.6952C150.203 87.8817 150.86 88.8408 150.674 89.8443Z" fill="#715DE3"/>
<path d="M93.6149 101.86C93.4284 102.864 92.4693 103.521 91.4658 103.335C90.4622 103.148 89.8051 102.189 89.9916 101.186C90.1781 100.182 91.1372 99.5248 92.1407 99.7113C93.1442 99.8978 93.8014 100.857 93.6149 101.86Z" fill="#715DE3"/>
<path d="M107.886 101.86C107.7 102.864 106.741 103.521 105.737 103.335C104.734 103.148 104.076 102.189 104.263 101.186C104.449 100.182 105.408 99.5248 106.412 99.7113C107.407 99.8978 108.064 100.857 107.886 101.86Z" fill="#715DE3"/>
<path d="M122.149 101.86C121.962 102.864 121.003 103.521 120 103.335C118.996 103.148 118.339 102.189 118.526 101.186C118.712 100.182 119.671 99.5248 120.675 99.7113C121.669 99.8978 122.335 100.857 122.149 101.86Z" fill="#715DE3"/>
<path d="M136.411 101.86C136.225 102.864 135.266 103.521 134.262 103.335C133.259 103.148 132.601 102.189 132.788 101.186C132.974 100.182 133.934 99.5248 134.937 99.7113C135.932 99.8978 136.598 100.857 136.411 101.86Z" fill="#715DE3"/>
<path d="M150.674 101.86C150.487 102.864 149.528 103.521 148.525 103.335C147.521 103.148 146.864 102.189 147.05 101.186C147.237 100.182 148.196 99.5248 149.2 99.7113C150.203 99.8978 150.86 100.857 150.674 101.86Z" fill="#715DE3"/>
<path d="M93.6149 113.875C93.4284 114.879 92.4693 115.536 91.4658 115.349C90.4622 115.163 89.8051 114.204 89.9916 113.2C90.1781 112.197 91.1372 111.539 92.1407 111.726C93.1442 111.912 93.8014 112.872 93.6149 113.875Z" fill="#715DE3"/>
<path d="M107.886 113.875C107.7 114.879 106.741 115.536 105.737 115.349C104.734 115.163 104.076 114.204 104.263 113.2C104.449 112.197 105.408 111.539 106.412 111.726C107.407 111.912 108.064 112.872 107.886 113.875Z" fill="#715DE3"/>
<path d="M122.149 113.875C121.962 114.879 121.003 115.536 120 115.349C118.996 115.163 118.339 114.204 118.526 113.2C118.712 112.197 119.671 111.539 120.675 111.726C121.669 111.912 122.335 112.872 122.149 113.875Z" fill="#715DE3"/>
<path d="M136.411 113.875C136.225 114.879 135.266 115.536 134.262 115.349C133.259 115.163 132.601 114.204 132.788 113.2C132.974 112.197 133.934 111.539 134.937 111.726C135.932 111.912 136.598 112.872 136.411 113.875Z" fill="#715DE3"/>
<path d="M150.674 113.875C150.487 114.879 149.528 115.536 148.525 115.349C147.521 115.163 146.864 114.204 147.05 113.2C147.237 112.197 148.196 111.539 149.2 111.726C150.203 111.912 150.86 112.872 150.674 113.875Z" fill="#715DE3"/>
<path d="M93.6149 125.891C93.4284 126.895 92.4693 127.552 91.4658 127.365C90.4622 127.179 89.8051 126.22 89.9916 125.216C90.1781 124.213 91.1372 123.556 92.1407 123.742C93.1442 123.929 93.8014 124.888 93.6149 125.891Z" fill="#715DE3"/>
<path d="M107.886 125.891C107.7 126.895 106.741 127.552 105.737 127.365C104.734 127.179 104.076 126.22 104.263 125.216C104.449 124.213 105.408 123.556 106.412 123.742C107.407 123.929 108.064 124.888 107.886 125.891Z" fill="#715DE3"/>
<path d="M122.149 125.891C121.962 126.895 121.003 127.552 120 127.365C118.996 127.179 118.339 126.22 118.526 125.216C118.712 124.213 119.671 123.556 120.675 123.742C121.669 123.929 122.335 124.888 122.149 125.891Z" fill="#715DE3"/>
<path d="M136.411 125.891C136.225 126.895 135.266 127.552 134.262 127.365C133.259 127.179 132.601 126.22 132.788 125.216C132.974 124.213 133.934 123.556 134.937 123.742C135.932 123.929 136.598 124.888 136.411 125.891Z" fill="#715DE3"/>
<path d="M150.674 125.891C150.487 126.895 149.528 127.552 148.525 127.365C147.521 127.179 146.864 126.22 147.05 125.216C147.237 124.213 148.196 123.556 149.2 123.742C150.203 123.929 150.86 124.888 150.674 125.891Z" fill="#715DE3"/>
<path d="M93.6149 137.907C93.4284 138.911 92.4693 139.568 91.4658 139.382C90.4622 139.195 89.8051 138.236 89.9916 137.232C90.1781 136.229 91.1372 135.572 92.1407 135.758C93.1442 135.945 93.8014 136.904 93.6149 137.907Z" fill="#715DE3"/>
<path d="M107.886 137.907C107.7 138.911 106.741 139.568 105.737 139.382C104.734 139.195 104.076 138.236 104.263 137.232C104.449 136.229 105.408 135.572 106.412 135.758C107.416 135.945 108.064 136.904 107.886 137.907Z" fill="#715DE3"/>
<path d="M122.149 137.907C121.962 138.911 121.003 139.568 120 139.382C118.996 139.195 118.339 138.236 118.526 137.232C118.712 136.229 119.671 135.572 120.675 135.758C121.669 135.945 122.335 136.904 122.149 137.907Z" fill="#715DE3"/>
<path d="M136.411 137.907C136.225 138.911 135.266 139.568 134.262 139.382C133.259 139.195 132.601 138.236 132.788 137.232C132.974 136.229 133.934 135.572 134.937 135.758C135.932 135.945 136.598 136.904 136.411 137.907Z" fill="#715DE3"/>
<path d="M150.674 137.907C150.487 138.911 149.528 139.568 148.525 139.382C147.521 139.195 146.864 138.236 147.05 137.232C147.237 136.229 148.196 135.572 149.2 135.758C150.203 135.945 150.86 136.904 150.674 137.907Z" fill="#715DE3"/>
<path d="M93.6149 149.923C93.4284 150.926 92.4693 151.584 91.4658 151.397C90.4622 151.211 89.8051 150.252 89.9916 149.248C90.1781 148.244 91.1372 147.587 92.1407 147.774C93.1442 147.96 93.8014 148.919 93.6149 149.923Z" fill="#715DE3"/>
<path d="M107.886 149.923C107.7 150.926 106.741 151.584 105.737 151.397C104.734 151.211 104.076 150.252 104.263 149.248C104.449 148.244 105.408 147.587 106.412 147.774C107.416 147.96 108.064 148.919 107.886 149.923Z" fill="#715DE3"/>
<path d="M122.149 149.923C121.962 150.926 121.003 151.584 120 151.397C118.996 151.211 118.339 150.252 118.526 149.248C118.712 148.244 119.671 147.587 120.675 147.774C121.669 147.96 122.335 148.919 122.149 149.923Z" fill="#715DE3"/>
<path d="M136.411 149.923C136.225 150.926 135.266 151.584 134.262 151.397C133.259 151.211 132.601 150.252 132.788 149.248C132.974 148.244 133.934 147.587 134.937 147.774C135.932 147.96 136.598 148.919 136.411 149.923Z" fill="#715DE3"/>
<path d="M150.674 149.923C150.487 150.926 149.528 151.584 148.525 151.397C147.521 151.211 146.864 150.252 147.05 149.248C147.237 148.244 148.196 147.587 149.2 147.774C150.203 147.96 150.86 148.919 150.674 149.923Z" fill="#715DE3"/>
<path d="M93.6149 161.938C93.4284 162.942 92.4693 163.599 91.4658 163.412C90.4622 163.226 89.8051 162.267 89.9916 161.263C90.1781 160.26 91.1372 159.602 92.1407 159.789C93.1442 159.975 93.8014 160.935 93.6149 161.938Z" fill="#715DE3"/>
<path d="M107.886 161.938C107.7 162.942 106.741 163.599 105.737 163.412C104.734 163.226 104.076 162.267 104.263 161.263C104.449 160.26 105.408 159.602 106.412 159.789C107.407 159.975 108.064 160.935 107.886 161.938Z" fill="#715DE3"/>
<path d="M122.149 161.938C121.962 162.942 121.003 163.599 120 163.412C118.996 163.226 118.339 162.267 118.526 161.263C118.712 160.26 119.671 159.602 120.675 159.789C121.669 159.975 122.335 160.935 122.149 161.938Z" fill="#715DE3"/>
<path d="M136.411 161.938C136.225 162.942 135.266 163.599 134.262 163.412C133.259 163.226 132.601 162.267 132.788 161.263C132.974 160.26 133.934 159.602 134.937 159.789C135.932 159.975 136.598 160.935 136.411 161.938Z" fill="#715DE3"/>
<path d="M150.674 161.938C150.487 162.942 149.528 163.599 148.525 163.412C147.521 163.226 146.864 162.267 147.05 161.263C147.237 160.26 148.196 159.602 149.2 159.789C150.203 159.975 150.86 160.935 150.674 161.938Z" fill="#715DE3"/>
<path d="M93.6149 173.954C93.4284 174.957 92.4693 175.614 91.4658 175.428C90.4622 175.241 89.8051 174.282 89.9916 173.279C90.1781 172.275 91.1372 171.618 92.1407 171.805C93.1442 171.991 93.8014 172.95 93.6149 173.954Z" fill="#715DE3"/>
<path d="M107.886 173.954C107.7 174.957 106.741 175.614 105.737 175.428C104.734 175.241 104.076 174.282 104.263 173.279C104.449 172.275 105.408 171.618 106.412 171.805C107.407 171.991 108.064 172.95 107.886 173.954Z" fill="#715DE3"/>
<path d="M122.149 173.954C121.962 174.957 121.003 175.614 120 175.428C118.996 175.241 118.339 174.282 118.526 173.279C118.712 172.275 119.671 171.618 120.675 171.805C121.669 171.991 122.335 172.95 122.149 173.954Z" fill="#715DE3"/>
<path d="M136.411 173.954C136.225 174.957 135.266 175.614 134.262 175.428C133.259 175.241 132.601 174.282 132.788 173.279C132.974 172.275 133.934 171.618 134.937 171.805C135.932 171.991 136.598 172.95 136.411 173.954Z" fill="#715DE3"/>
<path d="M150.674 173.954C150.487 174.957 149.528 175.614 148.525 175.428C147.521 175.241 146.864 174.282 147.05 173.279C147.237 172.275 148.196 171.618 149.2 171.805C150.203 171.991 150.86 172.95 150.674 173.954Z" fill="#715DE3"/>
<path d="M93.6149 185.97C93.4284 186.973 92.4693 187.631 91.4658 187.444C90.4622 187.258 89.8051 186.298 89.9916 185.295C90.1781 184.291 91.1372 183.634 92.1407 183.821C93.1442 184.007 93.8014 184.966 93.6149 185.97Z" fill="#715DE3"/>
<path d="M107.886 185.97C107.7 186.973 106.741 187.631 105.737 187.444C104.734 187.258 104.076 186.298 104.263 185.295C104.449 184.291 105.408 183.634 106.412 183.821C107.407 184.007 108.064 184.966 107.886 185.97Z" fill="#715DE3"/>
<path d="M122.149 185.97C121.962 186.973 121.003 187.631 120 187.444C118.996 187.258 118.339 186.298 118.526 185.295C118.712 184.291 119.671 183.634 120.675 183.821C121.669 184.007 122.335 184.966 122.149 185.97Z" fill="#715DE3"/>
<path d="M136.411 185.97C136.225 186.973 135.266 187.631 134.262 187.444C133.259 187.258 132.601 186.298 132.788 185.295C132.974 184.291 133.934 183.634 134.937 183.821C135.932 184.007 136.598 184.966 136.411 185.97Z" fill="#715DE3"/>
<path d="M150.674 185.97C150.487 186.973 149.528 187.631 148.525 187.444C147.521 187.258 146.864 186.298 147.05 185.295C147.237 184.291 148.196 183.634 149.2 183.821C150.203 184.007 150.86 184.966 150.674 185.97Z" fill="#715DE3"/>
<path d="M93.6149 197.985C93.4284 198.988 92.4693 199.646 91.4658 199.459C90.4622 199.273 89.8051 198.314 89.9916 197.31C90.1781 196.307 91.1372 195.649 92.1407 195.836C93.1442 196.022 93.8014 196.981 93.6149 197.985Z" fill="#715DE3"/>
<path d="M107.886 197.985C107.7 198.988 106.741 199.646 105.737 199.459C104.734 199.273 104.076 198.314 104.263 197.31C104.449 196.307 105.408 195.649 106.412 195.836C107.407 196.022 108.064 196.981 107.886 197.985Z" fill="#715DE3"/>
<path d="M122.149 197.985C121.962 198.988 121.003 199.646 120 199.459C118.996 199.273 118.339 198.314 118.526 197.31C118.712 196.307 119.671 195.649 120.675 195.836C121.669 196.022 122.335 196.981 122.149 197.985Z" fill="#715DE3"/>
<path d="M136.411 197.985C136.225 198.988 135.266 199.646 134.262 199.459C133.259 199.273 132.601 198.314 132.788 197.31C132.974 196.307 133.934 195.649 134.937 195.836C135.932 196.022 136.598 196.981 136.411 197.985Z" fill="#715DE3"/>
<path d="M150.674 197.985C150.487 198.988 149.528 199.646 148.525 199.459C147.521 199.273 146.864 198.314 147.05 197.31C147.237 196.307 148.196 195.649 149.2 195.836C150.203 196.022 150.86 196.981 150.674 197.985Z" fill="#715DE3"/>
<path d="M93.6149 210.001C93.4284 211.004 92.4693 211.661 91.4658 211.475C90.4622 211.288 89.8051 210.329 89.9916 209.326C90.1781 208.322 91.1372 207.665 92.1407 207.851C93.1442 208.038 93.8014 208.997 93.6149 210.001Z" fill="#715DE3"/>
<path d="M107.886 210.001C107.7 211.004 106.741 211.661 105.737 211.475C104.734 211.288 104.076 210.329 104.263 209.326C104.449 208.322 105.408 207.665 106.412 207.851C107.407 208.038 108.064 208.997 107.886 210.001Z" fill="#715DE3"/>
<path d="M122.149 210.001C121.962 211.004 121.003 211.661 120 211.475C118.996 211.288 118.339 210.329 118.526 209.326C118.712 208.322 119.671 207.665 120.675 207.851C121.669 208.038 122.335 208.997 122.149 210.001Z" fill="#715DE3"/>
<path d="M136.411 210.001C136.225 211.004 135.266 211.661 134.262 211.475C133.259 211.288 132.601 210.329 132.788 209.326C132.974 208.322 133.934 207.665 134.937 207.851C135.932 208.038 136.598 208.997 136.411 210.001Z" fill="#715DE3"/>
<path d="M150.674 210.001C150.487 211.004 149.528 211.661 148.525 211.475C147.521 211.288 146.864 210.329 147.05 209.326C147.237 208.322 148.196 207.665 149.2 207.851C150.203 208.038 150.86 208.997 150.674 210.001Z" fill="#715DE3"/>
<path d="M164.661 89.8443C164.475 90.8479 163.515 91.505 162.512 91.3186C161.508 91.1321 160.851 90.1729 161.038 89.1694C161.224 88.1659 162.183 87.5087 163.187 87.6952C164.19 87.8817 164.848 88.8408 164.661 89.8443Z" fill="#715DE3"/>
<path d="M178.932 89.8443C178.746 90.8479 177.787 91.505 176.783 91.3186C175.78 91.1321 175.122 90.1729 175.309 89.1694C175.495 88.1659 176.455 87.5087 177.458 87.6952C178.453 87.8817 179.11 88.8408 178.932 89.8443Z" fill="#715DE3"/>
<path d="M193.195 89.8443C193.008 90.8479 192.049 91.505 191.046 91.3186C190.042 91.1321 189.385 90.1729 189.571 89.1694C189.758 88.1659 190.717 87.5087 191.721 87.6952C192.715 87.8817 193.381 88.8408 193.195 89.8443Z" fill="#715DE3"/>
<path d="M207.457 89.8443C207.271 90.8479 206.312 91.505 205.308 91.3186C204.305 91.1321 203.648 90.1729 203.834 89.1694C204.021 88.1659 204.98 87.5087 205.983 87.6952C206.978 87.8817 207.644 88.8408 207.457 89.8443Z" fill="#715DE3"/>
<path d="M221.72 89.8443C221.533 90.8479 220.574 91.505 219.571 91.3186C218.567 91.1321 217.91 90.1729 218.097 89.1694C218.283 88.1659 219.242 87.5087 220.246 87.6952C221.249 87.8817 221.906 88.8408 221.72 89.8443Z" fill="#715DE3"/>
<path d="M164.661 101.86C164.475 102.864 163.515 103.521 162.512 103.335C161.508 103.148 160.851 102.189 161.038 101.186C161.224 100.182 162.183 99.5248 163.187 99.7113C164.19 99.8978 164.848 100.857 164.661 101.86Z" fill="#715DE3"/>
<path d="M178.932 101.86C178.746 102.864 177.787 103.521 176.783 103.335C175.78 103.148 175.122 102.189 175.309 101.186C175.495 100.182 176.455 99.5248 177.458 99.7113C178.453 99.8978 179.11 100.857 178.932 101.86Z" fill="#715DE3"/>
<path d="M193.195 101.86C193.008 102.864 192.049 103.521 191.046 103.335C190.042 103.148 189.385 102.189 189.571 101.186C189.758 100.182 190.717 99.5248 191.721 99.7113C192.715 99.8978 193.381 100.857 193.195 101.86Z" fill="#715DE3"/>
<path d="M207.457 101.86C207.271 102.864 206.312 103.521 205.308 103.335C204.305 103.148 203.648 102.189 203.834 101.186C204.021 100.182 204.98 99.5248 205.983 99.7113C206.978 99.8978 207.644 100.857 207.457 101.86Z" fill="#715DE3"/>
<path d="M221.72 101.86C221.533 102.864 220.574 103.521 219.571 103.335C218.567 103.148 217.91 102.189 218.097 101.186C218.283 100.182 219.242 99.5248 220.246 99.7113C221.249 99.8978 221.906 100.857 221.72 101.86Z" fill="#715DE3"/>
<path d="M164.661 113.875C164.475 114.879 163.515 115.536 162.512 115.349C161.508 115.163 160.851 114.204 161.038 113.2C161.224 112.197 162.183 111.539 163.187 111.726C164.19 111.912 164.848 112.872 164.661 113.875Z" fill="#715DE3"/>
<path d="M178.932 113.875C178.746 114.879 177.787 115.536 176.783 115.349C175.78 115.163 175.122 114.204 175.309 113.2C175.495 112.197 176.455 111.539 177.458 111.726C178.453 111.912 179.11 112.872 178.932 113.875Z" fill="#715DE3"/>
<path d="M193.195 113.875C193.008 114.879 192.049 115.536 191.046 115.349C190.042 115.163 189.385 114.204 189.571 113.2C189.758 112.197 190.717 111.539 191.721 111.726C192.715 111.912 193.381 112.872 193.195 113.875Z" fill="#715DE3"/>
<path d="M207.457 113.875C207.271 114.879 206.312 115.536 205.308 115.349C204.305 115.163 203.648 114.204 203.834 113.2C204.021 112.197 204.98 111.539 205.983 111.726C206.978 111.912 207.644 112.872 207.457 113.875Z" fill="#715DE3"/>
<path d="M221.72 113.875C221.533 114.879 220.574 115.536 219.571 115.349C218.567 115.163 217.91 114.204 218.097 113.2C218.283 112.197 219.242 111.539 220.246 111.726C221.249 111.912 221.906 112.872 221.72 113.875Z" fill="#715DE3"/>
<path d="M164.661 125.891C164.475 126.895 163.515 127.552 162.512 127.365C161.508 127.179 160.851 126.22 161.038 125.216C161.224 124.213 162.183 123.556 163.187 123.742C164.19 123.929 164.848 124.888 164.661 125.891Z" fill="#715DE3"/>
<path d="M178.932 125.891C178.746 126.895 177.787 127.552 176.783 127.365C175.78 127.179 175.122 126.22 175.309 125.216C175.495 124.213 176.455 123.556 177.458 123.742C178.453 123.929 179.11 124.888 178.932 125.891Z" fill="#715DE3"/>
<path d="M193.195 125.891C193.008 126.895 192.049 127.552 191.046 127.365C190.042 127.179 189.385 126.22 189.571 125.216C189.758 124.213 190.717 123.556 191.721 123.742C192.715 123.929 193.381 124.888 193.195 125.891Z" fill="#715DE3"/>
<path d="M207.457 125.891C207.271 126.895 206.312 127.552 205.308 127.365C204.305 127.179 203.648 126.22 203.834 125.216C204.021 124.213 204.98 123.556 205.983 123.742C206.978 123.929 207.644 124.888 207.457 125.891Z" fill="#715DE3"/>
<path d="M221.72 125.891C221.533 126.895 220.574 127.552 219.571 127.365C218.567 127.179 217.91 126.22 218.097 125.216C218.283 124.213 219.242 123.556 220.246 123.742C221.249 123.929 221.906 124.888 221.72 125.891Z" fill="#715DE3"/>
<path d="M164.661 137.907C164.475 138.911 163.515 139.568 162.512 139.382C161.508 139.195 160.851 138.236 161.038 137.232C161.224 136.229 162.183 135.572 163.187 135.758C164.19 135.945 164.848 136.904 164.661 137.907Z" fill="#715DE3"/>
<path d="M178.932 137.907C178.746 138.911 177.787 139.568 176.783 139.382C175.78 139.195 175.122 138.236 175.309 137.232C175.495 136.229 176.455 135.572 177.458 135.758C178.462 135.945 179.11 136.904 178.932 137.907Z" fill="#715DE3"/>
<path d="M193.195 137.907C193.008 138.911 192.049 139.568 191.046 139.382C190.042 139.195 189.385 138.236 189.571 137.232C189.758 136.229 190.717 135.572 191.721 135.758C192.715 135.945 193.381 136.904 193.195 137.907Z" fill="#715DE3"/>
<path d="M207.457 137.907C207.271 138.911 206.312 139.568 205.308 139.382C204.305 139.195 203.648 138.236 203.834 137.232C204.021 136.229 204.98 135.572 205.983 135.758C206.978 135.945 207.644 136.904 207.457 137.907Z" fill="#715DE3"/>
<path d="M221.72 137.907C221.533 138.911 220.574 139.568 219.571 139.382C218.567 139.195 217.91 138.236 218.097 137.232C218.283 136.229 219.242 135.572 220.246 135.758C221.249 135.945 221.906 136.904 221.72 137.907Z" fill="#715DE3"/>
<path d="M164.661 149.923C164.475 150.926 163.515 151.584 162.512 151.397C161.508 151.211 160.851 150.252 161.038 149.248C161.224 148.244 162.183 147.587 163.187 147.774C164.19 147.96 164.848 148.919 164.661 149.923Z" fill="#715DE3"/>
<path d="M178.932 149.923C178.746 150.926 177.787 151.584 176.783 151.397C175.78 151.211 175.122 150.252 175.309 149.248C175.495 148.244 176.455 147.587 177.458 147.774C178.462 147.96 179.11 148.919 178.932 149.923Z" fill="#715DE3"/>
<path d="M193.195 149.923C193.008 150.926 192.049 151.584 191.046 151.397C190.042 151.211 189.385 150.252 189.571 149.248C189.758 148.244 190.717 147.587 191.721 147.774C192.715 147.96 193.381 148.919 193.195 149.923Z" fill="#715DE3"/>
<path d="M207.457 149.923C207.271 150.926 206.312 151.584 205.308 151.397C204.305 151.211 203.648 150.252 203.834 149.248C204.021 148.244 204.98 147.587 205.983 147.774C206.978 147.96 207.644 148.919 207.457 149.923Z" fill="#715DE3"/>
<path d="M221.72 149.923C221.533 150.926 220.574 151.584 219.571 151.397C218.567 151.211 217.91 150.252 218.097 149.248C218.283 148.244 219.242 147.587 220.246 147.774C221.249 147.96 221.906 148.919 221.72 149.923Z" fill="#715DE3"/>
<path d="M164.661 161.938C164.475 162.942 163.515 163.599 162.512 163.412C161.508 163.226 160.851 162.267 161.038 161.263C161.224 160.26 162.183 159.602 163.187 159.789C164.19 159.975 164.848 160.935 164.661 161.938Z" fill="#715DE3"/>
<path d="M178.932 161.938C178.746 162.942 177.787 163.599 176.783 163.412C175.78 163.226 175.122 162.267 175.309 161.263C175.495 160.26 176.455 159.602 177.458 159.789C178.453 159.975 179.11 160.935 178.932 161.938Z" fill="#715DE3"/>
<path d="M193.195 161.938C193.008 162.942 192.049 163.599 191.046 163.412C190.042 163.226 189.385 162.267 189.571 161.263C189.758 160.26 190.717 159.602 191.721 159.789C192.715 159.975 193.381 160.935 193.195 161.938Z" fill="#715DE3"/>
<path d="M207.457 161.938C207.271 162.942 206.312 163.599 205.308 163.412C204.305 163.226 203.648 162.267 203.834 161.263C204.021 160.26 204.98 159.602 205.983 159.789C206.978 159.975 207.644 160.935 207.457 161.938Z" fill="#715DE3"/>
<path d="M221.72 161.938C221.533 162.942 220.574 163.599 219.571 163.412C218.567 163.226 217.91 162.267 218.097 161.263C218.283 160.26 219.242 159.602 220.246 159.789C221.249 159.975 221.906 160.935 221.72 161.938Z" fill="#715DE3"/>
<path d="M164.661 173.954C164.475 174.957 163.515 175.614 162.512 175.428C161.508 175.241 160.851 174.282 161.038 173.279C161.224 172.275 162.183 171.618 163.187 171.805C164.19 171.991 164.848 172.95 164.661 173.954Z" fill="#715DE3"/>
<path d="M178.932 173.954C178.746 174.957 177.787 175.614 176.783 175.428C175.78 175.241 175.122 174.282 175.309 173.279C175.495 172.275 176.455 171.618 177.458 171.805C178.453 171.991 179.11 172.95 178.932 173.954Z" fill="#715DE3"/>
<path d="M193.195 173.954C193.008 174.957 192.049 175.614 191.046 175.428C190.042 175.241 189.385 174.282 189.571 173.279C189.758 172.275 190.717 171.618 191.721 171.805C192.715 171.991 193.381 172.95 193.195 173.954Z" fill="#715DE3"/>
<path d="M207.457 173.954C207.271 174.957 206.312 175.614 205.308 175.428C204.305 175.241 203.648 174.282 203.834 173.279C204.021 172.275 204.98 171.618 205.983 171.805C206.978 171.991 207.644 172.95 207.457 173.954Z" fill="#715DE3"/>
<path d="M221.72 173.954C221.533 174.957 220.574 175.614 219.571 175.428C218.567 175.241 217.91 174.282 218.097 173.279C218.283 172.275 219.242 171.618 220.246 171.805C221.249 171.991 221.906 172.95 221.72 173.954Z" fill="#715DE3"/>
<path d="M164.661 185.97C164.475 186.973 163.515 187.631 162.512 187.444C161.508 187.258 160.851 186.298 161.038 185.295C161.224 184.291 162.183 183.634 163.187 183.821C164.19 184.007 164.848 184.966 164.661 185.97Z" fill="#715DE3"/>
<path d="M178.932 185.97C178.746 186.973 177.787 187.631 176.783 187.444C175.78 187.258 175.122 186.298 175.309 185.295C175.495 184.291 176.455 183.634 177.458 183.821C178.453 184.007 179.11 184.966 178.932 185.97Z" fill="#715DE3"/>
<path d="M193.195 185.97C193.008 186.973 192.049 187.631 191.046 187.444C190.042 187.258 189.385 186.298 189.571 185.295C189.758 184.291 190.717 183.634 191.721 183.821C192.715 184.007 193.381 184.966 193.195 185.97Z" fill="#715DE3"/>
<path d="M207.457 185.97C207.271 186.973 206.312 187.631 205.308 187.444C204.305 187.258 203.648 186.298 203.834 185.295C204.021 184.291 204.98 183.634 205.983 183.821C206.978 184.007 207.644 184.966 207.457 185.97Z" fill="#715DE3"/>
<path d="M221.72 185.97C221.533 186.973 220.574 187.631 219.571 187.444C218.567 187.258 217.91 186.298 218.097 185.295C218.283 184.291 219.242 183.634 220.246 183.821C221.249 184.007 221.906 184.966 221.72 185.97Z" fill="#715DE3"/>
<path d="M164.661 197.985C164.475 198.988 163.515 199.646 162.512 199.459C161.508 199.273 160.851 198.314 161.038 197.31C161.224 196.307 162.183 195.649 163.187 195.836C164.19 196.022 164.848 196.981 164.661 197.985Z" fill="#715DE3"/>
<path d="M178.932 197.985C178.746 198.988 177.787 199.646 176.783 199.459C175.78 199.273 175.122 198.314 175.309 197.31C175.495 196.307 176.455 195.649 177.458 195.836C178.453 196.022 179.11 196.981 178.932 197.985Z" fill="#715DE3"/>
<path d="M193.195 197.985C193.008 198.988 192.049 199.646 191.046 199.459C190.042 199.273 189.385 198.314 189.571 197.31C189.758 196.307 190.717 195.649 191.721 195.836C192.715 196.022 193.381 196.981 193.195 197.985Z" fill="#715DE3"/>
<path d="M207.457 197.985C207.271 198.988 206.312 199.646 205.308 199.459C204.305 199.273 203.648 198.314 203.834 197.31C204.021 196.307 204.98 195.649 205.983 195.836C206.978 196.022 207.644 196.981 207.457 197.985Z" fill="#715DE3"/>
<path d="M221.72 197.985C221.533 198.988 220.574 199.646 219.571 199.459C218.567 199.273 217.91 198.314 218.097 197.31C218.283 196.307 219.242 195.649 220.246 195.836C221.249 196.022 221.906 196.981 221.72 197.985Z" fill="#715DE3"/>
<path d="M164.661 210.001C164.475 211.004 163.515 211.661 162.512 211.475C161.508 211.288 160.851 210.329 161.038 209.326C161.224 208.322 162.183 207.665 163.187 207.851C164.19 208.038 164.848 208.997 164.661 210.001Z" fill="#715DE3"/>
<path d="M178.932 210.001C178.746 211.004 177.787 211.661 176.783 211.475C175.78 211.288 175.122 210.329 175.309 209.326C175.495 208.322 176.455 207.665 177.458 207.851C178.453 208.038 179.11 208.997 178.932 210.001Z" fill="#715DE3"/>
<path d="M193.195 210.001C193.008 211.004 192.049 211.661 191.046 211.475C190.042 211.288 189.385 210.329 189.571 209.326C189.758 208.322 190.717 207.665 191.721 207.851C192.715 208.038 193.381 208.997 193.195 210.001Z" fill="#715DE3"/>
<path d="M207.457 210.001C207.271 211.004 206.312 211.661 205.308 211.475C204.305 211.288 203.648 210.329 203.834 209.326C204.021 208.322 204.98 207.665 205.983 207.851C206.978 208.038 207.644 208.997 207.457 210.001Z" fill="#715DE3"/>
<path d="M221.72 210.001C221.533 211.004 220.574 211.661 219.571 211.475C218.567 211.288 217.91 210.329 218.097 209.326C218.283 208.322 219.242 207.665 220.246 207.851C221.249 208.038 221.906 208.997 221.72 210.001Z" fill="#715DE3"/>
</g>
<g filter="url(#filter0_d_631_1889)">
<rect x="36.4883" y="29" width="168.597" height="164.851" rx="5.61991" fill="white"/>
</g>
<path d="M57.3901 49.7265C57.3529 49.3508 57.193 49.059 56.9105 48.851C56.628 48.643 56.2446 48.539 55.7603 48.539C55.4312 48.539 55.1534 48.5856 54.9268 48.6787C54.7001 48.7687 54.5263 48.8945 54.4052 49.0559C54.2872 49.2173 54.2283 49.4005 54.2283 49.6054C54.222 49.7761 54.2577 49.9251 54.3354 50.0524C54.4161 50.1797 54.5263 50.2899 54.666 50.383C54.8057 50.4731 54.9671 50.5522 55.1503 50.6205C55.3334 50.6857 55.529 50.7416 55.737 50.7882L56.5938 50.9931C57.0098 51.0862 57.3917 51.2104 57.7394 51.3656C58.0871 51.5208 58.3882 51.7117 58.6428 51.9384C58.8973 52.165 59.0945 52.432 59.2342 52.7393C59.377 53.0466 59.4499 53.399 59.453 53.7964C59.4499 54.38 59.3009 54.886 59.006 55.3144C58.7142 55.7397 58.292 56.0704 57.7394 56.3063C57.1899 56.5391 56.5271 56.6556 55.751 56.6556C54.9811 56.6556 54.3105 56.5376 53.7393 56.3016C53.1712 56.0657 52.7273 55.7165 52.4075 55.2539C52.0908 54.7882 51.9248 54.2124 51.9092 53.5263H53.8604C53.8821 53.846 53.9737 54.113 54.1351 54.3272C54.2997 54.5383 54.5185 54.6982 54.7917 54.8069C55.068 54.9124 55.38 54.9652 55.7277 54.9652C56.0692 54.9652 56.3657 54.9155 56.6171 54.8162C56.8717 54.7168 57.0688 54.5787 57.2085 54.4017C57.3482 54.2248 57.4181 54.0214 57.4181 53.7917C57.4181 53.5775 57.3544 53.3974 57.2271 53.2515C57.103 53.1056 56.9198 52.9815 56.6777 52.879C56.4386 52.7766 56.1452 52.6834 55.7975 52.5996L54.7591 52.3388C53.9551 52.1433 53.3202 51.8375 52.8545 51.4215C52.3889 51.0055 52.1576 50.4451 52.1607 49.7404C52.1576 49.163 52.3113 48.6585 52.6217 48.227C52.9353 47.7955 53.3652 47.4587 53.9116 47.2165C54.458 46.9744 55.0789 46.8533 55.7743 46.8533C56.4821 46.8533 57.0999 46.9744 57.6276 47.2165C58.1585 47.4587 58.5714 47.7955 58.8663 48.227C59.1612 48.6585 59.3133 49.1583 59.3226 49.7265H57.3901ZM62.8116 56.6556C62.3553 56.6556 61.9486 56.5764 61.5916 56.4181C61.2346 56.2566 60.9521 56.0191 60.7441 55.7056C60.5392 55.3889 60.4367 54.9947 60.4367 54.5228C60.4367 54.1254 60.5097 53.7917 60.6556 53.5216C60.8015 53.2515 61.0002 53.0342 61.2516 52.8697C61.5031 52.7052 61.7887 52.581 62.1085 52.4972C62.4313 52.4133 62.7697 52.3544 63.1236 52.3202C63.5396 52.2767 63.8749 52.2364 64.1295 52.1991C64.384 52.1588 64.5687 52.0998 64.6836 52.0222C64.7985 51.9446 64.8559 51.8297 64.8559 51.6776V51.6496C64.8559 51.3547 64.7628 51.1266 64.5765 50.9651C64.3933 50.8037 64.1326 50.723 63.7942 50.723C63.4372 50.723 63.1531 50.8021 62.942 50.9605C62.7309 51.1157 62.5912 51.3113 62.5229 51.5472L60.6882 51.3982C60.7813 50.9636 60.9645 50.5879 61.2377 50.2713C61.5109 49.9515 61.8632 49.7063 62.2947 49.5355C62.7294 49.3617 63.2323 49.2748 63.8035 49.2748C64.2009 49.2748 64.5812 49.3213 64.9444 49.4145C65.3107 49.5076 65.6351 49.6519 65.9176 49.8475C66.2032 50.0431 66.4283 50.2946 66.5928 50.6019C66.7574 50.9061 66.8396 51.2709 66.8396 51.6962V56.5205H64.9583V55.5286H64.9025C64.7876 55.7522 64.6339 55.9493 64.4415 56.12C64.249 56.2877 64.0177 56.4196 63.7476 56.5159C63.4775 56.609 63.1655 56.6556 62.8116 56.6556ZM63.3797 55.2865C63.6716 55.2865 63.9292 55.2291 64.1527 55.1142C64.3763 54.9962 64.5517 54.8379 64.6789 54.6392C64.8062 54.4405 64.8699 54.2155 64.8699 53.964V53.205C64.8078 53.2453 64.7224 53.2826 64.6138 53.3167C64.5082 53.3478 64.3887 53.3773 64.2552 53.4052C64.1217 53.43 63.9882 53.4533 63.8547 53.4751C63.7212 53.4937 63.6002 53.5108 63.4915 53.5263C63.2587 53.5604 63.0553 53.6148 62.8815 53.6893C62.7076 53.7638 62.5726 53.8647 62.4763 53.9919C62.3801 54.1161 62.332 54.2713 62.332 54.4576C62.332 54.7277 62.4298 54.9341 62.6254 55.0769C62.824 55.2166 63.0755 55.2865 63.3797 55.2865ZM70.3624 46.9837V56.5205H68.3787V46.9837H70.3624ZM75.2111 56.6602C74.4754 56.6602 73.8421 56.5112 73.3112 56.2132C72.7835 55.912 72.3768 55.4867 72.0912 54.9372C71.8056 54.3847 71.6628 53.7312 71.6628 52.9768C71.6628 52.241 71.8056 51.5953 72.0912 51.0396C72.3768 50.4839 72.7788 50.0509 73.2972 49.7404C73.8188 49.43 74.4304 49.2748 75.132 49.2748C75.6038 49.2748 76.0431 49.3508 76.4498 49.5029C76.8596 49.6519 77.2166 49.877 77.5208 50.1781C77.8282 50.4793 78.0672 50.858 78.238 51.3144C78.4087 51.7676 78.4941 52.2985 78.4941 52.9069V53.4518H72.4544V52.2224H76.6268C76.6268 51.9368 76.5647 51.6838 76.4405 51.4634C76.3163 51.243 76.144 51.0707 75.9236 50.9465C75.7063 50.8192 75.4533 50.7556 75.1646 50.7556C74.8634 50.7556 74.5965 50.8254 74.3636 50.9651C74.1339 51.1017 73.9538 51.2864 73.8234 51.5193C73.6931 51.749 73.6263 52.0051 73.6232 52.2876V53.4564C73.6232 53.8103 73.6884 54.1161 73.8188 54.3738C73.9523 54.6315 74.1401 54.8301 74.3822 54.9698C74.6244 55.1095 74.9116 55.1794 75.2437 55.1794C75.4641 55.1794 75.6659 55.1483 75.8491 55.0863C76.0323 55.0242 76.189 54.931 76.3194 54.8069C76.4498 54.6827 76.5491 54.5306 76.6174 54.3505L78.4522 54.4716C78.359 54.9124 78.1681 55.2974 77.8794 55.6264C77.5938 55.9524 77.2244 56.207 76.7711 56.3901C76.321 56.5702 75.801 56.6602 75.2111 56.6602ZM85.7398 51.4075L83.9237 51.5193C83.8927 51.364 83.8259 51.2243 83.7235 51.1002C83.621 50.9729 83.486 50.872 83.3184 50.7975C83.1538 50.7199 82.9567 50.6811 82.727 50.6811C82.4196 50.6811 82.1604 50.7463 81.9493 50.8766C81.7382 51.0039 81.6327 51.1747 81.6327 51.3889C81.6327 51.5596 81.701 51.704 81.8375 51.8219C81.9741 51.9399 82.2085 52.0346 82.5407 52.106L83.8353 52.3668C84.5306 52.5096 85.0491 52.7393 85.3906 53.056C85.7321 53.3726 85.9028 53.7886 85.9028 54.3039C85.9028 54.7727 85.7647 55.184 85.4884 55.538C85.2152 55.8919 84.8395 56.1682 84.3615 56.3668C83.8865 56.5624 83.3385 56.6602 82.7177 56.6602C81.7708 56.6602 81.0164 56.4631 80.4545 56.0688C79.8957 55.6714 79.5682 55.1313 79.472 54.4483L81.4231 54.3459C81.4821 54.6346 81.6249 54.855 81.8515 55.0071C82.0781 55.1561 82.3684 55.2306 82.7223 55.2306C83.07 55.2306 83.3494 55.1639 83.5605 55.0304C83.7747 54.8938 83.8834 54.7184 83.8865 54.5042C83.8834 54.3241 83.8073 54.1767 83.6583 54.0618C83.5093 53.9438 83.2796 53.8538 82.9691 53.7917L81.7304 53.5449C81.0319 53.4052 80.512 53.1631 80.1705 52.8185C79.8321 52.4739 79.6629 52.0346 79.6629 51.5006C79.6629 51.0412 79.7871 50.6454 80.0354 50.3132C80.2869 49.981 80.6392 49.7249 81.0925 49.5448C81.5488 49.3648 82.0828 49.2748 82.6944 49.2748C83.5978 49.2748 84.3087 49.4657 84.8271 49.8475C85.3487 50.2294 85.6529 50.7494 85.7398 51.4075ZM95.3977 49.7265C95.3605 49.3508 95.2006 49.059 94.9181 48.851C94.6356 48.643 94.2522 48.539 93.7679 48.539C93.4388 48.539 93.161 48.5856 92.9344 48.6787C92.7077 48.7687 92.5339 48.8945 92.4128 49.0559C92.2948 49.2173 92.2359 49.4005 92.2359 49.6054C92.2296 49.7761 92.2653 49.9251 92.343 50.0524C92.4237 50.1797 92.5339 50.2899 92.6736 50.383C92.8133 50.4731 92.9747 50.5522 93.1579 50.6205C93.341 50.6857 93.5366 50.7416 93.7446 50.7882L94.6014 50.9931C95.0174 51.0862 95.3993 51.2104 95.747 51.3656C96.0947 51.5208 96.3958 51.7117 96.6504 51.9384C96.9049 52.165 97.1021 52.432 97.2418 52.7393C97.3846 53.0466 97.4575 53.399 97.4606 53.7964C97.4575 54.38 97.3085 54.886 97.0136 55.3144C96.7218 55.7397 96.2996 56.0704 95.747 56.3063C95.1975 56.5391 94.5347 56.6556 93.7586 56.6556C92.9887 56.6556 92.3181 56.5376 91.7469 56.3016C91.1788 56.0657 90.7349 55.7165 90.4151 55.2539C90.0984 54.7882 89.9324 54.2124 89.9168 53.5263H91.868C91.8897 53.846 91.9813 54.113 92.1427 54.3272C92.3073 54.5383 92.5261 54.6982 92.7993 54.8069C93.0756 54.9124 93.3876 54.9652 93.7353 54.9652C94.0768 54.9652 94.3733 54.9155 94.6247 54.8162C94.8793 54.7168 95.0764 54.5787 95.2161 54.4017C95.3558 54.2248 95.4257 54.0214 95.4257 53.7917C95.4257 53.5775 95.362 53.3974 95.2347 53.2515C95.1106 53.1056 94.9274 52.9815 94.6853 52.879C94.4462 52.7766 94.1528 52.6834 93.8051 52.5996L92.7667 52.3388C91.9627 52.1433 91.3278 51.8375 90.8621 51.4215C90.3965 51.0055 90.1652 50.4451 90.1683 49.7404C90.1652 49.163 90.3189 48.6585 90.6293 48.227C90.9429 47.7955 91.3728 47.4587 91.9192 47.2165C92.4656 46.9744 93.0865 46.8533 93.7819 46.8533C94.4897 46.8533 95.1075 46.9744 95.6352 47.2165C96.1661 47.4587 96.579 47.7955 96.8739 48.227C97.1688 48.6585 97.3209 49.1583 97.3302 49.7265H95.3977ZM102.584 49.3679V50.858H98.2767V49.3679H102.584ZM99.2546 47.6542H101.238V54.3226C101.238 54.5057 101.266 54.6485 101.322 54.751C101.378 54.8503 101.456 54.9202 101.555 54.9605C101.657 55.0009 101.775 55.0211 101.909 55.0211C102.002 55.0211 102.095 55.0133 102.188 54.9978C102.281 54.9792 102.353 54.9652 102.402 54.9559L102.714 56.432C102.615 56.4631 102.475 56.4988 102.295 56.5391C102.115 56.5826 101.896 56.609 101.639 56.6183C101.161 56.6369 100.742 56.5733 100.381 56.4274C100.024 56.2815 99.7466 56.0548 99.548 55.7475C99.3493 55.4402 99.2515 55.0521 99.2546 54.5833V47.6542ZM105.916 56.6556C105.46 56.6556 105.053 56.5764 104.696 56.4181C104.339 56.2566 104.056 56.0191 103.848 55.7056C103.643 55.3889 103.541 54.9947 103.541 54.5228C103.541 54.1254 103.614 53.7917 103.76 53.5216C103.906 53.2515 104.104 53.0342 104.356 52.8697C104.607 52.7052 104.893 52.581 105.213 52.4972C105.536 52.4133 105.874 52.3544 106.228 52.3202C106.644 52.2767 106.979 52.2364 107.234 52.1991C107.488 52.1588 107.673 52.0998 107.788 52.0222C107.903 51.9446 107.96 51.8297 107.96 51.6776V51.6496C107.96 51.3547 107.867 51.1266 107.681 50.9651C107.498 50.8037 107.237 50.723 106.898 50.723C106.541 50.723 106.257 50.8021 106.046 50.9605C105.835 51.1157 105.696 51.3113 105.627 51.5472L103.792 51.3982C103.886 50.9636 104.069 50.5879 104.342 50.2713C104.615 49.9515 104.968 49.7063 105.399 49.5355C105.834 49.3617 106.337 49.2748 106.908 49.2748C107.305 49.2748 107.685 49.3213 108.049 49.4145C108.415 49.5076 108.739 49.6519 109.022 49.8475C109.308 50.0431 109.533 50.2946 109.697 50.6019C109.862 50.9061 109.944 51.2709 109.944 51.6962V56.5205H108.063V55.5286H108.007C107.892 55.7522 107.738 55.9493 107.546 56.12C107.353 56.2877 107.122 56.4196 106.852 56.5159C106.582 56.609 106.27 56.6556 105.916 56.6556ZM106.484 55.2865C106.776 55.2865 107.034 55.2291 107.257 55.1142C107.481 54.9962 107.656 54.8379 107.783 54.6392C107.911 54.4405 107.974 54.2155 107.974 53.964V53.205C107.912 53.2453 107.827 53.2826 107.718 53.3167C107.613 53.3478 107.493 53.3773 107.359 53.4052C107.226 53.43 107.093 53.4533 106.959 53.4751C106.826 53.4937 106.704 53.5108 106.596 53.5263C106.363 53.5604 106.16 53.6148 105.986 53.6893C105.812 53.7638 105.677 53.8647 105.581 53.9919C105.484 54.1161 105.436 54.2713 105.436 54.4576C105.436 54.7277 105.534 54.9341 105.73 55.0769C105.928 55.2166 106.18 55.2865 106.484 55.2865ZM115.287 49.3679V50.858H110.98V49.3679H115.287ZM111.958 47.6542H113.942V54.3226C113.942 54.5057 113.97 54.6485 114.025 54.751C114.081 54.8503 114.159 54.9202 114.258 54.9605C114.361 55.0009 114.479 55.0211 114.612 55.0211C114.705 55.0211 114.798 55.0133 114.892 54.9978C114.985 54.9792 115.056 54.9652 115.106 54.9559L115.418 56.432C115.318 56.4631 115.179 56.4988 114.999 56.5391C114.819 56.5826 114.6 56.609 114.342 56.6183C113.864 56.6369 113.445 56.5733 113.085 56.4274C112.728 56.2815 112.45 56.0548 112.251 55.7475C112.053 55.4402 111.955 55.0521 111.958 54.5833V47.6542ZM122.441 51.4075L120.625 51.5193C120.594 51.364 120.527 51.2243 120.425 51.1002C120.322 50.9729 120.187 50.872 120.02 50.7975C119.855 50.7199 119.658 50.6811 119.428 50.6811C119.121 50.6811 118.862 50.7463 118.651 50.8766C118.44 51.0039 118.334 51.1747 118.334 51.3889C118.334 51.5596 118.402 51.704 118.539 51.8219C118.676 51.9399 118.91 52.0346 119.242 52.106L120.537 52.3668C121.232 52.5096 121.75 52.7393 122.092 53.056C122.433 53.3726 122.604 53.7886 122.604 54.3039C122.604 54.7727 122.466 55.184 122.19 55.538C121.917 55.8919 121.541 56.1682 121.063 56.3668C120.588 56.5624 120.04 56.6602 119.419 56.6602C118.472 56.6602 117.718 56.4631 117.156 56.0688C116.597 55.6714 116.27 55.1313 116.173 54.4483L118.125 54.3459C118.183 54.6346 118.326 54.855 118.553 55.0071C118.78 55.1561 119.07 55.2306 119.424 55.2306C119.771 55.2306 120.051 55.1639 120.262 55.0304C120.476 54.8938 120.585 54.7184 120.588 54.5042C120.585 54.3241 120.509 54.1767 120.36 54.0618C120.211 53.9438 119.981 53.8538 119.671 53.7917L118.432 53.5449C117.733 53.4052 117.213 53.1631 116.872 52.8185C116.533 52.4739 116.364 52.0346 116.364 51.5006C116.364 51.0412 116.488 50.6454 116.737 50.3132C116.988 49.981 117.341 49.7249 117.794 49.5448C118.25 49.3648 118.784 49.2748 119.396 49.2748C120.299 49.2748 121.01 49.4657 121.529 49.8475C122.05 50.2294 122.354 50.7494 122.441 51.4075Z" fill="#060C3C"/>
<rect x="77.7012" y="154.512" width="114.272" height="5.61991" rx="2.80996" fill="#66BFE6"/>
<rect x="49.6016" y="154.512" width="18.733" height="5.61991" rx="2.80996" fill="#FDD552"/>
<rect x="77.7012" y="167.625" width="114.272" height="5.61991" rx="2.80996" fill="#FFA412"/>
<rect x="49.6016" y="167.625" width="18.733" height="5.61991" rx="2.80996" fill="#FC7462"/>
<path d="M126.629 77.3836C120.825 76.1498 114.779 76.7853 109.358 79.1989C103.937 81.6125 99.4192 85.6803 96.4521 90.8193C93.4851 95.9583 92.2212 101.905 92.8414 107.806C93.4617 113.708 95.9344 119.262 99.905 123.671C103.876 128.081 109.14 131.121 114.945 132.355C120.749 133.588 126.795 132.953 132.216 130.539C137.637 128.126 142.155 124.058 145.122 118.919C148.089 113.78 149.353 107.833 148.733 101.932L120.787 104.869L126.629 77.3836Z" fill="#0169C2"/>
<path d="M132.182 70.974C138.351 72.3913 143.913 75.7252 148.07 80.4979C152.228 85.2705 154.768 91.2369 155.326 97.5419L125.47 100.186L132.182 70.974Z" fill="#FF6060"/>
<defs>
<filter id="filter0_d_631_1889" x="0.895491" y="0.900429" width="239.783" height="236.036" filterUnits="userSpaceOnUse" color-interpolation-filters="sRGB">
<feFlood flood-opacity="0" result="BackgroundImageFix"/>
<feColorMatrix in="SourceAlpha" type="matrix" values="0 0 0 0 0 0 0 0 0 0 0 0 0 0 0 0 0 0 127 0" result="hardAlpha"/>
<feMorphology radius="1.8733" operator="erode" in="SourceAlpha" result="effect1_dropShadow_631_1889"/>
<feOffset dy="7.49322"/>
<feGaussianBlur stdDeviation="18.733"/>
<feColorMatrix type="matrix" values="0 0 0 0 0.0235294 0 0 0 0 0.0470588 0 0 0 0 0.231373 0 0 0 0.08 0"/>
<feBlend mode="normal" in2="BackgroundImageFix" result="effect1_dropShadow_631_1889"/>
<feBlend mode="normal" in="SourceGraphic" in2="effect1_dropShadow_631_1889" result="shape"/>
</filter>
</defs>
</svg>
