<svg width="16" height="16" viewBox="0 0 16 16" fill="none" xmlns="http://www.w3.org/2000/svg">
<g clip-path="url(#clip0_549_6234)">
<path d="M16 13.3V10.45C16 9.89772 15.5523 9.45 15 9.45H12.15C11.5977 9.45 11.15 9.89772 11.15 10.45C11.15 11.0023 11.5977 11.45 12.15 11.45H12.9141C11.8099 13.0327 10.0002 14 8 14C5.51128 14 3.31725 12.5027 2.41044 10.1855C2.20913 9.67122 1.629 9.4175 1.11475 9.61875C0.600438 9.82003 0.346687 10.4001 0.547969 10.9144C1.12794 12.3964 2.12756 13.6615 3.43878 14.5729C4.78181 15.5065 6.35903 16 8 16C9.64097 16 11.2182 15.5065 12.5612 14.573C13.0948 14.202 13.5769 13.7725 14 13.2936V13.2999C14 13.8522 14.4477 14.2999 15 14.2999C15.5523 14.2999 16 13.8522 16 13.3ZM14.8853 6.38122C14.371 6.58253 13.7909 6.32872 13.5896 5.81444C12.6827 3.49725 10.4887 2 8 2C6.04228 2 4.26706 2.92669 3.15719 4.45H3.84997C4.40225 4.45 4.84997 4.89772 4.84997 5.45C4.84997 6.00228 4.40225 6.45 3.84997 6.45H1C0.447719 6.45 0 6.00228 0 5.45V2.6C0 2.04772 0.447719 1.6 1 1.6C1.55228 1.6 2 2.04772 2 2.6V2.70638C2.42312 2.2275 2.90516 1.79797 3.43878 1.42703C4.78181 0.493469 6.35903 0 8 0C9.64097 0 11.2182 0.493469 12.5612 1.42703C13.8724 2.3385 14.8721 3.60359 15.452 5.08556C15.6533 5.59984 15.3996 6.17994 14.8853 6.38122Z" fill="white"/>
</g>
<defs>
<clipPath id="clip0_549_6234">
<rect width="16" height="16" fill="white" transform="matrix(1 0 0 -1 0 16)"/>
</clipPath>
</defs>
</svg>
