<svg width="36" height="36" viewBox="0 0 36 36" fill="none" xmlns="http://www.w3.org/2000/svg">
<path d="M18 3.375C17.8508 3.375 17.7077 3.31574 17.6022 3.21025C17.4967 3.10476 17.4375 2.96168 17.4375 2.8125V1.6875C17.4375 1.53832 17.4967 1.39524 17.6022 1.28975C17.7077 1.18426 17.8508 1.125 18 1.125C18.1492 1.125 18.2922 1.18426 18.3977 1.28975C18.5032 1.39524 18.5625 1.53832 18.5625 1.6875V2.8125C18.5625 2.96168 18.5032 3.10476 18.3977 3.21025C18.2922 3.31574 18.1492 3.375 18 3.375ZM13.2187 4.65581C13.1199 4.65591 13.0228 4.62996 12.9372 4.58059C12.8515 4.53121 12.7805 4.46015 12.731 4.37456L12.1685 3.40031C12.0951 3.27119 12.0758 3.11826 12.1147 2.97491C12.1536 2.83156 12.2476 2.70943 12.3763 2.63516C12.5049 2.56089 12.6577 2.54051 12.8013 2.57848C12.9449 2.61645 13.0677 2.70967 13.1428 2.83781L13.7053 3.81206C13.7546 3.89753 13.7806 3.99448 13.7806 4.09317C13.7807 4.19186 13.7547 4.28882 13.7054 4.37431C13.6561 4.45981 13.5852 4.53082 13.4998 4.58024C13.4143 4.62965 13.3174 4.65571 13.2187 4.65581ZM22.7812 4.65581C22.6825 4.65571 22.5856 4.62965 22.5002 4.58024C22.4147 4.53082 22.3438 4.45981 22.2945 4.37431C22.2452 4.28882 22.2193 4.19186 22.2193 4.09317C22.2193 3.99448 22.2453 3.89753 22.2947 3.81206L22.8572 2.83781C22.9323 2.70967 23.055 2.61645 23.1986 2.57848C23.3422 2.54051 23.495 2.56089 23.6237 2.63516C23.7523 2.70943 23.8464 2.83156 23.8853 2.97491C23.9242 3.11826 23.9048 3.27119 23.8314 3.40031L23.2689 4.37456C23.2195 4.46015 23.1484 4.53121 23.0628 4.58059C22.9772 4.62996 22.8801 4.65591 22.7812 4.65581ZM33.5953 13.1439C33.6084 13.0438 33.615 12.9429 33.615 12.8419C33.6129 12.3264 33.4345 11.8272 33.1094 11.4272C32.7843 11.0271 32.3321 10.7504 31.8279 10.6431C31.2515 10.5358 30.6558 10.6522 30.1621 10.9685C29.6684 11.2848 29.3137 11.7773 29.1701 12.3457L27.2148 19.251C26.9994 19.2977 26.792 19.376 26.5995 19.4833L21.627 22.3982C20.8666 22.8462 20.2359 23.4845 19.7972 24.2502C19.3585 25.016 19.1268 25.8829 19.125 26.7654V33.75C19.125 33.8992 19.1842 34.0423 19.2897 34.1477C19.3952 34.2532 19.5383 34.3125 19.6875 34.3125C19.8367 34.3125 19.9797 34.2532 20.0852 34.1477C20.1907 34.0423 20.25 33.8992 20.25 33.75V26.7654C20.2514 26.079 20.4316 25.4048 20.7729 24.8093C21.1142 24.2137 21.6047 23.7173 22.1962 23.3691L27.1653 20.4559C27.2933 20.3808 27.4349 20.3319 27.5819 20.3118C27.7289 20.2917 27.8784 20.3008 28.0219 20.3388C28.1653 20.3767 28.2998 20.4426 28.4177 20.5327C28.5355 20.6229 28.6344 20.7354 28.7086 20.8639C28.7828 20.9924 28.8308 21.1343 28.8499 21.2814C28.8691 21.4285 28.8589 21.578 28.82 21.7212C28.7811 21.8643 28.7143 21.9984 28.6234 22.1157C28.5325 22.2329 28.4193 22.331 28.2903 22.4044L25.0667 24.2657C25.0022 24.3024 24.9456 24.3514 24.9001 24.41C24.8547 24.4687 24.8213 24.5357 24.8018 24.6073C24.7824 24.6789 24.7773 24.7536 24.7869 24.8272C24.7964 24.9007 24.8205 24.9717 24.8575 25.0359C24.8946 25.1002 24.9441 25.1564 25.003 25.2015C25.0619 25.2466 25.1292 25.2795 25.2009 25.2985C25.2726 25.3175 25.3474 25.322 25.4209 25.312C25.4944 25.3019 25.5652 25.2775 25.6292 25.2399L28.8528 23.3786C29.3134 23.114 29.6649 22.6943 29.8445 22.1944C30.0241 21.6946 30.0201 21.1471 29.8333 20.6499L31.3773 14.8967C31.4474 14.6055 31.6243 14.3514 31.8731 14.1847C32.1218 14.0179 32.4241 13.9508 32.72 13.9967C32.9716 14.05 33.1975 14.1876 33.3603 14.3868C33.523 14.5859 33.6129 14.8347 33.615 15.0919C33.6157 15.1908 33.6032 15.2893 33.5778 15.3849L31.1315 24.5154C31.0459 24.8341 30.869 25.1207 30.6225 25.3401L26.8194 28.7207C26.5222 28.9848 26.2843 29.3088 26.1216 29.6716C25.9588 30.0343 25.8747 30.4274 25.875 30.825V33.75C25.875 33.8992 25.9342 34.0423 26.0397 34.1477C26.1452 34.2532 26.2883 34.3125 26.4375 34.3125C26.5867 34.3125 26.7297 34.2532 26.8352 34.1477C26.9407 34.0423 27 33.8992 27 33.75V30.825C27 30.5867 27.0505 30.3511 27.1481 30.1338C27.2457 29.9164 27.3883 29.7222 27.5664 29.5639L31.3706 26.1827C31.7816 25.8166 32.0761 25.3381 32.2177 24.8062L34.664 15.6769C34.7153 15.4859 34.7408 15.289 34.74 15.0913C34.7374 14.6947 34.6303 14.3058 34.4293 13.9638C34.2283 13.6219 33.9406 13.3391 33.5953 13.1439ZM30.2912 14.6064L28.9608 19.5609C28.7798 19.4408 28.5824 19.3474 28.3747 19.2836L30.2546 12.6461C30.3258 12.3554 30.5032 12.1019 30.7518 11.9353C31.0005 11.7688 31.3025 11.7013 31.5984 11.7461C31.8498 11.7995 32.0754 11.9373 32.2376 12.1366C32.3998 12.336 32.4889 12.5849 32.49 12.8419V12.8497C31.9822 12.8627 31.4926 13.0412 31.0956 13.3581C30.6987 13.6751 30.4162 14.113 30.2912 14.6053V14.6064ZM14.373 22.3982L9.3971 19.4816C9.20566 19.3747 8.99942 19.2968 8.7851 19.2504L6.8321 12.3525C6.68996 11.7821 6.33534 11.2874 5.84071 10.9697C5.34609 10.652 4.7488 10.5351 4.17091 10.6431C3.66701 10.7508 3.2151 11.0276 2.89023 11.4276C2.56536 11.8275 2.38707 12.3266 2.38497 12.8419C2.38496 12.9429 2.39154 13.0438 2.40466 13.1439C1.97111 13.3877 1.63086 13.7686 1.4374 14.2268C1.24394 14.685 1.20824 15.1945 1.33591 15.6752L3.78222 24.8062C3.9245 25.3371 4.2192 25.8147 4.62991 26.1799L8.43354 29.5605C8.61206 29.7192 8.75487 29.914 8.85252 30.1319C8.95017 30.3499 9.00043 30.5861 8.99997 30.825V33.75C8.99997 33.8992 9.05924 34.0423 9.16473 34.1477C9.27021 34.2532 9.41329 34.3125 9.56247 34.3125C9.71166 34.3125 9.85473 34.2532 9.96022 34.1477C10.0657 34.0423 10.125 33.8992 10.125 33.75V30.825C10.1249 30.4278 10.0407 30.0351 9.87793 29.6728C9.71515 29.3105 9.47747 28.9868 9.18054 28.7229L5.37804 25.3423C5.13117 25.1232 4.95398 24.8365 4.86841 24.5177L2.42154 15.3838C2.383 15.2361 2.37483 15.0821 2.39751 14.9311C2.42019 14.7802 2.47325 14.6354 2.55349 14.5055C2.63373 14.3756 2.73947 14.2634 2.86433 14.1755C2.98919 14.0877 3.13057 14.0261 3.27991 13.9944C3.57584 13.9484 3.87824 14.0155 4.12701 14.1822C4.37577 14.349 4.55269 14.6032 4.6226 14.8944L6.16666 20.6477C5.97983 21.1449 5.97586 21.6923 6.15546 22.1922C6.33506 22.6921 6.68654 23.1118 7.1471 23.3764L10.3708 25.2377C10.4348 25.2752 10.5056 25.2997 10.5791 25.3097C10.6526 25.3198 10.7273 25.3152 10.799 25.2962C10.8708 25.2773 10.938 25.2443 10.9969 25.1993C11.0559 25.1542 11.1053 25.0979 11.1424 25.0337C11.1795 24.9694 11.2035 24.8985 11.2131 24.8249C11.2226 24.7514 11.2176 24.6766 11.1981 24.605C11.1787 24.5335 11.1453 24.4664 11.0998 24.4078C11.0544 24.3492 10.9978 24.3001 10.9333 24.2634L7.7096 22.4044C7.48976 22.2784 7.31905 22.0817 7.22527 21.8463C7.1315 21.6109 7.12018 21.3507 7.19317 21.1081C7.26615 20.8655 7.41914 20.6547 7.62721 20.5101C7.83528 20.3655 8.08618 20.2957 8.33904 20.3119H8.34354C8.51497 20.3206 8.68198 20.3694 8.83122 20.4542L13.8037 23.3691C14.3952 23.7173 14.8858 24.2137 15.227 24.8093C15.5683 25.4048 15.7485 26.079 15.75 26.7654V33.75C15.75 33.8992 15.8092 34.0423 15.9147 34.1477C16.0202 34.2532 16.1633 34.3125 16.3125 34.3125C16.4617 34.3125 16.6047 34.2532 16.7102 34.1477C16.8157 34.0423 16.875 33.8992 16.875 33.75V26.7654C16.8731 25.8829 16.6414 25.016 16.2027 24.2502C15.764 23.4845 15.1334 22.8462 14.373 22.3982ZM7.0391 19.5604L5.70879 14.6053C5.58424 14.1129 5.30205 13.6747 4.90526 13.3577C4.50846 13.0406 4.01885 12.862 3.5111 12.8492V12.8419C3.51175 12.5847 3.60047 12.3356 3.76249 12.1359C3.92451 11.9362 4.15004 11.7981 4.40154 11.7444C4.6991 11.6987 5.00296 11.7668 5.25261 11.935C5.50226 12.1033 5.67939 12.3594 5.74872 12.6523L7.62522 19.2825C7.4174 19.3462 7.21996 19.4398 7.0391 19.5604Z" fill="#ECAA01" stroke="#ECAA01" stroke-width="0.3"/>
<path d="M22.2797 19.9569C22.457 19.9554 22.6315 19.9122 22.7891 19.8308C22.9467 19.7495 23.083 19.6323 23.187 19.4886C23.291 19.3449 23.3598 19.1788 23.3878 19.0037C23.4159 18.8286 23.4024 18.6493 23.3484 18.4804L21.9664 14.2267L25.5844 11.5976C25.7764 11.4581 25.9194 11.2614 25.9929 11.0356C26.0663 10.8099 26.0665 10.5667 25.9933 10.3408C25.9202 10.115 25.7775 9.91805 25.5856 9.77825C25.3937 9.63845 25.1625 9.56293 24.9251 9.5625H20.4521L19.0689 5.30887C18.995 5.0838 18.8518 4.88782 18.6599 4.74889C18.468 4.60995 18.2371 4.53516 18.0002 4.53516C17.7633 4.53516 17.5324 4.60995 17.3405 4.74889C17.1486 4.88782 17.0054 5.0838 16.9314 5.30887L15.5483 9.5625H11.0753C10.8377 9.56257 10.6063 9.63784 10.4141 9.7775C10.222 9.91717 10.079 10.1141 10.0056 10.34C9.93224 10.5659 9.93226 10.8093 10.0057 11.0352C10.0791 11.2611 10.2221 11.458 10.4143 11.5976L14.0323 14.2267L12.6503 18.4804C12.5768 18.7063 12.5768 18.9498 12.6502 19.1758C12.7236 19.4017 12.8667 19.5987 13.059 19.7383C13.2512 19.878 13.4827 19.9532 13.7203 19.9531C13.9579 19.9531 14.1894 19.8778 14.3816 19.7381L18.0002 17.1096L21.6188 19.7381C21.8102 19.8795 22.0417 19.9561 22.2797 19.9569ZM18.0002 15.9834C17.7625 15.9836 17.5309 16.059 17.3387 16.1989L13.7207 18.828L15.1028 14.5744C15.1761 14.3484 15.1761 14.105 15.1026 13.8791C15.0292 13.6531 14.8861 13.4562 14.6938 13.3166L11.0753 10.6875H15.5483C15.7856 10.6872 16.0168 10.6119 16.2088 10.4723C16.4008 10.3327 16.5437 10.1359 16.617 9.91013L18.0002 5.64919V5.6565L19.3823 9.91013C19.4557 10.1361 19.5987 10.333 19.7909 10.4726C19.9831 10.6123 20.2146 10.6875 20.4521 10.6875H24.9251L21.3071 13.3161C21.1147 13.4556 20.9714 13.6526 20.8978 13.8786C20.8242 14.1047 20.8242 14.3483 20.8976 14.5744L22.2797 18.828L18.6617 16.2C18.4696 16.0597 18.238 15.9839 18.0002 15.9834ZM8.46357 7.51838L9.43725 8.08088C9.50125 8.11839 9.57204 8.14288 9.64553 8.15293C9.71903 8.16298 9.79379 8.15839 9.86551 8.13943C9.93723 8.12047 10.0045 8.08751 10.0634 8.04245C10.1223 7.99739 10.1718 7.94112 10.2089 7.87687C10.246 7.81263 10.27 7.74168 10.2795 7.66812C10.2891 7.59455 10.284 7.51983 10.2646 7.44824C10.2451 7.37664 10.2117 7.30961 10.1663 7.25098C10.1208 7.19235 10.0642 7.14329 9.99975 7.10662L9.02607 6.54412C8.89694 6.47071 8.74402 6.45135 8.60067 6.49027C8.45732 6.52918 8.33518 6.62322 8.26091 6.75186C8.18664 6.8805 8.16627 7.03329 8.20423 7.17689C8.2422 7.3205 8.33543 7.44325 8.46357 7.51838ZM26.2824 8.15625C26.3812 8.15625 26.4782 8.13025 26.5637 8.08088L27.5374 7.51838C27.6655 7.44325 27.7587 7.3205 27.7967 7.17689C27.8347 7.03329 27.8143 6.8805 27.74 6.75186C27.6658 6.62322 27.5436 6.52918 27.4003 6.49027C27.2569 6.45135 27.104 6.47071 26.9749 6.54412L26.0012 7.10662C25.894 7.16854 25.8102 7.26411 25.7628 7.3785C25.7154 7.4929 25.7071 7.61974 25.7391 7.73934C25.7712 7.85894 25.8418 7.96462 25.94 8.04C26.0383 8.11538 26.1586 8.15624 26.2824 8.15625Z" fill="#ECAA01" stroke="#ECAA01" stroke-width="0.3"/>
</svg>
